M48
;DRILL file {KiCad (5.0.1-3-g963ef8bb5)} date Friday, 23 November 2018 at 10:32:18
;FORMAT={-:-/ absolute / metric / decimal}
FMAT,2
METRIC,TZ
T1C0.254
T2C0.330
T3C0.460
T4C1.000
%
G90
G05
M71
T1
X136.968Y-107.968
X137.25Y-86.25
X137.25Y-88.25
X137.25Y-90.25
X137.25Y-92.25
X137.25Y-94.25
X137.25Y-96.25
X137.25Y-98.25
X137.25Y-100.25
X137.25Y-102.25
X137.25Y-104.25
X137.25Y-106.25
X137.25Y-110.25
X140.9Y-109.25
X142.5Y-85.9
X144.3Y-92.085
X147.Y-89.5
X148.844Y-106.2
X149.987Y-98.453
X149.987Y-96.505
X150.937Y-99.105
X155.05Y-113.5
X156.845Y-99.105
T2
X143.Y-111.25
X143.Y-112.4
X143.Y-113.5
X143.Y-114.6
X143.Y-115.75
X144.25Y-111.25
X144.25Y-112.4
X144.25Y-113.5
X144.25Y-114.6
X144.25Y-115.75
X145.5Y-111.25
X145.5Y-112.4
X145.5Y-113.5
X145.5Y-114.6
X145.5Y-115.75
T3
X155.83Y-85.28
X155.83Y-94.04
T4
X131.318Y-106.68
X131.318Y-109.22
X131.318Y-111.76
X131.318Y-114.3
X131.318Y-116.84
X131.318Y-119.38
X133.858Y-106.68
X133.858Y-109.22
X133.858Y-111.76
X133.858Y-114.3
X133.858Y-116.84
X133.858Y-119.38
X131.318Y-83.82
X131.318Y-86.36
X131.318Y-88.9
X131.318Y-91.44
X131.318Y-93.98
X131.318Y-96.52
X133.858Y-83.82
X133.858Y-86.36
X133.858Y-88.9
X133.858Y-91.44
X133.858Y-93.98
X133.858Y-96.52
X137.287Y-119.38
X139.827Y-119.38
X142.367Y-119.38
T0
M30
