G04 #@! TF.GenerationSoftware,KiCad,Pcbnew,(5.0.1-3-g963ef8bb5)*
G04 #@! TF.CreationDate,2018-11-21T19:49:20+01:00*
G04 #@! TF.ProjectId,DAC_ISL5857,4441435F49534C353835372E6B696361,A*
G04 #@! TF.SameCoordinates,Original*
G04 #@! TF.FileFunction,Soldermask,Top*
G04 #@! TF.FilePolarity,Negative*
%FSLAX46Y46*%
G04 Gerber Fmt 4.6, Leading zero omitted, Abs format (unit mm)*
G04 Created by KiCad (PCBNEW (5.0.1-3-g963ef8bb5)) date Wednesday, 21 November 2018 at 19:49:20*
%MOMM*%
%LPD*%
G01*
G04 APERTURE LIST*
%ADD10C,0.100000*%
G04 APERTURE END LIST*
D10*
G36*
X142455362Y-118483545D02*
X142543588Y-118492234D01*
X142656789Y-118526573D01*
X142713390Y-118543743D01*
X142851980Y-118617822D01*
X142869879Y-118627389D01*
X142905609Y-118656712D01*
X143007044Y-118739956D01*
X143090122Y-118841189D01*
X143119611Y-118877121D01*
X143119612Y-118877123D01*
X143203257Y-119033610D01*
X143207730Y-119048357D01*
X143254766Y-119203412D01*
X143272158Y-119380000D01*
X143254766Y-119556588D01*
X143220427Y-119669789D01*
X143203257Y-119726390D01*
X143129178Y-119864980D01*
X143119611Y-119882879D01*
X143090288Y-119918609D01*
X143007044Y-120020044D01*
X142905609Y-120103288D01*
X142869879Y-120132611D01*
X142869877Y-120132612D01*
X142713390Y-120216257D01*
X142656789Y-120233427D01*
X142543588Y-120267766D01*
X142455362Y-120276455D01*
X142411250Y-120280800D01*
X142322750Y-120280800D01*
X142278638Y-120276455D01*
X142190412Y-120267766D01*
X142077211Y-120233427D01*
X142020610Y-120216257D01*
X141864123Y-120132612D01*
X141864121Y-120132611D01*
X141828391Y-120103288D01*
X141726956Y-120020044D01*
X141643712Y-119918609D01*
X141614389Y-119882879D01*
X141604822Y-119864980D01*
X141530743Y-119726390D01*
X141513573Y-119669789D01*
X141479234Y-119556588D01*
X141461842Y-119380000D01*
X141479234Y-119203412D01*
X141526270Y-119048357D01*
X141530743Y-119033610D01*
X141614388Y-118877123D01*
X141614389Y-118877121D01*
X141643878Y-118841189D01*
X141726956Y-118739956D01*
X141828391Y-118656712D01*
X141864121Y-118627389D01*
X141882020Y-118617822D01*
X142020610Y-118543743D01*
X142077211Y-118526573D01*
X142190412Y-118492234D01*
X142278638Y-118483545D01*
X142322750Y-118479200D01*
X142411250Y-118479200D01*
X142455362Y-118483545D01*
X142455362Y-118483545D01*
G37*
G36*
X139915362Y-118483545D02*
X140003588Y-118492234D01*
X140116789Y-118526573D01*
X140173390Y-118543743D01*
X140311980Y-118617822D01*
X140329879Y-118627389D01*
X140365609Y-118656712D01*
X140467044Y-118739956D01*
X140550122Y-118841189D01*
X140579611Y-118877121D01*
X140579612Y-118877123D01*
X140663257Y-119033610D01*
X140667730Y-119048357D01*
X140714766Y-119203412D01*
X140732158Y-119380000D01*
X140714766Y-119556588D01*
X140680427Y-119669789D01*
X140663257Y-119726390D01*
X140589178Y-119864980D01*
X140579611Y-119882879D01*
X140550288Y-119918609D01*
X140467044Y-120020044D01*
X140365609Y-120103288D01*
X140329879Y-120132611D01*
X140329877Y-120132612D01*
X140173390Y-120216257D01*
X140116789Y-120233427D01*
X140003588Y-120267766D01*
X139915362Y-120276455D01*
X139871250Y-120280800D01*
X139782750Y-120280800D01*
X139738638Y-120276455D01*
X139650412Y-120267766D01*
X139537211Y-120233427D01*
X139480610Y-120216257D01*
X139324123Y-120132612D01*
X139324121Y-120132611D01*
X139288391Y-120103288D01*
X139186956Y-120020044D01*
X139103712Y-119918609D01*
X139074389Y-119882879D01*
X139064822Y-119864980D01*
X138990743Y-119726390D01*
X138973573Y-119669789D01*
X138939234Y-119556588D01*
X138921842Y-119380000D01*
X138939234Y-119203412D01*
X138986270Y-119048357D01*
X138990743Y-119033610D01*
X139074388Y-118877123D01*
X139074389Y-118877121D01*
X139103878Y-118841189D01*
X139186956Y-118739956D01*
X139288391Y-118656712D01*
X139324121Y-118627389D01*
X139342020Y-118617822D01*
X139480610Y-118543743D01*
X139537211Y-118526573D01*
X139650412Y-118492234D01*
X139738638Y-118483545D01*
X139782750Y-118479200D01*
X139871250Y-118479200D01*
X139915362Y-118483545D01*
X139915362Y-118483545D01*
G37*
G36*
X138187800Y-120280800D02*
X136386200Y-120280800D01*
X136386200Y-118479200D01*
X138187800Y-118479200D01*
X138187800Y-120280800D01*
X138187800Y-120280800D01*
G37*
G36*
X133946362Y-118483545D02*
X134034588Y-118492234D01*
X134147789Y-118526573D01*
X134204390Y-118543743D01*
X134342980Y-118617822D01*
X134360879Y-118627389D01*
X134396609Y-118656712D01*
X134498044Y-118739956D01*
X134581122Y-118841189D01*
X134610611Y-118877121D01*
X134610612Y-118877123D01*
X134694257Y-119033610D01*
X134698730Y-119048357D01*
X134745766Y-119203412D01*
X134763158Y-119380000D01*
X134745766Y-119556588D01*
X134711427Y-119669789D01*
X134694257Y-119726390D01*
X134620178Y-119864980D01*
X134610611Y-119882879D01*
X134581288Y-119918609D01*
X134498044Y-120020044D01*
X134396609Y-120103288D01*
X134360879Y-120132611D01*
X134360877Y-120132612D01*
X134204390Y-120216257D01*
X134147789Y-120233427D01*
X134034588Y-120267766D01*
X133946362Y-120276455D01*
X133902250Y-120280800D01*
X133813750Y-120280800D01*
X133769638Y-120276455D01*
X133681412Y-120267766D01*
X133568211Y-120233427D01*
X133511610Y-120216257D01*
X133355123Y-120132612D01*
X133355121Y-120132611D01*
X133319391Y-120103288D01*
X133217956Y-120020044D01*
X133134712Y-119918609D01*
X133105389Y-119882879D01*
X133095822Y-119864980D01*
X133021743Y-119726390D01*
X133004573Y-119669789D01*
X132970234Y-119556588D01*
X132952842Y-119380000D01*
X132970234Y-119203412D01*
X133017270Y-119048357D01*
X133021743Y-119033610D01*
X133105388Y-118877123D01*
X133105389Y-118877121D01*
X133134878Y-118841189D01*
X133217956Y-118739956D01*
X133319391Y-118656712D01*
X133355121Y-118627389D01*
X133373020Y-118617822D01*
X133511610Y-118543743D01*
X133568211Y-118526573D01*
X133681412Y-118492234D01*
X133769638Y-118483545D01*
X133813750Y-118479200D01*
X133902250Y-118479200D01*
X133946362Y-118483545D01*
X133946362Y-118483545D01*
G37*
G36*
X131406362Y-118483545D02*
X131494588Y-118492234D01*
X131607789Y-118526573D01*
X131664390Y-118543743D01*
X131802980Y-118617822D01*
X131820879Y-118627389D01*
X131856609Y-118656712D01*
X131958044Y-118739956D01*
X132041122Y-118841189D01*
X132070611Y-118877121D01*
X132070612Y-118877123D01*
X132154257Y-119033610D01*
X132158730Y-119048357D01*
X132205766Y-119203412D01*
X132223158Y-119380000D01*
X132205766Y-119556588D01*
X132171427Y-119669789D01*
X132154257Y-119726390D01*
X132080178Y-119864980D01*
X132070611Y-119882879D01*
X132041288Y-119918609D01*
X131958044Y-120020044D01*
X131856609Y-120103288D01*
X131820879Y-120132611D01*
X131820877Y-120132612D01*
X131664390Y-120216257D01*
X131607789Y-120233427D01*
X131494588Y-120267766D01*
X131406362Y-120276455D01*
X131362250Y-120280800D01*
X131273750Y-120280800D01*
X131229638Y-120276455D01*
X131141412Y-120267766D01*
X131028211Y-120233427D01*
X130971610Y-120216257D01*
X130815123Y-120132612D01*
X130815121Y-120132611D01*
X130779391Y-120103288D01*
X130677956Y-120020044D01*
X130594712Y-119918609D01*
X130565389Y-119882879D01*
X130555822Y-119864980D01*
X130481743Y-119726390D01*
X130464573Y-119669789D01*
X130430234Y-119556588D01*
X130412842Y-119380000D01*
X130430234Y-119203412D01*
X130477270Y-119048357D01*
X130481743Y-119033610D01*
X130565388Y-118877123D01*
X130565389Y-118877121D01*
X130594878Y-118841189D01*
X130677956Y-118739956D01*
X130779391Y-118656712D01*
X130815121Y-118627389D01*
X130833020Y-118617822D01*
X130971610Y-118543743D01*
X131028211Y-118526573D01*
X131141412Y-118492234D01*
X131229638Y-118483545D01*
X131273750Y-118479200D01*
X131362250Y-118479200D01*
X131406362Y-118483545D01*
X131406362Y-118483545D01*
G37*
G36*
X157590377Y-117905643D02*
X157627855Y-117917013D01*
X157662404Y-117935479D01*
X157692677Y-117960323D01*
X157717521Y-117990596D01*
X157735987Y-118025145D01*
X157747357Y-118062623D01*
X157751800Y-118107738D01*
X157751800Y-118846262D01*
X157747357Y-118891377D01*
X157735987Y-118928855D01*
X157717521Y-118963404D01*
X157692677Y-118993677D01*
X157662404Y-119018521D01*
X157627855Y-119036987D01*
X157590377Y-119048357D01*
X157545262Y-119052800D01*
X156906738Y-119052800D01*
X156861623Y-119048357D01*
X156824145Y-119036987D01*
X156789596Y-119018521D01*
X156759323Y-118993677D01*
X156734479Y-118963404D01*
X156716013Y-118928855D01*
X156704643Y-118891377D01*
X156700200Y-118846262D01*
X156700200Y-118107738D01*
X156704643Y-118062623D01*
X156716013Y-118025145D01*
X156734479Y-117990596D01*
X156759323Y-117960323D01*
X156789596Y-117935479D01*
X156824145Y-117917013D01*
X156861623Y-117905643D01*
X156906738Y-117901200D01*
X157545262Y-117901200D01*
X157590377Y-117905643D01*
X157590377Y-117905643D01*
G37*
G36*
X155547800Y-119027800D02*
X154146200Y-119027800D01*
X154146200Y-117826200D01*
X155547800Y-117826200D01*
X155547800Y-119027800D01*
X155547800Y-119027800D01*
G37*
G36*
X153447800Y-119027800D02*
X152046200Y-119027800D01*
X152046200Y-117826200D01*
X153447800Y-117826200D01*
X153447800Y-119027800D01*
X153447800Y-119027800D01*
G37*
G36*
X150220821Y-118059414D02*
X150241415Y-118065662D01*
X150260397Y-118075808D01*
X150277037Y-118089463D01*
X150290692Y-118106103D01*
X150300838Y-118125085D01*
X150307086Y-118145679D01*
X150309800Y-118173240D01*
X150309800Y-118681760D01*
X150307086Y-118709321D01*
X150300838Y-118729915D01*
X150290692Y-118748897D01*
X150277037Y-118765537D01*
X150260397Y-118779192D01*
X150241415Y-118789338D01*
X150220821Y-118795586D01*
X150193260Y-118798300D01*
X149734740Y-118798300D01*
X149707179Y-118795586D01*
X149686585Y-118789338D01*
X149667603Y-118779192D01*
X149650963Y-118765537D01*
X149637308Y-118748897D01*
X149627162Y-118729915D01*
X149620914Y-118709321D01*
X149618200Y-118681760D01*
X149618200Y-118173240D01*
X149620914Y-118145679D01*
X149627162Y-118125085D01*
X149637308Y-118106103D01*
X149650963Y-118089463D01*
X149667603Y-118075808D01*
X149686585Y-118065662D01*
X149707179Y-118059414D01*
X149734740Y-118056700D01*
X150193260Y-118056700D01*
X150220821Y-118059414D01*
X150220821Y-118059414D01*
G37*
G36*
X149250821Y-118059414D02*
X149271415Y-118065662D01*
X149290397Y-118075808D01*
X149307037Y-118089463D01*
X149320692Y-118106103D01*
X149330838Y-118125085D01*
X149337086Y-118145679D01*
X149339800Y-118173240D01*
X149339800Y-118681760D01*
X149337086Y-118709321D01*
X149330838Y-118729915D01*
X149320692Y-118748897D01*
X149307037Y-118765537D01*
X149290397Y-118779192D01*
X149271415Y-118789338D01*
X149250821Y-118795586D01*
X149223260Y-118798300D01*
X148764740Y-118798300D01*
X148737179Y-118795586D01*
X148716585Y-118789338D01*
X148697603Y-118779192D01*
X148680963Y-118765537D01*
X148667308Y-118748897D01*
X148657162Y-118729915D01*
X148650914Y-118709321D01*
X148648200Y-118681760D01*
X148648200Y-118173240D01*
X148650914Y-118145679D01*
X148657162Y-118125085D01*
X148667308Y-118106103D01*
X148680963Y-118089463D01*
X148697603Y-118075808D01*
X148716585Y-118065662D01*
X148737179Y-118059414D01*
X148764740Y-118056700D01*
X149223260Y-118056700D01*
X149250821Y-118059414D01*
X149250821Y-118059414D01*
G37*
G36*
X133946362Y-115943545D02*
X134034588Y-115952234D01*
X134132851Y-115982042D01*
X134204390Y-116003743D01*
X134280395Y-116044369D01*
X134360879Y-116087389D01*
X134396609Y-116116712D01*
X134498044Y-116199956D01*
X134581122Y-116301189D01*
X134610611Y-116337121D01*
X134610612Y-116337123D01*
X134694257Y-116493610D01*
X134703596Y-116524397D01*
X134745766Y-116663412D01*
X134763158Y-116840000D01*
X134745766Y-117016588D01*
X134723136Y-117091189D01*
X134694257Y-117186390D01*
X134640486Y-117286987D01*
X134610611Y-117342879D01*
X134587615Y-117370900D01*
X134498044Y-117480044D01*
X134403250Y-117557838D01*
X134360879Y-117592611D01*
X134360877Y-117592612D01*
X134204390Y-117676257D01*
X134147789Y-117693427D01*
X134034588Y-117727766D01*
X133946362Y-117736455D01*
X133902250Y-117740800D01*
X133813750Y-117740800D01*
X133769638Y-117736455D01*
X133681412Y-117727766D01*
X133568211Y-117693427D01*
X133511610Y-117676257D01*
X133355123Y-117592612D01*
X133355121Y-117592611D01*
X133312750Y-117557838D01*
X133217956Y-117480044D01*
X133128385Y-117370900D01*
X133105389Y-117342879D01*
X133075514Y-117286987D01*
X133021743Y-117186390D01*
X132992864Y-117091189D01*
X132970234Y-117016588D01*
X132952842Y-116840000D01*
X132970234Y-116663412D01*
X133012404Y-116524397D01*
X133021743Y-116493610D01*
X133105388Y-116337123D01*
X133105389Y-116337121D01*
X133134878Y-116301189D01*
X133217956Y-116199956D01*
X133319391Y-116116712D01*
X133355121Y-116087389D01*
X133435605Y-116044369D01*
X133511610Y-116003743D01*
X133583149Y-115982042D01*
X133681412Y-115952234D01*
X133769638Y-115943545D01*
X133813750Y-115939200D01*
X133902250Y-115939200D01*
X133946362Y-115943545D01*
X133946362Y-115943545D01*
G37*
G36*
X131406362Y-115943545D02*
X131494588Y-115952234D01*
X131592851Y-115982042D01*
X131664390Y-116003743D01*
X131740395Y-116044369D01*
X131820879Y-116087389D01*
X131856609Y-116116712D01*
X131958044Y-116199956D01*
X132041122Y-116301189D01*
X132070611Y-116337121D01*
X132070612Y-116337123D01*
X132154257Y-116493610D01*
X132163596Y-116524397D01*
X132205766Y-116663412D01*
X132223158Y-116840000D01*
X132205766Y-117016588D01*
X132183136Y-117091189D01*
X132154257Y-117186390D01*
X132100486Y-117286987D01*
X132070611Y-117342879D01*
X132047615Y-117370900D01*
X131958044Y-117480044D01*
X131863250Y-117557838D01*
X131820879Y-117592611D01*
X131820877Y-117592612D01*
X131664390Y-117676257D01*
X131607789Y-117693427D01*
X131494588Y-117727766D01*
X131406362Y-117736455D01*
X131362250Y-117740800D01*
X131273750Y-117740800D01*
X131229638Y-117736455D01*
X131141412Y-117727766D01*
X131028211Y-117693427D01*
X130971610Y-117676257D01*
X130815123Y-117592612D01*
X130815121Y-117592611D01*
X130772750Y-117557838D01*
X130677956Y-117480044D01*
X130588385Y-117370900D01*
X130565389Y-117342879D01*
X130535514Y-117286987D01*
X130481743Y-117186390D01*
X130452864Y-117091189D01*
X130430234Y-117016588D01*
X130412842Y-116840000D01*
X130430234Y-116663412D01*
X130472404Y-116524397D01*
X130481743Y-116493610D01*
X130565388Y-116337123D01*
X130565389Y-116337121D01*
X130594878Y-116301189D01*
X130677956Y-116199956D01*
X130779391Y-116116712D01*
X130815121Y-116087389D01*
X130895605Y-116044369D01*
X130971610Y-116003743D01*
X131043149Y-115982042D01*
X131141412Y-115952234D01*
X131229638Y-115943545D01*
X131273750Y-115939200D01*
X131362250Y-115939200D01*
X131406362Y-115943545D01*
X131406362Y-115943545D01*
G37*
G36*
X149252821Y-116877914D02*
X149273415Y-116884162D01*
X149292397Y-116894308D01*
X149309037Y-116907963D01*
X149322692Y-116924603D01*
X149332838Y-116943585D01*
X149339086Y-116964179D01*
X149341800Y-116991740D01*
X149341800Y-117450260D01*
X149339086Y-117477821D01*
X149332838Y-117498415D01*
X149322692Y-117517397D01*
X149309037Y-117534037D01*
X149292397Y-117547692D01*
X149273415Y-117557838D01*
X149252821Y-117564086D01*
X149225260Y-117566800D01*
X148716740Y-117566800D01*
X148689179Y-117564086D01*
X148668585Y-117557838D01*
X148649603Y-117547692D01*
X148632963Y-117534037D01*
X148619308Y-117517397D01*
X148609162Y-117498415D01*
X148602914Y-117477821D01*
X148600200Y-117450260D01*
X148600200Y-116991740D01*
X148602914Y-116964179D01*
X148609162Y-116943585D01*
X148619308Y-116924603D01*
X148632963Y-116907963D01*
X148649603Y-116894308D01*
X148668585Y-116884162D01*
X148689179Y-116877914D01*
X148716740Y-116875200D01*
X149225260Y-116875200D01*
X149252821Y-116877914D01*
X149252821Y-116877914D01*
G37*
G36*
X150268821Y-116854914D02*
X150289415Y-116861162D01*
X150308397Y-116871308D01*
X150325037Y-116884963D01*
X150338692Y-116901603D01*
X150348838Y-116920585D01*
X150355086Y-116941179D01*
X150357800Y-116968740D01*
X150357800Y-117427260D01*
X150355086Y-117454821D01*
X150348838Y-117475415D01*
X150338692Y-117494397D01*
X150325037Y-117511037D01*
X150308397Y-117524692D01*
X150289415Y-117534838D01*
X150268821Y-117541086D01*
X150241260Y-117543800D01*
X149732740Y-117543800D01*
X149705179Y-117541086D01*
X149684585Y-117534838D01*
X149665603Y-117524692D01*
X149648963Y-117511037D01*
X149635308Y-117494397D01*
X149625162Y-117475415D01*
X149618914Y-117454821D01*
X149616200Y-117427260D01*
X149616200Y-116968740D01*
X149618914Y-116941179D01*
X149625162Y-116920585D01*
X149635308Y-116901603D01*
X149648963Y-116884963D01*
X149665603Y-116871308D01*
X149684585Y-116861162D01*
X149705179Y-116854914D01*
X149732740Y-116852200D01*
X150241260Y-116852200D01*
X150268821Y-116854914D01*
X150268821Y-116854914D01*
G37*
G36*
X155547800Y-117377800D02*
X154146200Y-117377800D01*
X154146200Y-116176200D01*
X155547800Y-116176200D01*
X155547800Y-117377800D01*
X155547800Y-117377800D01*
G37*
G36*
X153447800Y-117377800D02*
X152046200Y-117377800D01*
X152046200Y-116176200D01*
X153447800Y-116176200D01*
X153447800Y-117377800D01*
X153447800Y-117377800D01*
G37*
G36*
X157590377Y-116155643D02*
X157627855Y-116167013D01*
X157662404Y-116185479D01*
X157692677Y-116210323D01*
X157717521Y-116240596D01*
X157735987Y-116275145D01*
X157747357Y-116312623D01*
X157751800Y-116357738D01*
X157751800Y-117096262D01*
X157747357Y-117141377D01*
X157735987Y-117178855D01*
X157717521Y-117213404D01*
X157692677Y-117243677D01*
X157662404Y-117268521D01*
X157627855Y-117286987D01*
X157590377Y-117298357D01*
X157545262Y-117302800D01*
X156906738Y-117302800D01*
X156861623Y-117298357D01*
X156824145Y-117286987D01*
X156789596Y-117268521D01*
X156759323Y-117243677D01*
X156734479Y-117213404D01*
X156716013Y-117178855D01*
X156704643Y-117141377D01*
X156700200Y-117096262D01*
X156700200Y-116357738D01*
X156704643Y-116312623D01*
X156716013Y-116275145D01*
X156734479Y-116240596D01*
X156759323Y-116210323D01*
X156789596Y-116185479D01*
X156824145Y-116167013D01*
X156861623Y-116155643D01*
X156906738Y-116151200D01*
X157545262Y-116151200D01*
X157590377Y-116155643D01*
X157590377Y-116155643D01*
G37*
G36*
X149252821Y-115907914D02*
X149273415Y-115914162D01*
X149292397Y-115924308D01*
X149309037Y-115937963D01*
X149322692Y-115954603D01*
X149332838Y-115973585D01*
X149339086Y-115994179D01*
X149341800Y-116021740D01*
X149341800Y-116480260D01*
X149339086Y-116507821D01*
X149332838Y-116528415D01*
X149322692Y-116547397D01*
X149309037Y-116564037D01*
X149292397Y-116577692D01*
X149273415Y-116587838D01*
X149252821Y-116594086D01*
X149225260Y-116596800D01*
X148716740Y-116596800D01*
X148689179Y-116594086D01*
X148668585Y-116587838D01*
X148649603Y-116577692D01*
X148632963Y-116564037D01*
X148619308Y-116547397D01*
X148609162Y-116528415D01*
X148602914Y-116507821D01*
X148600200Y-116480260D01*
X148600200Y-116021740D01*
X148602914Y-115994179D01*
X148609162Y-115973585D01*
X148619308Y-115954603D01*
X148632963Y-115937963D01*
X148649603Y-115924308D01*
X148668585Y-115914162D01*
X148689179Y-115907914D01*
X148716740Y-115905200D01*
X149225260Y-115905200D01*
X149252821Y-115907914D01*
X149252821Y-115907914D01*
G37*
G36*
X150268821Y-115884914D02*
X150289415Y-115891162D01*
X150308397Y-115901308D01*
X150325037Y-115914963D01*
X150338692Y-115931603D01*
X150348838Y-115950585D01*
X150355086Y-115971179D01*
X150357800Y-115998740D01*
X150357800Y-116457260D01*
X150355086Y-116484821D01*
X150348838Y-116505415D01*
X150338692Y-116524397D01*
X150325037Y-116541037D01*
X150308397Y-116554692D01*
X150289415Y-116564838D01*
X150268821Y-116571086D01*
X150241260Y-116573800D01*
X149732740Y-116573800D01*
X149705179Y-116571086D01*
X149684585Y-116564838D01*
X149665603Y-116554692D01*
X149648963Y-116541037D01*
X149635308Y-116524397D01*
X149625162Y-116505415D01*
X149618914Y-116484821D01*
X149616200Y-116457260D01*
X149616200Y-115998740D01*
X149618914Y-115971179D01*
X149625162Y-115950585D01*
X149635308Y-115931603D01*
X149648963Y-115914963D01*
X149665603Y-115901308D01*
X149684585Y-115891162D01*
X149705179Y-115884914D01*
X149732740Y-115882200D01*
X150241260Y-115882200D01*
X150268821Y-115884914D01*
X150268821Y-115884914D01*
G37*
G36*
X138664377Y-115365643D02*
X138701855Y-115377013D01*
X138736404Y-115395479D01*
X138766677Y-115420323D01*
X138791521Y-115450596D01*
X138809987Y-115485145D01*
X138821357Y-115522623D01*
X138825800Y-115567738D01*
X138825800Y-116306262D01*
X138821357Y-116351377D01*
X138809987Y-116388855D01*
X138791521Y-116423404D01*
X138766677Y-116453677D01*
X138736404Y-116478521D01*
X138701855Y-116496987D01*
X138664377Y-116508357D01*
X138619262Y-116512800D01*
X137980738Y-116512800D01*
X137935623Y-116508357D01*
X137898145Y-116496987D01*
X137863596Y-116478521D01*
X137833323Y-116453677D01*
X137808479Y-116423404D01*
X137790013Y-116388855D01*
X137778643Y-116351377D01*
X137774200Y-116306262D01*
X137774200Y-115567738D01*
X137778643Y-115522623D01*
X137790013Y-115485145D01*
X137808479Y-115450596D01*
X137833323Y-115420323D01*
X137863596Y-115395479D01*
X137898145Y-115377013D01*
X137935623Y-115365643D01*
X137980738Y-115361200D01*
X138619262Y-115361200D01*
X138664377Y-115365643D01*
X138664377Y-115365643D01*
G37*
G36*
X145464377Y-115365643D02*
X145501855Y-115377013D01*
X145536404Y-115395479D01*
X145566677Y-115420323D01*
X145591521Y-115450596D01*
X145609987Y-115485145D01*
X145621357Y-115522623D01*
X145625800Y-115567738D01*
X145625800Y-116306262D01*
X145621357Y-116351377D01*
X145609987Y-116388855D01*
X145591521Y-116423404D01*
X145566677Y-116453677D01*
X145536404Y-116478521D01*
X145501855Y-116496987D01*
X145464377Y-116508357D01*
X145419262Y-116512800D01*
X144780738Y-116512800D01*
X144735623Y-116508357D01*
X144698145Y-116496987D01*
X144663596Y-116478521D01*
X144633323Y-116453677D01*
X144608479Y-116423404D01*
X144590013Y-116388855D01*
X144578643Y-116351377D01*
X144574200Y-116306262D01*
X144574200Y-115567738D01*
X144578643Y-115522623D01*
X144590013Y-115485145D01*
X144608479Y-115450596D01*
X144633323Y-115420323D01*
X144663596Y-115395479D01*
X144698145Y-115377013D01*
X144735623Y-115365643D01*
X144780738Y-115361200D01*
X145419262Y-115361200D01*
X145464377Y-115365643D01*
X145464377Y-115365643D01*
G37*
G36*
X141154546Y-116387800D02*
X139492946Y-116387800D01*
X139492946Y-113736200D01*
X141154546Y-113736200D01*
X141154546Y-116387800D01*
X141154546Y-116387800D01*
G37*
G36*
X143854546Y-116387800D02*
X142192946Y-116387800D01*
X142192946Y-115636200D01*
X143854546Y-115636200D01*
X143854546Y-116387800D01*
X143854546Y-116387800D01*
G37*
G36*
X133946362Y-113403545D02*
X134034588Y-113412234D01*
X134147789Y-113446573D01*
X134204390Y-113463743D01*
X134342980Y-113537822D01*
X134360879Y-113547389D01*
X134396609Y-113576712D01*
X134498044Y-113659956D01*
X134581288Y-113761391D01*
X134610611Y-113797121D01*
X134610612Y-113797123D01*
X134694257Y-113953610D01*
X134694257Y-113953611D01*
X134745766Y-114123412D01*
X134763158Y-114300000D01*
X134745766Y-114476588D01*
X134738694Y-114499900D01*
X134694257Y-114646390D01*
X134640486Y-114746987D01*
X134610611Y-114802879D01*
X134581288Y-114838609D01*
X134498044Y-114940044D01*
X134396609Y-115023288D01*
X134360879Y-115052611D01*
X134360877Y-115052612D01*
X134204390Y-115136257D01*
X134147789Y-115153427D01*
X134034588Y-115187766D01*
X133946362Y-115196455D01*
X133902250Y-115200800D01*
X133813750Y-115200800D01*
X133769638Y-115196455D01*
X133681412Y-115187766D01*
X133568211Y-115153427D01*
X133511610Y-115136257D01*
X133355123Y-115052612D01*
X133355121Y-115052611D01*
X133319391Y-115023288D01*
X133217956Y-114940044D01*
X133134712Y-114838609D01*
X133105389Y-114802879D01*
X133075514Y-114746987D01*
X133021743Y-114646390D01*
X132977306Y-114499900D01*
X132970234Y-114476588D01*
X132952842Y-114300000D01*
X132970234Y-114123412D01*
X133021743Y-113953611D01*
X133021743Y-113953610D01*
X133105388Y-113797123D01*
X133105389Y-113797121D01*
X133134712Y-113761391D01*
X133217956Y-113659956D01*
X133319391Y-113576712D01*
X133355121Y-113547389D01*
X133373020Y-113537822D01*
X133511610Y-113463743D01*
X133568211Y-113446573D01*
X133681412Y-113412234D01*
X133769638Y-113403545D01*
X133813750Y-113399200D01*
X133902250Y-113399200D01*
X133946362Y-113403545D01*
X133946362Y-113403545D01*
G37*
G36*
X131406362Y-113403545D02*
X131494588Y-113412234D01*
X131607789Y-113446573D01*
X131664390Y-113463743D01*
X131802980Y-113537822D01*
X131820879Y-113547389D01*
X131856609Y-113576712D01*
X131958044Y-113659956D01*
X132041288Y-113761391D01*
X132070611Y-113797121D01*
X132070612Y-113797123D01*
X132154257Y-113953610D01*
X132154257Y-113953611D01*
X132205766Y-114123412D01*
X132223158Y-114300000D01*
X132205766Y-114476588D01*
X132198694Y-114499900D01*
X132154257Y-114646390D01*
X132100486Y-114746987D01*
X132070611Y-114802879D01*
X132041288Y-114838609D01*
X131958044Y-114940044D01*
X131856609Y-115023288D01*
X131820879Y-115052611D01*
X131820877Y-115052612D01*
X131664390Y-115136257D01*
X131607789Y-115153427D01*
X131494588Y-115187766D01*
X131406362Y-115196455D01*
X131362250Y-115200800D01*
X131273750Y-115200800D01*
X131229638Y-115196455D01*
X131141412Y-115187766D01*
X131028211Y-115153427D01*
X130971610Y-115136257D01*
X130815123Y-115052612D01*
X130815121Y-115052611D01*
X130779391Y-115023288D01*
X130677956Y-114940044D01*
X130594712Y-114838609D01*
X130565389Y-114802879D01*
X130535514Y-114746987D01*
X130481743Y-114646390D01*
X130437306Y-114499900D01*
X130430234Y-114476588D01*
X130412842Y-114300000D01*
X130430234Y-114123412D01*
X130481743Y-113953611D01*
X130481743Y-113953610D01*
X130565388Y-113797123D01*
X130565389Y-113797121D01*
X130594712Y-113761391D01*
X130677956Y-113659956D01*
X130779391Y-113576712D01*
X130815121Y-113547389D01*
X130833020Y-113537822D01*
X130971610Y-113463743D01*
X131028211Y-113446573D01*
X131141412Y-113412234D01*
X131229638Y-113403545D01*
X131273750Y-113399200D01*
X131362250Y-113399200D01*
X131406362Y-113403545D01*
X131406362Y-113403545D01*
G37*
G36*
X145464377Y-113615643D02*
X145501855Y-113627013D01*
X145536404Y-113645479D01*
X145566677Y-113670323D01*
X145591521Y-113700596D01*
X145609987Y-113735145D01*
X145621357Y-113772623D01*
X145625800Y-113817738D01*
X145625800Y-114556262D01*
X145621357Y-114601377D01*
X145609987Y-114638855D01*
X145591521Y-114673404D01*
X145566677Y-114703677D01*
X145536404Y-114728521D01*
X145501855Y-114746987D01*
X145464377Y-114758357D01*
X145419262Y-114762800D01*
X144780738Y-114762800D01*
X144735623Y-114758357D01*
X144698145Y-114746987D01*
X144663596Y-114728521D01*
X144633323Y-114703677D01*
X144608479Y-114673404D01*
X144590013Y-114638855D01*
X144578643Y-114601377D01*
X144574200Y-114556262D01*
X144574200Y-113817738D01*
X144578643Y-113772623D01*
X144590013Y-113735145D01*
X144608479Y-113700596D01*
X144633323Y-113670323D01*
X144663596Y-113645479D01*
X144698145Y-113627013D01*
X144735623Y-113615643D01*
X144780738Y-113611200D01*
X145419262Y-113611200D01*
X145464377Y-113615643D01*
X145464377Y-113615643D01*
G37*
G36*
X138664377Y-113615643D02*
X138701855Y-113627013D01*
X138736404Y-113645479D01*
X138766677Y-113670323D01*
X138791521Y-113700596D01*
X138809987Y-113735145D01*
X138821357Y-113772623D01*
X138825800Y-113817738D01*
X138825800Y-114556262D01*
X138821357Y-114601377D01*
X138809987Y-114638855D01*
X138791521Y-114673404D01*
X138766677Y-114703677D01*
X138736404Y-114728521D01*
X138701855Y-114746987D01*
X138664377Y-114758357D01*
X138619262Y-114762800D01*
X137980738Y-114762800D01*
X137935623Y-114758357D01*
X137898145Y-114746987D01*
X137863596Y-114728521D01*
X137833323Y-114703677D01*
X137808479Y-114673404D01*
X137790013Y-114638855D01*
X137778643Y-114601377D01*
X137774200Y-114556262D01*
X137774200Y-113817738D01*
X137778643Y-113772623D01*
X137790013Y-113735145D01*
X137808479Y-113700596D01*
X137833323Y-113670323D01*
X137863596Y-113645479D01*
X137898145Y-113627013D01*
X137935623Y-113615643D01*
X137980738Y-113611200D01*
X138619262Y-113611200D01*
X138664377Y-113615643D01*
X138664377Y-113615643D01*
G37*
G36*
X143854546Y-114487800D02*
X142192946Y-114487800D01*
X142192946Y-113736200D01*
X143854546Y-113736200D01*
X143854546Y-114487800D01*
X143854546Y-114487800D01*
G37*
G36*
X133946362Y-110863545D02*
X134034588Y-110872234D01*
X134147789Y-110906573D01*
X134204390Y-110923743D01*
X134264816Y-110956042D01*
X134360879Y-111007389D01*
X134374258Y-111018369D01*
X134498044Y-111119956D01*
X134581288Y-111221391D01*
X134610611Y-111257121D01*
X134610612Y-111257123D01*
X134694257Y-111413610D01*
X134694257Y-111413611D01*
X134745766Y-111583412D01*
X134763158Y-111760000D01*
X134745766Y-111936588D01*
X134711427Y-112049789D01*
X134694257Y-112106390D01*
X134620178Y-112244980D01*
X134610611Y-112262879D01*
X134581288Y-112298609D01*
X134498044Y-112400044D01*
X134396609Y-112483288D01*
X134360879Y-112512611D01*
X134360877Y-112512612D01*
X134204390Y-112596257D01*
X134147789Y-112613427D01*
X134034588Y-112647766D01*
X133946362Y-112656455D01*
X133902250Y-112660800D01*
X133813750Y-112660800D01*
X133769638Y-112656455D01*
X133681412Y-112647766D01*
X133568211Y-112613427D01*
X133511610Y-112596257D01*
X133355123Y-112512612D01*
X133355121Y-112512611D01*
X133319391Y-112483288D01*
X133217956Y-112400044D01*
X133134712Y-112298609D01*
X133105389Y-112262879D01*
X133095822Y-112244980D01*
X133021743Y-112106390D01*
X133004573Y-112049789D01*
X132970234Y-111936588D01*
X132952842Y-111760000D01*
X132970234Y-111583412D01*
X133021743Y-111413611D01*
X133021743Y-111413610D01*
X133105388Y-111257123D01*
X133105389Y-111257121D01*
X133134712Y-111221391D01*
X133217956Y-111119956D01*
X133341742Y-111018369D01*
X133355121Y-111007389D01*
X133451184Y-110956042D01*
X133511610Y-110923743D01*
X133568211Y-110906573D01*
X133681412Y-110872234D01*
X133769638Y-110863545D01*
X133813750Y-110859200D01*
X133902250Y-110859200D01*
X133946362Y-110863545D01*
X133946362Y-110863545D01*
G37*
G36*
X131406362Y-110863545D02*
X131494588Y-110872234D01*
X131607789Y-110906573D01*
X131664390Y-110923743D01*
X131724816Y-110956042D01*
X131820879Y-111007389D01*
X131834258Y-111018369D01*
X131958044Y-111119956D01*
X132041288Y-111221391D01*
X132070611Y-111257121D01*
X132070612Y-111257123D01*
X132154257Y-111413610D01*
X132154257Y-111413611D01*
X132205766Y-111583412D01*
X132223158Y-111760000D01*
X132205766Y-111936588D01*
X132171427Y-112049789D01*
X132154257Y-112106390D01*
X132080178Y-112244980D01*
X132070611Y-112262879D01*
X132041288Y-112298609D01*
X131958044Y-112400044D01*
X131856609Y-112483288D01*
X131820879Y-112512611D01*
X131820877Y-112512612D01*
X131664390Y-112596257D01*
X131607789Y-112613427D01*
X131494588Y-112647766D01*
X131406362Y-112656455D01*
X131362250Y-112660800D01*
X131273750Y-112660800D01*
X131229638Y-112656455D01*
X131141412Y-112647766D01*
X131028211Y-112613427D01*
X130971610Y-112596257D01*
X130815123Y-112512612D01*
X130815121Y-112512611D01*
X130779391Y-112483288D01*
X130677956Y-112400044D01*
X130594712Y-112298609D01*
X130565389Y-112262879D01*
X130555822Y-112244980D01*
X130481743Y-112106390D01*
X130464573Y-112049789D01*
X130430234Y-111936588D01*
X130412842Y-111760000D01*
X130430234Y-111583412D01*
X130481743Y-111413611D01*
X130481743Y-111413610D01*
X130565388Y-111257123D01*
X130565389Y-111257121D01*
X130594712Y-111221391D01*
X130677956Y-111119956D01*
X130801742Y-111018369D01*
X130815121Y-111007389D01*
X130911184Y-110956042D01*
X130971610Y-110923743D01*
X131028211Y-110906573D01*
X131141412Y-110872234D01*
X131229638Y-110863545D01*
X131273750Y-110859200D01*
X131362250Y-110859200D01*
X131406362Y-110863545D01*
X131406362Y-110863545D01*
G37*
G36*
X139241821Y-110881914D02*
X139262415Y-110888162D01*
X139281397Y-110898308D01*
X139298037Y-110911963D01*
X139311692Y-110928603D01*
X139321838Y-110947585D01*
X139328086Y-110968179D01*
X139330800Y-110995740D01*
X139330800Y-111504260D01*
X139328086Y-111531821D01*
X139321838Y-111552415D01*
X139311692Y-111571397D01*
X139298037Y-111588037D01*
X139281397Y-111601692D01*
X139262415Y-111611838D01*
X139241821Y-111618086D01*
X139214260Y-111620800D01*
X138755740Y-111620800D01*
X138728179Y-111618086D01*
X138707585Y-111611838D01*
X138688603Y-111601692D01*
X138671963Y-111588037D01*
X138658308Y-111571397D01*
X138648162Y-111552415D01*
X138641914Y-111531821D01*
X138639200Y-111504260D01*
X138639200Y-110995740D01*
X138641914Y-110968179D01*
X138648162Y-110947585D01*
X138658308Y-110928603D01*
X138671963Y-110911963D01*
X138688603Y-110898308D01*
X138707585Y-110888162D01*
X138728179Y-110881914D01*
X138755740Y-110879200D01*
X139214260Y-110879200D01*
X139241821Y-110881914D01*
X139241821Y-110881914D01*
G37*
G36*
X138271821Y-110881914D02*
X138292415Y-110888162D01*
X138311397Y-110898308D01*
X138328037Y-110911963D01*
X138341692Y-110928603D01*
X138351838Y-110947585D01*
X138358086Y-110968179D01*
X138360800Y-110995740D01*
X138360800Y-111504260D01*
X138358086Y-111531821D01*
X138351838Y-111552415D01*
X138341692Y-111571397D01*
X138328037Y-111588037D01*
X138311397Y-111601692D01*
X138292415Y-111611838D01*
X138271821Y-111618086D01*
X138244260Y-111620800D01*
X137785740Y-111620800D01*
X137758179Y-111618086D01*
X137737585Y-111611838D01*
X137718603Y-111601692D01*
X137701963Y-111588037D01*
X137688308Y-111571397D01*
X137678162Y-111552415D01*
X137671914Y-111531821D01*
X137669200Y-111504260D01*
X137669200Y-110995740D01*
X137671914Y-110968179D01*
X137678162Y-110947585D01*
X137688308Y-110928603D01*
X137701963Y-110911963D01*
X137718603Y-110898308D01*
X137737585Y-110888162D01*
X137758179Y-110881914D01*
X137785740Y-110879200D01*
X138244260Y-110879200D01*
X138271821Y-110881914D01*
X138271821Y-110881914D01*
G37*
G36*
X145086839Y-110504766D02*
X145124317Y-110516136D01*
X145158866Y-110534602D01*
X145189139Y-110559446D01*
X145213983Y-110589719D01*
X145232449Y-110624268D01*
X145243819Y-110661746D01*
X145248262Y-110706861D01*
X145248262Y-111345385D01*
X145243819Y-111390500D01*
X145232449Y-111427978D01*
X145213983Y-111462527D01*
X145189139Y-111492800D01*
X145158866Y-111517644D01*
X145124317Y-111536110D01*
X145086839Y-111547480D01*
X145041724Y-111551923D01*
X144303200Y-111551923D01*
X144258085Y-111547480D01*
X144220607Y-111536110D01*
X144186058Y-111517644D01*
X144155785Y-111492800D01*
X144130941Y-111462527D01*
X144112475Y-111427978D01*
X144101105Y-111390500D01*
X144096662Y-111345385D01*
X144096662Y-110706861D01*
X144101105Y-110661746D01*
X144112475Y-110624268D01*
X144130941Y-110589719D01*
X144155785Y-110559446D01*
X144186058Y-110534602D01*
X144220607Y-110516136D01*
X144258085Y-110504766D01*
X144303200Y-110500323D01*
X145041724Y-110500323D01*
X145086839Y-110504766D01*
X145086839Y-110504766D01*
G37*
G36*
X143336839Y-110504766D02*
X143374317Y-110516136D01*
X143408866Y-110534602D01*
X143439139Y-110559446D01*
X143463983Y-110589719D01*
X143482449Y-110624268D01*
X143493819Y-110661746D01*
X143498262Y-110706861D01*
X143498262Y-111345385D01*
X143493819Y-111390500D01*
X143482449Y-111427978D01*
X143463983Y-111462527D01*
X143439139Y-111492800D01*
X143408866Y-111517644D01*
X143374317Y-111536110D01*
X143336839Y-111547480D01*
X143291724Y-111551923D01*
X142553200Y-111551923D01*
X142508085Y-111547480D01*
X142470607Y-111536110D01*
X142436058Y-111517644D01*
X142405785Y-111492800D01*
X142380941Y-111462527D01*
X142362475Y-111427978D01*
X142351105Y-111390500D01*
X142346662Y-111345385D01*
X142346662Y-110706861D01*
X142351105Y-110661746D01*
X142362475Y-110624268D01*
X142380941Y-110589719D01*
X142405785Y-110559446D01*
X142436058Y-110534602D01*
X142470607Y-110516136D01*
X142508085Y-110504766D01*
X142553200Y-110500323D01*
X143291724Y-110500323D01*
X143336839Y-110504766D01*
X143336839Y-110504766D01*
G37*
G36*
X147716377Y-110503643D02*
X147753855Y-110515013D01*
X147788404Y-110533479D01*
X147818677Y-110558323D01*
X147843521Y-110588596D01*
X147861987Y-110623145D01*
X147873357Y-110660623D01*
X147877800Y-110705738D01*
X147877800Y-111344262D01*
X147873357Y-111389377D01*
X147861987Y-111426855D01*
X147843521Y-111461404D01*
X147818677Y-111491677D01*
X147788404Y-111516521D01*
X147753855Y-111534987D01*
X147716377Y-111546357D01*
X147671262Y-111550800D01*
X146932738Y-111550800D01*
X146887623Y-111546357D01*
X146850145Y-111534987D01*
X146815596Y-111516521D01*
X146785323Y-111491677D01*
X146760479Y-111461404D01*
X146742013Y-111426855D01*
X146730643Y-111389377D01*
X146726200Y-111344262D01*
X146726200Y-110705738D01*
X146730643Y-110660623D01*
X146742013Y-110623145D01*
X146760479Y-110588596D01*
X146785323Y-110558323D01*
X146815596Y-110533479D01*
X146850145Y-110515013D01*
X146887623Y-110503643D01*
X146932738Y-110499200D01*
X147671262Y-110499200D01*
X147716377Y-110503643D01*
X147716377Y-110503643D01*
G37*
G36*
X149466377Y-110503643D02*
X149503855Y-110515013D01*
X149538404Y-110533479D01*
X149568677Y-110558323D01*
X149593521Y-110588596D01*
X149611987Y-110623145D01*
X149623357Y-110660623D01*
X149627800Y-110705738D01*
X149627800Y-111344262D01*
X149623357Y-111389377D01*
X149611987Y-111426855D01*
X149593521Y-111461404D01*
X149568677Y-111491677D01*
X149538404Y-111516521D01*
X149503855Y-111534987D01*
X149466377Y-111546357D01*
X149421262Y-111550800D01*
X148682738Y-111550800D01*
X148637623Y-111546357D01*
X148600145Y-111534987D01*
X148565596Y-111516521D01*
X148535323Y-111491677D01*
X148510479Y-111461404D01*
X148492013Y-111426855D01*
X148480643Y-111389377D01*
X148476200Y-111344262D01*
X148476200Y-110705738D01*
X148480643Y-110660623D01*
X148492013Y-110623145D01*
X148510479Y-110588596D01*
X148535323Y-110558323D01*
X148565596Y-110533479D01*
X148600145Y-110515013D01*
X148637623Y-110503643D01*
X148682738Y-110499200D01*
X149421262Y-110499200D01*
X149466377Y-110503643D01*
X149466377Y-110503643D01*
G37*
G36*
X139271821Y-109881914D02*
X139292415Y-109888162D01*
X139311397Y-109898308D01*
X139328037Y-109911963D01*
X139341692Y-109928603D01*
X139351838Y-109947585D01*
X139358086Y-109968179D01*
X139360800Y-109995740D01*
X139360800Y-110504260D01*
X139358086Y-110531821D01*
X139351838Y-110552415D01*
X139341692Y-110571397D01*
X139328037Y-110588037D01*
X139311397Y-110601692D01*
X139292415Y-110611838D01*
X139271821Y-110618086D01*
X139244260Y-110620800D01*
X138785740Y-110620800D01*
X138758179Y-110618086D01*
X138737585Y-110611838D01*
X138718603Y-110601692D01*
X138701963Y-110588037D01*
X138688308Y-110571397D01*
X138678162Y-110552415D01*
X138671914Y-110531821D01*
X138669200Y-110504260D01*
X138669200Y-109995740D01*
X138671914Y-109968179D01*
X138678162Y-109947585D01*
X138688308Y-109928603D01*
X138701963Y-109911963D01*
X138718603Y-109898308D01*
X138737585Y-109888162D01*
X138758179Y-109881914D01*
X138785740Y-109879200D01*
X139244260Y-109879200D01*
X139271821Y-109881914D01*
X139271821Y-109881914D01*
G37*
G36*
X140241821Y-109881914D02*
X140262415Y-109888162D01*
X140281397Y-109898308D01*
X140298037Y-109911963D01*
X140311692Y-109928603D01*
X140321838Y-109947585D01*
X140328086Y-109968179D01*
X140330800Y-109995740D01*
X140330800Y-110504260D01*
X140328086Y-110531821D01*
X140321838Y-110552415D01*
X140311692Y-110571397D01*
X140298037Y-110588037D01*
X140281397Y-110601692D01*
X140262415Y-110611838D01*
X140241821Y-110618086D01*
X140214260Y-110620800D01*
X139755740Y-110620800D01*
X139728179Y-110618086D01*
X139707585Y-110611838D01*
X139688603Y-110601692D01*
X139671963Y-110588037D01*
X139658308Y-110571397D01*
X139648162Y-110552415D01*
X139641914Y-110531821D01*
X139639200Y-110504260D01*
X139639200Y-109995740D01*
X139641914Y-109968179D01*
X139648162Y-109947585D01*
X139658308Y-109928603D01*
X139671963Y-109911963D01*
X139688603Y-109898308D01*
X139707585Y-109888162D01*
X139728179Y-109881914D01*
X139755740Y-109879200D01*
X140214260Y-109879200D01*
X140241821Y-109881914D01*
X140241821Y-109881914D01*
G37*
G36*
X131406362Y-108323545D02*
X131494588Y-108332234D01*
X131607789Y-108366573D01*
X131664390Y-108383743D01*
X131784418Y-108447900D01*
X131820879Y-108467389D01*
X131856609Y-108496712D01*
X131958044Y-108579956D01*
X132032495Y-108670677D01*
X132070611Y-108717121D01*
X132070612Y-108717123D01*
X132154257Y-108873610D01*
X132160183Y-108893145D01*
X132205766Y-109043412D01*
X132223158Y-109220000D01*
X132205766Y-109396588D01*
X132171427Y-109509789D01*
X132154257Y-109566390D01*
X132084521Y-109696855D01*
X132070611Y-109722879D01*
X132041288Y-109758609D01*
X131958044Y-109860044D01*
X131856609Y-109943288D01*
X131820879Y-109972611D01*
X131820877Y-109972612D01*
X131664390Y-110056257D01*
X131607789Y-110073427D01*
X131494588Y-110107766D01*
X131406362Y-110116455D01*
X131362250Y-110120800D01*
X131273750Y-110120800D01*
X131229638Y-110116455D01*
X131141412Y-110107766D01*
X131028211Y-110073427D01*
X130971610Y-110056257D01*
X130815123Y-109972612D01*
X130815121Y-109972611D01*
X130779391Y-109943288D01*
X130677956Y-109860044D01*
X130594712Y-109758609D01*
X130565389Y-109722879D01*
X130551479Y-109696855D01*
X130481743Y-109566390D01*
X130464573Y-109509789D01*
X130430234Y-109396588D01*
X130412842Y-109220000D01*
X130430234Y-109043412D01*
X130475817Y-108893145D01*
X130481743Y-108873610D01*
X130565388Y-108717123D01*
X130565389Y-108717121D01*
X130603505Y-108670677D01*
X130677956Y-108579956D01*
X130779391Y-108496712D01*
X130815121Y-108467389D01*
X130851582Y-108447900D01*
X130971610Y-108383743D01*
X131028211Y-108366573D01*
X131141412Y-108332234D01*
X131229638Y-108323545D01*
X131273750Y-108319200D01*
X131362250Y-108319200D01*
X131406362Y-108323545D01*
X131406362Y-108323545D01*
G37*
G36*
X133946362Y-108323545D02*
X134034588Y-108332234D01*
X134147789Y-108366573D01*
X134204390Y-108383743D01*
X134324418Y-108447900D01*
X134360879Y-108467389D01*
X134396609Y-108496712D01*
X134498044Y-108579956D01*
X134572495Y-108670677D01*
X134610611Y-108717121D01*
X134610612Y-108717123D01*
X134694257Y-108873610D01*
X134700183Y-108893145D01*
X134745766Y-109043412D01*
X134763158Y-109220000D01*
X134745766Y-109396588D01*
X134711427Y-109509789D01*
X134694257Y-109566390D01*
X134624521Y-109696855D01*
X134610611Y-109722879D01*
X134581288Y-109758609D01*
X134498044Y-109860044D01*
X134396609Y-109943288D01*
X134360879Y-109972611D01*
X134360877Y-109972612D01*
X134204390Y-110056257D01*
X134147789Y-110073427D01*
X134034588Y-110107766D01*
X133946362Y-110116455D01*
X133902250Y-110120800D01*
X133813750Y-110120800D01*
X133769638Y-110116455D01*
X133681412Y-110107766D01*
X133568211Y-110073427D01*
X133511610Y-110056257D01*
X133355123Y-109972612D01*
X133355121Y-109972611D01*
X133319391Y-109943288D01*
X133217956Y-109860044D01*
X133134712Y-109758609D01*
X133105389Y-109722879D01*
X133091479Y-109696855D01*
X133021743Y-109566390D01*
X133004573Y-109509789D01*
X132970234Y-109396588D01*
X132952842Y-109220000D01*
X132970234Y-109043412D01*
X133015817Y-108893145D01*
X133021743Y-108873610D01*
X133105388Y-108717123D01*
X133105389Y-108717121D01*
X133143505Y-108670677D01*
X133217956Y-108579956D01*
X133319391Y-108496712D01*
X133355121Y-108467389D01*
X133391582Y-108447900D01*
X133511610Y-108383743D01*
X133568211Y-108366573D01*
X133681412Y-108332234D01*
X133769638Y-108323545D01*
X133813750Y-108319200D01*
X133902250Y-108319200D01*
X133946362Y-108323545D01*
X133946362Y-108323545D01*
G37*
G36*
X145086839Y-108774766D02*
X145124317Y-108786136D01*
X145158866Y-108804602D01*
X145189139Y-108829446D01*
X145213983Y-108859719D01*
X145232449Y-108894268D01*
X145243819Y-108931746D01*
X145248262Y-108976861D01*
X145248262Y-109615385D01*
X145243819Y-109660500D01*
X145232449Y-109697978D01*
X145213983Y-109732527D01*
X145189139Y-109762800D01*
X145158866Y-109787644D01*
X145124317Y-109806110D01*
X145086839Y-109817480D01*
X145041724Y-109821923D01*
X144303200Y-109821923D01*
X144258085Y-109817480D01*
X144220607Y-109806110D01*
X144186058Y-109787644D01*
X144155785Y-109762800D01*
X144130941Y-109732527D01*
X144112475Y-109697978D01*
X144101105Y-109660500D01*
X144096662Y-109615385D01*
X144096662Y-108976861D01*
X144101105Y-108931746D01*
X144112475Y-108894268D01*
X144130941Y-108859719D01*
X144155785Y-108829446D01*
X144186058Y-108804602D01*
X144220607Y-108786136D01*
X144258085Y-108774766D01*
X144303200Y-108770323D01*
X145041724Y-108770323D01*
X145086839Y-108774766D01*
X145086839Y-108774766D01*
G37*
G36*
X143336839Y-108774766D02*
X143374317Y-108786136D01*
X143408866Y-108804602D01*
X143439139Y-108829446D01*
X143463983Y-108859719D01*
X143482449Y-108894268D01*
X143493819Y-108931746D01*
X143498262Y-108976861D01*
X143498262Y-109615385D01*
X143493819Y-109660500D01*
X143482449Y-109697978D01*
X143463983Y-109732527D01*
X143439139Y-109762800D01*
X143408866Y-109787644D01*
X143374317Y-109806110D01*
X143336839Y-109817480D01*
X143291724Y-109821923D01*
X142553200Y-109821923D01*
X142508085Y-109817480D01*
X142470607Y-109806110D01*
X142436058Y-109787644D01*
X142405785Y-109762800D01*
X142380941Y-109732527D01*
X142362475Y-109697978D01*
X142351105Y-109660500D01*
X142346662Y-109615385D01*
X142346662Y-108976861D01*
X142351105Y-108931746D01*
X142362475Y-108894268D01*
X142380941Y-108859719D01*
X142405785Y-108829446D01*
X142436058Y-108804602D01*
X142470607Y-108786136D01*
X142508085Y-108774766D01*
X142553200Y-108770323D01*
X143291724Y-108770323D01*
X143336839Y-108774766D01*
X143336839Y-108774766D01*
G37*
G36*
X149466377Y-108773643D02*
X149503855Y-108785013D01*
X149538404Y-108803479D01*
X149568677Y-108828323D01*
X149593521Y-108858596D01*
X149611987Y-108893145D01*
X149623357Y-108930623D01*
X149627800Y-108975738D01*
X149627800Y-109614262D01*
X149623357Y-109659377D01*
X149611987Y-109696855D01*
X149593521Y-109731404D01*
X149568677Y-109761677D01*
X149538404Y-109786521D01*
X149503855Y-109804987D01*
X149466377Y-109816357D01*
X149421262Y-109820800D01*
X148682738Y-109820800D01*
X148637623Y-109816357D01*
X148600145Y-109804987D01*
X148565596Y-109786521D01*
X148535323Y-109761677D01*
X148510479Y-109731404D01*
X148492013Y-109696855D01*
X148480643Y-109659377D01*
X148476200Y-109614262D01*
X148476200Y-108975738D01*
X148480643Y-108930623D01*
X148492013Y-108893145D01*
X148510479Y-108858596D01*
X148535323Y-108828323D01*
X148565596Y-108803479D01*
X148600145Y-108785013D01*
X148637623Y-108773643D01*
X148682738Y-108769200D01*
X149421262Y-108769200D01*
X149466377Y-108773643D01*
X149466377Y-108773643D01*
G37*
G36*
X147716377Y-108773643D02*
X147753855Y-108785013D01*
X147788404Y-108803479D01*
X147818677Y-108828323D01*
X147843521Y-108858596D01*
X147861987Y-108893145D01*
X147873357Y-108930623D01*
X147877800Y-108975738D01*
X147877800Y-109614262D01*
X147873357Y-109659377D01*
X147861987Y-109696855D01*
X147843521Y-109731404D01*
X147818677Y-109761677D01*
X147788404Y-109786521D01*
X147753855Y-109804987D01*
X147716377Y-109816357D01*
X147671262Y-109820800D01*
X146932738Y-109820800D01*
X146887623Y-109816357D01*
X146850145Y-109804987D01*
X146815596Y-109786521D01*
X146785323Y-109761677D01*
X146760479Y-109731404D01*
X146742013Y-109696855D01*
X146730643Y-109659377D01*
X146726200Y-109614262D01*
X146726200Y-108975738D01*
X146730643Y-108930623D01*
X146742013Y-108893145D01*
X146760479Y-108858596D01*
X146785323Y-108828323D01*
X146815596Y-108803479D01*
X146850145Y-108785013D01*
X146887623Y-108773643D01*
X146932738Y-108769200D01*
X147671262Y-108769200D01*
X147716377Y-108773643D01*
X147716377Y-108773643D01*
G37*
G36*
X152189377Y-107682643D02*
X152226855Y-107694013D01*
X152261404Y-107712479D01*
X152291677Y-107737323D01*
X152316521Y-107767596D01*
X152334987Y-107802145D01*
X152346357Y-107839623D01*
X152350800Y-107884738D01*
X152350800Y-108523262D01*
X152346357Y-108568377D01*
X152334987Y-108605855D01*
X152316521Y-108640404D01*
X152291677Y-108670677D01*
X152261404Y-108695521D01*
X152226855Y-108713987D01*
X152189377Y-108725357D01*
X152144262Y-108729800D01*
X151405738Y-108729800D01*
X151360623Y-108725357D01*
X151323145Y-108713987D01*
X151288596Y-108695521D01*
X151258323Y-108670677D01*
X151233479Y-108640404D01*
X151215013Y-108605855D01*
X151203643Y-108568377D01*
X151199200Y-108523262D01*
X151199200Y-107884738D01*
X151203643Y-107839623D01*
X151215013Y-107802145D01*
X151233479Y-107767596D01*
X151258323Y-107737323D01*
X151288596Y-107712479D01*
X151323145Y-107694013D01*
X151360623Y-107682643D01*
X151405738Y-107678200D01*
X152144262Y-107678200D01*
X152189377Y-107682643D01*
X152189377Y-107682643D01*
G37*
G36*
X153939377Y-107682643D02*
X153976855Y-107694013D01*
X154011404Y-107712479D01*
X154041677Y-107737323D01*
X154066521Y-107767596D01*
X154084987Y-107802145D01*
X154096357Y-107839623D01*
X154100800Y-107884738D01*
X154100800Y-108523262D01*
X154096357Y-108568377D01*
X154084987Y-108605855D01*
X154066521Y-108640404D01*
X154041677Y-108670677D01*
X154011404Y-108695521D01*
X153976855Y-108713987D01*
X153939377Y-108725357D01*
X153894262Y-108729800D01*
X153155738Y-108729800D01*
X153110623Y-108725357D01*
X153073145Y-108713987D01*
X153038596Y-108695521D01*
X153008323Y-108670677D01*
X152983479Y-108640404D01*
X152965013Y-108605855D01*
X152953643Y-108568377D01*
X152949200Y-108523262D01*
X152949200Y-107884738D01*
X152953643Y-107839623D01*
X152965013Y-107802145D01*
X152983479Y-107767596D01*
X153008323Y-107737323D01*
X153038596Y-107712479D01*
X153073145Y-107694013D01*
X153110623Y-107682643D01*
X153155738Y-107678200D01*
X153894262Y-107678200D01*
X153939377Y-107682643D01*
X153939377Y-107682643D01*
G37*
G36*
X139241821Y-107881914D02*
X139262415Y-107888162D01*
X139281397Y-107898308D01*
X139298037Y-107911963D01*
X139311692Y-107928603D01*
X139321838Y-107947585D01*
X139328086Y-107968179D01*
X139330800Y-107995740D01*
X139330800Y-108504260D01*
X139328086Y-108531821D01*
X139321838Y-108552415D01*
X139311692Y-108571397D01*
X139298037Y-108588037D01*
X139281397Y-108601692D01*
X139262415Y-108611838D01*
X139241821Y-108618086D01*
X139214260Y-108620800D01*
X138755740Y-108620800D01*
X138728179Y-108618086D01*
X138707585Y-108611838D01*
X138688603Y-108601692D01*
X138671963Y-108588037D01*
X138658308Y-108571397D01*
X138648162Y-108552415D01*
X138641914Y-108531821D01*
X138639200Y-108504260D01*
X138639200Y-107995740D01*
X138641914Y-107968179D01*
X138648162Y-107947585D01*
X138658308Y-107928603D01*
X138671963Y-107911963D01*
X138688603Y-107898308D01*
X138707585Y-107888162D01*
X138728179Y-107881914D01*
X138755740Y-107879200D01*
X139214260Y-107879200D01*
X139241821Y-107881914D01*
X139241821Y-107881914D01*
G37*
G36*
X138271821Y-107881914D02*
X138292415Y-107888162D01*
X138311397Y-107898308D01*
X138328037Y-107911963D01*
X138341692Y-107928603D01*
X138351838Y-107947585D01*
X138358086Y-107968179D01*
X138360800Y-107995740D01*
X138360800Y-108504260D01*
X138358086Y-108531821D01*
X138351838Y-108552415D01*
X138341692Y-108571397D01*
X138328037Y-108588037D01*
X138311397Y-108601692D01*
X138292415Y-108611838D01*
X138271821Y-108618086D01*
X138244260Y-108620800D01*
X137785740Y-108620800D01*
X137758179Y-108618086D01*
X137737585Y-108611838D01*
X137718603Y-108601692D01*
X137701963Y-108588037D01*
X137688308Y-108571397D01*
X137678162Y-108552415D01*
X137671914Y-108531821D01*
X137669200Y-108504260D01*
X137669200Y-107995740D01*
X137671914Y-107968179D01*
X137678162Y-107947585D01*
X137688308Y-107928603D01*
X137701963Y-107911963D01*
X137718603Y-107898308D01*
X137737585Y-107888162D01*
X137758179Y-107881914D01*
X137785740Y-107879200D01*
X138244260Y-107879200D01*
X138271821Y-107881914D01*
X138271821Y-107881914D01*
G37*
G36*
X143336839Y-107004766D02*
X143374317Y-107016136D01*
X143408866Y-107034602D01*
X143439139Y-107059446D01*
X143463983Y-107089719D01*
X143482449Y-107124268D01*
X143493819Y-107161746D01*
X143498262Y-107206861D01*
X143498262Y-107845385D01*
X143493819Y-107890499D01*
X143482449Y-107927978D01*
X143463983Y-107962527D01*
X143439139Y-107992800D01*
X143408866Y-108017644D01*
X143374317Y-108036110D01*
X143336839Y-108047480D01*
X143291724Y-108051923D01*
X142553200Y-108051923D01*
X142508085Y-108047480D01*
X142470607Y-108036110D01*
X142436058Y-108017644D01*
X142405785Y-107992800D01*
X142380941Y-107962527D01*
X142362475Y-107927978D01*
X142351105Y-107890499D01*
X142346662Y-107845385D01*
X142346662Y-107206861D01*
X142351105Y-107161746D01*
X142362475Y-107124268D01*
X142380941Y-107089719D01*
X142405785Y-107059446D01*
X142436058Y-107034602D01*
X142470607Y-107016136D01*
X142508085Y-107004766D01*
X142553200Y-107000323D01*
X143291724Y-107000323D01*
X143336839Y-107004766D01*
X143336839Y-107004766D01*
G37*
G36*
X145086839Y-107004766D02*
X145124317Y-107016136D01*
X145158866Y-107034602D01*
X145189139Y-107059446D01*
X145213983Y-107089719D01*
X145232449Y-107124268D01*
X145243819Y-107161746D01*
X145248262Y-107206861D01*
X145248262Y-107845385D01*
X145243819Y-107890499D01*
X145232449Y-107927978D01*
X145213983Y-107962527D01*
X145189139Y-107992800D01*
X145158866Y-108017644D01*
X145124317Y-108036110D01*
X145086839Y-108047480D01*
X145041724Y-108051923D01*
X144303200Y-108051923D01*
X144258085Y-108047480D01*
X144220607Y-108036110D01*
X144186058Y-108017644D01*
X144155785Y-107992800D01*
X144130941Y-107962527D01*
X144112475Y-107927978D01*
X144101105Y-107890499D01*
X144096662Y-107845385D01*
X144096662Y-107206861D01*
X144101105Y-107161746D01*
X144112475Y-107124268D01*
X144130941Y-107089719D01*
X144155785Y-107059446D01*
X144186058Y-107034602D01*
X144220607Y-107016136D01*
X144258085Y-107004766D01*
X144303200Y-107000323D01*
X145041724Y-107000323D01*
X145086839Y-107004766D01*
X145086839Y-107004766D01*
G37*
G36*
X147716377Y-107003643D02*
X147753855Y-107015013D01*
X147788404Y-107033479D01*
X147818677Y-107058323D01*
X147843521Y-107088596D01*
X147861987Y-107123145D01*
X147873357Y-107160623D01*
X147877800Y-107205738D01*
X147877800Y-107844262D01*
X147873357Y-107889377D01*
X147861987Y-107926855D01*
X147843521Y-107961404D01*
X147818677Y-107991677D01*
X147788404Y-108016521D01*
X147753855Y-108034987D01*
X147716377Y-108046357D01*
X147671262Y-108050800D01*
X146932738Y-108050800D01*
X146887623Y-108046357D01*
X146850145Y-108034987D01*
X146815596Y-108016521D01*
X146785323Y-107991677D01*
X146760479Y-107961404D01*
X146742013Y-107926855D01*
X146730643Y-107889377D01*
X146726200Y-107844262D01*
X146726200Y-107205738D01*
X146730643Y-107160623D01*
X146742013Y-107123145D01*
X146760479Y-107088596D01*
X146785323Y-107058323D01*
X146815596Y-107033479D01*
X146850145Y-107015013D01*
X146887623Y-107003643D01*
X146932738Y-106999200D01*
X147671262Y-106999200D01*
X147716377Y-107003643D01*
X147716377Y-107003643D01*
G37*
G36*
X149466377Y-107003643D02*
X149503855Y-107015013D01*
X149538404Y-107033479D01*
X149568677Y-107058323D01*
X149593521Y-107088596D01*
X149611987Y-107123145D01*
X149623357Y-107160623D01*
X149627800Y-107205738D01*
X149627800Y-107844262D01*
X149623357Y-107889377D01*
X149611987Y-107926855D01*
X149593521Y-107961404D01*
X149568677Y-107991677D01*
X149538404Y-108016521D01*
X149503855Y-108034987D01*
X149466377Y-108046357D01*
X149421262Y-108050800D01*
X148682738Y-108050800D01*
X148637623Y-108046357D01*
X148600145Y-108034987D01*
X148565596Y-108016521D01*
X148535323Y-107991677D01*
X148510479Y-107961404D01*
X148492013Y-107926855D01*
X148480643Y-107889377D01*
X148476200Y-107844262D01*
X148476200Y-107205738D01*
X148480643Y-107160623D01*
X148492013Y-107123145D01*
X148510479Y-107088596D01*
X148535323Y-107058323D01*
X148565596Y-107033479D01*
X148600145Y-107015013D01*
X148637623Y-107003643D01*
X148682738Y-106999200D01*
X149421262Y-106999200D01*
X149466377Y-107003643D01*
X149466377Y-107003643D01*
G37*
G36*
X139271821Y-106881914D02*
X139292415Y-106888162D01*
X139311397Y-106898308D01*
X139328037Y-106911963D01*
X139341692Y-106928603D01*
X139351838Y-106947585D01*
X139358086Y-106968179D01*
X139360800Y-106995740D01*
X139360800Y-107504260D01*
X139358086Y-107531821D01*
X139351838Y-107552415D01*
X139341692Y-107571397D01*
X139328037Y-107588037D01*
X139311397Y-107601692D01*
X139292415Y-107611838D01*
X139271821Y-107618086D01*
X139244260Y-107620800D01*
X138785740Y-107620800D01*
X138758179Y-107618086D01*
X138737585Y-107611838D01*
X138718603Y-107601692D01*
X138701963Y-107588037D01*
X138688308Y-107571397D01*
X138678162Y-107552415D01*
X138671914Y-107531821D01*
X138669200Y-107504260D01*
X138669200Y-106995740D01*
X138671914Y-106968179D01*
X138678162Y-106947585D01*
X138688308Y-106928603D01*
X138701963Y-106911963D01*
X138718603Y-106898308D01*
X138737585Y-106888162D01*
X138758179Y-106881914D01*
X138785740Y-106879200D01*
X139244260Y-106879200D01*
X139271821Y-106881914D01*
X139271821Y-106881914D01*
G37*
G36*
X140241821Y-106881914D02*
X140262415Y-106888162D01*
X140281397Y-106898308D01*
X140298037Y-106911963D01*
X140311692Y-106928603D01*
X140321838Y-106947585D01*
X140328086Y-106968179D01*
X140330800Y-106995740D01*
X140330800Y-107504260D01*
X140328086Y-107531821D01*
X140321838Y-107552415D01*
X140311692Y-107571397D01*
X140298037Y-107588037D01*
X140281397Y-107601692D01*
X140262415Y-107611838D01*
X140241821Y-107618086D01*
X140214260Y-107620800D01*
X139755740Y-107620800D01*
X139728179Y-107618086D01*
X139707585Y-107611838D01*
X139688603Y-107601692D01*
X139671963Y-107588037D01*
X139658308Y-107571397D01*
X139648162Y-107552415D01*
X139641914Y-107531821D01*
X139639200Y-107504260D01*
X139639200Y-106995740D01*
X139641914Y-106968179D01*
X139648162Y-106947585D01*
X139658308Y-106928603D01*
X139671963Y-106911963D01*
X139688603Y-106898308D01*
X139707585Y-106888162D01*
X139728179Y-106881914D01*
X139755740Y-106879200D01*
X140214260Y-106879200D01*
X140241821Y-106881914D01*
X140241821Y-106881914D01*
G37*
G36*
X132218800Y-107580800D02*
X130417200Y-107580800D01*
X130417200Y-105779200D01*
X132218800Y-105779200D01*
X132218800Y-107580800D01*
X132218800Y-107580800D01*
G37*
G36*
X133946362Y-105783545D02*
X134034588Y-105792234D01*
X134147789Y-105826573D01*
X134204390Y-105843743D01*
X134306473Y-105898308D01*
X134360879Y-105927389D01*
X134385488Y-105947585D01*
X134498044Y-106039956D01*
X134581288Y-106141391D01*
X134610611Y-106177121D01*
X134610612Y-106177123D01*
X134694257Y-106333610D01*
X134694257Y-106333611D01*
X134745766Y-106503412D01*
X134763158Y-106680000D01*
X134745766Y-106856588D01*
X134736188Y-106888162D01*
X134694257Y-107026390D01*
X134622507Y-107160623D01*
X134610611Y-107182879D01*
X134591851Y-107205738D01*
X134498044Y-107320044D01*
X134396609Y-107403288D01*
X134360879Y-107432611D01*
X134360877Y-107432612D01*
X134204390Y-107516257D01*
X134153082Y-107531821D01*
X134034588Y-107567766D01*
X133946362Y-107576455D01*
X133902250Y-107580800D01*
X133813750Y-107580800D01*
X133769638Y-107576455D01*
X133681412Y-107567766D01*
X133562918Y-107531821D01*
X133511610Y-107516257D01*
X133355123Y-107432612D01*
X133355121Y-107432611D01*
X133319391Y-107403288D01*
X133217956Y-107320044D01*
X133124149Y-107205738D01*
X133105389Y-107182879D01*
X133093493Y-107160623D01*
X133021743Y-107026390D01*
X132979812Y-106888162D01*
X132970234Y-106856588D01*
X132952842Y-106680000D01*
X132970234Y-106503412D01*
X133021743Y-106333611D01*
X133021743Y-106333610D01*
X133105388Y-106177123D01*
X133105389Y-106177121D01*
X133134712Y-106141391D01*
X133217956Y-106039956D01*
X133330512Y-105947585D01*
X133355121Y-105927389D01*
X133409527Y-105898308D01*
X133511610Y-105843743D01*
X133568211Y-105826573D01*
X133681412Y-105792234D01*
X133769638Y-105783545D01*
X133813750Y-105779200D01*
X133902250Y-105779200D01*
X133946362Y-105783545D01*
X133946362Y-105783545D01*
G37*
G36*
X151864377Y-105553643D02*
X151901855Y-105565013D01*
X151936404Y-105583479D01*
X151966677Y-105608323D01*
X151991521Y-105638596D01*
X152009987Y-105673145D01*
X152021357Y-105710623D01*
X152025800Y-105755738D01*
X152025800Y-106494262D01*
X152021357Y-106539377D01*
X152009987Y-106576855D01*
X151991521Y-106611404D01*
X151966677Y-106641677D01*
X151936404Y-106666521D01*
X151901855Y-106684987D01*
X151864377Y-106696357D01*
X151819262Y-106700800D01*
X151180738Y-106700800D01*
X151135623Y-106696357D01*
X151098145Y-106684987D01*
X151063596Y-106666521D01*
X151033323Y-106641677D01*
X151008479Y-106611404D01*
X150990013Y-106576855D01*
X150978643Y-106539377D01*
X150974200Y-106494262D01*
X150974200Y-105755738D01*
X150978643Y-105710623D01*
X150990013Y-105673145D01*
X151008479Y-105638596D01*
X151033323Y-105608323D01*
X151063596Y-105583479D01*
X151098145Y-105565013D01*
X151135623Y-105553643D01*
X151180738Y-105549200D01*
X151819262Y-105549200D01*
X151864377Y-105553643D01*
X151864377Y-105553643D01*
G37*
G36*
X153889377Y-105553643D02*
X153926855Y-105565013D01*
X153961404Y-105583479D01*
X153991677Y-105608323D01*
X154016521Y-105638596D01*
X154034987Y-105673145D01*
X154046357Y-105710623D01*
X154050800Y-105755738D01*
X154050800Y-106494262D01*
X154046357Y-106539377D01*
X154034987Y-106576855D01*
X154016521Y-106611404D01*
X153991677Y-106641677D01*
X153961404Y-106666521D01*
X153926855Y-106684987D01*
X153889377Y-106696357D01*
X153844262Y-106700800D01*
X153205738Y-106700800D01*
X153160623Y-106696357D01*
X153123145Y-106684987D01*
X153088596Y-106666521D01*
X153058323Y-106641677D01*
X153033479Y-106611404D01*
X153015013Y-106576855D01*
X153003643Y-106539377D01*
X152999200Y-106494262D01*
X152999200Y-105755738D01*
X153003643Y-105710623D01*
X153015013Y-105673145D01*
X153033479Y-105638596D01*
X153058323Y-105608323D01*
X153088596Y-105583479D01*
X153123145Y-105565013D01*
X153160623Y-105553643D01*
X153205738Y-105549200D01*
X153844262Y-105549200D01*
X153889377Y-105553643D01*
X153889377Y-105553643D01*
G37*
G36*
X139241821Y-105881914D02*
X139262415Y-105888162D01*
X139281397Y-105898308D01*
X139298037Y-105911963D01*
X139311692Y-105928603D01*
X139321838Y-105947585D01*
X139328086Y-105968179D01*
X139330800Y-105995740D01*
X139330800Y-106504260D01*
X139328086Y-106531821D01*
X139321838Y-106552415D01*
X139311692Y-106571397D01*
X139298037Y-106588037D01*
X139281397Y-106601692D01*
X139262415Y-106611838D01*
X139241821Y-106618086D01*
X139214260Y-106620800D01*
X138755740Y-106620800D01*
X138728179Y-106618086D01*
X138707585Y-106611838D01*
X138688603Y-106601692D01*
X138671963Y-106588037D01*
X138658308Y-106571397D01*
X138648162Y-106552415D01*
X138641914Y-106531821D01*
X138639200Y-106504260D01*
X138639200Y-105995740D01*
X138641914Y-105968179D01*
X138648162Y-105947585D01*
X138658308Y-105928603D01*
X138671963Y-105911963D01*
X138688603Y-105898308D01*
X138707585Y-105888162D01*
X138728179Y-105881914D01*
X138755740Y-105879200D01*
X139214260Y-105879200D01*
X139241821Y-105881914D01*
X139241821Y-105881914D01*
G37*
G36*
X138271821Y-105881914D02*
X138292415Y-105888162D01*
X138311397Y-105898308D01*
X138328037Y-105911963D01*
X138341692Y-105928603D01*
X138351838Y-105947585D01*
X138358086Y-105968179D01*
X138360800Y-105995740D01*
X138360800Y-106504260D01*
X138358086Y-106531821D01*
X138351838Y-106552415D01*
X138341692Y-106571397D01*
X138328037Y-106588037D01*
X138311397Y-106601692D01*
X138292415Y-106611838D01*
X138271821Y-106618086D01*
X138244260Y-106620800D01*
X137785740Y-106620800D01*
X137758179Y-106618086D01*
X137737585Y-106611838D01*
X137718603Y-106601692D01*
X137701963Y-106588037D01*
X137688308Y-106571397D01*
X137678162Y-106552415D01*
X137671914Y-106531821D01*
X137669200Y-106504260D01*
X137669200Y-105995740D01*
X137671914Y-105968179D01*
X137678162Y-105947585D01*
X137688308Y-105928603D01*
X137701963Y-105911963D01*
X137718603Y-105898308D01*
X137737585Y-105888162D01*
X137758179Y-105881914D01*
X137785740Y-105879200D01*
X138244260Y-105879200D01*
X138271821Y-105881914D01*
X138271821Y-105881914D01*
G37*
G36*
X139271821Y-104881914D02*
X139292415Y-104888162D01*
X139311397Y-104898308D01*
X139328037Y-104911963D01*
X139341692Y-104928603D01*
X139351838Y-104947585D01*
X139358086Y-104968179D01*
X139360800Y-104995740D01*
X139360800Y-105504260D01*
X139358086Y-105531821D01*
X139351838Y-105552415D01*
X139341692Y-105571397D01*
X139328037Y-105588037D01*
X139311397Y-105601692D01*
X139292415Y-105611838D01*
X139271821Y-105618086D01*
X139244260Y-105620800D01*
X138785740Y-105620800D01*
X138758179Y-105618086D01*
X138737585Y-105611838D01*
X138718603Y-105601692D01*
X138701963Y-105588037D01*
X138688308Y-105571397D01*
X138678162Y-105552415D01*
X138671914Y-105531821D01*
X138669200Y-105504260D01*
X138669200Y-104995740D01*
X138671914Y-104968179D01*
X138678162Y-104947585D01*
X138688308Y-104928603D01*
X138701963Y-104911963D01*
X138718603Y-104898308D01*
X138737585Y-104888162D01*
X138758179Y-104881914D01*
X138785740Y-104879200D01*
X139244260Y-104879200D01*
X139271821Y-104881914D01*
X139271821Y-104881914D01*
G37*
G36*
X140241821Y-104881914D02*
X140262415Y-104888162D01*
X140281397Y-104898308D01*
X140298037Y-104911963D01*
X140311692Y-104928603D01*
X140321838Y-104947585D01*
X140328086Y-104968179D01*
X140330800Y-104995740D01*
X140330800Y-105504260D01*
X140328086Y-105531821D01*
X140321838Y-105552415D01*
X140311692Y-105571397D01*
X140298037Y-105588037D01*
X140281397Y-105601692D01*
X140262415Y-105611838D01*
X140241821Y-105618086D01*
X140214260Y-105620800D01*
X139755740Y-105620800D01*
X139728179Y-105618086D01*
X139707585Y-105611838D01*
X139688603Y-105601692D01*
X139671963Y-105588037D01*
X139658308Y-105571397D01*
X139648162Y-105552415D01*
X139641914Y-105531821D01*
X139639200Y-105504260D01*
X139639200Y-104995740D01*
X139641914Y-104968179D01*
X139648162Y-104947585D01*
X139658308Y-104928603D01*
X139671963Y-104911963D01*
X139688603Y-104898308D01*
X139707585Y-104888162D01*
X139728179Y-104881914D01*
X139755740Y-104879200D01*
X140214260Y-104879200D01*
X140241821Y-104881914D01*
X140241821Y-104881914D01*
G37*
G36*
X151864377Y-103803643D02*
X151901855Y-103815013D01*
X151936404Y-103833479D01*
X151966677Y-103858323D01*
X151991521Y-103888596D01*
X152009987Y-103923145D01*
X152021357Y-103960623D01*
X152025800Y-104005738D01*
X152025800Y-104744262D01*
X152021357Y-104789377D01*
X152009987Y-104826855D01*
X151991521Y-104861404D01*
X151966677Y-104891677D01*
X151936404Y-104916521D01*
X151901855Y-104934987D01*
X151864377Y-104946357D01*
X151819262Y-104950800D01*
X151180738Y-104950800D01*
X151135623Y-104946357D01*
X151098145Y-104934987D01*
X151063596Y-104916521D01*
X151033323Y-104891677D01*
X151008479Y-104861404D01*
X150990013Y-104826855D01*
X150978643Y-104789377D01*
X150974200Y-104744262D01*
X150974200Y-104005738D01*
X150978643Y-103960623D01*
X150990013Y-103923145D01*
X151008479Y-103888596D01*
X151033323Y-103858323D01*
X151063596Y-103833479D01*
X151098145Y-103815013D01*
X151135623Y-103803643D01*
X151180738Y-103799200D01*
X151819262Y-103799200D01*
X151864377Y-103803643D01*
X151864377Y-103803643D01*
G37*
G36*
X153889377Y-103803643D02*
X153926855Y-103815013D01*
X153961404Y-103833479D01*
X153991677Y-103858323D01*
X154016521Y-103888596D01*
X154034987Y-103923145D01*
X154046357Y-103960623D01*
X154050800Y-104005738D01*
X154050800Y-104744262D01*
X154046357Y-104789377D01*
X154034987Y-104826855D01*
X154016521Y-104861404D01*
X153991677Y-104891677D01*
X153961404Y-104916521D01*
X153926855Y-104934987D01*
X153889377Y-104946357D01*
X153844262Y-104950800D01*
X153205738Y-104950800D01*
X153160623Y-104946357D01*
X153123145Y-104934987D01*
X153088596Y-104916521D01*
X153058323Y-104891677D01*
X153033479Y-104861404D01*
X153015013Y-104826855D01*
X153003643Y-104789377D01*
X152999200Y-104744262D01*
X152999200Y-104005738D01*
X153003643Y-103960623D01*
X153015013Y-103923145D01*
X153033479Y-103888596D01*
X153058323Y-103858323D01*
X153088596Y-103833479D01*
X153123145Y-103815013D01*
X153160623Y-103803643D01*
X153205738Y-103799200D01*
X153844262Y-103799200D01*
X153889377Y-103803643D01*
X153889377Y-103803643D01*
G37*
G36*
X138271821Y-103881914D02*
X138292415Y-103888162D01*
X138311397Y-103898308D01*
X138328037Y-103911963D01*
X138341692Y-103928603D01*
X138351838Y-103947585D01*
X138358086Y-103968179D01*
X138360800Y-103995740D01*
X138360800Y-104504260D01*
X138358086Y-104531821D01*
X138351838Y-104552415D01*
X138341692Y-104571397D01*
X138328037Y-104588037D01*
X138311397Y-104601692D01*
X138292415Y-104611838D01*
X138271821Y-104618086D01*
X138244260Y-104620800D01*
X137785740Y-104620800D01*
X137758179Y-104618086D01*
X137737585Y-104611838D01*
X137718603Y-104601692D01*
X137701963Y-104588037D01*
X137688308Y-104571397D01*
X137678162Y-104552415D01*
X137671914Y-104531821D01*
X137669200Y-104504260D01*
X137669200Y-103995740D01*
X137671914Y-103968179D01*
X137678162Y-103947585D01*
X137688308Y-103928603D01*
X137701963Y-103911963D01*
X137718603Y-103898308D01*
X137737585Y-103888162D01*
X137758179Y-103881914D01*
X137785740Y-103879200D01*
X138244260Y-103879200D01*
X138271821Y-103881914D01*
X138271821Y-103881914D01*
G37*
G36*
X139241821Y-103881914D02*
X139262415Y-103888162D01*
X139281397Y-103898308D01*
X139298037Y-103911963D01*
X139311692Y-103928603D01*
X139321838Y-103947585D01*
X139328086Y-103968179D01*
X139330800Y-103995740D01*
X139330800Y-104504260D01*
X139328086Y-104531821D01*
X139321838Y-104552415D01*
X139311692Y-104571397D01*
X139298037Y-104588037D01*
X139281397Y-104601692D01*
X139262415Y-104611838D01*
X139241821Y-104618086D01*
X139214260Y-104620800D01*
X138755740Y-104620800D01*
X138728179Y-104618086D01*
X138707585Y-104611838D01*
X138688603Y-104601692D01*
X138671963Y-104588037D01*
X138658308Y-104571397D01*
X138648162Y-104552415D01*
X138641914Y-104531821D01*
X138639200Y-104504260D01*
X138639200Y-103995740D01*
X138641914Y-103968179D01*
X138648162Y-103947585D01*
X138658308Y-103928603D01*
X138671963Y-103911963D01*
X138688603Y-103898308D01*
X138707585Y-103888162D01*
X138728179Y-103881914D01*
X138755740Y-103879200D01*
X139214260Y-103879200D01*
X139241821Y-103881914D01*
X139241821Y-103881914D01*
G37*
G36*
X143750800Y-104555800D02*
X142549200Y-104555800D01*
X142549200Y-95604200D01*
X143750800Y-95604200D01*
X143750800Y-104555800D01*
X143750800Y-104555800D01*
G37*
G36*
X149450800Y-104555800D02*
X148249200Y-104555800D01*
X148249200Y-95604200D01*
X149450800Y-95604200D01*
X149450800Y-104555800D01*
X149450800Y-104555800D01*
G37*
G36*
X140241821Y-102881914D02*
X140262415Y-102888162D01*
X140281397Y-102898308D01*
X140298037Y-102911963D01*
X140311692Y-102928603D01*
X140321838Y-102947585D01*
X140328086Y-102968179D01*
X140330800Y-102995740D01*
X140330800Y-103504260D01*
X140328086Y-103531821D01*
X140321838Y-103552415D01*
X140311692Y-103571397D01*
X140298037Y-103588037D01*
X140281397Y-103601692D01*
X140262415Y-103611838D01*
X140241821Y-103618086D01*
X140214260Y-103620800D01*
X139755740Y-103620800D01*
X139728179Y-103618086D01*
X139707585Y-103611838D01*
X139688603Y-103601692D01*
X139671963Y-103588037D01*
X139658308Y-103571397D01*
X139648162Y-103552415D01*
X139641914Y-103531821D01*
X139639200Y-103504260D01*
X139639200Y-102995740D01*
X139641914Y-102968179D01*
X139648162Y-102947585D01*
X139658308Y-102928603D01*
X139671963Y-102911963D01*
X139688603Y-102898308D01*
X139707585Y-102888162D01*
X139728179Y-102881914D01*
X139755740Y-102879200D01*
X140214260Y-102879200D01*
X140241821Y-102881914D01*
X140241821Y-102881914D01*
G37*
G36*
X139271821Y-102881914D02*
X139292415Y-102888162D01*
X139311397Y-102898308D01*
X139328037Y-102911963D01*
X139341692Y-102928603D01*
X139351838Y-102947585D01*
X139358086Y-102968179D01*
X139360800Y-102995740D01*
X139360800Y-103504260D01*
X139358086Y-103531821D01*
X139351838Y-103552415D01*
X139341692Y-103571397D01*
X139328037Y-103588037D01*
X139311397Y-103601692D01*
X139292415Y-103611838D01*
X139271821Y-103618086D01*
X139244260Y-103620800D01*
X138785740Y-103620800D01*
X138758179Y-103618086D01*
X138737585Y-103611838D01*
X138718603Y-103601692D01*
X138701963Y-103588037D01*
X138688308Y-103571397D01*
X138678162Y-103552415D01*
X138671914Y-103531821D01*
X138669200Y-103504260D01*
X138669200Y-102995740D01*
X138671914Y-102968179D01*
X138678162Y-102947585D01*
X138688308Y-102928603D01*
X138701963Y-102911963D01*
X138718603Y-102898308D01*
X138737585Y-102888162D01*
X138758179Y-102881914D01*
X138785740Y-102879200D01*
X139244260Y-102879200D01*
X139271821Y-102881914D01*
X139271821Y-102881914D01*
G37*
G36*
X153939377Y-101833643D02*
X153976855Y-101845013D01*
X154011404Y-101863479D01*
X154041677Y-101888323D01*
X154066521Y-101918596D01*
X154084987Y-101953145D01*
X154096357Y-101990623D01*
X154100800Y-102035738D01*
X154100800Y-102674262D01*
X154096357Y-102719377D01*
X154084987Y-102756855D01*
X154066521Y-102791404D01*
X154041677Y-102821677D01*
X154011404Y-102846521D01*
X153976855Y-102864987D01*
X153939377Y-102876357D01*
X153894262Y-102880800D01*
X153155738Y-102880800D01*
X153110623Y-102876357D01*
X153073145Y-102864987D01*
X153038596Y-102846521D01*
X153008323Y-102821677D01*
X152983479Y-102791404D01*
X152965013Y-102756855D01*
X152953643Y-102719377D01*
X152949200Y-102674262D01*
X152949200Y-102035738D01*
X152953643Y-101990623D01*
X152965013Y-101953145D01*
X152983479Y-101918596D01*
X153008323Y-101888323D01*
X153038596Y-101863479D01*
X153073145Y-101845013D01*
X153110623Y-101833643D01*
X153155738Y-101829200D01*
X153894262Y-101829200D01*
X153939377Y-101833643D01*
X153939377Y-101833643D01*
G37*
G36*
X152189377Y-101833643D02*
X152226855Y-101845013D01*
X152261404Y-101863479D01*
X152291677Y-101888323D01*
X152316521Y-101918596D01*
X152334987Y-101953145D01*
X152346357Y-101990623D01*
X152350800Y-102035738D01*
X152350800Y-102674262D01*
X152346357Y-102719377D01*
X152334987Y-102756855D01*
X152316521Y-102791404D01*
X152291677Y-102821677D01*
X152261404Y-102846521D01*
X152226855Y-102864987D01*
X152189377Y-102876357D01*
X152144262Y-102880800D01*
X151405738Y-102880800D01*
X151360623Y-102876357D01*
X151323145Y-102864987D01*
X151288596Y-102846521D01*
X151258323Y-102821677D01*
X151233479Y-102791404D01*
X151215013Y-102756855D01*
X151203643Y-102719377D01*
X151199200Y-102674262D01*
X151199200Y-102035738D01*
X151203643Y-101990623D01*
X151215013Y-101953145D01*
X151233479Y-101918596D01*
X151258323Y-101888323D01*
X151288596Y-101863479D01*
X151323145Y-101845013D01*
X151360623Y-101833643D01*
X151405738Y-101829200D01*
X152144262Y-101829200D01*
X152189377Y-101833643D01*
X152189377Y-101833643D01*
G37*
G36*
X139241821Y-101881914D02*
X139262415Y-101888162D01*
X139281397Y-101898308D01*
X139298037Y-101911963D01*
X139311692Y-101928603D01*
X139321838Y-101947585D01*
X139328086Y-101968179D01*
X139330800Y-101995740D01*
X139330800Y-102504260D01*
X139328086Y-102531821D01*
X139321838Y-102552415D01*
X139311692Y-102571397D01*
X139298037Y-102588037D01*
X139281397Y-102601692D01*
X139262415Y-102611838D01*
X139241821Y-102618086D01*
X139214260Y-102620800D01*
X138755740Y-102620800D01*
X138728179Y-102618086D01*
X138707585Y-102611838D01*
X138688603Y-102601692D01*
X138671963Y-102588037D01*
X138658308Y-102571397D01*
X138648162Y-102552415D01*
X138641914Y-102531821D01*
X138639200Y-102504260D01*
X138639200Y-101995740D01*
X138641914Y-101968179D01*
X138648162Y-101947585D01*
X138658308Y-101928603D01*
X138671963Y-101911963D01*
X138688603Y-101898308D01*
X138707585Y-101888162D01*
X138728179Y-101881914D01*
X138755740Y-101879200D01*
X139214260Y-101879200D01*
X139241821Y-101881914D01*
X139241821Y-101881914D01*
G37*
G36*
X138271821Y-101881914D02*
X138292415Y-101888162D01*
X138311397Y-101898308D01*
X138328037Y-101911963D01*
X138341692Y-101928603D01*
X138351838Y-101947585D01*
X138358086Y-101968179D01*
X138360800Y-101995740D01*
X138360800Y-102504260D01*
X138358086Y-102531821D01*
X138351838Y-102552415D01*
X138341692Y-102571397D01*
X138328037Y-102588037D01*
X138311397Y-102601692D01*
X138292415Y-102611838D01*
X138271821Y-102618086D01*
X138244260Y-102620800D01*
X137785740Y-102620800D01*
X137758179Y-102618086D01*
X137737585Y-102611838D01*
X137718603Y-102601692D01*
X137701963Y-102588037D01*
X137688308Y-102571397D01*
X137678162Y-102552415D01*
X137671914Y-102531821D01*
X137669200Y-102504260D01*
X137669200Y-101995740D01*
X137671914Y-101968179D01*
X137678162Y-101947585D01*
X137688308Y-101928603D01*
X137701963Y-101911963D01*
X137718603Y-101898308D01*
X137737585Y-101888162D01*
X137758179Y-101881914D01*
X137785740Y-101879200D01*
X138244260Y-101879200D01*
X138271821Y-101881914D01*
X138271821Y-101881914D01*
G37*
G36*
X139271821Y-100881914D02*
X139292415Y-100888162D01*
X139311397Y-100898308D01*
X139328037Y-100911963D01*
X139341692Y-100928603D01*
X139351838Y-100947585D01*
X139358086Y-100968179D01*
X139360800Y-100995740D01*
X139360800Y-101504260D01*
X139358086Y-101531821D01*
X139351838Y-101552415D01*
X139341692Y-101571397D01*
X139328037Y-101588037D01*
X139311397Y-101601692D01*
X139292415Y-101611838D01*
X139271821Y-101618086D01*
X139244260Y-101620800D01*
X138785740Y-101620800D01*
X138758179Y-101618086D01*
X138737585Y-101611838D01*
X138718603Y-101601692D01*
X138701963Y-101588037D01*
X138688308Y-101571397D01*
X138678162Y-101552415D01*
X138671914Y-101531821D01*
X138669200Y-101504260D01*
X138669200Y-100995740D01*
X138671914Y-100968179D01*
X138678162Y-100947585D01*
X138688308Y-100928603D01*
X138701963Y-100911963D01*
X138718603Y-100898308D01*
X138737585Y-100888162D01*
X138758179Y-100881914D01*
X138785740Y-100879200D01*
X139244260Y-100879200D01*
X139271821Y-100881914D01*
X139271821Y-100881914D01*
G37*
G36*
X140241821Y-100881914D02*
X140262415Y-100888162D01*
X140281397Y-100898308D01*
X140298037Y-100911963D01*
X140311692Y-100928603D01*
X140321838Y-100947585D01*
X140328086Y-100968179D01*
X140330800Y-100995740D01*
X140330800Y-101504260D01*
X140328086Y-101531821D01*
X140321838Y-101552415D01*
X140311692Y-101571397D01*
X140298037Y-101588037D01*
X140281397Y-101601692D01*
X140262415Y-101611838D01*
X140241821Y-101618086D01*
X140214260Y-101620800D01*
X139755740Y-101620800D01*
X139728179Y-101618086D01*
X139707585Y-101611838D01*
X139688603Y-101601692D01*
X139671963Y-101588037D01*
X139658308Y-101571397D01*
X139648162Y-101552415D01*
X139641914Y-101531821D01*
X139639200Y-101504260D01*
X139639200Y-100995740D01*
X139641914Y-100968179D01*
X139648162Y-100947585D01*
X139658308Y-100928603D01*
X139671963Y-100911963D01*
X139688603Y-100898308D01*
X139707585Y-100888162D01*
X139728179Y-100881914D01*
X139755740Y-100879200D01*
X140214260Y-100879200D01*
X140241821Y-100881914D01*
X140241821Y-100881914D01*
G37*
G36*
X158479377Y-100303643D02*
X158516855Y-100315013D01*
X158551404Y-100333479D01*
X158581677Y-100358323D01*
X158606521Y-100388596D01*
X158624987Y-100423145D01*
X158636357Y-100460623D01*
X158640800Y-100505738D01*
X158640800Y-101244262D01*
X158636357Y-101289377D01*
X158624987Y-101326855D01*
X158606521Y-101361404D01*
X158581677Y-101391677D01*
X158551404Y-101416521D01*
X158516855Y-101434987D01*
X158479377Y-101446357D01*
X158434262Y-101450800D01*
X157795738Y-101450800D01*
X157750623Y-101446357D01*
X157713145Y-101434987D01*
X157678596Y-101416521D01*
X157648323Y-101391677D01*
X157623479Y-101361404D01*
X157605013Y-101326855D01*
X157593643Y-101289377D01*
X157589200Y-101244262D01*
X157589200Y-100505738D01*
X157593643Y-100460623D01*
X157605013Y-100423145D01*
X157623479Y-100388596D01*
X157648323Y-100358323D01*
X157678596Y-100333479D01*
X157713145Y-100315013D01*
X157750623Y-100303643D01*
X157795738Y-100299200D01*
X158434262Y-100299200D01*
X158479377Y-100303643D01*
X158479377Y-100303643D01*
G37*
G36*
X138271821Y-99881914D02*
X138292415Y-99888162D01*
X138311397Y-99898308D01*
X138328037Y-99911963D01*
X138341692Y-99928603D01*
X138351838Y-99947585D01*
X138358086Y-99968179D01*
X138360800Y-99995740D01*
X138360800Y-100504260D01*
X138358086Y-100531821D01*
X138351838Y-100552415D01*
X138341692Y-100571397D01*
X138328037Y-100588037D01*
X138311397Y-100601692D01*
X138292415Y-100611838D01*
X138271821Y-100618086D01*
X138244260Y-100620800D01*
X137785740Y-100620800D01*
X137758179Y-100618086D01*
X137737585Y-100611838D01*
X137718603Y-100601692D01*
X137701963Y-100588037D01*
X137688308Y-100571397D01*
X137678162Y-100552415D01*
X137671914Y-100531821D01*
X137669200Y-100504260D01*
X137669200Y-99995740D01*
X137671914Y-99968179D01*
X137678162Y-99947585D01*
X137688308Y-99928603D01*
X137701963Y-99911963D01*
X137718603Y-99898308D01*
X137737585Y-99888162D01*
X137758179Y-99881914D01*
X137785740Y-99879200D01*
X138244260Y-99879200D01*
X138271821Y-99881914D01*
X138271821Y-99881914D01*
G37*
G36*
X139241821Y-99881914D02*
X139262415Y-99888162D01*
X139281397Y-99898308D01*
X139298037Y-99911963D01*
X139311692Y-99928603D01*
X139321838Y-99947585D01*
X139328086Y-99968179D01*
X139330800Y-99995740D01*
X139330800Y-100504260D01*
X139328086Y-100531821D01*
X139321838Y-100552415D01*
X139311692Y-100571397D01*
X139298037Y-100588037D01*
X139281397Y-100601692D01*
X139262415Y-100611838D01*
X139241821Y-100618086D01*
X139214260Y-100620800D01*
X138755740Y-100620800D01*
X138728179Y-100618086D01*
X138707585Y-100611838D01*
X138688603Y-100601692D01*
X138671963Y-100588037D01*
X138658308Y-100571397D01*
X138648162Y-100552415D01*
X138641914Y-100531821D01*
X138639200Y-100504260D01*
X138639200Y-99995740D01*
X138641914Y-99968179D01*
X138648162Y-99947585D01*
X138658308Y-99928603D01*
X138671963Y-99911963D01*
X138688603Y-99898308D01*
X138707585Y-99888162D01*
X138728179Y-99881914D01*
X138755740Y-99879200D01*
X139214260Y-99879200D01*
X139241821Y-99881914D01*
X139241821Y-99881914D01*
G37*
G36*
X158479377Y-98553643D02*
X158516855Y-98565013D01*
X158551404Y-98583479D01*
X158581677Y-98608323D01*
X158606521Y-98638596D01*
X158624987Y-98673145D01*
X158636357Y-98710623D01*
X158640800Y-98755738D01*
X158640800Y-99494262D01*
X158636357Y-99539377D01*
X158624987Y-99576855D01*
X158606521Y-99611404D01*
X158581677Y-99641677D01*
X158551404Y-99666521D01*
X158516855Y-99684987D01*
X158479377Y-99696357D01*
X158434262Y-99700800D01*
X157795738Y-99700800D01*
X157750623Y-99696357D01*
X157713145Y-99684987D01*
X157678596Y-99666521D01*
X157648323Y-99641677D01*
X157623479Y-99611404D01*
X157605013Y-99576855D01*
X157593643Y-99539377D01*
X157589200Y-99494262D01*
X157589200Y-98755738D01*
X157593643Y-98710623D01*
X157605013Y-98673145D01*
X157623479Y-98638596D01*
X157648323Y-98608323D01*
X157678596Y-98583479D01*
X157713145Y-98565013D01*
X157750623Y-98553643D01*
X157795738Y-98549200D01*
X158434262Y-98549200D01*
X158479377Y-98553643D01*
X158479377Y-98553643D01*
G37*
G36*
X139271821Y-98881914D02*
X139292415Y-98888162D01*
X139311397Y-98898308D01*
X139328037Y-98911963D01*
X139341692Y-98928603D01*
X139351838Y-98947585D01*
X139358086Y-98968179D01*
X139360800Y-98995740D01*
X139360800Y-99504260D01*
X139358086Y-99531821D01*
X139351838Y-99552415D01*
X139341692Y-99571397D01*
X139328037Y-99588037D01*
X139311397Y-99601692D01*
X139292415Y-99611838D01*
X139271821Y-99618086D01*
X139244260Y-99620800D01*
X138785740Y-99620800D01*
X138758179Y-99618086D01*
X138737585Y-99611838D01*
X138718603Y-99601692D01*
X138701963Y-99588037D01*
X138688308Y-99571397D01*
X138678162Y-99552415D01*
X138671914Y-99531821D01*
X138669200Y-99504260D01*
X138669200Y-98995740D01*
X138671914Y-98968179D01*
X138678162Y-98947585D01*
X138688308Y-98928603D01*
X138701963Y-98911963D01*
X138718603Y-98898308D01*
X138737585Y-98888162D01*
X138758179Y-98881914D01*
X138785740Y-98879200D01*
X139244260Y-98879200D01*
X139271821Y-98881914D01*
X139271821Y-98881914D01*
G37*
G36*
X140241821Y-98881914D02*
X140262415Y-98888162D01*
X140281397Y-98898308D01*
X140298037Y-98911963D01*
X140311692Y-98928603D01*
X140321838Y-98947585D01*
X140328086Y-98968179D01*
X140330800Y-98995740D01*
X140330800Y-99504260D01*
X140328086Y-99531821D01*
X140321838Y-99552415D01*
X140311692Y-99571397D01*
X140298037Y-99588037D01*
X140281397Y-99601692D01*
X140262415Y-99611838D01*
X140241821Y-99618086D01*
X140214260Y-99620800D01*
X139755740Y-99620800D01*
X139728179Y-99618086D01*
X139707585Y-99611838D01*
X139688603Y-99601692D01*
X139671963Y-99588037D01*
X139658308Y-99571397D01*
X139648162Y-99552415D01*
X139641914Y-99531821D01*
X139639200Y-99504260D01*
X139639200Y-98995740D01*
X139641914Y-98968179D01*
X139648162Y-98947585D01*
X139658308Y-98928603D01*
X139671963Y-98911963D01*
X139688603Y-98898308D01*
X139707585Y-98888162D01*
X139728179Y-98881914D01*
X139755740Y-98879200D01*
X140214260Y-98879200D01*
X140241821Y-98881914D01*
X140241821Y-98881914D01*
G37*
G36*
X138271821Y-97881914D02*
X138292415Y-97888162D01*
X138311397Y-97898308D01*
X138328037Y-97911963D01*
X138341692Y-97928603D01*
X138351838Y-97947585D01*
X138358086Y-97968179D01*
X138360800Y-97995740D01*
X138360800Y-98504260D01*
X138358086Y-98531821D01*
X138351838Y-98552415D01*
X138341692Y-98571397D01*
X138328037Y-98588037D01*
X138311397Y-98601692D01*
X138292415Y-98611838D01*
X138271821Y-98618086D01*
X138244260Y-98620800D01*
X137785740Y-98620800D01*
X137758179Y-98618086D01*
X137737585Y-98611838D01*
X137718603Y-98601692D01*
X137701963Y-98588037D01*
X137688308Y-98571397D01*
X137678162Y-98552415D01*
X137671914Y-98531821D01*
X137669200Y-98504260D01*
X137669200Y-97995740D01*
X137671914Y-97968179D01*
X137678162Y-97947585D01*
X137688308Y-97928603D01*
X137701963Y-97911963D01*
X137718603Y-97898308D01*
X137737585Y-97888162D01*
X137758179Y-97881914D01*
X137785740Y-97879200D01*
X138244260Y-97879200D01*
X138271821Y-97881914D01*
X138271821Y-97881914D01*
G37*
G36*
X139241821Y-97881914D02*
X139262415Y-97888162D01*
X139281397Y-97898308D01*
X139298037Y-97911963D01*
X139311692Y-97928603D01*
X139321838Y-97947585D01*
X139328086Y-97968179D01*
X139330800Y-97995740D01*
X139330800Y-98504260D01*
X139328086Y-98531821D01*
X139321838Y-98552415D01*
X139311692Y-98571397D01*
X139298037Y-98588037D01*
X139281397Y-98601692D01*
X139262415Y-98611838D01*
X139241821Y-98618086D01*
X139214260Y-98620800D01*
X138755740Y-98620800D01*
X138728179Y-98618086D01*
X138707585Y-98611838D01*
X138688603Y-98601692D01*
X138671963Y-98588037D01*
X138658308Y-98571397D01*
X138648162Y-98552415D01*
X138641914Y-98531821D01*
X138639200Y-98504260D01*
X138639200Y-97995740D01*
X138641914Y-97968179D01*
X138648162Y-97947585D01*
X138658308Y-97928603D01*
X138671963Y-97911963D01*
X138688603Y-97898308D01*
X138707585Y-97888162D01*
X138728179Y-97881914D01*
X138755740Y-97879200D01*
X139214260Y-97879200D01*
X139241821Y-97881914D01*
X139241821Y-97881914D01*
G37*
G36*
X153939377Y-97478643D02*
X153976855Y-97490013D01*
X154011404Y-97508479D01*
X154041677Y-97533323D01*
X154066521Y-97563596D01*
X154084987Y-97598145D01*
X154096357Y-97635623D01*
X154100800Y-97680738D01*
X154100800Y-98319262D01*
X154096357Y-98364377D01*
X154084987Y-98401855D01*
X154066521Y-98436404D01*
X154041677Y-98466677D01*
X154011404Y-98491521D01*
X153976855Y-98509987D01*
X153939377Y-98521357D01*
X153894262Y-98525800D01*
X153155738Y-98525800D01*
X153110623Y-98521357D01*
X153073145Y-98509987D01*
X153038596Y-98491521D01*
X153008323Y-98466677D01*
X152983479Y-98436404D01*
X152965013Y-98401855D01*
X152953643Y-98364377D01*
X152949200Y-98319262D01*
X152949200Y-97680738D01*
X152953643Y-97635623D01*
X152965013Y-97598145D01*
X152983479Y-97563596D01*
X153008323Y-97533323D01*
X153038596Y-97508479D01*
X153073145Y-97490013D01*
X153110623Y-97478643D01*
X153155738Y-97474200D01*
X153894262Y-97474200D01*
X153939377Y-97478643D01*
X153939377Y-97478643D01*
G37*
G36*
X152189377Y-97478643D02*
X152226855Y-97490013D01*
X152261404Y-97508479D01*
X152291677Y-97533323D01*
X152316521Y-97563596D01*
X152334987Y-97598145D01*
X152346357Y-97635623D01*
X152350800Y-97680738D01*
X152350800Y-98319262D01*
X152346357Y-98364377D01*
X152334987Y-98401855D01*
X152316521Y-98436404D01*
X152291677Y-98466677D01*
X152261404Y-98491521D01*
X152226855Y-98509987D01*
X152189377Y-98521357D01*
X152144262Y-98525800D01*
X151405738Y-98525800D01*
X151360623Y-98521357D01*
X151323145Y-98509987D01*
X151288596Y-98491521D01*
X151258323Y-98466677D01*
X151233479Y-98436404D01*
X151215013Y-98401855D01*
X151203643Y-98364377D01*
X151199200Y-98319262D01*
X151199200Y-97680738D01*
X151203643Y-97635623D01*
X151215013Y-97598145D01*
X151233479Y-97563596D01*
X151258323Y-97533323D01*
X151288596Y-97508479D01*
X151323145Y-97490013D01*
X151360623Y-97478643D01*
X151405738Y-97474200D01*
X152144262Y-97474200D01*
X152189377Y-97478643D01*
X152189377Y-97478643D01*
G37*
G36*
X139271821Y-96881914D02*
X139292415Y-96888162D01*
X139311397Y-96898308D01*
X139328037Y-96911963D01*
X139341692Y-96928603D01*
X139351838Y-96947585D01*
X139358086Y-96968179D01*
X139360800Y-96995740D01*
X139360800Y-97504260D01*
X139358086Y-97531821D01*
X139351838Y-97552415D01*
X139341692Y-97571397D01*
X139328037Y-97588037D01*
X139311397Y-97601692D01*
X139292415Y-97611838D01*
X139271821Y-97618086D01*
X139244260Y-97620800D01*
X138785740Y-97620800D01*
X138758179Y-97618086D01*
X138737585Y-97611838D01*
X138718603Y-97601692D01*
X138701963Y-97588037D01*
X138688308Y-97571397D01*
X138678162Y-97552415D01*
X138671914Y-97531821D01*
X138669200Y-97504260D01*
X138669200Y-96995740D01*
X138671914Y-96968179D01*
X138678162Y-96947585D01*
X138688308Y-96928603D01*
X138701963Y-96911963D01*
X138718603Y-96898308D01*
X138737585Y-96888162D01*
X138758179Y-96881914D01*
X138785740Y-96879200D01*
X139244260Y-96879200D01*
X139271821Y-96881914D01*
X139271821Y-96881914D01*
G37*
G36*
X140241821Y-96881914D02*
X140262415Y-96888162D01*
X140281397Y-96898308D01*
X140298037Y-96911963D01*
X140311692Y-96928603D01*
X140321838Y-96947585D01*
X140328086Y-96968179D01*
X140330800Y-96995740D01*
X140330800Y-97504260D01*
X140328086Y-97531821D01*
X140321838Y-97552415D01*
X140311692Y-97571397D01*
X140298037Y-97588037D01*
X140281397Y-97601692D01*
X140262415Y-97611838D01*
X140241821Y-97618086D01*
X140214260Y-97620800D01*
X139755740Y-97620800D01*
X139728179Y-97618086D01*
X139707585Y-97611838D01*
X139688603Y-97601692D01*
X139671963Y-97588037D01*
X139658308Y-97571397D01*
X139648162Y-97552415D01*
X139641914Y-97531821D01*
X139639200Y-97504260D01*
X139639200Y-96995740D01*
X139641914Y-96968179D01*
X139648162Y-96947585D01*
X139658308Y-96928603D01*
X139671963Y-96911963D01*
X139688603Y-96898308D01*
X139707585Y-96888162D01*
X139728179Y-96881914D01*
X139755740Y-96879200D01*
X140214260Y-96879200D01*
X140241821Y-96881914D01*
X140241821Y-96881914D01*
G37*
G36*
X131406362Y-95623545D02*
X131494588Y-95632234D01*
X131607789Y-95666573D01*
X131664390Y-95683743D01*
X131802980Y-95757822D01*
X131820879Y-95767389D01*
X131856609Y-95796712D01*
X131958044Y-95879956D01*
X132020485Y-95956042D01*
X132070611Y-96017121D01*
X132070612Y-96017123D01*
X132154257Y-96173610D01*
X132154257Y-96173611D01*
X132205766Y-96343412D01*
X132223158Y-96520000D01*
X132205766Y-96696588D01*
X132187804Y-96755800D01*
X132154257Y-96866390D01*
X132129897Y-96911963D01*
X132070611Y-97022879D01*
X132046630Y-97052100D01*
X131958044Y-97160044D01*
X131856609Y-97243288D01*
X131820879Y-97272611D01*
X131820877Y-97272612D01*
X131664390Y-97356257D01*
X131607789Y-97373427D01*
X131494588Y-97407766D01*
X131406362Y-97416455D01*
X131362250Y-97420800D01*
X131273750Y-97420800D01*
X131229638Y-97416455D01*
X131141412Y-97407766D01*
X131028211Y-97373427D01*
X130971610Y-97356257D01*
X130815123Y-97272612D01*
X130815121Y-97272611D01*
X130779391Y-97243288D01*
X130677956Y-97160044D01*
X130589370Y-97052100D01*
X130565389Y-97022879D01*
X130506103Y-96911963D01*
X130481743Y-96866390D01*
X130448196Y-96755800D01*
X130430234Y-96696588D01*
X130412842Y-96520000D01*
X130430234Y-96343412D01*
X130481743Y-96173611D01*
X130481743Y-96173610D01*
X130565388Y-96017123D01*
X130565389Y-96017121D01*
X130615515Y-95956042D01*
X130677956Y-95879956D01*
X130779391Y-95796712D01*
X130815121Y-95767389D01*
X130833020Y-95757822D01*
X130971610Y-95683743D01*
X131028211Y-95666573D01*
X131141412Y-95632234D01*
X131229638Y-95623545D01*
X131273750Y-95619200D01*
X131362250Y-95619200D01*
X131406362Y-95623545D01*
X131406362Y-95623545D01*
G37*
G36*
X133946362Y-95623545D02*
X134034588Y-95632234D01*
X134147789Y-95666573D01*
X134204390Y-95683743D01*
X134342980Y-95757822D01*
X134360879Y-95767389D01*
X134396609Y-95796712D01*
X134498044Y-95879956D01*
X134560485Y-95956042D01*
X134610611Y-96017121D01*
X134610612Y-96017123D01*
X134694257Y-96173610D01*
X134694257Y-96173611D01*
X134745766Y-96343412D01*
X134763158Y-96520000D01*
X134745766Y-96696588D01*
X134727804Y-96755800D01*
X134694257Y-96866390D01*
X134669897Y-96911963D01*
X134610611Y-97022879D01*
X134586630Y-97052100D01*
X134498044Y-97160044D01*
X134396609Y-97243288D01*
X134360879Y-97272611D01*
X134360877Y-97272612D01*
X134204390Y-97356257D01*
X134147789Y-97373427D01*
X134034588Y-97407766D01*
X133946362Y-97416455D01*
X133902250Y-97420800D01*
X133813750Y-97420800D01*
X133769638Y-97416455D01*
X133681412Y-97407766D01*
X133568211Y-97373427D01*
X133511610Y-97356257D01*
X133355123Y-97272612D01*
X133355121Y-97272611D01*
X133319391Y-97243288D01*
X133217956Y-97160044D01*
X133129370Y-97052100D01*
X133105389Y-97022879D01*
X133046103Y-96911963D01*
X133021743Y-96866390D01*
X132988196Y-96755800D01*
X132970234Y-96696588D01*
X132952842Y-96520000D01*
X132970234Y-96343412D01*
X133021743Y-96173611D01*
X133021743Y-96173610D01*
X133105388Y-96017123D01*
X133105389Y-96017121D01*
X133155515Y-95956042D01*
X133217956Y-95879956D01*
X133319391Y-95796712D01*
X133355121Y-95767389D01*
X133373020Y-95757822D01*
X133511610Y-95683743D01*
X133568211Y-95666573D01*
X133681412Y-95632234D01*
X133769638Y-95623545D01*
X133813750Y-95619200D01*
X133902250Y-95619200D01*
X133946362Y-95623545D01*
X133946362Y-95623545D01*
G37*
G36*
X138271821Y-95881914D02*
X138292415Y-95888162D01*
X138311397Y-95898308D01*
X138328037Y-95911963D01*
X138341692Y-95928603D01*
X138351838Y-95947585D01*
X138358086Y-95968179D01*
X138360800Y-95995740D01*
X138360800Y-96504260D01*
X138358086Y-96531821D01*
X138351838Y-96552415D01*
X138341692Y-96571397D01*
X138328037Y-96588037D01*
X138311397Y-96601692D01*
X138292415Y-96611838D01*
X138271821Y-96618086D01*
X138244260Y-96620800D01*
X137785740Y-96620800D01*
X137758179Y-96618086D01*
X137737585Y-96611838D01*
X137718603Y-96601692D01*
X137701963Y-96588037D01*
X137688308Y-96571397D01*
X137678162Y-96552415D01*
X137671914Y-96531821D01*
X137669200Y-96504260D01*
X137669200Y-95995740D01*
X137671914Y-95968179D01*
X137678162Y-95947585D01*
X137688308Y-95928603D01*
X137701963Y-95911963D01*
X137718603Y-95898308D01*
X137737585Y-95888162D01*
X137758179Y-95881914D01*
X137785740Y-95879200D01*
X138244260Y-95879200D01*
X138271821Y-95881914D01*
X138271821Y-95881914D01*
G37*
G36*
X139241821Y-95881914D02*
X139262415Y-95888162D01*
X139281397Y-95898308D01*
X139298037Y-95911963D01*
X139311692Y-95928603D01*
X139321838Y-95947585D01*
X139328086Y-95968179D01*
X139330800Y-95995740D01*
X139330800Y-96504260D01*
X139328086Y-96531821D01*
X139321838Y-96552415D01*
X139311692Y-96571397D01*
X139298037Y-96588037D01*
X139281397Y-96601692D01*
X139262415Y-96611838D01*
X139241821Y-96618086D01*
X139214260Y-96620800D01*
X138755740Y-96620800D01*
X138728179Y-96618086D01*
X138707585Y-96611838D01*
X138688603Y-96601692D01*
X138671963Y-96588037D01*
X138658308Y-96571397D01*
X138648162Y-96552415D01*
X138641914Y-96531821D01*
X138639200Y-96504260D01*
X138639200Y-95995740D01*
X138641914Y-95968179D01*
X138648162Y-95947585D01*
X138658308Y-95928603D01*
X138671963Y-95911963D01*
X138688603Y-95898308D01*
X138707585Y-95888162D01*
X138728179Y-95881914D01*
X138755740Y-95879200D01*
X139214260Y-95879200D01*
X139241821Y-95881914D01*
X139241821Y-95881914D01*
G37*
G36*
X139271821Y-94881914D02*
X139292415Y-94888162D01*
X139311397Y-94898308D01*
X139328037Y-94911963D01*
X139341692Y-94928603D01*
X139351838Y-94947585D01*
X139358086Y-94968179D01*
X139360800Y-94995740D01*
X139360800Y-95504260D01*
X139358086Y-95531821D01*
X139351838Y-95552415D01*
X139341692Y-95571397D01*
X139328037Y-95588037D01*
X139311397Y-95601692D01*
X139292415Y-95611838D01*
X139271821Y-95618086D01*
X139244260Y-95620800D01*
X138785740Y-95620800D01*
X138758179Y-95618086D01*
X138737585Y-95611838D01*
X138718603Y-95601692D01*
X138701963Y-95588037D01*
X138688308Y-95571397D01*
X138678162Y-95552415D01*
X138671914Y-95531821D01*
X138669200Y-95504260D01*
X138669200Y-94995740D01*
X138671914Y-94968179D01*
X138678162Y-94947585D01*
X138688308Y-94928603D01*
X138701963Y-94911963D01*
X138718603Y-94898308D01*
X138737585Y-94888162D01*
X138758179Y-94881914D01*
X138785740Y-94879200D01*
X139244260Y-94879200D01*
X139271821Y-94881914D01*
X139271821Y-94881914D01*
G37*
G36*
X140241821Y-94881914D02*
X140262415Y-94888162D01*
X140281397Y-94898308D01*
X140298037Y-94911963D01*
X140311692Y-94928603D01*
X140321838Y-94947585D01*
X140328086Y-94968179D01*
X140330800Y-94995740D01*
X140330800Y-95504260D01*
X140328086Y-95531821D01*
X140321838Y-95552415D01*
X140311692Y-95571397D01*
X140298037Y-95588037D01*
X140281397Y-95601692D01*
X140262415Y-95611838D01*
X140241821Y-95618086D01*
X140214260Y-95620800D01*
X139755740Y-95620800D01*
X139728179Y-95618086D01*
X139707585Y-95611838D01*
X139688603Y-95601692D01*
X139671963Y-95588037D01*
X139658308Y-95571397D01*
X139648162Y-95552415D01*
X139641914Y-95531821D01*
X139639200Y-95504260D01*
X139639200Y-94995740D01*
X139641914Y-94968179D01*
X139648162Y-94947585D01*
X139658308Y-94928603D01*
X139671963Y-94911963D01*
X139688603Y-94898308D01*
X139707585Y-94888162D01*
X139728179Y-94881914D01*
X139755740Y-94879200D01*
X140214260Y-94879200D01*
X140241821Y-94881914D01*
X140241821Y-94881914D01*
G37*
G36*
X153080800Y-95465800D02*
X152219200Y-95465800D01*
X152219200Y-93964200D01*
X153080800Y-93964200D01*
X153080800Y-95465800D01*
X153080800Y-95465800D01*
G37*
G36*
X151810800Y-95465800D02*
X150949200Y-95465800D01*
X150949200Y-93964200D01*
X151810800Y-93964200D01*
X151810800Y-95465800D01*
X151810800Y-95465800D01*
G37*
G36*
X154350800Y-95465800D02*
X153489200Y-95465800D01*
X153489200Y-93964200D01*
X154350800Y-93964200D01*
X154350800Y-95465800D01*
X154350800Y-95465800D01*
G37*
G36*
X161860800Y-95300800D02*
X156679200Y-95300800D01*
X156679200Y-92779200D01*
X161860800Y-92779200D01*
X161860800Y-95300800D01*
X161860800Y-95300800D01*
G37*
G36*
X133946362Y-93083545D02*
X134034588Y-93092234D01*
X134147789Y-93126573D01*
X134204390Y-93143743D01*
X134342980Y-93217822D01*
X134360879Y-93227389D01*
X134396609Y-93256712D01*
X134498044Y-93339956D01*
X134581288Y-93441391D01*
X134610611Y-93477121D01*
X134610612Y-93477123D01*
X134694257Y-93633610D01*
X134694257Y-93633611D01*
X134745766Y-93803412D01*
X134763158Y-93980000D01*
X134745766Y-94156588D01*
X134711427Y-94269789D01*
X134694257Y-94326390D01*
X134629308Y-94447900D01*
X134610611Y-94482879D01*
X134593064Y-94504260D01*
X134498044Y-94620044D01*
X134396609Y-94703288D01*
X134360879Y-94732611D01*
X134360877Y-94732612D01*
X134204390Y-94816257D01*
X134147789Y-94833427D01*
X134034588Y-94867766D01*
X133946362Y-94876455D01*
X133902250Y-94880800D01*
X133813750Y-94880800D01*
X133769638Y-94876455D01*
X133681412Y-94867766D01*
X133568211Y-94833427D01*
X133511610Y-94816257D01*
X133355123Y-94732612D01*
X133355121Y-94732611D01*
X133319391Y-94703288D01*
X133217956Y-94620044D01*
X133122936Y-94504260D01*
X133105389Y-94482879D01*
X133086692Y-94447900D01*
X133021743Y-94326390D01*
X133004573Y-94269789D01*
X132970234Y-94156588D01*
X132952842Y-93980000D01*
X132970234Y-93803412D01*
X133021743Y-93633611D01*
X133021743Y-93633610D01*
X133105388Y-93477123D01*
X133105389Y-93477121D01*
X133134712Y-93441391D01*
X133217956Y-93339956D01*
X133319391Y-93256712D01*
X133355121Y-93227389D01*
X133373020Y-93217822D01*
X133511610Y-93143743D01*
X133568211Y-93126573D01*
X133681412Y-93092234D01*
X133769638Y-93083545D01*
X133813750Y-93079200D01*
X133902250Y-93079200D01*
X133946362Y-93083545D01*
X133946362Y-93083545D01*
G37*
G36*
X131406362Y-93083545D02*
X131494588Y-93092234D01*
X131607789Y-93126573D01*
X131664390Y-93143743D01*
X131802980Y-93217822D01*
X131820879Y-93227389D01*
X131856609Y-93256712D01*
X131958044Y-93339956D01*
X132041288Y-93441391D01*
X132070611Y-93477121D01*
X132070612Y-93477123D01*
X132154257Y-93633610D01*
X132154257Y-93633611D01*
X132205766Y-93803412D01*
X132223158Y-93980000D01*
X132205766Y-94156588D01*
X132171427Y-94269789D01*
X132154257Y-94326390D01*
X132089308Y-94447900D01*
X132070611Y-94482879D01*
X132053064Y-94504260D01*
X131958044Y-94620044D01*
X131856609Y-94703288D01*
X131820879Y-94732611D01*
X131820877Y-94732612D01*
X131664390Y-94816257D01*
X131607789Y-94833427D01*
X131494588Y-94867766D01*
X131406362Y-94876455D01*
X131362250Y-94880800D01*
X131273750Y-94880800D01*
X131229638Y-94876455D01*
X131141412Y-94867766D01*
X131028211Y-94833427D01*
X130971610Y-94816257D01*
X130815123Y-94732612D01*
X130815121Y-94732611D01*
X130779391Y-94703288D01*
X130677956Y-94620044D01*
X130582936Y-94504260D01*
X130565389Y-94482879D01*
X130546692Y-94447900D01*
X130481743Y-94326390D01*
X130464573Y-94269789D01*
X130430234Y-94156588D01*
X130412842Y-93980000D01*
X130430234Y-93803412D01*
X130481743Y-93633611D01*
X130481743Y-93633610D01*
X130565388Y-93477123D01*
X130565389Y-93477121D01*
X130594712Y-93441391D01*
X130677956Y-93339956D01*
X130779391Y-93256712D01*
X130815121Y-93227389D01*
X130833020Y-93217822D01*
X130971610Y-93143743D01*
X131028211Y-93126573D01*
X131141412Y-93092234D01*
X131229638Y-93083545D01*
X131273750Y-93079200D01*
X131362250Y-93079200D01*
X131406362Y-93083545D01*
X131406362Y-93083545D01*
G37*
G36*
X139241821Y-93881914D02*
X139262415Y-93888162D01*
X139281397Y-93898308D01*
X139298037Y-93911963D01*
X139311692Y-93928603D01*
X139321838Y-93947585D01*
X139328086Y-93968179D01*
X139330800Y-93995740D01*
X139330800Y-94504260D01*
X139328086Y-94531821D01*
X139321838Y-94552415D01*
X139311692Y-94571397D01*
X139298037Y-94588037D01*
X139281397Y-94601692D01*
X139262415Y-94611838D01*
X139241821Y-94618086D01*
X139214260Y-94620800D01*
X138755740Y-94620800D01*
X138728179Y-94618086D01*
X138707585Y-94611838D01*
X138688603Y-94601692D01*
X138671963Y-94588037D01*
X138658308Y-94571397D01*
X138648162Y-94552415D01*
X138641914Y-94531821D01*
X138639200Y-94504260D01*
X138639200Y-93995740D01*
X138641914Y-93968179D01*
X138648162Y-93947585D01*
X138658308Y-93928603D01*
X138671963Y-93911963D01*
X138688603Y-93898308D01*
X138707585Y-93888162D01*
X138728179Y-93881914D01*
X138755740Y-93879200D01*
X139214260Y-93879200D01*
X139241821Y-93881914D01*
X139241821Y-93881914D01*
G37*
G36*
X138271821Y-93881914D02*
X138292415Y-93888162D01*
X138311397Y-93898308D01*
X138328037Y-93911963D01*
X138341692Y-93928603D01*
X138351838Y-93947585D01*
X138358086Y-93968179D01*
X138360800Y-93995740D01*
X138360800Y-94504260D01*
X138358086Y-94531821D01*
X138351838Y-94552415D01*
X138341692Y-94571397D01*
X138328037Y-94588037D01*
X138311397Y-94601692D01*
X138292415Y-94611838D01*
X138271821Y-94618086D01*
X138244260Y-94620800D01*
X137785740Y-94620800D01*
X137758179Y-94618086D01*
X137737585Y-94611838D01*
X137718603Y-94601692D01*
X137701963Y-94588037D01*
X137688308Y-94571397D01*
X137678162Y-94552415D01*
X137671914Y-94531821D01*
X137669200Y-94504260D01*
X137669200Y-93995740D01*
X137671914Y-93968179D01*
X137678162Y-93947585D01*
X137688308Y-93928603D01*
X137701963Y-93911963D01*
X137718603Y-93898308D01*
X137737585Y-93888162D01*
X137758179Y-93881914D01*
X137785740Y-93879200D01*
X138244260Y-93879200D01*
X138271821Y-93881914D01*
X138271821Y-93881914D01*
G37*
G36*
X140241821Y-92881914D02*
X140262415Y-92888162D01*
X140281397Y-92898308D01*
X140298037Y-92911963D01*
X140311692Y-92928603D01*
X140321838Y-92947585D01*
X140328086Y-92968179D01*
X140330800Y-92995740D01*
X140330800Y-93504260D01*
X140328086Y-93531821D01*
X140321838Y-93552415D01*
X140311692Y-93571397D01*
X140298037Y-93588037D01*
X140281397Y-93601692D01*
X140262415Y-93611838D01*
X140241821Y-93618086D01*
X140214260Y-93620800D01*
X139755740Y-93620800D01*
X139728179Y-93618086D01*
X139707585Y-93611838D01*
X139688603Y-93601692D01*
X139671963Y-93588037D01*
X139658308Y-93571397D01*
X139648162Y-93552415D01*
X139641914Y-93531821D01*
X139639200Y-93504260D01*
X139639200Y-92995740D01*
X139641914Y-92968179D01*
X139648162Y-92947585D01*
X139658308Y-92928603D01*
X139671963Y-92911963D01*
X139688603Y-92898308D01*
X139707585Y-92888162D01*
X139728179Y-92881914D01*
X139755740Y-92879200D01*
X140214260Y-92879200D01*
X140241821Y-92881914D01*
X140241821Y-92881914D01*
G37*
G36*
X139271821Y-92881914D02*
X139292415Y-92888162D01*
X139311397Y-92898308D01*
X139328037Y-92911963D01*
X139341692Y-92928603D01*
X139351838Y-92947585D01*
X139358086Y-92968179D01*
X139360800Y-92995740D01*
X139360800Y-93504260D01*
X139358086Y-93531821D01*
X139351838Y-93552415D01*
X139341692Y-93571397D01*
X139328037Y-93588037D01*
X139311397Y-93601692D01*
X139292415Y-93611838D01*
X139271821Y-93618086D01*
X139244260Y-93620800D01*
X138785740Y-93620800D01*
X138758179Y-93618086D01*
X138737585Y-93611838D01*
X138718603Y-93601692D01*
X138701963Y-93588037D01*
X138688308Y-93571397D01*
X138678162Y-93552415D01*
X138671914Y-93531821D01*
X138669200Y-93504260D01*
X138669200Y-92995740D01*
X138671914Y-92968179D01*
X138678162Y-92947585D01*
X138688308Y-92928603D01*
X138701963Y-92911963D01*
X138718603Y-92898308D01*
X138737585Y-92888162D01*
X138758179Y-92881914D01*
X138785740Y-92879200D01*
X139244260Y-92879200D01*
X139271821Y-92881914D01*
X139271821Y-92881914D01*
G37*
G36*
X138271821Y-91881914D02*
X138292415Y-91888162D01*
X138311397Y-91898308D01*
X138328037Y-91911963D01*
X138341692Y-91928603D01*
X138351838Y-91947585D01*
X138358086Y-91968179D01*
X138360800Y-91995740D01*
X138360800Y-92504260D01*
X138358086Y-92531821D01*
X138351838Y-92552415D01*
X138341692Y-92571397D01*
X138328037Y-92588037D01*
X138311397Y-92601692D01*
X138292415Y-92611838D01*
X138271821Y-92618086D01*
X138244260Y-92620800D01*
X137785740Y-92620800D01*
X137758179Y-92618086D01*
X137737585Y-92611838D01*
X137718603Y-92601692D01*
X137701963Y-92588037D01*
X137688308Y-92571397D01*
X137678162Y-92552415D01*
X137671914Y-92531821D01*
X137669200Y-92504260D01*
X137669200Y-91995740D01*
X137671914Y-91968179D01*
X137678162Y-91947585D01*
X137688308Y-91928603D01*
X137701963Y-91911963D01*
X137718603Y-91898308D01*
X137737585Y-91888162D01*
X137758179Y-91881914D01*
X137785740Y-91879200D01*
X138244260Y-91879200D01*
X138271821Y-91881914D01*
X138271821Y-91881914D01*
G37*
G36*
X139241821Y-91881914D02*
X139262415Y-91888162D01*
X139281397Y-91898308D01*
X139298037Y-91911963D01*
X139311692Y-91928603D01*
X139321838Y-91947585D01*
X139328086Y-91968179D01*
X139330800Y-91995740D01*
X139330800Y-92504260D01*
X139328086Y-92531821D01*
X139321838Y-92552415D01*
X139311692Y-92571397D01*
X139298037Y-92588037D01*
X139281397Y-92601692D01*
X139262415Y-92611838D01*
X139241821Y-92618086D01*
X139214260Y-92620800D01*
X138755740Y-92620800D01*
X138728179Y-92618086D01*
X138707585Y-92611838D01*
X138688603Y-92601692D01*
X138671963Y-92588037D01*
X138658308Y-92571397D01*
X138648162Y-92552415D01*
X138641914Y-92531821D01*
X138639200Y-92504260D01*
X138639200Y-91995740D01*
X138641914Y-91968179D01*
X138648162Y-91947585D01*
X138658308Y-91928603D01*
X138671963Y-91911963D01*
X138688603Y-91898308D01*
X138707585Y-91888162D01*
X138728179Y-91881914D01*
X138755740Y-91879200D01*
X139214260Y-91879200D01*
X139241821Y-91881914D01*
X139241821Y-91881914D01*
G37*
G36*
X131406362Y-90543545D02*
X131494588Y-90552234D01*
X131557759Y-90571397D01*
X131664390Y-90603743D01*
X131802980Y-90677822D01*
X131820879Y-90687389D01*
X131856609Y-90716712D01*
X131958044Y-90799956D01*
X132025304Y-90881914D01*
X132070611Y-90937121D01*
X132070612Y-90937123D01*
X132154257Y-91093610D01*
X132154257Y-91093611D01*
X132205766Y-91263412D01*
X132223158Y-91440000D01*
X132205766Y-91616588D01*
X132204488Y-91620800D01*
X132154257Y-91786390D01*
X132104648Y-91879200D01*
X132070611Y-91942879D01*
X132059808Y-91956042D01*
X131958044Y-92080044D01*
X131856609Y-92163288D01*
X131820879Y-92192611D01*
X131820877Y-92192612D01*
X131664390Y-92276257D01*
X131607789Y-92293427D01*
X131494588Y-92327766D01*
X131406362Y-92336455D01*
X131362250Y-92340800D01*
X131273750Y-92340800D01*
X131229638Y-92336455D01*
X131141412Y-92327766D01*
X131028211Y-92293427D01*
X130971610Y-92276257D01*
X130815123Y-92192612D01*
X130815121Y-92192611D01*
X130779391Y-92163288D01*
X130677956Y-92080044D01*
X130576192Y-91956042D01*
X130565389Y-91942879D01*
X130531352Y-91879200D01*
X130481743Y-91786390D01*
X130431512Y-91620800D01*
X130430234Y-91616588D01*
X130412842Y-91440000D01*
X130430234Y-91263412D01*
X130481743Y-91093611D01*
X130481743Y-91093610D01*
X130565388Y-90937123D01*
X130565389Y-90937121D01*
X130610696Y-90881914D01*
X130677956Y-90799956D01*
X130779391Y-90716712D01*
X130815121Y-90687389D01*
X130833020Y-90677822D01*
X130971610Y-90603743D01*
X131078241Y-90571397D01*
X131141412Y-90552234D01*
X131229638Y-90543545D01*
X131273750Y-90539200D01*
X131362250Y-90539200D01*
X131406362Y-90543545D01*
X131406362Y-90543545D01*
G37*
G36*
X133946362Y-90543545D02*
X134034588Y-90552234D01*
X134097759Y-90571397D01*
X134204390Y-90603743D01*
X134342980Y-90677822D01*
X134360879Y-90687389D01*
X134396609Y-90716712D01*
X134498044Y-90799956D01*
X134565304Y-90881914D01*
X134610611Y-90937121D01*
X134610612Y-90937123D01*
X134694257Y-91093610D01*
X134694257Y-91093611D01*
X134745766Y-91263412D01*
X134763158Y-91440000D01*
X134745766Y-91616588D01*
X134744488Y-91620800D01*
X134694257Y-91786390D01*
X134644648Y-91879200D01*
X134610611Y-91942879D01*
X134599808Y-91956042D01*
X134498044Y-92080044D01*
X134396609Y-92163288D01*
X134360879Y-92192611D01*
X134360877Y-92192612D01*
X134204390Y-92276257D01*
X134147789Y-92293427D01*
X134034588Y-92327766D01*
X133946362Y-92336455D01*
X133902250Y-92340800D01*
X133813750Y-92340800D01*
X133769638Y-92336455D01*
X133681412Y-92327766D01*
X133568211Y-92293427D01*
X133511610Y-92276257D01*
X133355123Y-92192612D01*
X133355121Y-92192611D01*
X133319391Y-92163288D01*
X133217956Y-92080044D01*
X133116192Y-91956042D01*
X133105389Y-91942879D01*
X133071352Y-91879200D01*
X133021743Y-91786390D01*
X132971512Y-91620800D01*
X132970234Y-91616588D01*
X132952842Y-91440000D01*
X132970234Y-91263412D01*
X133021743Y-91093611D01*
X133021743Y-91093610D01*
X133105388Y-90937123D01*
X133105389Y-90937121D01*
X133150696Y-90881914D01*
X133217956Y-90799956D01*
X133319391Y-90716712D01*
X133355121Y-90687389D01*
X133373020Y-90677822D01*
X133511610Y-90603743D01*
X133618241Y-90571397D01*
X133681412Y-90552234D01*
X133769638Y-90543545D01*
X133813750Y-90539200D01*
X133902250Y-90539200D01*
X133946362Y-90543545D01*
X133946362Y-90543545D01*
G37*
G36*
X151810800Y-92035800D02*
X150949200Y-92035800D01*
X150949200Y-90534200D01*
X151810800Y-90534200D01*
X151810800Y-92035800D01*
X151810800Y-92035800D01*
G37*
G36*
X154350800Y-92035800D02*
X153489200Y-92035800D01*
X153489200Y-90534200D01*
X154350800Y-90534200D01*
X154350800Y-92035800D01*
X154350800Y-92035800D01*
G37*
G36*
X139271821Y-90881914D02*
X139292415Y-90888162D01*
X139311397Y-90898308D01*
X139328037Y-90911963D01*
X139341692Y-90928603D01*
X139351838Y-90947585D01*
X139358086Y-90968179D01*
X139360800Y-90995740D01*
X139360800Y-91504260D01*
X139358086Y-91531821D01*
X139351838Y-91552415D01*
X139341692Y-91571397D01*
X139328037Y-91588037D01*
X139311397Y-91601692D01*
X139292415Y-91611838D01*
X139271821Y-91618086D01*
X139244260Y-91620800D01*
X138785740Y-91620800D01*
X138758179Y-91618086D01*
X138737585Y-91611838D01*
X138718603Y-91601692D01*
X138701963Y-91588037D01*
X138688308Y-91571397D01*
X138678162Y-91552415D01*
X138671914Y-91531821D01*
X138669200Y-91504260D01*
X138669200Y-90995740D01*
X138671914Y-90968179D01*
X138678162Y-90947585D01*
X138688308Y-90928603D01*
X138701963Y-90911963D01*
X138718603Y-90898308D01*
X138737585Y-90888162D01*
X138758179Y-90881914D01*
X138785740Y-90879200D01*
X139244260Y-90879200D01*
X139271821Y-90881914D01*
X139271821Y-90881914D01*
G37*
G36*
X140241821Y-90881914D02*
X140262415Y-90888162D01*
X140281397Y-90898308D01*
X140298037Y-90911963D01*
X140311692Y-90928603D01*
X140321838Y-90947585D01*
X140328086Y-90968179D01*
X140330800Y-90995740D01*
X140330800Y-91504260D01*
X140328086Y-91531821D01*
X140321838Y-91552415D01*
X140311692Y-91571397D01*
X140298037Y-91588037D01*
X140281397Y-91601692D01*
X140262415Y-91611838D01*
X140241821Y-91618086D01*
X140214260Y-91620800D01*
X139755740Y-91620800D01*
X139728179Y-91618086D01*
X139707585Y-91611838D01*
X139688603Y-91601692D01*
X139671963Y-91588037D01*
X139658308Y-91571397D01*
X139648162Y-91552415D01*
X139641914Y-91531821D01*
X139639200Y-91504260D01*
X139639200Y-90995740D01*
X139641914Y-90968179D01*
X139648162Y-90947585D01*
X139658308Y-90928603D01*
X139671963Y-90911963D01*
X139688603Y-90898308D01*
X139707585Y-90888162D01*
X139728179Y-90881914D01*
X139755740Y-90879200D01*
X140214260Y-90879200D01*
X140241821Y-90881914D01*
X140241821Y-90881914D01*
G37*
G36*
X161860800Y-90855800D02*
X156679200Y-90855800D01*
X156679200Y-88464200D01*
X161860800Y-88464200D01*
X161860800Y-90855800D01*
X161860800Y-90855800D01*
G37*
G36*
X138271821Y-89881914D02*
X138292415Y-89888162D01*
X138311397Y-89898308D01*
X138328037Y-89911963D01*
X138341692Y-89928603D01*
X138351838Y-89947585D01*
X138358086Y-89968179D01*
X138360800Y-89995740D01*
X138360800Y-90504260D01*
X138358086Y-90531821D01*
X138351838Y-90552415D01*
X138341692Y-90571397D01*
X138328037Y-90588037D01*
X138311397Y-90601692D01*
X138292415Y-90611838D01*
X138271821Y-90618086D01*
X138244260Y-90620800D01*
X137785740Y-90620800D01*
X137758179Y-90618086D01*
X137737585Y-90611838D01*
X137718603Y-90601692D01*
X137701963Y-90588037D01*
X137688308Y-90571397D01*
X137678162Y-90552415D01*
X137671914Y-90531821D01*
X137669200Y-90504260D01*
X137669200Y-89995740D01*
X137671914Y-89968179D01*
X137678162Y-89947585D01*
X137688308Y-89928603D01*
X137701963Y-89911963D01*
X137718603Y-89898308D01*
X137737585Y-89888162D01*
X137758179Y-89881914D01*
X137785740Y-89879200D01*
X138244260Y-89879200D01*
X138271821Y-89881914D01*
X138271821Y-89881914D01*
G37*
G36*
X139241821Y-89881914D02*
X139262415Y-89888162D01*
X139281397Y-89898308D01*
X139298037Y-89911963D01*
X139311692Y-89928603D01*
X139321838Y-89947585D01*
X139328086Y-89968179D01*
X139330800Y-89995740D01*
X139330800Y-90504260D01*
X139328086Y-90531821D01*
X139321838Y-90552415D01*
X139311692Y-90571397D01*
X139298037Y-90588037D01*
X139281397Y-90601692D01*
X139262415Y-90611838D01*
X139241821Y-90618086D01*
X139214260Y-90620800D01*
X138755740Y-90620800D01*
X138728179Y-90618086D01*
X138707585Y-90611838D01*
X138688603Y-90601692D01*
X138671963Y-90588037D01*
X138658308Y-90571397D01*
X138648162Y-90552415D01*
X138641914Y-90531821D01*
X138639200Y-90504260D01*
X138639200Y-89995740D01*
X138641914Y-89968179D01*
X138648162Y-89947585D01*
X138658308Y-89928603D01*
X138671963Y-89911963D01*
X138688603Y-89898308D01*
X138707585Y-89888162D01*
X138728179Y-89881914D01*
X138755740Y-89879200D01*
X139214260Y-89879200D01*
X139241821Y-89881914D01*
X139241821Y-89881914D01*
G37*
G36*
X131406362Y-88003545D02*
X131494588Y-88012234D01*
X131607789Y-88046573D01*
X131664390Y-88063743D01*
X131802980Y-88137822D01*
X131820879Y-88147389D01*
X131856609Y-88176712D01*
X131958044Y-88259956D01*
X132041288Y-88361391D01*
X132070611Y-88397121D01*
X132070612Y-88397123D01*
X132154257Y-88553610D01*
X132168842Y-88601692D01*
X132205766Y-88723412D01*
X132223158Y-88900000D01*
X132205766Y-89076588D01*
X132171427Y-89189789D01*
X132154257Y-89246390D01*
X132080178Y-89384980D01*
X132070611Y-89402879D01*
X132041288Y-89438609D01*
X131958044Y-89540044D01*
X131870561Y-89611838D01*
X131820879Y-89652611D01*
X131820877Y-89652612D01*
X131664390Y-89736257D01*
X131607789Y-89753427D01*
X131494588Y-89787766D01*
X131406362Y-89796455D01*
X131362250Y-89800800D01*
X131273750Y-89800800D01*
X131229638Y-89796455D01*
X131141412Y-89787766D01*
X131028211Y-89753427D01*
X130971610Y-89736257D01*
X130815123Y-89652612D01*
X130815121Y-89652611D01*
X130765439Y-89611838D01*
X130677956Y-89540044D01*
X130594712Y-89438609D01*
X130565389Y-89402879D01*
X130555822Y-89384980D01*
X130481743Y-89246390D01*
X130464573Y-89189789D01*
X130430234Y-89076588D01*
X130412842Y-88900000D01*
X130430234Y-88723412D01*
X130467158Y-88601692D01*
X130481743Y-88553610D01*
X130565388Y-88397123D01*
X130565389Y-88397121D01*
X130594712Y-88361391D01*
X130677956Y-88259956D01*
X130779391Y-88176712D01*
X130815121Y-88147389D01*
X130833020Y-88137822D01*
X130971610Y-88063743D01*
X131028211Y-88046573D01*
X131141412Y-88012234D01*
X131229638Y-88003545D01*
X131273750Y-87999200D01*
X131362250Y-87999200D01*
X131406362Y-88003545D01*
X131406362Y-88003545D01*
G37*
G36*
X133946362Y-88003545D02*
X134034588Y-88012234D01*
X134147789Y-88046573D01*
X134204390Y-88063743D01*
X134342980Y-88137822D01*
X134360879Y-88147389D01*
X134396609Y-88176712D01*
X134498044Y-88259956D01*
X134581288Y-88361391D01*
X134610611Y-88397121D01*
X134610612Y-88397123D01*
X134694257Y-88553610D01*
X134708842Y-88601692D01*
X134745766Y-88723412D01*
X134763158Y-88900000D01*
X134745766Y-89076588D01*
X134711427Y-89189789D01*
X134694257Y-89246390D01*
X134620178Y-89384980D01*
X134610611Y-89402879D01*
X134581288Y-89438609D01*
X134498044Y-89540044D01*
X134410561Y-89611838D01*
X134360879Y-89652611D01*
X134360877Y-89652612D01*
X134204390Y-89736257D01*
X134147789Y-89753427D01*
X134034588Y-89787766D01*
X133946362Y-89796455D01*
X133902250Y-89800800D01*
X133813750Y-89800800D01*
X133769638Y-89796455D01*
X133681412Y-89787766D01*
X133568211Y-89753427D01*
X133511610Y-89736257D01*
X133355123Y-89652612D01*
X133355121Y-89652611D01*
X133305439Y-89611838D01*
X133217956Y-89540044D01*
X133134712Y-89438609D01*
X133105389Y-89402879D01*
X133095822Y-89384980D01*
X133021743Y-89246390D01*
X133004573Y-89189789D01*
X132970234Y-89076588D01*
X132952842Y-88900000D01*
X132970234Y-88723412D01*
X133007158Y-88601692D01*
X133021743Y-88553610D01*
X133105388Y-88397123D01*
X133105389Y-88397121D01*
X133134712Y-88361391D01*
X133217956Y-88259956D01*
X133319391Y-88176712D01*
X133355121Y-88147389D01*
X133373020Y-88137822D01*
X133511610Y-88063743D01*
X133568211Y-88046573D01*
X133681412Y-88012234D01*
X133769638Y-88003545D01*
X133813750Y-87999200D01*
X133902250Y-87999200D01*
X133946362Y-88003545D01*
X133946362Y-88003545D01*
G37*
G36*
X139271821Y-88881914D02*
X139292415Y-88888162D01*
X139311397Y-88898308D01*
X139328037Y-88911963D01*
X139341692Y-88928603D01*
X139351838Y-88947585D01*
X139358086Y-88968179D01*
X139360800Y-88995740D01*
X139360800Y-89504260D01*
X139358086Y-89531821D01*
X139351838Y-89552415D01*
X139341692Y-89571397D01*
X139328037Y-89588037D01*
X139311397Y-89601692D01*
X139292415Y-89611838D01*
X139271821Y-89618086D01*
X139244260Y-89620800D01*
X138785740Y-89620800D01*
X138758179Y-89618086D01*
X138737585Y-89611838D01*
X138718603Y-89601692D01*
X138701963Y-89588037D01*
X138688308Y-89571397D01*
X138678162Y-89552415D01*
X138671914Y-89531821D01*
X138669200Y-89504260D01*
X138669200Y-88995740D01*
X138671914Y-88968179D01*
X138678162Y-88947585D01*
X138688308Y-88928603D01*
X138701963Y-88911963D01*
X138718603Y-88898308D01*
X138737585Y-88888162D01*
X138758179Y-88881914D01*
X138785740Y-88879200D01*
X139244260Y-88879200D01*
X139271821Y-88881914D01*
X139271821Y-88881914D01*
G37*
G36*
X140241821Y-88881914D02*
X140262415Y-88888162D01*
X140281397Y-88898308D01*
X140298037Y-88911963D01*
X140311692Y-88928603D01*
X140321838Y-88947585D01*
X140328086Y-88968179D01*
X140330800Y-88995740D01*
X140330800Y-89504260D01*
X140328086Y-89531821D01*
X140321838Y-89552415D01*
X140311692Y-89571397D01*
X140298037Y-89588037D01*
X140281397Y-89601692D01*
X140262415Y-89611838D01*
X140241821Y-89618086D01*
X140214260Y-89620800D01*
X139755740Y-89620800D01*
X139728179Y-89618086D01*
X139707585Y-89611838D01*
X139688603Y-89601692D01*
X139671963Y-89588037D01*
X139658308Y-89571397D01*
X139648162Y-89552415D01*
X139641914Y-89531821D01*
X139639200Y-89504260D01*
X139639200Y-88995740D01*
X139641914Y-88968179D01*
X139648162Y-88947585D01*
X139658308Y-88928603D01*
X139671963Y-88911963D01*
X139688603Y-88898308D01*
X139707585Y-88888162D01*
X139728179Y-88881914D01*
X139755740Y-88879200D01*
X140214260Y-88879200D01*
X140241821Y-88881914D01*
X140241821Y-88881914D01*
G37*
G36*
X139241821Y-87881914D02*
X139262415Y-87888162D01*
X139281397Y-87898308D01*
X139298037Y-87911963D01*
X139311692Y-87928603D01*
X139321838Y-87947585D01*
X139328086Y-87968179D01*
X139330800Y-87995740D01*
X139330800Y-88504260D01*
X139328086Y-88531821D01*
X139321838Y-88552415D01*
X139311692Y-88571397D01*
X139298037Y-88588037D01*
X139281397Y-88601692D01*
X139262415Y-88611838D01*
X139241821Y-88618086D01*
X139214260Y-88620800D01*
X138755740Y-88620800D01*
X138728179Y-88618086D01*
X138707585Y-88611838D01*
X138688603Y-88601692D01*
X138671963Y-88588037D01*
X138658308Y-88571397D01*
X138648162Y-88552415D01*
X138641914Y-88531821D01*
X138639200Y-88504260D01*
X138639200Y-87995740D01*
X138641914Y-87968179D01*
X138648162Y-87947585D01*
X138658308Y-87928603D01*
X138671963Y-87911963D01*
X138688603Y-87898308D01*
X138707585Y-87888162D01*
X138728179Y-87881914D01*
X138755740Y-87879200D01*
X139214260Y-87879200D01*
X139241821Y-87881914D01*
X139241821Y-87881914D01*
G37*
G36*
X138271821Y-87881914D02*
X138292415Y-87888162D01*
X138311397Y-87898308D01*
X138328037Y-87911963D01*
X138341692Y-87928603D01*
X138351838Y-87947585D01*
X138358086Y-87968179D01*
X138360800Y-87995740D01*
X138360800Y-88504260D01*
X138358086Y-88531821D01*
X138351838Y-88552415D01*
X138341692Y-88571397D01*
X138328037Y-88588037D01*
X138311397Y-88601692D01*
X138292415Y-88611838D01*
X138271821Y-88618086D01*
X138244260Y-88620800D01*
X137785740Y-88620800D01*
X137758179Y-88618086D01*
X137737585Y-88611838D01*
X137718603Y-88601692D01*
X137701963Y-88588037D01*
X137688308Y-88571397D01*
X137678162Y-88552415D01*
X137671914Y-88531821D01*
X137669200Y-88504260D01*
X137669200Y-87995740D01*
X137671914Y-87968179D01*
X137678162Y-87947585D01*
X137688308Y-87928603D01*
X137701963Y-87911963D01*
X137718603Y-87898308D01*
X137737585Y-87888162D01*
X137758179Y-87881914D01*
X137785740Y-87879200D01*
X138244260Y-87879200D01*
X138271821Y-87881914D01*
X138271821Y-87881914D01*
G37*
G36*
X139271821Y-86881914D02*
X139292415Y-86888162D01*
X139311397Y-86898308D01*
X139328037Y-86911963D01*
X139341692Y-86928603D01*
X139351838Y-86947585D01*
X139358086Y-86968179D01*
X139360800Y-86995740D01*
X139360800Y-87504260D01*
X139358086Y-87531821D01*
X139351838Y-87552415D01*
X139341692Y-87571397D01*
X139328037Y-87588037D01*
X139311397Y-87601692D01*
X139292415Y-87611838D01*
X139271821Y-87618086D01*
X139244260Y-87620800D01*
X138785740Y-87620800D01*
X138758179Y-87618086D01*
X138737585Y-87611838D01*
X138718603Y-87601692D01*
X138701963Y-87588037D01*
X138688308Y-87571397D01*
X138678162Y-87552415D01*
X138671914Y-87531821D01*
X138669200Y-87504260D01*
X138669200Y-86995740D01*
X138671914Y-86968179D01*
X138678162Y-86947585D01*
X138688308Y-86928603D01*
X138701963Y-86911963D01*
X138718603Y-86898308D01*
X138737585Y-86888162D01*
X138758179Y-86881914D01*
X138785740Y-86879200D01*
X139244260Y-86879200D01*
X139271821Y-86881914D01*
X139271821Y-86881914D01*
G37*
G36*
X140241821Y-86881914D02*
X140262415Y-86888162D01*
X140281397Y-86898308D01*
X140298037Y-86911963D01*
X140311692Y-86928603D01*
X140321838Y-86947585D01*
X140328086Y-86968179D01*
X140330800Y-86995740D01*
X140330800Y-87504260D01*
X140328086Y-87531821D01*
X140321838Y-87552415D01*
X140311692Y-87571397D01*
X140298037Y-87588037D01*
X140281397Y-87601692D01*
X140262415Y-87611838D01*
X140241821Y-87618086D01*
X140214260Y-87620800D01*
X139755740Y-87620800D01*
X139728179Y-87618086D01*
X139707585Y-87611838D01*
X139688603Y-87601692D01*
X139671963Y-87588037D01*
X139658308Y-87571397D01*
X139648162Y-87552415D01*
X139641914Y-87531821D01*
X139639200Y-87504260D01*
X139639200Y-86995740D01*
X139641914Y-86968179D01*
X139648162Y-86947585D01*
X139658308Y-86928603D01*
X139671963Y-86911963D01*
X139688603Y-86898308D01*
X139707585Y-86888162D01*
X139728179Y-86881914D01*
X139755740Y-86879200D01*
X140214260Y-86879200D01*
X140241821Y-86881914D01*
X140241821Y-86881914D01*
G37*
G36*
X133946362Y-85463545D02*
X134034588Y-85472234D01*
X134140163Y-85504260D01*
X134204390Y-85523743D01*
X134291227Y-85570159D01*
X134360879Y-85607389D01*
X134373172Y-85617478D01*
X134498044Y-85719956D01*
X134581288Y-85821391D01*
X134610611Y-85857121D01*
X134610612Y-85857123D01*
X134694257Y-86013610D01*
X134705933Y-86052100D01*
X134745766Y-86183412D01*
X134763158Y-86360000D01*
X134745766Y-86536588D01*
X134720220Y-86620800D01*
X134694257Y-86706390D01*
X134620178Y-86844980D01*
X134610611Y-86862879D01*
X134594989Y-86881914D01*
X134498044Y-87000044D01*
X134434612Y-87052100D01*
X134360879Y-87112611D01*
X134360877Y-87112612D01*
X134204390Y-87196257D01*
X134147789Y-87213427D01*
X134034588Y-87247766D01*
X133946362Y-87256455D01*
X133902250Y-87260800D01*
X133813750Y-87260800D01*
X133769638Y-87256455D01*
X133681412Y-87247766D01*
X133568211Y-87213427D01*
X133511610Y-87196257D01*
X133355123Y-87112612D01*
X133355121Y-87112611D01*
X133281388Y-87052100D01*
X133217956Y-87000044D01*
X133121011Y-86881914D01*
X133105389Y-86862879D01*
X133095822Y-86844980D01*
X133021743Y-86706390D01*
X132995780Y-86620800D01*
X132970234Y-86536588D01*
X132952842Y-86360000D01*
X132970234Y-86183412D01*
X133010067Y-86052100D01*
X133021743Y-86013610D01*
X133105388Y-85857123D01*
X133105389Y-85857121D01*
X133134712Y-85821391D01*
X133217956Y-85719956D01*
X133342828Y-85617478D01*
X133355121Y-85607389D01*
X133424773Y-85570159D01*
X133511610Y-85523743D01*
X133575837Y-85504260D01*
X133681412Y-85472234D01*
X133769638Y-85463545D01*
X133813750Y-85459200D01*
X133902250Y-85459200D01*
X133946362Y-85463545D01*
X133946362Y-85463545D01*
G37*
G36*
X131406362Y-85463545D02*
X131494588Y-85472234D01*
X131600163Y-85504260D01*
X131664390Y-85523743D01*
X131751227Y-85570159D01*
X131820879Y-85607389D01*
X131833172Y-85617478D01*
X131958044Y-85719956D01*
X132041288Y-85821391D01*
X132070611Y-85857121D01*
X132070612Y-85857123D01*
X132154257Y-86013610D01*
X132165933Y-86052100D01*
X132205766Y-86183412D01*
X132223158Y-86360000D01*
X132205766Y-86536588D01*
X132180220Y-86620800D01*
X132154257Y-86706390D01*
X132080178Y-86844980D01*
X132070611Y-86862879D01*
X132054989Y-86881914D01*
X131958044Y-87000044D01*
X131894612Y-87052100D01*
X131820879Y-87112611D01*
X131820877Y-87112612D01*
X131664390Y-87196257D01*
X131607789Y-87213427D01*
X131494588Y-87247766D01*
X131406362Y-87256455D01*
X131362250Y-87260800D01*
X131273750Y-87260800D01*
X131229638Y-87256455D01*
X131141412Y-87247766D01*
X131028211Y-87213427D01*
X130971610Y-87196257D01*
X130815123Y-87112612D01*
X130815121Y-87112611D01*
X130741388Y-87052100D01*
X130677956Y-87000044D01*
X130581011Y-86881914D01*
X130565389Y-86862879D01*
X130555822Y-86844980D01*
X130481743Y-86706390D01*
X130455780Y-86620800D01*
X130430234Y-86536588D01*
X130412842Y-86360000D01*
X130430234Y-86183412D01*
X130470067Y-86052100D01*
X130481743Y-86013610D01*
X130565388Y-85857123D01*
X130565389Y-85857121D01*
X130594712Y-85821391D01*
X130677956Y-85719956D01*
X130802828Y-85617478D01*
X130815121Y-85607389D01*
X130884773Y-85570159D01*
X130971610Y-85523743D01*
X131035837Y-85504260D01*
X131141412Y-85472234D01*
X131229638Y-85463545D01*
X131273750Y-85459200D01*
X131362250Y-85459200D01*
X131406362Y-85463545D01*
X131406362Y-85463545D01*
G37*
G36*
X138271821Y-85881914D02*
X138292415Y-85888162D01*
X138311397Y-85898308D01*
X138328037Y-85911963D01*
X138341692Y-85928603D01*
X138351838Y-85947585D01*
X138358086Y-85968179D01*
X138360800Y-85995740D01*
X138360800Y-86504260D01*
X138358086Y-86531821D01*
X138351838Y-86552415D01*
X138341692Y-86571397D01*
X138328037Y-86588037D01*
X138311397Y-86601692D01*
X138292415Y-86611838D01*
X138271821Y-86618086D01*
X138244260Y-86620800D01*
X137785740Y-86620800D01*
X137758179Y-86618086D01*
X137737585Y-86611838D01*
X137718603Y-86601692D01*
X137701963Y-86588037D01*
X137688308Y-86571397D01*
X137678162Y-86552415D01*
X137671914Y-86531821D01*
X137669200Y-86504260D01*
X137669200Y-85995740D01*
X137671914Y-85968179D01*
X137678162Y-85947585D01*
X137688308Y-85928603D01*
X137701963Y-85911963D01*
X137718603Y-85898308D01*
X137737585Y-85888162D01*
X137758179Y-85881914D01*
X137785740Y-85879200D01*
X138244260Y-85879200D01*
X138271821Y-85881914D01*
X138271821Y-85881914D01*
G37*
G36*
X139241821Y-85881914D02*
X139262415Y-85888162D01*
X139281397Y-85898308D01*
X139298037Y-85911963D01*
X139311692Y-85928603D01*
X139321838Y-85947585D01*
X139328086Y-85968179D01*
X139330800Y-85995740D01*
X139330800Y-86504260D01*
X139328086Y-86531821D01*
X139321838Y-86552415D01*
X139311692Y-86571397D01*
X139298037Y-86588037D01*
X139281397Y-86601692D01*
X139262415Y-86611838D01*
X139241821Y-86618086D01*
X139214260Y-86620800D01*
X138755740Y-86620800D01*
X138728179Y-86618086D01*
X138707585Y-86611838D01*
X138688603Y-86601692D01*
X138671963Y-86588037D01*
X138658308Y-86571397D01*
X138648162Y-86552415D01*
X138641914Y-86531821D01*
X138639200Y-86504260D01*
X138639200Y-85995740D01*
X138641914Y-85968179D01*
X138648162Y-85947585D01*
X138658308Y-85928603D01*
X138671963Y-85911963D01*
X138688603Y-85898308D01*
X138707585Y-85888162D01*
X138728179Y-85881914D01*
X138755740Y-85879200D01*
X139214260Y-85879200D01*
X139241821Y-85881914D01*
X139241821Y-85881914D01*
G37*
G36*
X161860800Y-86540800D02*
X156679200Y-86540800D01*
X156679200Y-84019200D01*
X161860800Y-84019200D01*
X161860800Y-86540800D01*
X161860800Y-86540800D01*
G37*
G36*
X139271821Y-84881914D02*
X139292415Y-84888162D01*
X139311397Y-84898308D01*
X139328037Y-84911963D01*
X139341692Y-84928603D01*
X139351838Y-84947585D01*
X139358086Y-84968179D01*
X139360800Y-84995740D01*
X139360800Y-85504260D01*
X139358086Y-85531821D01*
X139351838Y-85552415D01*
X139341692Y-85571397D01*
X139328037Y-85588037D01*
X139311397Y-85601692D01*
X139292415Y-85611838D01*
X139271821Y-85618086D01*
X139244260Y-85620800D01*
X138785740Y-85620800D01*
X138758179Y-85618086D01*
X138737585Y-85611838D01*
X138718603Y-85601692D01*
X138701963Y-85588037D01*
X138688308Y-85571397D01*
X138678162Y-85552415D01*
X138671914Y-85531821D01*
X138669200Y-85504260D01*
X138669200Y-84995740D01*
X138671914Y-84968179D01*
X138678162Y-84947585D01*
X138688308Y-84928603D01*
X138701963Y-84911963D01*
X138718603Y-84898308D01*
X138737585Y-84888162D01*
X138758179Y-84881914D01*
X138785740Y-84879200D01*
X139244260Y-84879200D01*
X139271821Y-84881914D01*
X139271821Y-84881914D01*
G37*
G36*
X140241821Y-84881914D02*
X140262415Y-84888162D01*
X140281397Y-84898308D01*
X140298037Y-84911963D01*
X140311692Y-84928603D01*
X140321838Y-84947585D01*
X140328086Y-84968179D01*
X140330800Y-84995740D01*
X140330800Y-85504260D01*
X140328086Y-85531821D01*
X140321838Y-85552415D01*
X140311692Y-85571397D01*
X140298037Y-85588037D01*
X140281397Y-85601692D01*
X140262415Y-85611838D01*
X140241821Y-85618086D01*
X140214260Y-85620800D01*
X139755740Y-85620800D01*
X139728179Y-85618086D01*
X139707585Y-85611838D01*
X139688603Y-85601692D01*
X139671963Y-85588037D01*
X139658308Y-85571397D01*
X139648162Y-85552415D01*
X139641914Y-85531821D01*
X139639200Y-85504260D01*
X139639200Y-84995740D01*
X139641914Y-84968179D01*
X139648162Y-84947585D01*
X139658308Y-84928603D01*
X139671963Y-84911963D01*
X139688603Y-84898308D01*
X139707585Y-84888162D01*
X139728179Y-84881914D01*
X139755740Y-84879200D01*
X140214260Y-84879200D01*
X140241821Y-84881914D01*
X140241821Y-84881914D01*
G37*
G36*
X132218800Y-84720800D02*
X130417200Y-84720800D01*
X130417200Y-82919200D01*
X132218800Y-82919200D01*
X132218800Y-84720800D01*
X132218800Y-84720800D01*
G37*
G36*
X133946362Y-82923545D02*
X134034588Y-82932234D01*
X134147789Y-82966573D01*
X134204390Y-82983743D01*
X134342980Y-83057822D01*
X134360879Y-83067389D01*
X134396609Y-83096712D01*
X134498044Y-83179956D01*
X134581288Y-83281391D01*
X134610611Y-83317121D01*
X134610612Y-83317123D01*
X134694257Y-83473610D01*
X134694257Y-83473611D01*
X134745766Y-83643412D01*
X134763158Y-83820000D01*
X134745766Y-83996588D01*
X134711427Y-84109789D01*
X134694257Y-84166390D01*
X134620178Y-84304980D01*
X134610611Y-84322879D01*
X134581288Y-84358609D01*
X134498044Y-84460044D01*
X134396609Y-84543288D01*
X134360879Y-84572611D01*
X134360877Y-84572612D01*
X134204390Y-84656257D01*
X134147789Y-84673427D01*
X134034588Y-84707766D01*
X133946362Y-84716455D01*
X133902250Y-84720800D01*
X133813750Y-84720800D01*
X133769638Y-84716455D01*
X133681412Y-84707766D01*
X133568211Y-84673427D01*
X133511610Y-84656257D01*
X133355123Y-84572612D01*
X133355121Y-84572611D01*
X133319391Y-84543288D01*
X133217956Y-84460044D01*
X133134712Y-84358609D01*
X133105389Y-84322879D01*
X133095822Y-84304980D01*
X133021743Y-84166390D01*
X133004573Y-84109789D01*
X132970234Y-83996588D01*
X132952842Y-83820000D01*
X132970234Y-83643412D01*
X133021743Y-83473611D01*
X133021743Y-83473610D01*
X133105388Y-83317123D01*
X133105389Y-83317121D01*
X133134712Y-83281391D01*
X133217956Y-83179956D01*
X133319391Y-83096712D01*
X133355121Y-83067389D01*
X133373020Y-83057822D01*
X133511610Y-82983743D01*
X133568211Y-82966573D01*
X133681412Y-82932234D01*
X133769638Y-82923545D01*
X133813750Y-82919200D01*
X133902250Y-82919200D01*
X133946362Y-82923545D01*
X133946362Y-82923545D01*
G37*
M02*
