G04 #@! TF.GenerationSoftware,KiCad,Pcbnew,(5.0.1-3-g963ef8bb5)*
G04 #@! TF.CreationDate,2018-11-21T19:49:20+01:00*
G04 #@! TF.ProjectId,DAC_ISL5857,4441435F49534C353835372E6B696361,A*
G04 #@! TF.SameCoordinates,Original*
G04 #@! TF.FileFunction,Copper,L3,Inr,Signal*
G04 #@! TF.FilePolarity,Positive*
%FSLAX46Y46*%
G04 Gerber Fmt 4.6, Leading zero omitted, Abs format (unit mm)*
G04 Created by KiCad (PCBNEW (5.0.1-3-g963ef8bb5)) date Wednesday, 21 November 2018 at 19:49:20*
%MOMM*%
%LPD*%
G01*
G04 APERTURE LIST*
G04 #@! TA.AperFunction,ViaPad*
%ADD10R,1.700000X1.700000*%
G04 #@! TD*
G04 #@! TA.AperFunction,ViaPad*
%ADD11O,1.700000X1.700000*%
G04 #@! TD*
G04 #@! TA.AperFunction,ViaPad*
%ADD12C,0.970000*%
G04 #@! TD*
G04 #@! TA.AperFunction,ViaPad*
%ADD13C,0.508000*%
G04 #@! TD*
G04 #@! TA.AperFunction,Conductor*
%ADD14C,0.254000*%
G04 #@! TD*
G04 APERTURE END LIST*
D10*
G04 #@! TO.N,VDD*
G04 #@! TO.C,J3*
X137287000Y-119380000D03*
D11*
G04 #@! TO.N,+5V*
X139827000Y-119380000D03*
G04 #@! TO.N,GND*
X142367000Y-119380000D03*
G04 #@! TD*
D12*
G04 #@! TO.N,GND*
G04 #@! TO.C,X2*
X155830000Y-94040000D03*
X155830000Y-85280000D03*
G04 #@! TD*
D11*
G04 #@! TO.N,Net-(J2-Pad12)*
G04 #@! TO.C,J2*
X133858000Y-96520000D03*
G04 #@! TO.N,Net-(J2-Pad11)*
X131318000Y-96520000D03*
G04 #@! TO.N,GND*
X133858000Y-93980000D03*
X131318000Y-93980000D03*
G04 #@! TO.N,/D5*
X133858000Y-91440000D03*
G04 #@! TO.N,/D4*
X131318000Y-91440000D03*
G04 #@! TO.N,/D7*
X133858000Y-88900000D03*
G04 #@! TO.N,/D6*
X131318000Y-88900000D03*
G04 #@! TO.N,/D9*
X133858000Y-86360000D03*
G04 #@! TO.N,/D8*
X131318000Y-86360000D03*
G04 #@! TO.N,/D11*
X133858000Y-83820000D03*
D10*
G04 #@! TO.N,/D10*
X131318000Y-83820000D03*
G04 #@! TD*
G04 #@! TO.N,/D3*
G04 #@! TO.C,J1*
X131318000Y-106680000D03*
D11*
G04 #@! TO.N,/D2*
X133858000Y-106680000D03*
G04 #@! TO.N,/D1*
X131318000Y-109220000D03*
G04 #@! TO.N,/D0*
X133858000Y-109220000D03*
G04 #@! TO.N,/CLK*
X131318000Y-111760000D03*
G04 #@! TO.N,/PD*
X133858000Y-111760000D03*
G04 #@! TO.N,Net-(J1-Pad7)*
X131318000Y-114300000D03*
G04 #@! TO.N,SYS_MCLK*
X133858000Y-114300000D03*
G04 #@! TO.N,GND*
X131318000Y-116840000D03*
X133858000Y-116840000D03*
G04 #@! TO.N,VDD*
X131318000Y-119380000D03*
X133858000Y-119380000D03*
G04 #@! TD*
D13*
G04 #@! TO.N,GND*
X136906000Y-116332000D03*
X141605000Y-110998000D03*
X142875000Y-112268000D03*
X137250000Y-111250000D03*
X137250000Y-88250000D03*
X137250000Y-86250000D03*
X137250000Y-90250000D03*
X137250000Y-92250000D03*
X137250000Y-96250000D03*
X137250000Y-98250000D03*
X137250000Y-100250000D03*
X137250000Y-102250000D03*
X137250000Y-104250000D03*
X137250000Y-106250000D03*
X137250000Y-108250000D03*
X137250000Y-94250000D03*
X136906000Y-113919000D03*
G04 #@! TO.N,+3V3*
X153111800Y-114187000D03*
G04 #@! TO.N,Net-(C7-Pad2)*
X156845000Y-99105000D03*
X150936958Y-99105000D03*
G04 #@! TO.N,/AVDD*
X150300000Y-107525000D03*
X150300000Y-109295000D03*
X149986598Y-98452513D03*
X149086103Y-106405435D03*
G04 #@! TO.N,/DVDD*
X142922462Y-106300000D03*
X141600000Y-107526123D03*
X141600000Y-109296123D03*
X149987000Y-96505000D03*
G04 #@! TO.N,Net-(R28-Pad1)*
X140900000Y-110250000D03*
G04 #@! TO.N,/PD*
X136271000Y-111760000D03*
X148844000Y-105283000D03*
G04 #@! TO.N,SYS_MCLK*
X147193000Y-118427500D03*
X136906000Y-115062000D03*
G04 #@! TD*
D14*
G04 #@! TO.N,+3V3*
G36*
X136152342Y-113415422D02*
X136017000Y-113742167D01*
X136017000Y-114095833D01*
X136152342Y-114422578D01*
X136220264Y-114490500D01*
X136152342Y-114558422D01*
X136017000Y-114885167D01*
X136017000Y-115238833D01*
X136152342Y-115565578D01*
X136283764Y-115697000D01*
X136152342Y-115828422D01*
X136017000Y-116155167D01*
X136017000Y-116508833D01*
X136152342Y-116835578D01*
X136402422Y-117085658D01*
X136729167Y-117221000D01*
X137082833Y-117221000D01*
X137409578Y-117085658D01*
X137659658Y-116835578D01*
X137795000Y-116508833D01*
X137795000Y-116155167D01*
X137659658Y-115828422D01*
X137528236Y-115697000D01*
X137659658Y-115565578D01*
X137795000Y-115238833D01*
X137795000Y-114885167D01*
X137659658Y-114558422D01*
X137591736Y-114490500D01*
X137659658Y-114422578D01*
X137795000Y-114095833D01*
X137795000Y-113742167D01*
X137659658Y-113415422D01*
X137655236Y-113411000D01*
X161596001Y-113411000D01*
X161596001Y-120448000D01*
X143439379Y-120448000D01*
X143765839Y-119959418D01*
X143881092Y-119380000D01*
X143765839Y-118800582D01*
X143437625Y-118309375D01*
X143349763Y-118250667D01*
X146304000Y-118250667D01*
X146304000Y-118604333D01*
X146439342Y-118931078D01*
X146689422Y-119181158D01*
X147016167Y-119316500D01*
X147369833Y-119316500D01*
X147696578Y-119181158D01*
X147946658Y-118931078D01*
X148082000Y-118604333D01*
X148082000Y-118250667D01*
X147946658Y-117923922D01*
X147696578Y-117673842D01*
X147369833Y-117538500D01*
X147016167Y-117538500D01*
X146689422Y-117673842D01*
X146439342Y-117923922D01*
X146304000Y-118250667D01*
X143349763Y-118250667D01*
X142946418Y-117981161D01*
X142513256Y-117895000D01*
X142220744Y-117895000D01*
X141787582Y-117981161D01*
X141296375Y-118309375D01*
X141097000Y-118607761D01*
X140897625Y-118309375D01*
X140406418Y-117981161D01*
X139973256Y-117895000D01*
X139680744Y-117895000D01*
X139247582Y-117981161D01*
X138756375Y-118309375D01*
X138744184Y-118327619D01*
X138735157Y-118282235D01*
X138594809Y-118072191D01*
X138384765Y-117931843D01*
X138137000Y-117882560D01*
X136437000Y-117882560D01*
X136189235Y-117931843D01*
X135979191Y-118072191D01*
X135838843Y-118282235D01*
X135789560Y-118530000D01*
X135789560Y-120230000D01*
X135832922Y-120448000D01*
X134930379Y-120448000D01*
X135256839Y-119959418D01*
X135372092Y-119380000D01*
X135256839Y-118800582D01*
X134928625Y-118309375D01*
X134630239Y-118110000D01*
X134928625Y-117910625D01*
X135256839Y-117419418D01*
X135372092Y-116840000D01*
X135256839Y-116260582D01*
X134928625Y-115769375D01*
X134630239Y-115570000D01*
X134928625Y-115370625D01*
X135256839Y-114879418D01*
X135372092Y-114300000D01*
X135256839Y-113720582D01*
X135049983Y-113411000D01*
X136156764Y-113411000D01*
X136152342Y-113415422D01*
X136152342Y-113415422D01*
G37*
X136152342Y-113415422D02*
X136017000Y-113742167D01*
X136017000Y-114095833D01*
X136152342Y-114422578D01*
X136220264Y-114490500D01*
X136152342Y-114558422D01*
X136017000Y-114885167D01*
X136017000Y-115238833D01*
X136152342Y-115565578D01*
X136283764Y-115697000D01*
X136152342Y-115828422D01*
X136017000Y-116155167D01*
X136017000Y-116508833D01*
X136152342Y-116835578D01*
X136402422Y-117085658D01*
X136729167Y-117221000D01*
X137082833Y-117221000D01*
X137409578Y-117085658D01*
X137659658Y-116835578D01*
X137795000Y-116508833D01*
X137795000Y-116155167D01*
X137659658Y-115828422D01*
X137528236Y-115697000D01*
X137659658Y-115565578D01*
X137795000Y-115238833D01*
X137795000Y-114885167D01*
X137659658Y-114558422D01*
X137591736Y-114490500D01*
X137659658Y-114422578D01*
X137795000Y-114095833D01*
X137795000Y-113742167D01*
X137659658Y-113415422D01*
X137655236Y-113411000D01*
X161596001Y-113411000D01*
X161596001Y-120448000D01*
X143439379Y-120448000D01*
X143765839Y-119959418D01*
X143881092Y-119380000D01*
X143765839Y-118800582D01*
X143437625Y-118309375D01*
X143349763Y-118250667D01*
X146304000Y-118250667D01*
X146304000Y-118604333D01*
X146439342Y-118931078D01*
X146689422Y-119181158D01*
X147016167Y-119316500D01*
X147369833Y-119316500D01*
X147696578Y-119181158D01*
X147946658Y-118931078D01*
X148082000Y-118604333D01*
X148082000Y-118250667D01*
X147946658Y-117923922D01*
X147696578Y-117673842D01*
X147369833Y-117538500D01*
X147016167Y-117538500D01*
X146689422Y-117673842D01*
X146439342Y-117923922D01*
X146304000Y-118250667D01*
X143349763Y-118250667D01*
X142946418Y-117981161D01*
X142513256Y-117895000D01*
X142220744Y-117895000D01*
X141787582Y-117981161D01*
X141296375Y-118309375D01*
X141097000Y-118607761D01*
X140897625Y-118309375D01*
X140406418Y-117981161D01*
X139973256Y-117895000D01*
X139680744Y-117895000D01*
X139247582Y-117981161D01*
X138756375Y-118309375D01*
X138744184Y-118327619D01*
X138735157Y-118282235D01*
X138594809Y-118072191D01*
X138384765Y-117931843D01*
X138137000Y-117882560D01*
X136437000Y-117882560D01*
X136189235Y-117931843D01*
X135979191Y-118072191D01*
X135838843Y-118282235D01*
X135789560Y-118530000D01*
X135789560Y-120230000D01*
X135832922Y-120448000D01*
X134930379Y-120448000D01*
X135256839Y-119959418D01*
X135372092Y-119380000D01*
X135256839Y-118800582D01*
X134928625Y-118309375D01*
X134630239Y-118110000D01*
X134928625Y-117910625D01*
X135256839Y-117419418D01*
X135372092Y-116840000D01*
X135256839Y-116260582D01*
X134928625Y-115769375D01*
X134630239Y-115570000D01*
X134928625Y-115370625D01*
X135256839Y-114879418D01*
X135372092Y-114300000D01*
X135256839Y-113720582D01*
X135049983Y-113411000D01*
X136156764Y-113411000D01*
X136152342Y-113415422D01*
G04 #@! TO.N,/AVDD*
G36*
X161596001Y-112649000D02*
X146431000Y-112649000D01*
X146431000Y-105106167D01*
X147955000Y-105106167D01*
X147955000Y-105459833D01*
X148090342Y-105786578D01*
X148340422Y-106036658D01*
X148667167Y-106172000D01*
X149020833Y-106172000D01*
X149347578Y-106036658D01*
X149597658Y-105786578D01*
X149733000Y-105459833D01*
X149733000Y-105106167D01*
X149597658Y-104779422D01*
X149347578Y-104529342D01*
X149020833Y-104394000D01*
X148667167Y-104394000D01*
X148340422Y-104529342D01*
X148090342Y-104779422D01*
X147955000Y-105106167D01*
X146431000Y-105106167D01*
X146431000Y-98928167D01*
X150047958Y-98928167D01*
X150047958Y-99281833D01*
X150183300Y-99608578D01*
X150433380Y-99858658D01*
X150760125Y-99994000D01*
X151113791Y-99994000D01*
X151440536Y-99858658D01*
X151690616Y-99608578D01*
X151825958Y-99281833D01*
X151825958Y-98928167D01*
X155956000Y-98928167D01*
X155956000Y-99281833D01*
X156091342Y-99608578D01*
X156341422Y-99858658D01*
X156668167Y-99994000D01*
X157021833Y-99994000D01*
X157348578Y-99858658D01*
X157598658Y-99608578D01*
X157734000Y-99281833D01*
X157734000Y-98928167D01*
X157598658Y-98601422D01*
X157348578Y-98351342D01*
X157021833Y-98216000D01*
X156668167Y-98216000D01*
X156341422Y-98351342D01*
X156091342Y-98601422D01*
X155956000Y-98928167D01*
X151825958Y-98928167D01*
X151690616Y-98601422D01*
X151440536Y-98351342D01*
X151113791Y-98216000D01*
X150760125Y-98216000D01*
X150433380Y-98351342D01*
X150183300Y-98601422D01*
X150047958Y-98928167D01*
X146431000Y-98928167D01*
X146431000Y-97790000D01*
X150876000Y-97790000D01*
X150924601Y-97780333D01*
X150965803Y-97752803D01*
X150993333Y-97711601D01*
X151003000Y-97663000D01*
X151003000Y-93817218D01*
X154710000Y-93817218D01*
X154710000Y-94262782D01*
X154880510Y-94674429D01*
X155195571Y-94989490D01*
X155607218Y-95160000D01*
X156052782Y-95160000D01*
X156464429Y-94989490D01*
X156779490Y-94674429D01*
X156950000Y-94262782D01*
X156950000Y-93817218D01*
X156779490Y-93405571D01*
X156464429Y-93090510D01*
X156052782Y-92920000D01*
X155607218Y-92920000D01*
X155195571Y-93090510D01*
X154880510Y-93405571D01*
X154710000Y-93817218D01*
X151003000Y-93817218D01*
X151003000Y-85057218D01*
X154710000Y-85057218D01*
X154710000Y-85502782D01*
X154880510Y-85914429D01*
X155195571Y-86229490D01*
X155607218Y-86400000D01*
X156052782Y-86400000D01*
X156464429Y-86229490D01*
X156779490Y-85914429D01*
X156950000Y-85502782D01*
X156950000Y-85057218D01*
X156779490Y-84645571D01*
X156464429Y-84330510D01*
X156052782Y-84160000D01*
X155607218Y-84160000D01*
X155195571Y-84330510D01*
X154880510Y-84645571D01*
X154710000Y-85057218D01*
X151003000Y-85057218D01*
X151003000Y-82752000D01*
X161596000Y-82752000D01*
X161596001Y-112649000D01*
X161596001Y-112649000D01*
G37*
X161596001Y-112649000D02*
X146431000Y-112649000D01*
X146431000Y-105106167D01*
X147955000Y-105106167D01*
X147955000Y-105459833D01*
X148090342Y-105786578D01*
X148340422Y-106036658D01*
X148667167Y-106172000D01*
X149020833Y-106172000D01*
X149347578Y-106036658D01*
X149597658Y-105786578D01*
X149733000Y-105459833D01*
X149733000Y-105106167D01*
X149597658Y-104779422D01*
X149347578Y-104529342D01*
X149020833Y-104394000D01*
X148667167Y-104394000D01*
X148340422Y-104529342D01*
X148090342Y-104779422D01*
X147955000Y-105106167D01*
X146431000Y-105106167D01*
X146431000Y-98928167D01*
X150047958Y-98928167D01*
X150047958Y-99281833D01*
X150183300Y-99608578D01*
X150433380Y-99858658D01*
X150760125Y-99994000D01*
X151113791Y-99994000D01*
X151440536Y-99858658D01*
X151690616Y-99608578D01*
X151825958Y-99281833D01*
X151825958Y-98928167D01*
X155956000Y-98928167D01*
X155956000Y-99281833D01*
X156091342Y-99608578D01*
X156341422Y-99858658D01*
X156668167Y-99994000D01*
X157021833Y-99994000D01*
X157348578Y-99858658D01*
X157598658Y-99608578D01*
X157734000Y-99281833D01*
X157734000Y-98928167D01*
X157598658Y-98601422D01*
X157348578Y-98351342D01*
X157021833Y-98216000D01*
X156668167Y-98216000D01*
X156341422Y-98351342D01*
X156091342Y-98601422D01*
X155956000Y-98928167D01*
X151825958Y-98928167D01*
X151690616Y-98601422D01*
X151440536Y-98351342D01*
X151113791Y-98216000D01*
X150760125Y-98216000D01*
X150433380Y-98351342D01*
X150183300Y-98601422D01*
X150047958Y-98928167D01*
X146431000Y-98928167D01*
X146431000Y-97790000D01*
X150876000Y-97790000D01*
X150924601Y-97780333D01*
X150965803Y-97752803D01*
X150993333Y-97711601D01*
X151003000Y-97663000D01*
X151003000Y-93817218D01*
X154710000Y-93817218D01*
X154710000Y-94262782D01*
X154880510Y-94674429D01*
X155195571Y-94989490D01*
X155607218Y-95160000D01*
X156052782Y-95160000D01*
X156464429Y-94989490D01*
X156779490Y-94674429D01*
X156950000Y-94262782D01*
X156950000Y-93817218D01*
X156779490Y-93405571D01*
X156464429Y-93090510D01*
X156052782Y-92920000D01*
X155607218Y-92920000D01*
X155195571Y-93090510D01*
X154880510Y-93405571D01*
X154710000Y-93817218D01*
X151003000Y-93817218D01*
X151003000Y-85057218D01*
X154710000Y-85057218D01*
X154710000Y-85502782D01*
X154880510Y-85914429D01*
X155195571Y-86229490D01*
X155607218Y-86400000D01*
X156052782Y-86400000D01*
X156464429Y-86229490D01*
X156779490Y-85914429D01*
X156950000Y-85502782D01*
X156950000Y-85057218D01*
X156779490Y-84645571D01*
X156464429Y-84330510D01*
X156052782Y-84160000D01*
X155607218Y-84160000D01*
X155195571Y-84330510D01*
X154880510Y-84645571D01*
X154710000Y-85057218D01*
X151003000Y-85057218D01*
X151003000Y-82752000D01*
X161596000Y-82752000D01*
X161596001Y-112649000D01*
G04 #@! TO.N,/DVDD*
G36*
X150241000Y-97028000D02*
X145796000Y-97028000D01*
X145747399Y-97037667D01*
X145706197Y-97065197D01*
X145678667Y-97106399D01*
X145669000Y-97155000D01*
X145669000Y-112649000D01*
X143679431Y-112649000D01*
X143764000Y-112444833D01*
X143764000Y-112091167D01*
X143628658Y-111764422D01*
X143378578Y-111514342D01*
X143051833Y-111379000D01*
X142698167Y-111379000D01*
X142371422Y-111514342D01*
X142121342Y-111764422D01*
X141986000Y-112091167D01*
X141986000Y-112444833D01*
X142070569Y-112649000D01*
X136447833Y-112649000D01*
X136774578Y-112513658D01*
X137024658Y-112263578D01*
X137076260Y-112139000D01*
X137426833Y-112139000D01*
X137753578Y-112003658D01*
X138003658Y-111753578D01*
X138139000Y-111426833D01*
X138139000Y-111073167D01*
X138003658Y-110746422D01*
X137753578Y-110496342D01*
X137426833Y-110361000D01*
X137073167Y-110361000D01*
X136746422Y-110496342D01*
X136496342Y-110746422D01*
X136444740Y-110871000D01*
X136094167Y-110871000D01*
X135767422Y-111006342D01*
X135517342Y-111256422D01*
X135382000Y-111583167D01*
X135382000Y-111936833D01*
X135517342Y-112263578D01*
X135767422Y-112513658D01*
X136094167Y-112649000D01*
X135049983Y-112649000D01*
X135256839Y-112339418D01*
X135372092Y-111760000D01*
X135256839Y-111180582D01*
X134928625Y-110689375D01*
X134630239Y-110490000D01*
X134928625Y-110290625D01*
X135073925Y-110073167D01*
X140011000Y-110073167D01*
X140011000Y-110426833D01*
X140146342Y-110753578D01*
X140396422Y-111003658D01*
X140716000Y-111136031D01*
X140716000Y-111174833D01*
X140851342Y-111501578D01*
X141101422Y-111751658D01*
X141428167Y-111887000D01*
X141781833Y-111887000D01*
X142108578Y-111751658D01*
X142358658Y-111501578D01*
X142494000Y-111174833D01*
X142494000Y-110821167D01*
X142358658Y-110494422D01*
X142108578Y-110244342D01*
X141789000Y-110111969D01*
X141789000Y-110073167D01*
X141653658Y-109746422D01*
X141403578Y-109496342D01*
X141076833Y-109361000D01*
X140723167Y-109361000D01*
X140396422Y-109496342D01*
X140146342Y-109746422D01*
X140011000Y-110073167D01*
X135073925Y-110073167D01*
X135256839Y-109799418D01*
X135372092Y-109220000D01*
X135256839Y-108640582D01*
X134928625Y-108149375D01*
X134814572Y-108073167D01*
X136361000Y-108073167D01*
X136361000Y-108426833D01*
X136496342Y-108753578D01*
X136746422Y-109003658D01*
X137073167Y-109139000D01*
X137426833Y-109139000D01*
X137753578Y-109003658D01*
X138003658Y-108753578D01*
X138139000Y-108426833D01*
X138139000Y-108073167D01*
X138003658Y-107746422D01*
X137753578Y-107496342D01*
X137426833Y-107361000D01*
X137073167Y-107361000D01*
X136746422Y-107496342D01*
X136496342Y-107746422D01*
X136361000Y-108073167D01*
X134814572Y-108073167D01*
X134630239Y-107950000D01*
X134928625Y-107750625D01*
X135256839Y-107259418D01*
X135372092Y-106680000D01*
X135256839Y-106100582D01*
X135238521Y-106073167D01*
X136361000Y-106073167D01*
X136361000Y-106426833D01*
X136496342Y-106753578D01*
X136746422Y-107003658D01*
X137073167Y-107139000D01*
X137426833Y-107139000D01*
X137753578Y-107003658D01*
X138003658Y-106753578D01*
X138139000Y-106426833D01*
X138139000Y-106073167D01*
X138003658Y-105746422D01*
X137753578Y-105496342D01*
X137426833Y-105361000D01*
X137073167Y-105361000D01*
X136746422Y-105496342D01*
X136496342Y-105746422D01*
X136361000Y-106073167D01*
X135238521Y-106073167D01*
X134928625Y-105609375D01*
X134437418Y-105281161D01*
X134004256Y-105195000D01*
X133711744Y-105195000D01*
X133278582Y-105281161D01*
X132787375Y-105609375D01*
X132775184Y-105627619D01*
X132766157Y-105582235D01*
X132625809Y-105372191D01*
X132415765Y-105231843D01*
X132168000Y-105182560D01*
X130468000Y-105182560D01*
X130250000Y-105225922D01*
X130250000Y-104073167D01*
X136361000Y-104073167D01*
X136361000Y-104426833D01*
X136496342Y-104753578D01*
X136746422Y-105003658D01*
X137073167Y-105139000D01*
X137426833Y-105139000D01*
X137753578Y-105003658D01*
X138003658Y-104753578D01*
X138139000Y-104426833D01*
X138139000Y-104073167D01*
X138003658Y-103746422D01*
X137753578Y-103496342D01*
X137426833Y-103361000D01*
X137073167Y-103361000D01*
X136746422Y-103496342D01*
X136496342Y-103746422D01*
X136361000Y-104073167D01*
X130250000Y-104073167D01*
X130250000Y-102073167D01*
X136361000Y-102073167D01*
X136361000Y-102426833D01*
X136496342Y-102753578D01*
X136746422Y-103003658D01*
X137073167Y-103139000D01*
X137426833Y-103139000D01*
X137753578Y-103003658D01*
X138003658Y-102753578D01*
X138139000Y-102426833D01*
X138139000Y-102073167D01*
X138003658Y-101746422D01*
X137753578Y-101496342D01*
X137426833Y-101361000D01*
X137073167Y-101361000D01*
X136746422Y-101496342D01*
X136496342Y-101746422D01*
X136361000Y-102073167D01*
X130250000Y-102073167D01*
X130250000Y-100073167D01*
X136361000Y-100073167D01*
X136361000Y-100426833D01*
X136496342Y-100753578D01*
X136746422Y-101003658D01*
X137073167Y-101139000D01*
X137426833Y-101139000D01*
X137753578Y-101003658D01*
X138003658Y-100753578D01*
X138139000Y-100426833D01*
X138139000Y-100073167D01*
X138003658Y-99746422D01*
X137753578Y-99496342D01*
X137426833Y-99361000D01*
X137073167Y-99361000D01*
X136746422Y-99496342D01*
X136496342Y-99746422D01*
X136361000Y-100073167D01*
X130250000Y-100073167D01*
X130250000Y-98073167D01*
X136361000Y-98073167D01*
X136361000Y-98426833D01*
X136496342Y-98753578D01*
X136746422Y-99003658D01*
X137073167Y-99139000D01*
X137426833Y-99139000D01*
X137753578Y-99003658D01*
X138003658Y-98753578D01*
X138139000Y-98426833D01*
X138139000Y-98073167D01*
X138003658Y-97746422D01*
X137753578Y-97496342D01*
X137426833Y-97361000D01*
X137073167Y-97361000D01*
X136746422Y-97496342D01*
X136496342Y-97746422D01*
X136361000Y-98073167D01*
X130250000Y-98073167D01*
X130250000Y-97592379D01*
X130738582Y-97918839D01*
X131171744Y-98005000D01*
X131464256Y-98005000D01*
X131897418Y-97918839D01*
X132388625Y-97590625D01*
X132588000Y-97292239D01*
X132787375Y-97590625D01*
X133278582Y-97918839D01*
X133711744Y-98005000D01*
X134004256Y-98005000D01*
X134437418Y-97918839D01*
X134928625Y-97590625D01*
X135256839Y-97099418D01*
X135372092Y-96520000D01*
X135283212Y-96073167D01*
X136361000Y-96073167D01*
X136361000Y-96426833D01*
X136496342Y-96753578D01*
X136746422Y-97003658D01*
X137073167Y-97139000D01*
X137426833Y-97139000D01*
X137753578Y-97003658D01*
X138003658Y-96753578D01*
X138139000Y-96426833D01*
X138139000Y-96073167D01*
X138003658Y-95746422D01*
X137753578Y-95496342D01*
X137426833Y-95361000D01*
X137073167Y-95361000D01*
X136746422Y-95496342D01*
X136496342Y-95746422D01*
X136361000Y-96073167D01*
X135283212Y-96073167D01*
X135256839Y-95940582D01*
X134928625Y-95449375D01*
X134630239Y-95250000D01*
X134928625Y-95050625D01*
X135256839Y-94559418D01*
X135353559Y-94073167D01*
X136361000Y-94073167D01*
X136361000Y-94426833D01*
X136496342Y-94753578D01*
X136746422Y-95003658D01*
X137073167Y-95139000D01*
X137426833Y-95139000D01*
X137753578Y-95003658D01*
X138003658Y-94753578D01*
X138139000Y-94426833D01*
X138139000Y-94073167D01*
X138003658Y-93746422D01*
X137753578Y-93496342D01*
X137426833Y-93361000D01*
X137073167Y-93361000D01*
X136746422Y-93496342D01*
X136496342Y-93746422D01*
X136361000Y-94073167D01*
X135353559Y-94073167D01*
X135372092Y-93980000D01*
X135256839Y-93400582D01*
X134928625Y-92909375D01*
X134630239Y-92710000D01*
X134928625Y-92510625D01*
X135220925Y-92073167D01*
X136361000Y-92073167D01*
X136361000Y-92426833D01*
X136496342Y-92753578D01*
X136746422Y-93003658D01*
X137073167Y-93139000D01*
X137426833Y-93139000D01*
X137753578Y-93003658D01*
X138003658Y-92753578D01*
X138139000Y-92426833D01*
X138139000Y-92073167D01*
X138003658Y-91746422D01*
X137753578Y-91496342D01*
X137426833Y-91361000D01*
X137073167Y-91361000D01*
X136746422Y-91496342D01*
X136496342Y-91746422D01*
X136361000Y-92073167D01*
X135220925Y-92073167D01*
X135256839Y-92019418D01*
X135372092Y-91440000D01*
X135256839Y-90860582D01*
X134928625Y-90369375D01*
X134630239Y-90170000D01*
X134775159Y-90073167D01*
X136361000Y-90073167D01*
X136361000Y-90426833D01*
X136496342Y-90753578D01*
X136746422Y-91003658D01*
X137073167Y-91139000D01*
X137426833Y-91139000D01*
X137753578Y-91003658D01*
X138003658Y-90753578D01*
X138139000Y-90426833D01*
X138139000Y-90073167D01*
X138003658Y-89746422D01*
X137753578Y-89496342D01*
X137426833Y-89361000D01*
X137073167Y-89361000D01*
X136746422Y-89496342D01*
X136496342Y-89746422D01*
X136361000Y-90073167D01*
X134775159Y-90073167D01*
X134928625Y-89970625D01*
X135256839Y-89479418D01*
X135372092Y-88900000D01*
X135256839Y-88320582D01*
X135091522Y-88073167D01*
X136361000Y-88073167D01*
X136361000Y-88426833D01*
X136496342Y-88753578D01*
X136746422Y-89003658D01*
X137073167Y-89139000D01*
X137426833Y-89139000D01*
X137753578Y-89003658D01*
X138003658Y-88753578D01*
X138139000Y-88426833D01*
X138139000Y-88073167D01*
X138003658Y-87746422D01*
X137753578Y-87496342D01*
X137426833Y-87361000D01*
X137073167Y-87361000D01*
X136746422Y-87496342D01*
X136496342Y-87746422D01*
X136361000Y-88073167D01*
X135091522Y-88073167D01*
X134928625Y-87829375D01*
X134630239Y-87630000D01*
X134928625Y-87430625D01*
X135256839Y-86939418D01*
X135372092Y-86360000D01*
X135315038Y-86073167D01*
X136361000Y-86073167D01*
X136361000Y-86426833D01*
X136496342Y-86753578D01*
X136746422Y-87003658D01*
X137073167Y-87139000D01*
X137426833Y-87139000D01*
X137753578Y-87003658D01*
X138003658Y-86753578D01*
X138139000Y-86426833D01*
X138139000Y-86073167D01*
X138003658Y-85746422D01*
X137753578Y-85496342D01*
X137426833Y-85361000D01*
X137073167Y-85361000D01*
X136746422Y-85496342D01*
X136496342Y-85746422D01*
X136361000Y-86073167D01*
X135315038Y-86073167D01*
X135256839Y-85780582D01*
X134928625Y-85289375D01*
X134630239Y-85090000D01*
X134928625Y-84890625D01*
X135256839Y-84399418D01*
X135372092Y-83820000D01*
X135256839Y-83240582D01*
X134930379Y-82752000D01*
X150241000Y-82752000D01*
X150241000Y-97028000D01*
X150241000Y-97028000D01*
G37*
X150241000Y-97028000D02*
X145796000Y-97028000D01*
X145747399Y-97037667D01*
X145706197Y-97065197D01*
X145678667Y-97106399D01*
X145669000Y-97155000D01*
X145669000Y-112649000D01*
X143679431Y-112649000D01*
X143764000Y-112444833D01*
X143764000Y-112091167D01*
X143628658Y-111764422D01*
X143378578Y-111514342D01*
X143051833Y-111379000D01*
X142698167Y-111379000D01*
X142371422Y-111514342D01*
X142121342Y-111764422D01*
X141986000Y-112091167D01*
X141986000Y-112444833D01*
X142070569Y-112649000D01*
X136447833Y-112649000D01*
X136774578Y-112513658D01*
X137024658Y-112263578D01*
X137076260Y-112139000D01*
X137426833Y-112139000D01*
X137753578Y-112003658D01*
X138003658Y-111753578D01*
X138139000Y-111426833D01*
X138139000Y-111073167D01*
X138003658Y-110746422D01*
X137753578Y-110496342D01*
X137426833Y-110361000D01*
X137073167Y-110361000D01*
X136746422Y-110496342D01*
X136496342Y-110746422D01*
X136444740Y-110871000D01*
X136094167Y-110871000D01*
X135767422Y-111006342D01*
X135517342Y-111256422D01*
X135382000Y-111583167D01*
X135382000Y-111936833D01*
X135517342Y-112263578D01*
X135767422Y-112513658D01*
X136094167Y-112649000D01*
X135049983Y-112649000D01*
X135256839Y-112339418D01*
X135372092Y-111760000D01*
X135256839Y-111180582D01*
X134928625Y-110689375D01*
X134630239Y-110490000D01*
X134928625Y-110290625D01*
X135073925Y-110073167D01*
X140011000Y-110073167D01*
X140011000Y-110426833D01*
X140146342Y-110753578D01*
X140396422Y-111003658D01*
X140716000Y-111136031D01*
X140716000Y-111174833D01*
X140851342Y-111501578D01*
X141101422Y-111751658D01*
X141428167Y-111887000D01*
X141781833Y-111887000D01*
X142108578Y-111751658D01*
X142358658Y-111501578D01*
X142494000Y-111174833D01*
X142494000Y-110821167D01*
X142358658Y-110494422D01*
X142108578Y-110244342D01*
X141789000Y-110111969D01*
X141789000Y-110073167D01*
X141653658Y-109746422D01*
X141403578Y-109496342D01*
X141076833Y-109361000D01*
X140723167Y-109361000D01*
X140396422Y-109496342D01*
X140146342Y-109746422D01*
X140011000Y-110073167D01*
X135073925Y-110073167D01*
X135256839Y-109799418D01*
X135372092Y-109220000D01*
X135256839Y-108640582D01*
X134928625Y-108149375D01*
X134814572Y-108073167D01*
X136361000Y-108073167D01*
X136361000Y-108426833D01*
X136496342Y-108753578D01*
X136746422Y-109003658D01*
X137073167Y-109139000D01*
X137426833Y-109139000D01*
X137753578Y-109003658D01*
X138003658Y-108753578D01*
X138139000Y-108426833D01*
X138139000Y-108073167D01*
X138003658Y-107746422D01*
X137753578Y-107496342D01*
X137426833Y-107361000D01*
X137073167Y-107361000D01*
X136746422Y-107496342D01*
X136496342Y-107746422D01*
X136361000Y-108073167D01*
X134814572Y-108073167D01*
X134630239Y-107950000D01*
X134928625Y-107750625D01*
X135256839Y-107259418D01*
X135372092Y-106680000D01*
X135256839Y-106100582D01*
X135238521Y-106073167D01*
X136361000Y-106073167D01*
X136361000Y-106426833D01*
X136496342Y-106753578D01*
X136746422Y-107003658D01*
X137073167Y-107139000D01*
X137426833Y-107139000D01*
X137753578Y-107003658D01*
X138003658Y-106753578D01*
X138139000Y-106426833D01*
X138139000Y-106073167D01*
X138003658Y-105746422D01*
X137753578Y-105496342D01*
X137426833Y-105361000D01*
X137073167Y-105361000D01*
X136746422Y-105496342D01*
X136496342Y-105746422D01*
X136361000Y-106073167D01*
X135238521Y-106073167D01*
X134928625Y-105609375D01*
X134437418Y-105281161D01*
X134004256Y-105195000D01*
X133711744Y-105195000D01*
X133278582Y-105281161D01*
X132787375Y-105609375D01*
X132775184Y-105627619D01*
X132766157Y-105582235D01*
X132625809Y-105372191D01*
X132415765Y-105231843D01*
X132168000Y-105182560D01*
X130468000Y-105182560D01*
X130250000Y-105225922D01*
X130250000Y-104073167D01*
X136361000Y-104073167D01*
X136361000Y-104426833D01*
X136496342Y-104753578D01*
X136746422Y-105003658D01*
X137073167Y-105139000D01*
X137426833Y-105139000D01*
X137753578Y-105003658D01*
X138003658Y-104753578D01*
X138139000Y-104426833D01*
X138139000Y-104073167D01*
X138003658Y-103746422D01*
X137753578Y-103496342D01*
X137426833Y-103361000D01*
X137073167Y-103361000D01*
X136746422Y-103496342D01*
X136496342Y-103746422D01*
X136361000Y-104073167D01*
X130250000Y-104073167D01*
X130250000Y-102073167D01*
X136361000Y-102073167D01*
X136361000Y-102426833D01*
X136496342Y-102753578D01*
X136746422Y-103003658D01*
X137073167Y-103139000D01*
X137426833Y-103139000D01*
X137753578Y-103003658D01*
X138003658Y-102753578D01*
X138139000Y-102426833D01*
X138139000Y-102073167D01*
X138003658Y-101746422D01*
X137753578Y-101496342D01*
X137426833Y-101361000D01*
X137073167Y-101361000D01*
X136746422Y-101496342D01*
X136496342Y-101746422D01*
X136361000Y-102073167D01*
X130250000Y-102073167D01*
X130250000Y-100073167D01*
X136361000Y-100073167D01*
X136361000Y-100426833D01*
X136496342Y-100753578D01*
X136746422Y-101003658D01*
X137073167Y-101139000D01*
X137426833Y-101139000D01*
X137753578Y-101003658D01*
X138003658Y-100753578D01*
X138139000Y-100426833D01*
X138139000Y-100073167D01*
X138003658Y-99746422D01*
X137753578Y-99496342D01*
X137426833Y-99361000D01*
X137073167Y-99361000D01*
X136746422Y-99496342D01*
X136496342Y-99746422D01*
X136361000Y-100073167D01*
X130250000Y-100073167D01*
X130250000Y-98073167D01*
X136361000Y-98073167D01*
X136361000Y-98426833D01*
X136496342Y-98753578D01*
X136746422Y-99003658D01*
X137073167Y-99139000D01*
X137426833Y-99139000D01*
X137753578Y-99003658D01*
X138003658Y-98753578D01*
X138139000Y-98426833D01*
X138139000Y-98073167D01*
X138003658Y-97746422D01*
X137753578Y-97496342D01*
X137426833Y-97361000D01*
X137073167Y-97361000D01*
X136746422Y-97496342D01*
X136496342Y-97746422D01*
X136361000Y-98073167D01*
X130250000Y-98073167D01*
X130250000Y-97592379D01*
X130738582Y-97918839D01*
X131171744Y-98005000D01*
X131464256Y-98005000D01*
X131897418Y-97918839D01*
X132388625Y-97590625D01*
X132588000Y-97292239D01*
X132787375Y-97590625D01*
X133278582Y-97918839D01*
X133711744Y-98005000D01*
X134004256Y-98005000D01*
X134437418Y-97918839D01*
X134928625Y-97590625D01*
X135256839Y-97099418D01*
X135372092Y-96520000D01*
X135283212Y-96073167D01*
X136361000Y-96073167D01*
X136361000Y-96426833D01*
X136496342Y-96753578D01*
X136746422Y-97003658D01*
X137073167Y-97139000D01*
X137426833Y-97139000D01*
X137753578Y-97003658D01*
X138003658Y-96753578D01*
X138139000Y-96426833D01*
X138139000Y-96073167D01*
X138003658Y-95746422D01*
X137753578Y-95496342D01*
X137426833Y-95361000D01*
X137073167Y-95361000D01*
X136746422Y-95496342D01*
X136496342Y-95746422D01*
X136361000Y-96073167D01*
X135283212Y-96073167D01*
X135256839Y-95940582D01*
X134928625Y-95449375D01*
X134630239Y-95250000D01*
X134928625Y-95050625D01*
X135256839Y-94559418D01*
X135353559Y-94073167D01*
X136361000Y-94073167D01*
X136361000Y-94426833D01*
X136496342Y-94753578D01*
X136746422Y-95003658D01*
X137073167Y-95139000D01*
X137426833Y-95139000D01*
X137753578Y-95003658D01*
X138003658Y-94753578D01*
X138139000Y-94426833D01*
X138139000Y-94073167D01*
X138003658Y-93746422D01*
X137753578Y-93496342D01*
X137426833Y-93361000D01*
X137073167Y-93361000D01*
X136746422Y-93496342D01*
X136496342Y-93746422D01*
X136361000Y-94073167D01*
X135353559Y-94073167D01*
X135372092Y-93980000D01*
X135256839Y-93400582D01*
X134928625Y-92909375D01*
X134630239Y-92710000D01*
X134928625Y-92510625D01*
X135220925Y-92073167D01*
X136361000Y-92073167D01*
X136361000Y-92426833D01*
X136496342Y-92753578D01*
X136746422Y-93003658D01*
X137073167Y-93139000D01*
X137426833Y-93139000D01*
X137753578Y-93003658D01*
X138003658Y-92753578D01*
X138139000Y-92426833D01*
X138139000Y-92073167D01*
X138003658Y-91746422D01*
X137753578Y-91496342D01*
X137426833Y-91361000D01*
X137073167Y-91361000D01*
X136746422Y-91496342D01*
X136496342Y-91746422D01*
X136361000Y-92073167D01*
X135220925Y-92073167D01*
X135256839Y-92019418D01*
X135372092Y-91440000D01*
X135256839Y-90860582D01*
X134928625Y-90369375D01*
X134630239Y-90170000D01*
X134775159Y-90073167D01*
X136361000Y-90073167D01*
X136361000Y-90426833D01*
X136496342Y-90753578D01*
X136746422Y-91003658D01*
X137073167Y-91139000D01*
X137426833Y-91139000D01*
X137753578Y-91003658D01*
X138003658Y-90753578D01*
X138139000Y-90426833D01*
X138139000Y-90073167D01*
X138003658Y-89746422D01*
X137753578Y-89496342D01*
X137426833Y-89361000D01*
X137073167Y-89361000D01*
X136746422Y-89496342D01*
X136496342Y-89746422D01*
X136361000Y-90073167D01*
X134775159Y-90073167D01*
X134928625Y-89970625D01*
X135256839Y-89479418D01*
X135372092Y-88900000D01*
X135256839Y-88320582D01*
X135091522Y-88073167D01*
X136361000Y-88073167D01*
X136361000Y-88426833D01*
X136496342Y-88753578D01*
X136746422Y-89003658D01*
X137073167Y-89139000D01*
X137426833Y-89139000D01*
X137753578Y-89003658D01*
X138003658Y-88753578D01*
X138139000Y-88426833D01*
X138139000Y-88073167D01*
X138003658Y-87746422D01*
X137753578Y-87496342D01*
X137426833Y-87361000D01*
X137073167Y-87361000D01*
X136746422Y-87496342D01*
X136496342Y-87746422D01*
X136361000Y-88073167D01*
X135091522Y-88073167D01*
X134928625Y-87829375D01*
X134630239Y-87630000D01*
X134928625Y-87430625D01*
X135256839Y-86939418D01*
X135372092Y-86360000D01*
X135315038Y-86073167D01*
X136361000Y-86073167D01*
X136361000Y-86426833D01*
X136496342Y-86753578D01*
X136746422Y-87003658D01*
X137073167Y-87139000D01*
X137426833Y-87139000D01*
X137753578Y-87003658D01*
X138003658Y-86753578D01*
X138139000Y-86426833D01*
X138139000Y-86073167D01*
X138003658Y-85746422D01*
X137753578Y-85496342D01*
X137426833Y-85361000D01*
X137073167Y-85361000D01*
X136746422Y-85496342D01*
X136496342Y-85746422D01*
X136361000Y-86073167D01*
X135315038Y-86073167D01*
X135256839Y-85780582D01*
X134928625Y-85289375D01*
X134630239Y-85090000D01*
X134928625Y-84890625D01*
X135256839Y-84399418D01*
X135372092Y-83820000D01*
X135256839Y-83240582D01*
X134930379Y-82752000D01*
X150241000Y-82752000D01*
X150241000Y-97028000D01*
G04 #@! TD*
M02*
