G04 #@! TF.GenerationSoftware,KiCad,Pcbnew,(5.0.1-3-g963ef8bb5)*
G04 #@! TF.CreationDate,2018-11-23T10:32:15+01:00*
G04 #@! TF.ProjectId,DAC_ISL5857,4441435F49534C353835372E6B696361,A*
G04 #@! TF.SameCoordinates,Original*
G04 #@! TF.FileFunction,Soldermask,Top*
G04 #@! TF.FilePolarity,Negative*
%FSLAX46Y46*%
G04 Gerber Fmt 4.6, Leading zero omitted, Abs format (unit mm)*
G04 Created by KiCad (PCBNEW (5.0.1-3-g963ef8bb5)) date Friday, 23 November 2018 at 10:32:15*
%MOMM*%
%LPD*%
G01*
G04 APERTURE LIST*
%ADD10C,0.100000*%
G04 APERTURE END LIST*
D10*
G36*
X142455362Y-118483545D02*
X142543588Y-118492234D01*
X142656789Y-118526573D01*
X142713390Y-118543743D01*
X142851980Y-118617822D01*
X142869879Y-118627389D01*
X142905609Y-118656712D01*
X143007044Y-118739956D01*
X143090288Y-118841391D01*
X143119611Y-118877121D01*
X143119612Y-118877123D01*
X143203257Y-119033610D01*
X143203257Y-119033611D01*
X143254766Y-119203412D01*
X143272158Y-119380000D01*
X143254766Y-119556588D01*
X143220427Y-119669789D01*
X143203257Y-119726390D01*
X143129178Y-119864980D01*
X143119611Y-119882879D01*
X143090288Y-119918609D01*
X143007044Y-120020044D01*
X142905609Y-120103288D01*
X142869879Y-120132611D01*
X142869877Y-120132612D01*
X142713390Y-120216257D01*
X142656789Y-120233427D01*
X142543588Y-120267766D01*
X142455362Y-120276455D01*
X142411250Y-120280800D01*
X142322750Y-120280800D01*
X142278638Y-120276455D01*
X142190412Y-120267766D01*
X142077211Y-120233427D01*
X142020610Y-120216257D01*
X141864123Y-120132612D01*
X141864121Y-120132611D01*
X141828391Y-120103288D01*
X141726956Y-120020044D01*
X141643712Y-119918609D01*
X141614389Y-119882879D01*
X141604822Y-119864980D01*
X141530743Y-119726390D01*
X141513573Y-119669789D01*
X141479234Y-119556588D01*
X141461842Y-119380000D01*
X141479234Y-119203412D01*
X141530743Y-119033611D01*
X141530743Y-119033610D01*
X141614388Y-118877123D01*
X141614389Y-118877121D01*
X141643712Y-118841391D01*
X141726956Y-118739956D01*
X141828391Y-118656712D01*
X141864121Y-118627389D01*
X141882020Y-118617822D01*
X142020610Y-118543743D01*
X142077211Y-118526573D01*
X142190412Y-118492234D01*
X142278638Y-118483545D01*
X142322750Y-118479200D01*
X142411250Y-118479200D01*
X142455362Y-118483545D01*
X142455362Y-118483545D01*
G37*
G36*
X139915362Y-118483545D02*
X140003588Y-118492234D01*
X140116789Y-118526573D01*
X140173390Y-118543743D01*
X140311980Y-118617822D01*
X140329879Y-118627389D01*
X140365609Y-118656712D01*
X140467044Y-118739956D01*
X140550288Y-118841391D01*
X140579611Y-118877121D01*
X140579612Y-118877123D01*
X140663257Y-119033610D01*
X140663257Y-119033611D01*
X140714766Y-119203412D01*
X140732158Y-119380000D01*
X140714766Y-119556588D01*
X140680427Y-119669789D01*
X140663257Y-119726390D01*
X140589178Y-119864980D01*
X140579611Y-119882879D01*
X140550288Y-119918609D01*
X140467044Y-120020044D01*
X140365609Y-120103288D01*
X140329879Y-120132611D01*
X140329877Y-120132612D01*
X140173390Y-120216257D01*
X140116789Y-120233427D01*
X140003588Y-120267766D01*
X139915362Y-120276455D01*
X139871250Y-120280800D01*
X139782750Y-120280800D01*
X139738638Y-120276455D01*
X139650412Y-120267766D01*
X139537211Y-120233427D01*
X139480610Y-120216257D01*
X139324123Y-120132612D01*
X139324121Y-120132611D01*
X139288391Y-120103288D01*
X139186956Y-120020044D01*
X139103712Y-119918609D01*
X139074389Y-119882879D01*
X139064822Y-119864980D01*
X138990743Y-119726390D01*
X138973573Y-119669789D01*
X138939234Y-119556588D01*
X138921842Y-119380000D01*
X138939234Y-119203412D01*
X138990743Y-119033611D01*
X138990743Y-119033610D01*
X139074388Y-118877123D01*
X139074389Y-118877121D01*
X139103712Y-118841391D01*
X139186956Y-118739956D01*
X139288391Y-118656712D01*
X139324121Y-118627389D01*
X139342020Y-118617822D01*
X139480610Y-118543743D01*
X139537211Y-118526573D01*
X139650412Y-118492234D01*
X139738638Y-118483545D01*
X139782750Y-118479200D01*
X139871250Y-118479200D01*
X139915362Y-118483545D01*
X139915362Y-118483545D01*
G37*
G36*
X138187800Y-120280800D02*
X136386200Y-120280800D01*
X136386200Y-118479200D01*
X138187800Y-118479200D01*
X138187800Y-120280800D01*
X138187800Y-120280800D01*
G37*
G36*
X133946362Y-118483545D02*
X134034588Y-118492234D01*
X134147789Y-118526573D01*
X134204390Y-118543743D01*
X134342980Y-118617822D01*
X134360879Y-118627389D01*
X134396609Y-118656712D01*
X134498044Y-118739956D01*
X134581288Y-118841391D01*
X134610611Y-118877121D01*
X134610612Y-118877123D01*
X134694257Y-119033610D01*
X134694257Y-119033611D01*
X134745766Y-119203412D01*
X134763158Y-119380000D01*
X134745766Y-119556588D01*
X134711427Y-119669789D01*
X134694257Y-119726390D01*
X134620178Y-119864980D01*
X134610611Y-119882879D01*
X134581288Y-119918609D01*
X134498044Y-120020044D01*
X134396609Y-120103288D01*
X134360879Y-120132611D01*
X134360877Y-120132612D01*
X134204390Y-120216257D01*
X134147789Y-120233427D01*
X134034588Y-120267766D01*
X133946362Y-120276455D01*
X133902250Y-120280800D01*
X133813750Y-120280800D01*
X133769638Y-120276455D01*
X133681412Y-120267766D01*
X133568211Y-120233427D01*
X133511610Y-120216257D01*
X133355123Y-120132612D01*
X133355121Y-120132611D01*
X133319391Y-120103288D01*
X133217956Y-120020044D01*
X133134712Y-119918609D01*
X133105389Y-119882879D01*
X133095822Y-119864980D01*
X133021743Y-119726390D01*
X133004573Y-119669789D01*
X132970234Y-119556588D01*
X132952842Y-119380000D01*
X132970234Y-119203412D01*
X133021743Y-119033611D01*
X133021743Y-119033610D01*
X133105388Y-118877123D01*
X133105389Y-118877121D01*
X133134712Y-118841391D01*
X133217956Y-118739956D01*
X133319391Y-118656712D01*
X133355121Y-118627389D01*
X133373020Y-118617822D01*
X133511610Y-118543743D01*
X133568211Y-118526573D01*
X133681412Y-118492234D01*
X133769638Y-118483545D01*
X133813750Y-118479200D01*
X133902250Y-118479200D01*
X133946362Y-118483545D01*
X133946362Y-118483545D01*
G37*
G36*
X131406362Y-118483545D02*
X131494588Y-118492234D01*
X131607789Y-118526573D01*
X131664390Y-118543743D01*
X131802980Y-118617822D01*
X131820879Y-118627389D01*
X131856609Y-118656712D01*
X131958044Y-118739956D01*
X132041288Y-118841391D01*
X132070611Y-118877121D01*
X132070612Y-118877123D01*
X132154257Y-119033610D01*
X132154257Y-119033611D01*
X132205766Y-119203412D01*
X132223158Y-119380000D01*
X132205766Y-119556588D01*
X132171427Y-119669789D01*
X132154257Y-119726390D01*
X132080178Y-119864980D01*
X132070611Y-119882879D01*
X132041288Y-119918609D01*
X131958044Y-120020044D01*
X131856609Y-120103288D01*
X131820879Y-120132611D01*
X131820877Y-120132612D01*
X131664390Y-120216257D01*
X131607789Y-120233427D01*
X131494588Y-120267766D01*
X131406362Y-120276455D01*
X131362250Y-120280800D01*
X131273750Y-120280800D01*
X131229638Y-120276455D01*
X131141412Y-120267766D01*
X131028211Y-120233427D01*
X130971610Y-120216257D01*
X130815123Y-120132612D01*
X130815121Y-120132611D01*
X130779391Y-120103288D01*
X130677956Y-120020044D01*
X130594712Y-119918609D01*
X130565389Y-119882879D01*
X130555822Y-119864980D01*
X130481743Y-119726390D01*
X130464573Y-119669789D01*
X130430234Y-119556588D01*
X130412842Y-119380000D01*
X130430234Y-119203412D01*
X130481743Y-119033611D01*
X130481743Y-119033610D01*
X130565388Y-118877123D01*
X130565389Y-118877121D01*
X130594712Y-118841391D01*
X130677956Y-118739956D01*
X130779391Y-118656712D01*
X130815121Y-118627389D01*
X130833020Y-118617822D01*
X130971610Y-118543743D01*
X131028211Y-118526573D01*
X131141412Y-118492234D01*
X131229638Y-118483545D01*
X131273750Y-118479200D01*
X131362250Y-118479200D01*
X131406362Y-118483545D01*
X131406362Y-118483545D01*
G37*
G36*
X131406362Y-115943545D02*
X131494588Y-115952234D01*
X131607789Y-115986573D01*
X131664390Y-116003743D01*
X131802980Y-116077822D01*
X131820879Y-116087389D01*
X131856609Y-116116712D01*
X131958044Y-116199956D01*
X132041288Y-116301391D01*
X132070611Y-116337121D01*
X132070612Y-116337123D01*
X132154257Y-116493610D01*
X132154257Y-116493611D01*
X132205766Y-116663412D01*
X132223158Y-116840000D01*
X132205766Y-117016588D01*
X132171427Y-117129789D01*
X132154257Y-117186390D01*
X132080178Y-117324980D01*
X132070611Y-117342879D01*
X132041288Y-117378609D01*
X131958044Y-117480044D01*
X131856609Y-117563288D01*
X131820879Y-117592611D01*
X131820877Y-117592612D01*
X131664390Y-117676257D01*
X131607789Y-117693427D01*
X131494588Y-117727766D01*
X131406362Y-117736455D01*
X131362250Y-117740800D01*
X131273750Y-117740800D01*
X131229638Y-117736455D01*
X131141412Y-117727766D01*
X131028211Y-117693427D01*
X130971610Y-117676257D01*
X130815123Y-117592612D01*
X130815121Y-117592611D01*
X130779391Y-117563288D01*
X130677956Y-117480044D01*
X130594712Y-117378609D01*
X130565389Y-117342879D01*
X130555822Y-117324980D01*
X130481743Y-117186390D01*
X130464573Y-117129789D01*
X130430234Y-117016588D01*
X130412842Y-116840000D01*
X130430234Y-116663412D01*
X130481743Y-116493611D01*
X130481743Y-116493610D01*
X130565388Y-116337123D01*
X130565389Y-116337121D01*
X130594712Y-116301391D01*
X130677956Y-116199956D01*
X130779391Y-116116712D01*
X130815121Y-116087389D01*
X130833020Y-116077822D01*
X130971610Y-116003743D01*
X131028211Y-115986573D01*
X131141412Y-115952234D01*
X131229638Y-115943545D01*
X131273750Y-115939200D01*
X131362250Y-115939200D01*
X131406362Y-115943545D01*
X131406362Y-115943545D01*
G37*
G36*
X133946362Y-115943545D02*
X134034588Y-115952234D01*
X134147789Y-115986573D01*
X134204390Y-116003743D01*
X134342980Y-116077822D01*
X134360879Y-116087389D01*
X134396609Y-116116712D01*
X134498044Y-116199956D01*
X134581288Y-116301391D01*
X134610611Y-116337121D01*
X134610612Y-116337123D01*
X134694257Y-116493610D01*
X134694257Y-116493611D01*
X134745766Y-116663412D01*
X134763158Y-116840000D01*
X134745766Y-117016588D01*
X134711427Y-117129789D01*
X134694257Y-117186390D01*
X134620178Y-117324980D01*
X134610611Y-117342879D01*
X134581288Y-117378609D01*
X134498044Y-117480044D01*
X134396609Y-117563288D01*
X134360879Y-117592611D01*
X134360877Y-117592612D01*
X134204390Y-117676257D01*
X134147789Y-117693427D01*
X134034588Y-117727766D01*
X133946362Y-117736455D01*
X133902250Y-117740800D01*
X133813750Y-117740800D01*
X133769638Y-117736455D01*
X133681412Y-117727766D01*
X133568211Y-117693427D01*
X133511610Y-117676257D01*
X133355123Y-117592612D01*
X133355121Y-117592611D01*
X133319391Y-117563288D01*
X133217956Y-117480044D01*
X133134712Y-117378609D01*
X133105389Y-117342879D01*
X133095822Y-117324980D01*
X133021743Y-117186390D01*
X133004573Y-117129789D01*
X132970234Y-117016588D01*
X132952842Y-116840000D01*
X132970234Y-116663412D01*
X133021743Y-116493611D01*
X133021743Y-116493610D01*
X133105388Y-116337123D01*
X133105389Y-116337121D01*
X133134712Y-116301391D01*
X133217956Y-116199956D01*
X133319391Y-116116712D01*
X133355121Y-116087389D01*
X133373020Y-116077822D01*
X133511610Y-116003743D01*
X133568211Y-115986573D01*
X133681412Y-115952234D01*
X133769638Y-115943545D01*
X133813750Y-115939200D01*
X133902250Y-115939200D01*
X133946362Y-115943545D01*
X133946362Y-115943545D01*
G37*
G36*
X142150800Y-116600800D02*
X140049200Y-116600800D01*
X140049200Y-114999200D01*
X142150800Y-114999200D01*
X142150800Y-116600800D01*
X142150800Y-116600800D01*
G37*
G36*
X139238543Y-115053663D02*
X139276222Y-115065093D01*
X139310939Y-115083650D01*
X139341374Y-115108626D01*
X139366350Y-115139061D01*
X139384907Y-115173778D01*
X139396337Y-115211457D01*
X139400800Y-115256773D01*
X139400800Y-116343227D01*
X139396337Y-116388543D01*
X139384907Y-116426222D01*
X139366350Y-116460939D01*
X139341374Y-116491374D01*
X139310939Y-116516350D01*
X139276222Y-116534907D01*
X139238543Y-116546337D01*
X139193227Y-116550800D01*
X138356773Y-116550800D01*
X138311457Y-116546337D01*
X138273778Y-116534907D01*
X138239061Y-116516350D01*
X138208626Y-116491374D01*
X138183650Y-116460939D01*
X138165093Y-116426222D01*
X138153663Y-116388543D01*
X138149200Y-116343227D01*
X138149200Y-115256773D01*
X138153663Y-115211457D01*
X138165093Y-115173778D01*
X138183650Y-115139061D01*
X138208626Y-115108626D01*
X138239061Y-115083650D01*
X138273778Y-115065093D01*
X138311457Y-115053663D01*
X138356773Y-115049200D01*
X139193227Y-115049200D01*
X139238543Y-115053663D01*
X139238543Y-115053663D01*
G37*
G36*
X137188543Y-115053663D02*
X137226222Y-115065093D01*
X137260939Y-115083650D01*
X137291374Y-115108626D01*
X137316350Y-115139061D01*
X137334907Y-115173778D01*
X137346337Y-115211457D01*
X137350800Y-115256773D01*
X137350800Y-116343227D01*
X137346337Y-116388543D01*
X137334907Y-116426222D01*
X137316350Y-116460939D01*
X137291374Y-116491374D01*
X137260939Y-116516350D01*
X137226222Y-116534907D01*
X137188543Y-116546337D01*
X137143227Y-116550800D01*
X136306773Y-116550800D01*
X136261457Y-116546337D01*
X136223778Y-116534907D01*
X136189061Y-116516350D01*
X136158626Y-116491374D01*
X136133650Y-116460939D01*
X136115093Y-116426222D01*
X136103663Y-116388543D01*
X136099200Y-116343227D01*
X136099200Y-115256773D01*
X136103663Y-115211457D01*
X136115093Y-115173778D01*
X136133650Y-115139061D01*
X136158626Y-115108626D01*
X136189061Y-115083650D01*
X136223778Y-115065093D01*
X136261457Y-115053663D01*
X136306773Y-115049200D01*
X137143227Y-115049200D01*
X137188543Y-115053663D01*
X137188543Y-115053663D01*
G37*
G36*
X157814377Y-114678643D02*
X157851855Y-114690013D01*
X157886404Y-114708479D01*
X157916677Y-114733323D01*
X157941521Y-114763596D01*
X157959987Y-114798145D01*
X157971357Y-114835623D01*
X157975800Y-114880738D01*
X157975800Y-115619262D01*
X157971357Y-115664377D01*
X157959987Y-115701855D01*
X157941521Y-115736404D01*
X157916677Y-115766677D01*
X157886404Y-115791521D01*
X157851855Y-115809987D01*
X157814377Y-115821357D01*
X157769262Y-115825800D01*
X157130738Y-115825800D01*
X157085623Y-115821357D01*
X157048145Y-115809987D01*
X157013596Y-115791521D01*
X156983323Y-115766677D01*
X156958479Y-115736404D01*
X156940013Y-115701855D01*
X156928643Y-115664377D01*
X156924200Y-115619262D01*
X156924200Y-114880738D01*
X156928643Y-114835623D01*
X156940013Y-114798145D01*
X156958479Y-114763596D01*
X156983323Y-114733323D01*
X157013596Y-114708479D01*
X157048145Y-114690013D01*
X157085623Y-114678643D01*
X157130738Y-114674200D01*
X157769262Y-114674200D01*
X157814377Y-114678643D01*
X157814377Y-114678643D01*
G37*
G36*
X156414377Y-114678643D02*
X156451855Y-114690013D01*
X156486404Y-114708479D01*
X156516677Y-114733323D01*
X156541521Y-114763596D01*
X156559987Y-114798145D01*
X156571357Y-114835623D01*
X156575800Y-114880738D01*
X156575800Y-115619262D01*
X156571357Y-115664377D01*
X156559987Y-115701855D01*
X156541521Y-115736404D01*
X156516677Y-115766677D01*
X156486404Y-115791521D01*
X156451855Y-115809987D01*
X156414377Y-115821357D01*
X156369262Y-115825800D01*
X155730738Y-115825800D01*
X155685623Y-115821357D01*
X155648145Y-115809987D01*
X155613596Y-115791521D01*
X155583323Y-115766677D01*
X155558479Y-115736404D01*
X155540013Y-115701855D01*
X155528643Y-115664377D01*
X155524200Y-115619262D01*
X155524200Y-114880738D01*
X155528643Y-114835623D01*
X155540013Y-114798145D01*
X155558479Y-114763596D01*
X155583323Y-114733323D01*
X155613596Y-114708479D01*
X155648145Y-114690013D01*
X155685623Y-114678643D01*
X155730738Y-114674200D01*
X156369262Y-114674200D01*
X156414377Y-114678643D01*
X156414377Y-114678643D01*
G37*
G36*
X151014377Y-114678643D02*
X151051855Y-114690013D01*
X151086404Y-114708479D01*
X151116677Y-114733323D01*
X151141521Y-114763596D01*
X151159987Y-114798145D01*
X151171357Y-114835623D01*
X151175800Y-114880738D01*
X151175800Y-115619262D01*
X151171357Y-115664377D01*
X151159987Y-115701855D01*
X151141521Y-115736404D01*
X151116677Y-115766677D01*
X151086404Y-115791521D01*
X151051855Y-115809987D01*
X151014377Y-115821357D01*
X150969262Y-115825800D01*
X150330738Y-115825800D01*
X150285623Y-115821357D01*
X150248145Y-115809987D01*
X150213596Y-115791521D01*
X150183323Y-115766677D01*
X150158479Y-115736404D01*
X150140013Y-115701855D01*
X150128643Y-115664377D01*
X150124200Y-115619262D01*
X150124200Y-114880738D01*
X150128643Y-114835623D01*
X150140013Y-114798145D01*
X150158479Y-114763596D01*
X150183323Y-114733323D01*
X150213596Y-114708479D01*
X150248145Y-114690013D01*
X150285623Y-114678643D01*
X150330738Y-114674200D01*
X150969262Y-114674200D01*
X151014377Y-114678643D01*
X151014377Y-114678643D01*
G37*
G36*
X148450800Y-115450800D02*
X146349200Y-115450800D01*
X146349200Y-111549200D01*
X148450800Y-111549200D01*
X148450800Y-115450800D01*
X148450800Y-115450800D01*
G37*
G36*
X131406362Y-113403545D02*
X131494588Y-113412234D01*
X131607789Y-113446573D01*
X131664390Y-113463743D01*
X131802980Y-113537822D01*
X131820879Y-113547389D01*
X131856609Y-113576712D01*
X131958044Y-113659956D01*
X132041288Y-113761391D01*
X132070611Y-113797121D01*
X132070612Y-113797123D01*
X132154257Y-113953610D01*
X132170085Y-114005788D01*
X132205766Y-114123412D01*
X132223158Y-114300000D01*
X132205766Y-114476588D01*
X132171427Y-114589789D01*
X132154257Y-114646390D01*
X132128695Y-114694212D01*
X132070611Y-114802879D01*
X132043739Y-114835623D01*
X131958044Y-114940044D01*
X131856609Y-115023288D01*
X131820879Y-115052611D01*
X131820877Y-115052612D01*
X131664390Y-115136257D01*
X131655146Y-115139061D01*
X131494588Y-115187766D01*
X131406362Y-115196455D01*
X131362250Y-115200800D01*
X131273750Y-115200800D01*
X131229638Y-115196455D01*
X131141412Y-115187766D01*
X130980854Y-115139061D01*
X130971610Y-115136257D01*
X130815123Y-115052612D01*
X130815121Y-115052611D01*
X130779391Y-115023288D01*
X130677956Y-114940044D01*
X130592261Y-114835623D01*
X130565389Y-114802879D01*
X130507305Y-114694212D01*
X130481743Y-114646390D01*
X130464573Y-114589789D01*
X130430234Y-114476588D01*
X130412842Y-114300000D01*
X130430234Y-114123412D01*
X130465915Y-114005788D01*
X130481743Y-113953610D01*
X130565388Y-113797123D01*
X130565389Y-113797121D01*
X130594712Y-113761391D01*
X130677956Y-113659956D01*
X130779391Y-113576712D01*
X130815121Y-113547389D01*
X130833020Y-113537822D01*
X130971610Y-113463743D01*
X131028211Y-113446573D01*
X131141412Y-113412234D01*
X131229638Y-113403545D01*
X131273750Y-113399200D01*
X131362250Y-113399200D01*
X131406362Y-113403545D01*
X131406362Y-113403545D01*
G37*
G36*
X133946362Y-113403545D02*
X134034588Y-113412234D01*
X134147789Y-113446573D01*
X134204390Y-113463743D01*
X134342980Y-113537822D01*
X134360879Y-113547389D01*
X134396609Y-113576712D01*
X134498044Y-113659956D01*
X134581288Y-113761391D01*
X134610611Y-113797121D01*
X134610612Y-113797123D01*
X134694257Y-113953610D01*
X134710085Y-114005788D01*
X134745766Y-114123412D01*
X134763158Y-114300000D01*
X134745766Y-114476588D01*
X134711427Y-114589789D01*
X134694257Y-114646390D01*
X134668695Y-114694212D01*
X134610611Y-114802879D01*
X134583739Y-114835623D01*
X134498044Y-114940044D01*
X134396609Y-115023288D01*
X134360879Y-115052611D01*
X134360877Y-115052612D01*
X134204390Y-115136257D01*
X134195146Y-115139061D01*
X134034588Y-115187766D01*
X133946362Y-115196455D01*
X133902250Y-115200800D01*
X133813750Y-115200800D01*
X133769638Y-115196455D01*
X133681412Y-115187766D01*
X133520854Y-115139061D01*
X133511610Y-115136257D01*
X133355123Y-115052612D01*
X133355121Y-115052611D01*
X133319391Y-115023288D01*
X133217956Y-114940044D01*
X133132261Y-114835623D01*
X133105389Y-114802879D01*
X133047305Y-114694212D01*
X133021743Y-114646390D01*
X133004573Y-114589789D01*
X132970234Y-114476588D01*
X132952842Y-114300000D01*
X132970234Y-114123412D01*
X133005915Y-114005788D01*
X133021743Y-113953610D01*
X133105388Y-113797123D01*
X133105389Y-113797121D01*
X133134712Y-113761391D01*
X133217956Y-113659956D01*
X133319391Y-113576712D01*
X133355121Y-113547389D01*
X133373020Y-113537822D01*
X133511610Y-113463743D01*
X133568211Y-113446573D01*
X133681412Y-113412234D01*
X133769638Y-113403545D01*
X133813750Y-113399200D01*
X133902250Y-113399200D01*
X133946362Y-113403545D01*
X133946362Y-113403545D01*
G37*
G36*
X142150800Y-114300800D02*
X140049200Y-114300800D01*
X140049200Y-112699200D01*
X142150800Y-112699200D01*
X142150800Y-114300800D01*
X142150800Y-114300800D01*
G37*
G36*
X139238543Y-112753663D02*
X139276222Y-112765093D01*
X139310939Y-112783650D01*
X139341374Y-112808626D01*
X139366350Y-112839061D01*
X139384907Y-112873778D01*
X139396337Y-112911457D01*
X139400800Y-112956773D01*
X139400800Y-114043227D01*
X139396337Y-114088543D01*
X139384907Y-114126222D01*
X139366350Y-114160939D01*
X139341374Y-114191374D01*
X139310939Y-114216350D01*
X139276222Y-114234907D01*
X139238543Y-114246337D01*
X139193227Y-114250800D01*
X138356773Y-114250800D01*
X138311457Y-114246337D01*
X138273778Y-114234907D01*
X138239061Y-114216350D01*
X138208626Y-114191374D01*
X138183650Y-114160939D01*
X138165093Y-114126222D01*
X138153663Y-114088543D01*
X138149200Y-114043227D01*
X138149200Y-112956773D01*
X138153663Y-112911457D01*
X138165093Y-112873778D01*
X138183650Y-112839061D01*
X138208626Y-112808626D01*
X138239061Y-112783650D01*
X138273778Y-112765093D01*
X138311457Y-112753663D01*
X138356773Y-112749200D01*
X139193227Y-112749200D01*
X139238543Y-112753663D01*
X139238543Y-112753663D01*
G37*
G36*
X137188543Y-112753663D02*
X137226222Y-112765093D01*
X137260939Y-112783650D01*
X137291374Y-112808626D01*
X137316350Y-112839061D01*
X137334907Y-112873778D01*
X137346337Y-112911457D01*
X137350800Y-112956773D01*
X137350800Y-114043227D01*
X137346337Y-114088543D01*
X137334907Y-114126222D01*
X137316350Y-114160939D01*
X137291374Y-114191374D01*
X137260939Y-114216350D01*
X137226222Y-114234907D01*
X137188543Y-114246337D01*
X137143227Y-114250800D01*
X136306773Y-114250800D01*
X136261457Y-114246337D01*
X136223778Y-114234907D01*
X136189061Y-114216350D01*
X136158626Y-114191374D01*
X136133650Y-114160939D01*
X136115093Y-114126222D01*
X136103663Y-114088543D01*
X136099200Y-114043227D01*
X136099200Y-112956773D01*
X136103663Y-112911457D01*
X136115093Y-112873778D01*
X136133650Y-112839061D01*
X136158626Y-112808626D01*
X136189061Y-112783650D01*
X136223778Y-112765093D01*
X136261457Y-112753663D01*
X136306773Y-112749200D01*
X137143227Y-112749200D01*
X137188543Y-112753663D01*
X137188543Y-112753663D01*
G37*
G36*
X157814377Y-112928643D02*
X157851855Y-112940013D01*
X157886404Y-112958479D01*
X157916677Y-112983323D01*
X157941521Y-113013596D01*
X157959987Y-113048145D01*
X157971357Y-113085623D01*
X157975800Y-113130738D01*
X157975800Y-113869262D01*
X157971357Y-113914377D01*
X157959987Y-113951855D01*
X157941521Y-113986404D01*
X157916677Y-114016677D01*
X157886404Y-114041521D01*
X157851855Y-114059987D01*
X157814377Y-114071357D01*
X157769262Y-114075800D01*
X157130738Y-114075800D01*
X157085623Y-114071357D01*
X157048145Y-114059987D01*
X157013596Y-114041521D01*
X156983323Y-114016677D01*
X156958479Y-113986404D01*
X156940013Y-113951855D01*
X156928643Y-113914377D01*
X156924200Y-113869262D01*
X156924200Y-113130738D01*
X156928643Y-113085623D01*
X156940013Y-113048145D01*
X156958479Y-113013596D01*
X156983323Y-112983323D01*
X157013596Y-112958479D01*
X157048145Y-112940013D01*
X157085623Y-112928643D01*
X157130738Y-112924200D01*
X157769262Y-112924200D01*
X157814377Y-112928643D01*
X157814377Y-112928643D01*
G37*
G36*
X156414377Y-112928643D02*
X156451855Y-112940013D01*
X156486404Y-112958479D01*
X156516677Y-112983323D01*
X156541521Y-113013596D01*
X156559987Y-113048145D01*
X156571357Y-113085623D01*
X156575800Y-113130738D01*
X156575800Y-113869262D01*
X156571357Y-113914377D01*
X156559987Y-113951855D01*
X156541521Y-113986404D01*
X156516677Y-114016677D01*
X156486404Y-114041521D01*
X156451855Y-114059987D01*
X156414377Y-114071357D01*
X156369262Y-114075800D01*
X155730738Y-114075800D01*
X155685623Y-114071357D01*
X155648145Y-114059987D01*
X155613596Y-114041521D01*
X155583323Y-114016677D01*
X155558479Y-113986404D01*
X155540013Y-113951855D01*
X155528643Y-113914377D01*
X155524200Y-113869262D01*
X155524200Y-113130738D01*
X155528643Y-113085623D01*
X155540013Y-113048145D01*
X155558479Y-113013596D01*
X155583323Y-112983323D01*
X155613596Y-112958479D01*
X155648145Y-112940013D01*
X155685623Y-112928643D01*
X155730738Y-112924200D01*
X156369262Y-112924200D01*
X156414377Y-112928643D01*
X156414377Y-112928643D01*
G37*
G36*
X151014377Y-112928643D02*
X151051855Y-112940013D01*
X151086404Y-112958479D01*
X151116677Y-112983323D01*
X151141521Y-113013596D01*
X151159987Y-113048145D01*
X151171357Y-113085623D01*
X151175800Y-113130738D01*
X151175800Y-113869262D01*
X151171357Y-113914377D01*
X151159987Y-113951855D01*
X151141521Y-113986404D01*
X151116677Y-114016677D01*
X151086404Y-114041521D01*
X151051855Y-114059987D01*
X151014377Y-114071357D01*
X150969262Y-114075800D01*
X150330738Y-114075800D01*
X150285623Y-114071357D01*
X150248145Y-114059987D01*
X150213596Y-114041521D01*
X150183323Y-114016677D01*
X150158479Y-113986404D01*
X150140013Y-113951855D01*
X150128643Y-113914377D01*
X150124200Y-113869262D01*
X150124200Y-113130738D01*
X150128643Y-113085623D01*
X150140013Y-113048145D01*
X150158479Y-113013596D01*
X150183323Y-112983323D01*
X150213596Y-112958479D01*
X150248145Y-112940013D01*
X150285623Y-112928643D01*
X150330738Y-112924200D01*
X150969262Y-112924200D01*
X151014377Y-112928643D01*
X151014377Y-112928643D01*
G37*
G36*
X154439377Y-112978643D02*
X154476855Y-112990013D01*
X154511404Y-113008479D01*
X154541677Y-113033323D01*
X154566521Y-113063596D01*
X154584987Y-113098145D01*
X154596357Y-113135623D01*
X154600800Y-113180738D01*
X154600800Y-113819262D01*
X154596357Y-113864377D01*
X154584987Y-113901855D01*
X154566521Y-113936404D01*
X154541677Y-113966677D01*
X154511404Y-113991521D01*
X154476855Y-114009987D01*
X154439377Y-114021357D01*
X154394262Y-114025800D01*
X153655738Y-114025800D01*
X153610623Y-114021357D01*
X153573145Y-114009987D01*
X153538596Y-113991521D01*
X153508323Y-113966677D01*
X153483479Y-113936404D01*
X153465013Y-113901855D01*
X153453643Y-113864377D01*
X153449200Y-113819262D01*
X153449200Y-113180738D01*
X153453643Y-113135623D01*
X153465013Y-113098145D01*
X153483479Y-113063596D01*
X153508323Y-113033323D01*
X153538596Y-113008479D01*
X153573145Y-112990013D01*
X153610623Y-112978643D01*
X153655738Y-112974200D01*
X154394262Y-112974200D01*
X154439377Y-112978643D01*
X154439377Y-112978643D01*
G37*
G36*
X152689377Y-112978643D02*
X152726855Y-112990013D01*
X152761404Y-113008479D01*
X152791677Y-113033323D01*
X152816521Y-113063596D01*
X152834987Y-113098145D01*
X152846357Y-113135623D01*
X152850800Y-113180738D01*
X152850800Y-113819262D01*
X152846357Y-113864377D01*
X152834987Y-113901855D01*
X152816521Y-113936404D01*
X152791677Y-113966677D01*
X152761404Y-113991521D01*
X152726855Y-114009987D01*
X152689377Y-114021357D01*
X152644262Y-114025800D01*
X151905738Y-114025800D01*
X151860623Y-114021357D01*
X151823145Y-114009987D01*
X151788596Y-113991521D01*
X151758323Y-113966677D01*
X151733479Y-113936404D01*
X151715013Y-113901855D01*
X151703643Y-113864377D01*
X151699200Y-113819262D01*
X151699200Y-113180738D01*
X151703643Y-113135623D01*
X151715013Y-113098145D01*
X151733479Y-113063596D01*
X151758323Y-113033323D01*
X151788596Y-113008479D01*
X151823145Y-112990013D01*
X151860623Y-112978643D01*
X151905738Y-112974200D01*
X152644262Y-112974200D01*
X152689377Y-112978643D01*
X152689377Y-112978643D01*
G37*
G36*
X131406362Y-110863545D02*
X131494588Y-110872234D01*
X131607789Y-110906573D01*
X131664390Y-110923743D01*
X131802980Y-110997822D01*
X131820879Y-111007389D01*
X131856609Y-111036712D01*
X131958044Y-111119956D01*
X132041288Y-111221391D01*
X132070611Y-111257121D01*
X132070612Y-111257123D01*
X132154257Y-111413610D01*
X132154257Y-111413611D01*
X132205766Y-111583412D01*
X132223158Y-111760000D01*
X132205766Y-111936588D01*
X132186287Y-112000800D01*
X132154257Y-112106390D01*
X132080178Y-112244980D01*
X132070611Y-112262879D01*
X132041288Y-112298609D01*
X131958044Y-112400044D01*
X131856609Y-112483288D01*
X131820879Y-112512611D01*
X131820877Y-112512612D01*
X131664390Y-112596257D01*
X131607789Y-112613427D01*
X131494588Y-112647766D01*
X131406362Y-112656455D01*
X131362250Y-112660800D01*
X131273750Y-112660800D01*
X131229638Y-112656455D01*
X131141412Y-112647766D01*
X131028211Y-112613427D01*
X130971610Y-112596257D01*
X130815123Y-112512612D01*
X130815121Y-112512611D01*
X130779391Y-112483288D01*
X130677956Y-112400044D01*
X130594712Y-112298609D01*
X130565389Y-112262879D01*
X130555822Y-112244980D01*
X130481743Y-112106390D01*
X130449713Y-112000800D01*
X130430234Y-111936588D01*
X130412842Y-111760000D01*
X130430234Y-111583412D01*
X130481743Y-111413611D01*
X130481743Y-111413610D01*
X130565388Y-111257123D01*
X130565389Y-111257121D01*
X130594712Y-111221391D01*
X130677956Y-111119956D01*
X130779391Y-111036712D01*
X130815121Y-111007389D01*
X130833020Y-110997822D01*
X130971610Y-110923743D01*
X131028211Y-110906573D01*
X131141412Y-110872234D01*
X131229638Y-110863545D01*
X131273750Y-110859200D01*
X131362250Y-110859200D01*
X131406362Y-110863545D01*
X131406362Y-110863545D01*
G37*
G36*
X133946362Y-110863545D02*
X134034588Y-110872234D01*
X134147789Y-110906573D01*
X134204390Y-110923743D01*
X134342980Y-110997822D01*
X134360879Y-111007389D01*
X134396609Y-111036712D01*
X134498044Y-111119956D01*
X134581288Y-111221391D01*
X134610611Y-111257121D01*
X134610612Y-111257123D01*
X134694257Y-111413610D01*
X134694257Y-111413611D01*
X134745766Y-111583412D01*
X134763158Y-111760000D01*
X134745766Y-111936588D01*
X134726287Y-112000800D01*
X134694257Y-112106390D01*
X134620178Y-112244980D01*
X134610611Y-112262879D01*
X134581288Y-112298609D01*
X134498044Y-112400044D01*
X134396609Y-112483288D01*
X134360879Y-112512611D01*
X134360877Y-112512612D01*
X134204390Y-112596257D01*
X134147789Y-112613427D01*
X134034588Y-112647766D01*
X133946362Y-112656455D01*
X133902250Y-112660800D01*
X133813750Y-112660800D01*
X133769638Y-112656455D01*
X133681412Y-112647766D01*
X133568211Y-112613427D01*
X133511610Y-112596257D01*
X133355123Y-112512612D01*
X133355121Y-112512611D01*
X133319391Y-112483288D01*
X133217956Y-112400044D01*
X133134712Y-112298609D01*
X133105389Y-112262879D01*
X133095822Y-112244980D01*
X133021743Y-112106390D01*
X132989713Y-112000800D01*
X132970234Y-111936588D01*
X132952842Y-111760000D01*
X132970234Y-111583412D01*
X133021743Y-111413611D01*
X133021743Y-111413610D01*
X133105388Y-111257123D01*
X133105389Y-111257121D01*
X133134712Y-111221391D01*
X133217956Y-111119956D01*
X133319391Y-111036712D01*
X133355121Y-111007389D01*
X133373020Y-110997822D01*
X133511610Y-110923743D01*
X133568211Y-110906573D01*
X133681412Y-110872234D01*
X133769638Y-110863545D01*
X133813750Y-110859200D01*
X133902250Y-110859200D01*
X133946362Y-110863545D01*
X133946362Y-110863545D01*
G37*
G36*
X142150800Y-112000800D02*
X140049200Y-112000800D01*
X140049200Y-110399200D01*
X142150800Y-110399200D01*
X142150800Y-112000800D01*
X142150800Y-112000800D01*
G37*
G36*
X139241821Y-109881914D02*
X139262415Y-109888162D01*
X139281397Y-109898308D01*
X139298037Y-109911963D01*
X139311692Y-109928603D01*
X139321838Y-109947585D01*
X139328086Y-109968179D01*
X139330800Y-109995740D01*
X139330800Y-110504260D01*
X139328086Y-110531821D01*
X139321838Y-110552415D01*
X139311692Y-110571397D01*
X139298037Y-110588037D01*
X139281397Y-110601692D01*
X139262415Y-110611838D01*
X139241821Y-110618086D01*
X139214260Y-110620800D01*
X138755740Y-110620800D01*
X138728179Y-110618086D01*
X138707585Y-110611838D01*
X138688603Y-110601692D01*
X138671963Y-110588037D01*
X138658308Y-110571397D01*
X138648162Y-110552415D01*
X138641914Y-110531821D01*
X138639200Y-110504260D01*
X138639200Y-109995740D01*
X138641914Y-109968179D01*
X138648162Y-109947585D01*
X138658308Y-109928603D01*
X138671963Y-109911963D01*
X138688603Y-109898308D01*
X138707585Y-109888162D01*
X138728179Y-109881914D01*
X138755740Y-109879200D01*
X139214260Y-109879200D01*
X139241821Y-109881914D01*
X139241821Y-109881914D01*
G37*
G36*
X138271821Y-109881914D02*
X138292415Y-109888162D01*
X138311397Y-109898308D01*
X138328037Y-109911963D01*
X138341692Y-109928603D01*
X138351838Y-109947585D01*
X138358086Y-109968179D01*
X138360800Y-109995740D01*
X138360800Y-110504260D01*
X138358086Y-110531821D01*
X138351838Y-110552415D01*
X138341692Y-110571397D01*
X138328037Y-110588037D01*
X138311397Y-110601692D01*
X138292415Y-110611838D01*
X138271821Y-110618086D01*
X138244260Y-110620800D01*
X137785740Y-110620800D01*
X137758179Y-110618086D01*
X137737585Y-110611838D01*
X137718603Y-110601692D01*
X137701963Y-110588037D01*
X137688308Y-110571397D01*
X137678162Y-110552415D01*
X137671914Y-110531821D01*
X137669200Y-110504260D01*
X137669200Y-109995740D01*
X137671914Y-109968179D01*
X137678162Y-109947585D01*
X137688308Y-109928603D01*
X137701963Y-109911963D01*
X137718603Y-109898308D01*
X137737585Y-109888162D01*
X137758179Y-109881914D01*
X137785740Y-109879200D01*
X138244260Y-109879200D01*
X138271821Y-109881914D01*
X138271821Y-109881914D01*
G37*
G36*
X133946362Y-108323545D02*
X134034588Y-108332234D01*
X134147789Y-108366573D01*
X134204390Y-108383743D01*
X134324418Y-108447900D01*
X134360879Y-108467389D01*
X134396609Y-108496712D01*
X134498044Y-108579956D01*
X134572495Y-108670677D01*
X134610611Y-108717121D01*
X134610612Y-108717123D01*
X134694257Y-108873610D01*
X134696776Y-108881914D01*
X134745766Y-109043412D01*
X134763158Y-109220000D01*
X134745766Y-109396588D01*
X134719968Y-109481631D01*
X134694257Y-109566390D01*
X134665174Y-109620800D01*
X134610611Y-109722879D01*
X134581288Y-109758609D01*
X134498044Y-109860044D01*
X134396609Y-109943288D01*
X134360879Y-109972611D01*
X134360877Y-109972612D01*
X134204390Y-110056257D01*
X134147789Y-110073427D01*
X134034588Y-110107766D01*
X133946362Y-110116455D01*
X133902250Y-110120800D01*
X133813750Y-110120800D01*
X133769638Y-110116455D01*
X133681412Y-110107766D01*
X133568211Y-110073427D01*
X133511610Y-110056257D01*
X133355123Y-109972612D01*
X133355121Y-109972611D01*
X133319391Y-109943288D01*
X133217956Y-109860044D01*
X133134712Y-109758609D01*
X133105389Y-109722879D01*
X133050826Y-109620800D01*
X133021743Y-109566390D01*
X132996032Y-109481631D01*
X132970234Y-109396588D01*
X132952842Y-109220000D01*
X132970234Y-109043412D01*
X133019224Y-108881914D01*
X133021743Y-108873610D01*
X133105388Y-108717123D01*
X133105389Y-108717121D01*
X133143505Y-108670677D01*
X133217956Y-108579956D01*
X133319391Y-108496712D01*
X133355121Y-108467389D01*
X133391582Y-108447900D01*
X133511610Y-108383743D01*
X133568211Y-108366573D01*
X133681412Y-108332234D01*
X133769638Y-108323545D01*
X133813750Y-108319200D01*
X133902250Y-108319200D01*
X133946362Y-108323545D01*
X133946362Y-108323545D01*
G37*
G36*
X131406362Y-108323545D02*
X131494588Y-108332234D01*
X131607789Y-108366573D01*
X131664390Y-108383743D01*
X131784418Y-108447900D01*
X131820879Y-108467389D01*
X131856609Y-108496712D01*
X131958044Y-108579956D01*
X132032495Y-108670677D01*
X132070611Y-108717121D01*
X132070612Y-108717123D01*
X132154257Y-108873610D01*
X132156776Y-108881914D01*
X132205766Y-109043412D01*
X132223158Y-109220000D01*
X132205766Y-109396588D01*
X132179968Y-109481631D01*
X132154257Y-109566390D01*
X132125174Y-109620800D01*
X132070611Y-109722879D01*
X132041288Y-109758609D01*
X131958044Y-109860044D01*
X131856609Y-109943288D01*
X131820879Y-109972611D01*
X131820877Y-109972612D01*
X131664390Y-110056257D01*
X131607789Y-110073427D01*
X131494588Y-110107766D01*
X131406362Y-110116455D01*
X131362250Y-110120800D01*
X131273750Y-110120800D01*
X131229638Y-110116455D01*
X131141412Y-110107766D01*
X131028211Y-110073427D01*
X130971610Y-110056257D01*
X130815123Y-109972612D01*
X130815121Y-109972611D01*
X130779391Y-109943288D01*
X130677956Y-109860044D01*
X130594712Y-109758609D01*
X130565389Y-109722879D01*
X130510826Y-109620800D01*
X130481743Y-109566390D01*
X130456032Y-109481631D01*
X130430234Y-109396588D01*
X130412842Y-109220000D01*
X130430234Y-109043412D01*
X130479224Y-108881914D01*
X130481743Y-108873610D01*
X130565388Y-108717123D01*
X130565389Y-108717121D01*
X130603505Y-108670677D01*
X130677956Y-108579956D01*
X130779391Y-108496712D01*
X130815121Y-108467389D01*
X130851582Y-108447900D01*
X130971610Y-108383743D01*
X131028211Y-108366573D01*
X131141412Y-108332234D01*
X131229638Y-108323545D01*
X131273750Y-108319200D01*
X131362250Y-108319200D01*
X131406362Y-108323545D01*
X131406362Y-108323545D01*
G37*
G36*
X139271821Y-108881914D02*
X139292415Y-108888162D01*
X139311397Y-108898308D01*
X139328037Y-108911963D01*
X139341692Y-108928603D01*
X139351838Y-108947585D01*
X139358086Y-108968179D01*
X139360800Y-108995740D01*
X139360800Y-109504260D01*
X139358086Y-109531821D01*
X139351838Y-109552415D01*
X139341692Y-109571397D01*
X139328037Y-109588037D01*
X139311397Y-109601692D01*
X139292415Y-109611838D01*
X139271821Y-109618086D01*
X139244260Y-109620800D01*
X138785740Y-109620800D01*
X138758179Y-109618086D01*
X138737585Y-109611838D01*
X138718603Y-109601692D01*
X138701963Y-109588037D01*
X138688308Y-109571397D01*
X138678162Y-109552415D01*
X138671914Y-109531821D01*
X138669200Y-109504260D01*
X138669200Y-108995740D01*
X138671914Y-108968179D01*
X138678162Y-108947585D01*
X138688308Y-108928603D01*
X138701963Y-108911963D01*
X138718603Y-108898308D01*
X138737585Y-108888162D01*
X138758179Y-108881914D01*
X138785740Y-108879200D01*
X139244260Y-108879200D01*
X139271821Y-108881914D01*
X139271821Y-108881914D01*
G37*
G36*
X140241821Y-108881914D02*
X140262415Y-108888162D01*
X140281397Y-108898308D01*
X140298037Y-108911963D01*
X140311692Y-108928603D01*
X140321838Y-108947585D01*
X140328086Y-108968179D01*
X140330800Y-108995740D01*
X140330800Y-109504260D01*
X140328086Y-109531821D01*
X140321838Y-109552415D01*
X140311692Y-109571397D01*
X140298037Y-109588037D01*
X140281397Y-109601692D01*
X140262415Y-109611838D01*
X140241821Y-109618086D01*
X140214260Y-109620800D01*
X139755740Y-109620800D01*
X139728179Y-109618086D01*
X139707585Y-109611838D01*
X139688603Y-109601692D01*
X139671963Y-109588037D01*
X139658308Y-109571397D01*
X139648162Y-109552415D01*
X139641914Y-109531821D01*
X139639200Y-109504260D01*
X139639200Y-108995740D01*
X139641914Y-108968179D01*
X139648162Y-108947585D01*
X139658308Y-108928603D01*
X139671963Y-108911963D01*
X139688603Y-108898308D01*
X139707585Y-108888162D01*
X139728179Y-108881914D01*
X139755740Y-108879200D01*
X140214260Y-108879200D01*
X140241821Y-108881914D01*
X140241821Y-108881914D01*
G37*
G36*
X152189377Y-107682643D02*
X152226855Y-107694013D01*
X152261404Y-107712479D01*
X152291677Y-107737323D01*
X152316521Y-107767596D01*
X152334987Y-107802145D01*
X152346357Y-107839623D01*
X152350800Y-107884738D01*
X152350800Y-108523262D01*
X152346357Y-108568377D01*
X152334987Y-108605855D01*
X152316521Y-108640404D01*
X152291677Y-108670677D01*
X152261404Y-108695521D01*
X152226855Y-108713987D01*
X152189377Y-108725357D01*
X152144262Y-108729800D01*
X151405738Y-108729800D01*
X151360623Y-108725357D01*
X151323145Y-108713987D01*
X151288596Y-108695521D01*
X151258323Y-108670677D01*
X151233479Y-108640404D01*
X151215013Y-108605855D01*
X151203643Y-108568377D01*
X151199200Y-108523262D01*
X151199200Y-107884738D01*
X151203643Y-107839623D01*
X151215013Y-107802145D01*
X151233479Y-107767596D01*
X151258323Y-107737323D01*
X151288596Y-107712479D01*
X151323145Y-107694013D01*
X151360623Y-107682643D01*
X151405738Y-107678200D01*
X152144262Y-107678200D01*
X152189377Y-107682643D01*
X152189377Y-107682643D01*
G37*
G36*
X153939377Y-107682643D02*
X153976855Y-107694013D01*
X154011404Y-107712479D01*
X154041677Y-107737323D01*
X154066521Y-107767596D01*
X154084987Y-107802145D01*
X154096357Y-107839623D01*
X154100800Y-107884738D01*
X154100800Y-108523262D01*
X154096357Y-108568377D01*
X154084987Y-108605855D01*
X154066521Y-108640404D01*
X154041677Y-108670677D01*
X154011404Y-108695521D01*
X153976855Y-108713987D01*
X153939377Y-108725357D01*
X153894262Y-108729800D01*
X153155738Y-108729800D01*
X153110623Y-108725357D01*
X153073145Y-108713987D01*
X153038596Y-108695521D01*
X153008323Y-108670677D01*
X152983479Y-108640404D01*
X152965013Y-108605855D01*
X152953643Y-108568377D01*
X152949200Y-108523262D01*
X152949200Y-107884738D01*
X152953643Y-107839623D01*
X152965013Y-107802145D01*
X152983479Y-107767596D01*
X153008323Y-107737323D01*
X153038596Y-107712479D01*
X153073145Y-107694013D01*
X153110623Y-107682643D01*
X153155738Y-107678200D01*
X153894262Y-107678200D01*
X153939377Y-107682643D01*
X153939377Y-107682643D01*
G37*
G36*
X139241821Y-107881914D02*
X139262415Y-107888162D01*
X139281397Y-107898308D01*
X139298037Y-107911963D01*
X139311692Y-107928603D01*
X139321838Y-107947585D01*
X139328086Y-107968179D01*
X139330800Y-107995740D01*
X139330800Y-108504260D01*
X139328086Y-108531821D01*
X139321838Y-108552415D01*
X139311692Y-108571397D01*
X139298037Y-108588037D01*
X139281397Y-108601692D01*
X139262415Y-108611838D01*
X139241821Y-108618086D01*
X139214260Y-108620800D01*
X138755740Y-108620800D01*
X138728179Y-108618086D01*
X138707585Y-108611838D01*
X138688603Y-108601692D01*
X138671963Y-108588037D01*
X138658308Y-108571397D01*
X138648162Y-108552415D01*
X138641914Y-108531821D01*
X138639200Y-108504260D01*
X138639200Y-107995740D01*
X138641914Y-107968179D01*
X138648162Y-107947585D01*
X138658308Y-107928603D01*
X138671963Y-107911963D01*
X138688603Y-107898308D01*
X138707585Y-107888162D01*
X138728179Y-107881914D01*
X138755740Y-107879200D01*
X139214260Y-107879200D01*
X139241821Y-107881914D01*
X139241821Y-107881914D01*
G37*
G36*
X138271821Y-107881914D02*
X138292415Y-107888162D01*
X138311397Y-107898308D01*
X138328037Y-107911963D01*
X138341692Y-107928603D01*
X138351838Y-107947585D01*
X138358086Y-107968179D01*
X138360800Y-107995740D01*
X138360800Y-108504260D01*
X138358086Y-108531821D01*
X138351838Y-108552415D01*
X138341692Y-108571397D01*
X138328037Y-108588037D01*
X138311397Y-108601692D01*
X138292415Y-108611838D01*
X138271821Y-108618086D01*
X138244260Y-108620800D01*
X137785740Y-108620800D01*
X137758179Y-108618086D01*
X137737585Y-108611838D01*
X137718603Y-108601692D01*
X137701963Y-108588037D01*
X137688308Y-108571397D01*
X137678162Y-108552415D01*
X137671914Y-108531821D01*
X137669200Y-108504260D01*
X137669200Y-107995740D01*
X137671914Y-107968179D01*
X137678162Y-107947585D01*
X137688308Y-107928603D01*
X137701963Y-107911963D01*
X137718603Y-107898308D01*
X137737585Y-107888162D01*
X137758179Y-107881914D01*
X137785740Y-107879200D01*
X138244260Y-107879200D01*
X138271821Y-107881914D01*
X138271821Y-107881914D01*
G37*
G36*
X139271821Y-106881914D02*
X139292415Y-106888162D01*
X139311397Y-106898308D01*
X139328037Y-106911963D01*
X139341692Y-106928603D01*
X139351838Y-106947585D01*
X139358086Y-106968179D01*
X139360800Y-106995740D01*
X139360800Y-107504260D01*
X139358086Y-107531821D01*
X139351838Y-107552415D01*
X139341692Y-107571397D01*
X139328037Y-107588037D01*
X139311397Y-107601692D01*
X139292415Y-107611838D01*
X139271821Y-107618086D01*
X139244260Y-107620800D01*
X138785740Y-107620800D01*
X138758179Y-107618086D01*
X138737585Y-107611838D01*
X138718603Y-107601692D01*
X138701963Y-107588037D01*
X138688308Y-107571397D01*
X138678162Y-107552415D01*
X138671914Y-107531821D01*
X138669200Y-107504260D01*
X138669200Y-106995740D01*
X138671914Y-106968179D01*
X138678162Y-106947585D01*
X138688308Y-106928603D01*
X138701963Y-106911963D01*
X138718603Y-106898308D01*
X138737585Y-106888162D01*
X138758179Y-106881914D01*
X138785740Y-106879200D01*
X139244260Y-106879200D01*
X139271821Y-106881914D01*
X139271821Y-106881914D01*
G37*
G36*
X140241821Y-106881914D02*
X140262415Y-106888162D01*
X140281397Y-106898308D01*
X140298037Y-106911963D01*
X140311692Y-106928603D01*
X140321838Y-106947585D01*
X140328086Y-106968179D01*
X140330800Y-106995740D01*
X140330800Y-107504260D01*
X140328086Y-107531821D01*
X140321838Y-107552415D01*
X140311692Y-107571397D01*
X140298037Y-107588037D01*
X140281397Y-107601692D01*
X140262415Y-107611838D01*
X140241821Y-107618086D01*
X140214260Y-107620800D01*
X139755740Y-107620800D01*
X139728179Y-107618086D01*
X139707585Y-107611838D01*
X139688603Y-107601692D01*
X139671963Y-107588037D01*
X139658308Y-107571397D01*
X139648162Y-107552415D01*
X139641914Y-107531821D01*
X139639200Y-107504260D01*
X139639200Y-106995740D01*
X139641914Y-106968179D01*
X139648162Y-106947585D01*
X139658308Y-106928603D01*
X139671963Y-106911963D01*
X139688603Y-106898308D01*
X139707585Y-106888162D01*
X139728179Y-106881914D01*
X139755740Y-106879200D01*
X140214260Y-106879200D01*
X140241821Y-106881914D01*
X140241821Y-106881914D01*
G37*
G36*
X132218800Y-107580800D02*
X130417200Y-107580800D01*
X130417200Y-105779200D01*
X132218800Y-105779200D01*
X132218800Y-107580800D01*
X132218800Y-107580800D01*
G37*
G36*
X133946362Y-105783545D02*
X134034588Y-105792234D01*
X134147789Y-105826573D01*
X134204390Y-105843743D01*
X134306473Y-105898308D01*
X134360879Y-105927389D01*
X134385488Y-105947585D01*
X134498044Y-106039956D01*
X134581288Y-106141391D01*
X134610611Y-106177121D01*
X134610612Y-106177123D01*
X134694257Y-106333610D01*
X134694257Y-106333611D01*
X134745766Y-106503412D01*
X134763158Y-106680000D01*
X134745766Y-106856588D01*
X134736188Y-106888162D01*
X134694257Y-107026390D01*
X134620178Y-107164980D01*
X134610611Y-107182879D01*
X134581288Y-107218609D01*
X134498044Y-107320044D01*
X134396609Y-107403288D01*
X134360879Y-107432611D01*
X134360877Y-107432612D01*
X134204390Y-107516257D01*
X134153082Y-107531821D01*
X134034588Y-107567766D01*
X133946362Y-107576455D01*
X133902250Y-107580800D01*
X133813750Y-107580800D01*
X133769638Y-107576455D01*
X133681412Y-107567766D01*
X133562918Y-107531821D01*
X133511610Y-107516257D01*
X133355123Y-107432612D01*
X133355121Y-107432611D01*
X133319391Y-107403288D01*
X133217956Y-107320044D01*
X133134712Y-107218609D01*
X133105389Y-107182879D01*
X133095822Y-107164980D01*
X133021743Y-107026390D01*
X132979812Y-106888162D01*
X132970234Y-106856588D01*
X132952842Y-106680000D01*
X132970234Y-106503412D01*
X133021743Y-106333611D01*
X133021743Y-106333610D01*
X133105388Y-106177123D01*
X133105389Y-106177121D01*
X133134712Y-106141391D01*
X133217956Y-106039956D01*
X133330512Y-105947585D01*
X133355121Y-105927389D01*
X133409527Y-105898308D01*
X133511610Y-105843743D01*
X133568211Y-105826573D01*
X133681412Y-105792234D01*
X133769638Y-105783545D01*
X133813750Y-105779200D01*
X133902250Y-105779200D01*
X133946362Y-105783545D01*
X133946362Y-105783545D01*
G37*
G36*
X153889377Y-105553643D02*
X153926855Y-105565013D01*
X153961404Y-105583479D01*
X153991677Y-105608323D01*
X154016521Y-105638596D01*
X154034987Y-105673145D01*
X154046357Y-105710623D01*
X154050800Y-105755738D01*
X154050800Y-106494262D01*
X154046357Y-106539377D01*
X154034987Y-106576855D01*
X154016521Y-106611404D01*
X153991677Y-106641677D01*
X153961404Y-106666521D01*
X153926855Y-106684987D01*
X153889377Y-106696357D01*
X153844262Y-106700800D01*
X153205738Y-106700800D01*
X153160623Y-106696357D01*
X153123145Y-106684987D01*
X153088596Y-106666521D01*
X153058323Y-106641677D01*
X153033479Y-106611404D01*
X153015013Y-106576855D01*
X153003643Y-106539377D01*
X152999200Y-106494262D01*
X152999200Y-105755738D01*
X153003643Y-105710623D01*
X153015013Y-105673145D01*
X153033479Y-105638596D01*
X153058323Y-105608323D01*
X153088596Y-105583479D01*
X153123145Y-105565013D01*
X153160623Y-105553643D01*
X153205738Y-105549200D01*
X153844262Y-105549200D01*
X153889377Y-105553643D01*
X153889377Y-105553643D01*
G37*
G36*
X151864377Y-105553643D02*
X151901855Y-105565013D01*
X151936404Y-105583479D01*
X151966677Y-105608323D01*
X151991521Y-105638596D01*
X152009987Y-105673145D01*
X152021357Y-105710623D01*
X152025800Y-105755738D01*
X152025800Y-106494262D01*
X152021357Y-106539377D01*
X152009987Y-106576855D01*
X151991521Y-106611404D01*
X151966677Y-106641677D01*
X151936404Y-106666521D01*
X151901855Y-106684987D01*
X151864377Y-106696357D01*
X151819262Y-106700800D01*
X151180738Y-106700800D01*
X151135623Y-106696357D01*
X151098145Y-106684987D01*
X151063596Y-106666521D01*
X151033323Y-106641677D01*
X151008479Y-106611404D01*
X150990013Y-106576855D01*
X150978643Y-106539377D01*
X150974200Y-106494262D01*
X150974200Y-105755738D01*
X150978643Y-105710623D01*
X150990013Y-105673145D01*
X151008479Y-105638596D01*
X151033323Y-105608323D01*
X151063596Y-105583479D01*
X151098145Y-105565013D01*
X151135623Y-105553643D01*
X151180738Y-105549200D01*
X151819262Y-105549200D01*
X151864377Y-105553643D01*
X151864377Y-105553643D01*
G37*
G36*
X138271821Y-105881914D02*
X138292415Y-105888162D01*
X138311397Y-105898308D01*
X138328037Y-105911963D01*
X138341692Y-105928603D01*
X138351838Y-105947585D01*
X138358086Y-105968179D01*
X138360800Y-105995740D01*
X138360800Y-106504260D01*
X138358086Y-106531821D01*
X138351838Y-106552415D01*
X138341692Y-106571397D01*
X138328037Y-106588037D01*
X138311397Y-106601692D01*
X138292415Y-106611838D01*
X138271821Y-106618086D01*
X138244260Y-106620800D01*
X137785740Y-106620800D01*
X137758179Y-106618086D01*
X137737585Y-106611838D01*
X137718603Y-106601692D01*
X137701963Y-106588037D01*
X137688308Y-106571397D01*
X137678162Y-106552415D01*
X137671914Y-106531821D01*
X137669200Y-106504260D01*
X137669200Y-105995740D01*
X137671914Y-105968179D01*
X137678162Y-105947585D01*
X137688308Y-105928603D01*
X137701963Y-105911963D01*
X137718603Y-105898308D01*
X137737585Y-105888162D01*
X137758179Y-105881914D01*
X137785740Y-105879200D01*
X138244260Y-105879200D01*
X138271821Y-105881914D01*
X138271821Y-105881914D01*
G37*
G36*
X139241821Y-105881914D02*
X139262415Y-105888162D01*
X139281397Y-105898308D01*
X139298037Y-105911963D01*
X139311692Y-105928603D01*
X139321838Y-105947585D01*
X139328086Y-105968179D01*
X139330800Y-105995740D01*
X139330800Y-106504260D01*
X139328086Y-106531821D01*
X139321838Y-106552415D01*
X139311692Y-106571397D01*
X139298037Y-106588037D01*
X139281397Y-106601692D01*
X139262415Y-106611838D01*
X139241821Y-106618086D01*
X139214260Y-106620800D01*
X138755740Y-106620800D01*
X138728179Y-106618086D01*
X138707585Y-106611838D01*
X138688603Y-106601692D01*
X138671963Y-106588037D01*
X138658308Y-106571397D01*
X138648162Y-106552415D01*
X138641914Y-106531821D01*
X138639200Y-106504260D01*
X138639200Y-105995740D01*
X138641914Y-105968179D01*
X138648162Y-105947585D01*
X138658308Y-105928603D01*
X138671963Y-105911963D01*
X138688603Y-105898308D01*
X138707585Y-105888162D01*
X138728179Y-105881914D01*
X138755740Y-105879200D01*
X139214260Y-105879200D01*
X139241821Y-105881914D01*
X139241821Y-105881914D01*
G37*
G36*
X140241821Y-104881914D02*
X140262415Y-104888162D01*
X140281397Y-104898308D01*
X140298037Y-104911963D01*
X140311692Y-104928603D01*
X140321838Y-104947585D01*
X140328086Y-104968179D01*
X140330800Y-104995740D01*
X140330800Y-105504260D01*
X140328086Y-105531821D01*
X140321838Y-105552415D01*
X140311692Y-105571397D01*
X140298037Y-105588037D01*
X140281397Y-105601692D01*
X140262415Y-105611838D01*
X140241821Y-105618086D01*
X140214260Y-105620800D01*
X139755740Y-105620800D01*
X139728179Y-105618086D01*
X139707585Y-105611838D01*
X139688603Y-105601692D01*
X139671963Y-105588037D01*
X139658308Y-105571397D01*
X139648162Y-105552415D01*
X139641914Y-105531821D01*
X139639200Y-105504260D01*
X139639200Y-104995740D01*
X139641914Y-104968179D01*
X139648162Y-104947585D01*
X139658308Y-104928603D01*
X139671963Y-104911963D01*
X139688603Y-104898308D01*
X139707585Y-104888162D01*
X139728179Y-104881914D01*
X139755740Y-104879200D01*
X140214260Y-104879200D01*
X140241821Y-104881914D01*
X140241821Y-104881914D01*
G37*
G36*
X139271821Y-104881914D02*
X139292415Y-104888162D01*
X139311397Y-104898308D01*
X139328037Y-104911963D01*
X139341692Y-104928603D01*
X139351838Y-104947585D01*
X139358086Y-104968179D01*
X139360800Y-104995740D01*
X139360800Y-105504260D01*
X139358086Y-105531821D01*
X139351838Y-105552415D01*
X139341692Y-105571397D01*
X139328037Y-105588037D01*
X139311397Y-105601692D01*
X139292415Y-105611838D01*
X139271821Y-105618086D01*
X139244260Y-105620800D01*
X138785740Y-105620800D01*
X138758179Y-105618086D01*
X138737585Y-105611838D01*
X138718603Y-105601692D01*
X138701963Y-105588037D01*
X138688308Y-105571397D01*
X138678162Y-105552415D01*
X138671914Y-105531821D01*
X138669200Y-105504260D01*
X138669200Y-104995740D01*
X138671914Y-104968179D01*
X138678162Y-104947585D01*
X138688308Y-104928603D01*
X138701963Y-104911963D01*
X138718603Y-104898308D01*
X138737585Y-104888162D01*
X138758179Y-104881914D01*
X138785740Y-104879200D01*
X139244260Y-104879200D01*
X139271821Y-104881914D01*
X139271821Y-104881914D01*
G37*
G36*
X151864377Y-103803643D02*
X151901855Y-103815013D01*
X151936404Y-103833479D01*
X151966677Y-103858323D01*
X151991521Y-103888596D01*
X152009987Y-103923145D01*
X152021357Y-103960623D01*
X152025800Y-104005738D01*
X152025800Y-104744262D01*
X152021357Y-104789377D01*
X152009987Y-104826855D01*
X151991521Y-104861404D01*
X151966677Y-104891677D01*
X151936404Y-104916521D01*
X151901855Y-104934987D01*
X151864377Y-104946357D01*
X151819262Y-104950800D01*
X151180738Y-104950800D01*
X151135623Y-104946357D01*
X151098145Y-104934987D01*
X151063596Y-104916521D01*
X151033323Y-104891677D01*
X151008479Y-104861404D01*
X150990013Y-104826855D01*
X150978643Y-104789377D01*
X150974200Y-104744262D01*
X150974200Y-104005738D01*
X150978643Y-103960623D01*
X150990013Y-103923145D01*
X151008479Y-103888596D01*
X151033323Y-103858323D01*
X151063596Y-103833479D01*
X151098145Y-103815013D01*
X151135623Y-103803643D01*
X151180738Y-103799200D01*
X151819262Y-103799200D01*
X151864377Y-103803643D01*
X151864377Y-103803643D01*
G37*
G36*
X153889377Y-103803643D02*
X153926855Y-103815013D01*
X153961404Y-103833479D01*
X153991677Y-103858323D01*
X154016521Y-103888596D01*
X154034987Y-103923145D01*
X154046357Y-103960623D01*
X154050800Y-104005738D01*
X154050800Y-104744262D01*
X154046357Y-104789377D01*
X154034987Y-104826855D01*
X154016521Y-104861404D01*
X153991677Y-104891677D01*
X153961404Y-104916521D01*
X153926855Y-104934987D01*
X153889377Y-104946357D01*
X153844262Y-104950800D01*
X153205738Y-104950800D01*
X153160623Y-104946357D01*
X153123145Y-104934987D01*
X153088596Y-104916521D01*
X153058323Y-104891677D01*
X153033479Y-104861404D01*
X153015013Y-104826855D01*
X153003643Y-104789377D01*
X152999200Y-104744262D01*
X152999200Y-104005738D01*
X153003643Y-103960623D01*
X153015013Y-103923145D01*
X153033479Y-103888596D01*
X153058323Y-103858323D01*
X153088596Y-103833479D01*
X153123145Y-103815013D01*
X153160623Y-103803643D01*
X153205738Y-103799200D01*
X153844262Y-103799200D01*
X153889377Y-103803643D01*
X153889377Y-103803643D01*
G37*
G36*
X138271821Y-103881914D02*
X138292415Y-103888162D01*
X138311397Y-103898308D01*
X138328037Y-103911963D01*
X138341692Y-103928603D01*
X138351838Y-103947585D01*
X138358086Y-103968179D01*
X138360800Y-103995740D01*
X138360800Y-104504260D01*
X138358086Y-104531821D01*
X138351838Y-104552415D01*
X138341692Y-104571397D01*
X138328037Y-104588037D01*
X138311397Y-104601692D01*
X138292415Y-104611838D01*
X138271821Y-104618086D01*
X138244260Y-104620800D01*
X137785740Y-104620800D01*
X137758179Y-104618086D01*
X137737585Y-104611838D01*
X137718603Y-104601692D01*
X137701963Y-104588037D01*
X137688308Y-104571397D01*
X137678162Y-104552415D01*
X137671914Y-104531821D01*
X137669200Y-104504260D01*
X137669200Y-103995740D01*
X137671914Y-103968179D01*
X137678162Y-103947585D01*
X137688308Y-103928603D01*
X137701963Y-103911963D01*
X137718603Y-103898308D01*
X137737585Y-103888162D01*
X137758179Y-103881914D01*
X137785740Y-103879200D01*
X138244260Y-103879200D01*
X138271821Y-103881914D01*
X138271821Y-103881914D01*
G37*
G36*
X139241821Y-103881914D02*
X139262415Y-103888162D01*
X139281397Y-103898308D01*
X139298037Y-103911963D01*
X139311692Y-103928603D01*
X139321838Y-103947585D01*
X139328086Y-103968179D01*
X139330800Y-103995740D01*
X139330800Y-104504260D01*
X139328086Y-104531821D01*
X139321838Y-104552415D01*
X139311692Y-104571397D01*
X139298037Y-104588037D01*
X139281397Y-104601692D01*
X139262415Y-104611838D01*
X139241821Y-104618086D01*
X139214260Y-104620800D01*
X138755740Y-104620800D01*
X138728179Y-104618086D01*
X138707585Y-104611838D01*
X138688603Y-104601692D01*
X138671963Y-104588037D01*
X138658308Y-104571397D01*
X138648162Y-104552415D01*
X138641914Y-104531821D01*
X138639200Y-104504260D01*
X138639200Y-103995740D01*
X138641914Y-103968179D01*
X138648162Y-103947585D01*
X138658308Y-103928603D01*
X138671963Y-103911963D01*
X138688603Y-103898308D01*
X138707585Y-103888162D01*
X138728179Y-103881914D01*
X138755740Y-103879200D01*
X139214260Y-103879200D01*
X139241821Y-103881914D01*
X139241821Y-103881914D01*
G37*
G36*
X143750800Y-104555800D02*
X142549200Y-104555800D01*
X142549200Y-95604200D01*
X143750800Y-95604200D01*
X143750800Y-104555800D01*
X143750800Y-104555800D01*
G37*
G36*
X149450800Y-104555800D02*
X148249200Y-104555800D01*
X148249200Y-95604200D01*
X149450800Y-95604200D01*
X149450800Y-104555800D01*
X149450800Y-104555800D01*
G37*
G36*
X140241821Y-102881914D02*
X140262415Y-102888162D01*
X140281397Y-102898308D01*
X140298037Y-102911963D01*
X140311692Y-102928603D01*
X140321838Y-102947585D01*
X140328086Y-102968179D01*
X140330800Y-102995740D01*
X140330800Y-103504260D01*
X140328086Y-103531821D01*
X140321838Y-103552415D01*
X140311692Y-103571397D01*
X140298037Y-103588037D01*
X140281397Y-103601692D01*
X140262415Y-103611838D01*
X140241821Y-103618086D01*
X140214260Y-103620800D01*
X139755740Y-103620800D01*
X139728179Y-103618086D01*
X139707585Y-103611838D01*
X139688603Y-103601692D01*
X139671963Y-103588037D01*
X139658308Y-103571397D01*
X139648162Y-103552415D01*
X139641914Y-103531821D01*
X139639200Y-103504260D01*
X139639200Y-102995740D01*
X139641914Y-102968179D01*
X139648162Y-102947585D01*
X139658308Y-102928603D01*
X139671963Y-102911963D01*
X139688603Y-102898308D01*
X139707585Y-102888162D01*
X139728179Y-102881914D01*
X139755740Y-102879200D01*
X140214260Y-102879200D01*
X140241821Y-102881914D01*
X140241821Y-102881914D01*
G37*
G36*
X139271821Y-102881914D02*
X139292415Y-102888162D01*
X139311397Y-102898308D01*
X139328037Y-102911963D01*
X139341692Y-102928603D01*
X139351838Y-102947585D01*
X139358086Y-102968179D01*
X139360800Y-102995740D01*
X139360800Y-103504260D01*
X139358086Y-103531821D01*
X139351838Y-103552415D01*
X139341692Y-103571397D01*
X139328037Y-103588037D01*
X139311397Y-103601692D01*
X139292415Y-103611838D01*
X139271821Y-103618086D01*
X139244260Y-103620800D01*
X138785740Y-103620800D01*
X138758179Y-103618086D01*
X138737585Y-103611838D01*
X138718603Y-103601692D01*
X138701963Y-103588037D01*
X138688308Y-103571397D01*
X138678162Y-103552415D01*
X138671914Y-103531821D01*
X138669200Y-103504260D01*
X138669200Y-102995740D01*
X138671914Y-102968179D01*
X138678162Y-102947585D01*
X138688308Y-102928603D01*
X138701963Y-102911963D01*
X138718603Y-102898308D01*
X138737585Y-102888162D01*
X138758179Y-102881914D01*
X138785740Y-102879200D01*
X139244260Y-102879200D01*
X139271821Y-102881914D01*
X139271821Y-102881914D01*
G37*
G36*
X152189377Y-101833643D02*
X152226855Y-101845013D01*
X152261404Y-101863479D01*
X152291677Y-101888323D01*
X152316521Y-101918596D01*
X152334987Y-101953145D01*
X152346357Y-101990623D01*
X152350800Y-102035738D01*
X152350800Y-102674262D01*
X152346357Y-102719377D01*
X152334987Y-102756855D01*
X152316521Y-102791404D01*
X152291677Y-102821677D01*
X152261404Y-102846521D01*
X152226855Y-102864987D01*
X152189377Y-102876357D01*
X152144262Y-102880800D01*
X151405738Y-102880800D01*
X151360623Y-102876357D01*
X151323145Y-102864987D01*
X151288596Y-102846521D01*
X151258323Y-102821677D01*
X151233479Y-102791404D01*
X151215013Y-102756855D01*
X151203643Y-102719377D01*
X151199200Y-102674262D01*
X151199200Y-102035738D01*
X151203643Y-101990623D01*
X151215013Y-101953145D01*
X151233479Y-101918596D01*
X151258323Y-101888323D01*
X151288596Y-101863479D01*
X151323145Y-101845013D01*
X151360623Y-101833643D01*
X151405738Y-101829200D01*
X152144262Y-101829200D01*
X152189377Y-101833643D01*
X152189377Y-101833643D01*
G37*
G36*
X153939377Y-101833643D02*
X153976855Y-101845013D01*
X154011404Y-101863479D01*
X154041677Y-101888323D01*
X154066521Y-101918596D01*
X154084987Y-101953145D01*
X154096357Y-101990623D01*
X154100800Y-102035738D01*
X154100800Y-102674262D01*
X154096357Y-102719377D01*
X154084987Y-102756855D01*
X154066521Y-102791404D01*
X154041677Y-102821677D01*
X154011404Y-102846521D01*
X153976855Y-102864987D01*
X153939377Y-102876357D01*
X153894262Y-102880800D01*
X153155738Y-102880800D01*
X153110623Y-102876357D01*
X153073145Y-102864987D01*
X153038596Y-102846521D01*
X153008323Y-102821677D01*
X152983479Y-102791404D01*
X152965013Y-102756855D01*
X152953643Y-102719377D01*
X152949200Y-102674262D01*
X152949200Y-102035738D01*
X152953643Y-101990623D01*
X152965013Y-101953145D01*
X152983479Y-101918596D01*
X153008323Y-101888323D01*
X153038596Y-101863479D01*
X153073145Y-101845013D01*
X153110623Y-101833643D01*
X153155738Y-101829200D01*
X153894262Y-101829200D01*
X153939377Y-101833643D01*
X153939377Y-101833643D01*
G37*
G36*
X139241821Y-101881914D02*
X139262415Y-101888162D01*
X139281397Y-101898308D01*
X139298037Y-101911963D01*
X139311692Y-101928603D01*
X139321838Y-101947585D01*
X139328086Y-101968179D01*
X139330800Y-101995740D01*
X139330800Y-102504260D01*
X139328086Y-102531821D01*
X139321838Y-102552415D01*
X139311692Y-102571397D01*
X139298037Y-102588037D01*
X139281397Y-102601692D01*
X139262415Y-102611838D01*
X139241821Y-102618086D01*
X139214260Y-102620800D01*
X138755740Y-102620800D01*
X138728179Y-102618086D01*
X138707585Y-102611838D01*
X138688603Y-102601692D01*
X138671963Y-102588037D01*
X138658308Y-102571397D01*
X138648162Y-102552415D01*
X138641914Y-102531821D01*
X138639200Y-102504260D01*
X138639200Y-101995740D01*
X138641914Y-101968179D01*
X138648162Y-101947585D01*
X138658308Y-101928603D01*
X138671963Y-101911963D01*
X138688603Y-101898308D01*
X138707585Y-101888162D01*
X138728179Y-101881914D01*
X138755740Y-101879200D01*
X139214260Y-101879200D01*
X139241821Y-101881914D01*
X139241821Y-101881914D01*
G37*
G36*
X138271821Y-101881914D02*
X138292415Y-101888162D01*
X138311397Y-101898308D01*
X138328037Y-101911963D01*
X138341692Y-101928603D01*
X138351838Y-101947585D01*
X138358086Y-101968179D01*
X138360800Y-101995740D01*
X138360800Y-102504260D01*
X138358086Y-102531821D01*
X138351838Y-102552415D01*
X138341692Y-102571397D01*
X138328037Y-102588037D01*
X138311397Y-102601692D01*
X138292415Y-102611838D01*
X138271821Y-102618086D01*
X138244260Y-102620800D01*
X137785740Y-102620800D01*
X137758179Y-102618086D01*
X137737585Y-102611838D01*
X137718603Y-102601692D01*
X137701963Y-102588037D01*
X137688308Y-102571397D01*
X137678162Y-102552415D01*
X137671914Y-102531821D01*
X137669200Y-102504260D01*
X137669200Y-101995740D01*
X137671914Y-101968179D01*
X137678162Y-101947585D01*
X137688308Y-101928603D01*
X137701963Y-101911963D01*
X137718603Y-101898308D01*
X137737585Y-101888162D01*
X137758179Y-101881914D01*
X137785740Y-101879200D01*
X138244260Y-101879200D01*
X138271821Y-101881914D01*
X138271821Y-101881914D01*
G37*
G36*
X139271821Y-100881914D02*
X139292415Y-100888162D01*
X139311397Y-100898308D01*
X139328037Y-100911963D01*
X139341692Y-100928603D01*
X139351838Y-100947585D01*
X139358086Y-100968179D01*
X139360800Y-100995740D01*
X139360800Y-101504260D01*
X139358086Y-101531821D01*
X139351838Y-101552415D01*
X139341692Y-101571397D01*
X139328037Y-101588037D01*
X139311397Y-101601692D01*
X139292415Y-101611838D01*
X139271821Y-101618086D01*
X139244260Y-101620800D01*
X138785740Y-101620800D01*
X138758179Y-101618086D01*
X138737585Y-101611838D01*
X138718603Y-101601692D01*
X138701963Y-101588037D01*
X138688308Y-101571397D01*
X138678162Y-101552415D01*
X138671914Y-101531821D01*
X138669200Y-101504260D01*
X138669200Y-100995740D01*
X138671914Y-100968179D01*
X138678162Y-100947585D01*
X138688308Y-100928603D01*
X138701963Y-100911963D01*
X138718603Y-100898308D01*
X138737585Y-100888162D01*
X138758179Y-100881914D01*
X138785740Y-100879200D01*
X139244260Y-100879200D01*
X139271821Y-100881914D01*
X139271821Y-100881914D01*
G37*
G36*
X140241821Y-100881914D02*
X140262415Y-100888162D01*
X140281397Y-100898308D01*
X140298037Y-100911963D01*
X140311692Y-100928603D01*
X140321838Y-100947585D01*
X140328086Y-100968179D01*
X140330800Y-100995740D01*
X140330800Y-101504260D01*
X140328086Y-101531821D01*
X140321838Y-101552415D01*
X140311692Y-101571397D01*
X140298037Y-101588037D01*
X140281397Y-101601692D01*
X140262415Y-101611838D01*
X140241821Y-101618086D01*
X140214260Y-101620800D01*
X139755740Y-101620800D01*
X139728179Y-101618086D01*
X139707585Y-101611838D01*
X139688603Y-101601692D01*
X139671963Y-101588037D01*
X139658308Y-101571397D01*
X139648162Y-101552415D01*
X139641914Y-101531821D01*
X139639200Y-101504260D01*
X139639200Y-100995740D01*
X139641914Y-100968179D01*
X139648162Y-100947585D01*
X139658308Y-100928603D01*
X139671963Y-100911963D01*
X139688603Y-100898308D01*
X139707585Y-100888162D01*
X139728179Y-100881914D01*
X139755740Y-100879200D01*
X140214260Y-100879200D01*
X140241821Y-100881914D01*
X140241821Y-100881914D01*
G37*
G36*
X158479377Y-100303643D02*
X158516855Y-100315013D01*
X158551404Y-100333479D01*
X158581677Y-100358323D01*
X158606521Y-100388596D01*
X158624987Y-100423145D01*
X158636357Y-100460623D01*
X158640800Y-100505738D01*
X158640800Y-101244262D01*
X158636357Y-101289377D01*
X158624987Y-101326855D01*
X158606521Y-101361404D01*
X158581677Y-101391677D01*
X158551404Y-101416521D01*
X158516855Y-101434987D01*
X158479377Y-101446357D01*
X158434262Y-101450800D01*
X157795738Y-101450800D01*
X157750623Y-101446357D01*
X157713145Y-101434987D01*
X157678596Y-101416521D01*
X157648323Y-101391677D01*
X157623479Y-101361404D01*
X157605013Y-101326855D01*
X157593643Y-101289377D01*
X157589200Y-101244262D01*
X157589200Y-100505738D01*
X157593643Y-100460623D01*
X157605013Y-100423145D01*
X157623479Y-100388596D01*
X157648323Y-100358323D01*
X157678596Y-100333479D01*
X157713145Y-100315013D01*
X157750623Y-100303643D01*
X157795738Y-100299200D01*
X158434262Y-100299200D01*
X158479377Y-100303643D01*
X158479377Y-100303643D01*
G37*
G36*
X138271821Y-99881914D02*
X138292415Y-99888162D01*
X138311397Y-99898308D01*
X138328037Y-99911963D01*
X138341692Y-99928603D01*
X138351838Y-99947585D01*
X138358086Y-99968179D01*
X138360800Y-99995740D01*
X138360800Y-100504260D01*
X138358086Y-100531821D01*
X138351838Y-100552415D01*
X138341692Y-100571397D01*
X138328037Y-100588037D01*
X138311397Y-100601692D01*
X138292415Y-100611838D01*
X138271821Y-100618086D01*
X138244260Y-100620800D01*
X137785740Y-100620800D01*
X137758179Y-100618086D01*
X137737585Y-100611838D01*
X137718603Y-100601692D01*
X137701963Y-100588037D01*
X137688308Y-100571397D01*
X137678162Y-100552415D01*
X137671914Y-100531821D01*
X137669200Y-100504260D01*
X137669200Y-99995740D01*
X137671914Y-99968179D01*
X137678162Y-99947585D01*
X137688308Y-99928603D01*
X137701963Y-99911963D01*
X137718603Y-99898308D01*
X137737585Y-99888162D01*
X137758179Y-99881914D01*
X137785740Y-99879200D01*
X138244260Y-99879200D01*
X138271821Y-99881914D01*
X138271821Y-99881914D01*
G37*
G36*
X139241821Y-99881914D02*
X139262415Y-99888162D01*
X139281397Y-99898308D01*
X139298037Y-99911963D01*
X139311692Y-99928603D01*
X139321838Y-99947585D01*
X139328086Y-99968179D01*
X139330800Y-99995740D01*
X139330800Y-100504260D01*
X139328086Y-100531821D01*
X139321838Y-100552415D01*
X139311692Y-100571397D01*
X139298037Y-100588037D01*
X139281397Y-100601692D01*
X139262415Y-100611838D01*
X139241821Y-100618086D01*
X139214260Y-100620800D01*
X138755740Y-100620800D01*
X138728179Y-100618086D01*
X138707585Y-100611838D01*
X138688603Y-100601692D01*
X138671963Y-100588037D01*
X138658308Y-100571397D01*
X138648162Y-100552415D01*
X138641914Y-100531821D01*
X138639200Y-100504260D01*
X138639200Y-99995740D01*
X138641914Y-99968179D01*
X138648162Y-99947585D01*
X138658308Y-99928603D01*
X138671963Y-99911963D01*
X138688603Y-99898308D01*
X138707585Y-99888162D01*
X138728179Y-99881914D01*
X138755740Y-99879200D01*
X139214260Y-99879200D01*
X139241821Y-99881914D01*
X139241821Y-99881914D01*
G37*
G36*
X158479377Y-98553643D02*
X158516855Y-98565013D01*
X158551404Y-98583479D01*
X158581677Y-98608323D01*
X158606521Y-98638596D01*
X158624987Y-98673145D01*
X158636357Y-98710623D01*
X158640800Y-98755738D01*
X158640800Y-99494262D01*
X158636357Y-99539377D01*
X158624987Y-99576855D01*
X158606521Y-99611404D01*
X158581677Y-99641677D01*
X158551404Y-99666521D01*
X158516855Y-99684987D01*
X158479377Y-99696357D01*
X158434262Y-99700800D01*
X157795738Y-99700800D01*
X157750623Y-99696357D01*
X157713145Y-99684987D01*
X157678596Y-99666521D01*
X157648323Y-99641677D01*
X157623479Y-99611404D01*
X157605013Y-99576855D01*
X157593643Y-99539377D01*
X157589200Y-99494262D01*
X157589200Y-98755738D01*
X157593643Y-98710623D01*
X157605013Y-98673145D01*
X157623479Y-98638596D01*
X157648323Y-98608323D01*
X157678596Y-98583479D01*
X157713145Y-98565013D01*
X157750623Y-98553643D01*
X157795738Y-98549200D01*
X158434262Y-98549200D01*
X158479377Y-98553643D01*
X158479377Y-98553643D01*
G37*
G36*
X140241821Y-98881914D02*
X140262415Y-98888162D01*
X140281397Y-98898308D01*
X140298037Y-98911963D01*
X140311692Y-98928603D01*
X140321838Y-98947585D01*
X140328086Y-98968179D01*
X140330800Y-98995740D01*
X140330800Y-99504260D01*
X140328086Y-99531821D01*
X140321838Y-99552415D01*
X140311692Y-99571397D01*
X140298037Y-99588037D01*
X140281397Y-99601692D01*
X140262415Y-99611838D01*
X140241821Y-99618086D01*
X140214260Y-99620800D01*
X139755740Y-99620800D01*
X139728179Y-99618086D01*
X139707585Y-99611838D01*
X139688603Y-99601692D01*
X139671963Y-99588037D01*
X139658308Y-99571397D01*
X139648162Y-99552415D01*
X139641914Y-99531821D01*
X139639200Y-99504260D01*
X139639200Y-98995740D01*
X139641914Y-98968179D01*
X139648162Y-98947585D01*
X139658308Y-98928603D01*
X139671963Y-98911963D01*
X139688603Y-98898308D01*
X139707585Y-98888162D01*
X139728179Y-98881914D01*
X139755740Y-98879200D01*
X140214260Y-98879200D01*
X140241821Y-98881914D01*
X140241821Y-98881914D01*
G37*
G36*
X139271821Y-98881914D02*
X139292415Y-98888162D01*
X139311397Y-98898308D01*
X139328037Y-98911963D01*
X139341692Y-98928603D01*
X139351838Y-98947585D01*
X139358086Y-98968179D01*
X139360800Y-98995740D01*
X139360800Y-99504260D01*
X139358086Y-99531821D01*
X139351838Y-99552415D01*
X139341692Y-99571397D01*
X139328037Y-99588037D01*
X139311397Y-99601692D01*
X139292415Y-99611838D01*
X139271821Y-99618086D01*
X139244260Y-99620800D01*
X138785740Y-99620800D01*
X138758179Y-99618086D01*
X138737585Y-99611838D01*
X138718603Y-99601692D01*
X138701963Y-99588037D01*
X138688308Y-99571397D01*
X138678162Y-99552415D01*
X138671914Y-99531821D01*
X138669200Y-99504260D01*
X138669200Y-98995740D01*
X138671914Y-98968179D01*
X138678162Y-98947585D01*
X138688308Y-98928603D01*
X138701963Y-98911963D01*
X138718603Y-98898308D01*
X138737585Y-98888162D01*
X138758179Y-98881914D01*
X138785740Y-98879200D01*
X139244260Y-98879200D01*
X139271821Y-98881914D01*
X139271821Y-98881914D01*
G37*
G36*
X139241821Y-97881914D02*
X139262415Y-97888162D01*
X139281397Y-97898308D01*
X139298037Y-97911963D01*
X139311692Y-97928603D01*
X139321838Y-97947585D01*
X139328086Y-97968179D01*
X139330800Y-97995740D01*
X139330800Y-98504260D01*
X139328086Y-98531821D01*
X139321838Y-98552415D01*
X139311692Y-98571397D01*
X139298037Y-98588037D01*
X139281397Y-98601692D01*
X139262415Y-98611838D01*
X139241821Y-98618086D01*
X139214260Y-98620800D01*
X138755740Y-98620800D01*
X138728179Y-98618086D01*
X138707585Y-98611838D01*
X138688603Y-98601692D01*
X138671963Y-98588037D01*
X138658308Y-98571397D01*
X138648162Y-98552415D01*
X138641914Y-98531821D01*
X138639200Y-98504260D01*
X138639200Y-97995740D01*
X138641914Y-97968179D01*
X138648162Y-97947585D01*
X138658308Y-97928603D01*
X138671963Y-97911963D01*
X138688603Y-97898308D01*
X138707585Y-97888162D01*
X138728179Y-97881914D01*
X138755740Y-97879200D01*
X139214260Y-97879200D01*
X139241821Y-97881914D01*
X139241821Y-97881914D01*
G37*
G36*
X138271821Y-97881914D02*
X138292415Y-97888162D01*
X138311397Y-97898308D01*
X138328037Y-97911963D01*
X138341692Y-97928603D01*
X138351838Y-97947585D01*
X138358086Y-97968179D01*
X138360800Y-97995740D01*
X138360800Y-98504260D01*
X138358086Y-98531821D01*
X138351838Y-98552415D01*
X138341692Y-98571397D01*
X138328037Y-98588037D01*
X138311397Y-98601692D01*
X138292415Y-98611838D01*
X138271821Y-98618086D01*
X138244260Y-98620800D01*
X137785740Y-98620800D01*
X137758179Y-98618086D01*
X137737585Y-98611838D01*
X137718603Y-98601692D01*
X137701963Y-98588037D01*
X137688308Y-98571397D01*
X137678162Y-98552415D01*
X137671914Y-98531821D01*
X137669200Y-98504260D01*
X137669200Y-97995740D01*
X137671914Y-97968179D01*
X137678162Y-97947585D01*
X137688308Y-97928603D01*
X137701963Y-97911963D01*
X137718603Y-97898308D01*
X137737585Y-97888162D01*
X137758179Y-97881914D01*
X137785740Y-97879200D01*
X138244260Y-97879200D01*
X138271821Y-97881914D01*
X138271821Y-97881914D01*
G37*
G36*
X153939377Y-97478643D02*
X153976855Y-97490013D01*
X154011404Y-97508479D01*
X154041677Y-97533323D01*
X154066521Y-97563596D01*
X154084987Y-97598145D01*
X154096357Y-97635623D01*
X154100800Y-97680738D01*
X154100800Y-98319262D01*
X154096357Y-98364377D01*
X154084987Y-98401855D01*
X154066521Y-98436404D01*
X154041677Y-98466677D01*
X154011404Y-98491521D01*
X153976855Y-98509987D01*
X153939377Y-98521357D01*
X153894262Y-98525800D01*
X153155738Y-98525800D01*
X153110623Y-98521357D01*
X153073145Y-98509987D01*
X153038596Y-98491521D01*
X153008323Y-98466677D01*
X152983479Y-98436404D01*
X152965013Y-98401855D01*
X152953643Y-98364377D01*
X152949200Y-98319262D01*
X152949200Y-97680738D01*
X152953643Y-97635623D01*
X152965013Y-97598145D01*
X152983479Y-97563596D01*
X153008323Y-97533323D01*
X153038596Y-97508479D01*
X153073145Y-97490013D01*
X153110623Y-97478643D01*
X153155738Y-97474200D01*
X153894262Y-97474200D01*
X153939377Y-97478643D01*
X153939377Y-97478643D01*
G37*
G36*
X152189377Y-97478643D02*
X152226855Y-97490013D01*
X152261404Y-97508479D01*
X152291677Y-97533323D01*
X152316521Y-97563596D01*
X152334987Y-97598145D01*
X152346357Y-97635623D01*
X152350800Y-97680738D01*
X152350800Y-98319262D01*
X152346357Y-98364377D01*
X152334987Y-98401855D01*
X152316521Y-98436404D01*
X152291677Y-98466677D01*
X152261404Y-98491521D01*
X152226855Y-98509987D01*
X152189377Y-98521357D01*
X152144262Y-98525800D01*
X151405738Y-98525800D01*
X151360623Y-98521357D01*
X151323145Y-98509987D01*
X151288596Y-98491521D01*
X151258323Y-98466677D01*
X151233479Y-98436404D01*
X151215013Y-98401855D01*
X151203643Y-98364377D01*
X151199200Y-98319262D01*
X151199200Y-97680738D01*
X151203643Y-97635623D01*
X151215013Y-97598145D01*
X151233479Y-97563596D01*
X151258323Y-97533323D01*
X151288596Y-97508479D01*
X151323145Y-97490013D01*
X151360623Y-97478643D01*
X151405738Y-97474200D01*
X152144262Y-97474200D01*
X152189377Y-97478643D01*
X152189377Y-97478643D01*
G37*
G36*
X140241821Y-96881914D02*
X140262415Y-96888162D01*
X140281397Y-96898308D01*
X140298037Y-96911963D01*
X140311692Y-96928603D01*
X140321838Y-96947585D01*
X140328086Y-96968179D01*
X140330800Y-96995740D01*
X140330800Y-97504260D01*
X140328086Y-97531821D01*
X140321838Y-97552415D01*
X140311692Y-97571397D01*
X140298037Y-97588037D01*
X140281397Y-97601692D01*
X140262415Y-97611838D01*
X140241821Y-97618086D01*
X140214260Y-97620800D01*
X139755740Y-97620800D01*
X139728179Y-97618086D01*
X139707585Y-97611838D01*
X139688603Y-97601692D01*
X139671963Y-97588037D01*
X139658308Y-97571397D01*
X139648162Y-97552415D01*
X139641914Y-97531821D01*
X139639200Y-97504260D01*
X139639200Y-96995740D01*
X139641914Y-96968179D01*
X139648162Y-96947585D01*
X139658308Y-96928603D01*
X139671963Y-96911963D01*
X139688603Y-96898308D01*
X139707585Y-96888162D01*
X139728179Y-96881914D01*
X139755740Y-96879200D01*
X140214260Y-96879200D01*
X140241821Y-96881914D01*
X140241821Y-96881914D01*
G37*
G36*
X139271821Y-96881914D02*
X139292415Y-96888162D01*
X139311397Y-96898308D01*
X139328037Y-96911963D01*
X139341692Y-96928603D01*
X139351838Y-96947585D01*
X139358086Y-96968179D01*
X139360800Y-96995740D01*
X139360800Y-97504260D01*
X139358086Y-97531821D01*
X139351838Y-97552415D01*
X139341692Y-97571397D01*
X139328037Y-97588037D01*
X139311397Y-97601692D01*
X139292415Y-97611838D01*
X139271821Y-97618086D01*
X139244260Y-97620800D01*
X138785740Y-97620800D01*
X138758179Y-97618086D01*
X138737585Y-97611838D01*
X138718603Y-97601692D01*
X138701963Y-97588037D01*
X138688308Y-97571397D01*
X138678162Y-97552415D01*
X138671914Y-97531821D01*
X138669200Y-97504260D01*
X138669200Y-96995740D01*
X138671914Y-96968179D01*
X138678162Y-96947585D01*
X138688308Y-96928603D01*
X138701963Y-96911963D01*
X138718603Y-96898308D01*
X138737585Y-96888162D01*
X138758179Y-96881914D01*
X138785740Y-96879200D01*
X139244260Y-96879200D01*
X139271821Y-96881914D01*
X139271821Y-96881914D01*
G37*
G36*
X133946362Y-95623545D02*
X134034588Y-95632234D01*
X134147789Y-95666573D01*
X134204390Y-95683743D01*
X134342980Y-95757822D01*
X134360879Y-95767389D01*
X134396609Y-95796712D01*
X134498044Y-95879956D01*
X134560485Y-95956042D01*
X134610611Y-96017121D01*
X134610612Y-96017123D01*
X134694257Y-96173610D01*
X134694257Y-96173611D01*
X134745766Y-96343412D01*
X134763158Y-96520000D01*
X134745766Y-96696588D01*
X134727804Y-96755800D01*
X134694257Y-96866390D01*
X134669897Y-96911963D01*
X134610611Y-97022879D01*
X134586630Y-97052100D01*
X134498044Y-97160044D01*
X134396609Y-97243288D01*
X134360879Y-97272611D01*
X134360877Y-97272612D01*
X134204390Y-97356257D01*
X134147789Y-97373427D01*
X134034588Y-97407766D01*
X133946362Y-97416455D01*
X133902250Y-97420800D01*
X133813750Y-97420800D01*
X133769638Y-97416455D01*
X133681412Y-97407766D01*
X133568211Y-97373427D01*
X133511610Y-97356257D01*
X133355123Y-97272612D01*
X133355121Y-97272611D01*
X133319391Y-97243288D01*
X133217956Y-97160044D01*
X133129370Y-97052100D01*
X133105389Y-97022879D01*
X133046103Y-96911963D01*
X133021743Y-96866390D01*
X132988196Y-96755800D01*
X132970234Y-96696588D01*
X132952842Y-96520000D01*
X132970234Y-96343412D01*
X133021743Y-96173611D01*
X133021743Y-96173610D01*
X133105388Y-96017123D01*
X133105389Y-96017121D01*
X133155515Y-95956042D01*
X133217956Y-95879956D01*
X133319391Y-95796712D01*
X133355121Y-95767389D01*
X133373020Y-95757822D01*
X133511610Y-95683743D01*
X133568211Y-95666573D01*
X133681412Y-95632234D01*
X133769638Y-95623545D01*
X133813750Y-95619200D01*
X133902250Y-95619200D01*
X133946362Y-95623545D01*
X133946362Y-95623545D01*
G37*
G36*
X131406362Y-95623545D02*
X131494588Y-95632234D01*
X131607789Y-95666573D01*
X131664390Y-95683743D01*
X131802980Y-95757822D01*
X131820879Y-95767389D01*
X131856609Y-95796712D01*
X131958044Y-95879956D01*
X132020485Y-95956042D01*
X132070611Y-96017121D01*
X132070612Y-96017123D01*
X132154257Y-96173610D01*
X132154257Y-96173611D01*
X132205766Y-96343412D01*
X132223158Y-96520000D01*
X132205766Y-96696588D01*
X132187804Y-96755800D01*
X132154257Y-96866390D01*
X132129897Y-96911963D01*
X132070611Y-97022879D01*
X132046630Y-97052100D01*
X131958044Y-97160044D01*
X131856609Y-97243288D01*
X131820879Y-97272611D01*
X131820877Y-97272612D01*
X131664390Y-97356257D01*
X131607789Y-97373427D01*
X131494588Y-97407766D01*
X131406362Y-97416455D01*
X131362250Y-97420800D01*
X131273750Y-97420800D01*
X131229638Y-97416455D01*
X131141412Y-97407766D01*
X131028211Y-97373427D01*
X130971610Y-97356257D01*
X130815123Y-97272612D01*
X130815121Y-97272611D01*
X130779391Y-97243288D01*
X130677956Y-97160044D01*
X130589370Y-97052100D01*
X130565389Y-97022879D01*
X130506103Y-96911963D01*
X130481743Y-96866390D01*
X130448196Y-96755800D01*
X130430234Y-96696588D01*
X130412842Y-96520000D01*
X130430234Y-96343412D01*
X130481743Y-96173611D01*
X130481743Y-96173610D01*
X130565388Y-96017123D01*
X130565389Y-96017121D01*
X130615515Y-95956042D01*
X130677956Y-95879956D01*
X130779391Y-95796712D01*
X130815121Y-95767389D01*
X130833020Y-95757822D01*
X130971610Y-95683743D01*
X131028211Y-95666573D01*
X131141412Y-95632234D01*
X131229638Y-95623545D01*
X131273750Y-95619200D01*
X131362250Y-95619200D01*
X131406362Y-95623545D01*
X131406362Y-95623545D01*
G37*
G36*
X139241821Y-95881914D02*
X139262415Y-95888162D01*
X139281397Y-95898308D01*
X139298037Y-95911963D01*
X139311692Y-95928603D01*
X139321838Y-95947585D01*
X139328086Y-95968179D01*
X139330800Y-95995740D01*
X139330800Y-96504260D01*
X139328086Y-96531821D01*
X139321838Y-96552415D01*
X139311692Y-96571397D01*
X139298037Y-96588037D01*
X139281397Y-96601692D01*
X139262415Y-96611838D01*
X139241821Y-96618086D01*
X139214260Y-96620800D01*
X138755740Y-96620800D01*
X138728179Y-96618086D01*
X138707585Y-96611838D01*
X138688603Y-96601692D01*
X138671963Y-96588037D01*
X138658308Y-96571397D01*
X138648162Y-96552415D01*
X138641914Y-96531821D01*
X138639200Y-96504260D01*
X138639200Y-95995740D01*
X138641914Y-95968179D01*
X138648162Y-95947585D01*
X138658308Y-95928603D01*
X138671963Y-95911963D01*
X138688603Y-95898308D01*
X138707585Y-95888162D01*
X138728179Y-95881914D01*
X138755740Y-95879200D01*
X139214260Y-95879200D01*
X139241821Y-95881914D01*
X139241821Y-95881914D01*
G37*
G36*
X138271821Y-95881914D02*
X138292415Y-95888162D01*
X138311397Y-95898308D01*
X138328037Y-95911963D01*
X138341692Y-95928603D01*
X138351838Y-95947585D01*
X138358086Y-95968179D01*
X138360800Y-95995740D01*
X138360800Y-96504260D01*
X138358086Y-96531821D01*
X138351838Y-96552415D01*
X138341692Y-96571397D01*
X138328037Y-96588037D01*
X138311397Y-96601692D01*
X138292415Y-96611838D01*
X138271821Y-96618086D01*
X138244260Y-96620800D01*
X137785740Y-96620800D01*
X137758179Y-96618086D01*
X137737585Y-96611838D01*
X137718603Y-96601692D01*
X137701963Y-96588037D01*
X137688308Y-96571397D01*
X137678162Y-96552415D01*
X137671914Y-96531821D01*
X137669200Y-96504260D01*
X137669200Y-95995740D01*
X137671914Y-95968179D01*
X137678162Y-95947585D01*
X137688308Y-95928603D01*
X137701963Y-95911963D01*
X137718603Y-95898308D01*
X137737585Y-95888162D01*
X137758179Y-95881914D01*
X137785740Y-95879200D01*
X138244260Y-95879200D01*
X138271821Y-95881914D01*
X138271821Y-95881914D01*
G37*
G36*
X139271821Y-94881914D02*
X139292415Y-94888162D01*
X139311397Y-94898308D01*
X139328037Y-94911963D01*
X139341692Y-94928603D01*
X139351838Y-94947585D01*
X139358086Y-94968179D01*
X139360800Y-94995740D01*
X139360800Y-95504260D01*
X139358086Y-95531821D01*
X139351838Y-95552415D01*
X139341692Y-95571397D01*
X139328037Y-95588037D01*
X139311397Y-95601692D01*
X139292415Y-95611838D01*
X139271821Y-95618086D01*
X139244260Y-95620800D01*
X138785740Y-95620800D01*
X138758179Y-95618086D01*
X138737585Y-95611838D01*
X138718603Y-95601692D01*
X138701963Y-95588037D01*
X138688308Y-95571397D01*
X138678162Y-95552415D01*
X138671914Y-95531821D01*
X138669200Y-95504260D01*
X138669200Y-94995740D01*
X138671914Y-94968179D01*
X138678162Y-94947585D01*
X138688308Y-94928603D01*
X138701963Y-94911963D01*
X138718603Y-94898308D01*
X138737585Y-94888162D01*
X138758179Y-94881914D01*
X138785740Y-94879200D01*
X139244260Y-94879200D01*
X139271821Y-94881914D01*
X139271821Y-94881914D01*
G37*
G36*
X140241821Y-94881914D02*
X140262415Y-94888162D01*
X140281397Y-94898308D01*
X140298037Y-94911963D01*
X140311692Y-94928603D01*
X140321838Y-94947585D01*
X140328086Y-94968179D01*
X140330800Y-94995740D01*
X140330800Y-95504260D01*
X140328086Y-95531821D01*
X140321838Y-95552415D01*
X140311692Y-95571397D01*
X140298037Y-95588037D01*
X140281397Y-95601692D01*
X140262415Y-95611838D01*
X140241821Y-95618086D01*
X140214260Y-95620800D01*
X139755740Y-95620800D01*
X139728179Y-95618086D01*
X139707585Y-95611838D01*
X139688603Y-95601692D01*
X139671963Y-95588037D01*
X139658308Y-95571397D01*
X139648162Y-95552415D01*
X139641914Y-95531821D01*
X139639200Y-95504260D01*
X139639200Y-94995740D01*
X139641914Y-94968179D01*
X139648162Y-94947585D01*
X139658308Y-94928603D01*
X139671963Y-94911963D01*
X139688603Y-94898308D01*
X139707585Y-94888162D01*
X139728179Y-94881914D01*
X139755740Y-94879200D01*
X140214260Y-94879200D01*
X140241821Y-94881914D01*
X140241821Y-94881914D01*
G37*
G36*
X154350800Y-95465800D02*
X153489200Y-95465800D01*
X153489200Y-93964200D01*
X154350800Y-93964200D01*
X154350800Y-95465800D01*
X154350800Y-95465800D01*
G37*
G36*
X151810800Y-95465800D02*
X150949200Y-95465800D01*
X150949200Y-93964200D01*
X151810800Y-93964200D01*
X151810800Y-95465800D01*
X151810800Y-95465800D01*
G37*
G36*
X153080800Y-95465800D02*
X152219200Y-95465800D01*
X152219200Y-93964200D01*
X153080800Y-93964200D01*
X153080800Y-95465800D01*
X153080800Y-95465800D01*
G37*
G36*
X161860800Y-95300800D02*
X156679200Y-95300800D01*
X156679200Y-92779200D01*
X161860800Y-92779200D01*
X161860800Y-95300800D01*
X161860800Y-95300800D01*
G37*
G36*
X133946362Y-93083545D02*
X134034588Y-93092234D01*
X134147789Y-93126573D01*
X134204390Y-93143743D01*
X134342980Y-93217822D01*
X134360879Y-93227389D01*
X134396609Y-93256712D01*
X134498044Y-93339956D01*
X134581288Y-93441391D01*
X134610611Y-93477121D01*
X134610612Y-93477123D01*
X134694257Y-93633610D01*
X134694257Y-93633611D01*
X134745766Y-93803412D01*
X134763158Y-93980000D01*
X134745766Y-94156588D01*
X134711427Y-94269789D01*
X134694257Y-94326390D01*
X134629308Y-94447900D01*
X134610611Y-94482879D01*
X134593064Y-94504260D01*
X134498044Y-94620044D01*
X134396609Y-94703288D01*
X134360879Y-94732611D01*
X134360877Y-94732612D01*
X134204390Y-94816257D01*
X134147789Y-94833427D01*
X134034588Y-94867766D01*
X133946362Y-94876455D01*
X133902250Y-94880800D01*
X133813750Y-94880800D01*
X133769638Y-94876455D01*
X133681412Y-94867766D01*
X133568211Y-94833427D01*
X133511610Y-94816257D01*
X133355123Y-94732612D01*
X133355121Y-94732611D01*
X133319391Y-94703288D01*
X133217956Y-94620044D01*
X133122936Y-94504260D01*
X133105389Y-94482879D01*
X133086692Y-94447900D01*
X133021743Y-94326390D01*
X133004573Y-94269789D01*
X132970234Y-94156588D01*
X132952842Y-93980000D01*
X132970234Y-93803412D01*
X133021743Y-93633611D01*
X133021743Y-93633610D01*
X133105388Y-93477123D01*
X133105389Y-93477121D01*
X133134712Y-93441391D01*
X133217956Y-93339956D01*
X133319391Y-93256712D01*
X133355121Y-93227389D01*
X133373020Y-93217822D01*
X133511610Y-93143743D01*
X133568211Y-93126573D01*
X133681412Y-93092234D01*
X133769638Y-93083545D01*
X133813750Y-93079200D01*
X133902250Y-93079200D01*
X133946362Y-93083545D01*
X133946362Y-93083545D01*
G37*
G36*
X131406362Y-93083545D02*
X131494588Y-93092234D01*
X131607789Y-93126573D01*
X131664390Y-93143743D01*
X131802980Y-93217822D01*
X131820879Y-93227389D01*
X131856609Y-93256712D01*
X131958044Y-93339956D01*
X132041288Y-93441391D01*
X132070611Y-93477121D01*
X132070612Y-93477123D01*
X132154257Y-93633610D01*
X132154257Y-93633611D01*
X132205766Y-93803412D01*
X132223158Y-93980000D01*
X132205766Y-94156588D01*
X132171427Y-94269789D01*
X132154257Y-94326390D01*
X132089308Y-94447900D01*
X132070611Y-94482879D01*
X132053064Y-94504260D01*
X131958044Y-94620044D01*
X131856609Y-94703288D01*
X131820879Y-94732611D01*
X131820877Y-94732612D01*
X131664390Y-94816257D01*
X131607789Y-94833427D01*
X131494588Y-94867766D01*
X131406362Y-94876455D01*
X131362250Y-94880800D01*
X131273750Y-94880800D01*
X131229638Y-94876455D01*
X131141412Y-94867766D01*
X131028211Y-94833427D01*
X130971610Y-94816257D01*
X130815123Y-94732612D01*
X130815121Y-94732611D01*
X130779391Y-94703288D01*
X130677956Y-94620044D01*
X130582936Y-94504260D01*
X130565389Y-94482879D01*
X130546692Y-94447900D01*
X130481743Y-94326390D01*
X130464573Y-94269789D01*
X130430234Y-94156588D01*
X130412842Y-93980000D01*
X130430234Y-93803412D01*
X130481743Y-93633611D01*
X130481743Y-93633610D01*
X130565388Y-93477123D01*
X130565389Y-93477121D01*
X130594712Y-93441391D01*
X130677956Y-93339956D01*
X130779391Y-93256712D01*
X130815121Y-93227389D01*
X130833020Y-93217822D01*
X130971610Y-93143743D01*
X131028211Y-93126573D01*
X131141412Y-93092234D01*
X131229638Y-93083545D01*
X131273750Y-93079200D01*
X131362250Y-93079200D01*
X131406362Y-93083545D01*
X131406362Y-93083545D01*
G37*
G36*
X139241821Y-93881914D02*
X139262415Y-93888162D01*
X139281397Y-93898308D01*
X139298037Y-93911963D01*
X139311692Y-93928603D01*
X139321838Y-93947585D01*
X139328086Y-93968179D01*
X139330800Y-93995740D01*
X139330800Y-94504260D01*
X139328086Y-94531821D01*
X139321838Y-94552415D01*
X139311692Y-94571397D01*
X139298037Y-94588037D01*
X139281397Y-94601692D01*
X139262415Y-94611838D01*
X139241821Y-94618086D01*
X139214260Y-94620800D01*
X138755740Y-94620800D01*
X138728179Y-94618086D01*
X138707585Y-94611838D01*
X138688603Y-94601692D01*
X138671963Y-94588037D01*
X138658308Y-94571397D01*
X138648162Y-94552415D01*
X138641914Y-94531821D01*
X138639200Y-94504260D01*
X138639200Y-93995740D01*
X138641914Y-93968179D01*
X138648162Y-93947585D01*
X138658308Y-93928603D01*
X138671963Y-93911963D01*
X138688603Y-93898308D01*
X138707585Y-93888162D01*
X138728179Y-93881914D01*
X138755740Y-93879200D01*
X139214260Y-93879200D01*
X139241821Y-93881914D01*
X139241821Y-93881914D01*
G37*
G36*
X138271821Y-93881914D02*
X138292415Y-93888162D01*
X138311397Y-93898308D01*
X138328037Y-93911963D01*
X138341692Y-93928603D01*
X138351838Y-93947585D01*
X138358086Y-93968179D01*
X138360800Y-93995740D01*
X138360800Y-94504260D01*
X138358086Y-94531821D01*
X138351838Y-94552415D01*
X138341692Y-94571397D01*
X138328037Y-94588037D01*
X138311397Y-94601692D01*
X138292415Y-94611838D01*
X138271821Y-94618086D01*
X138244260Y-94620800D01*
X137785740Y-94620800D01*
X137758179Y-94618086D01*
X137737585Y-94611838D01*
X137718603Y-94601692D01*
X137701963Y-94588037D01*
X137688308Y-94571397D01*
X137678162Y-94552415D01*
X137671914Y-94531821D01*
X137669200Y-94504260D01*
X137669200Y-93995740D01*
X137671914Y-93968179D01*
X137678162Y-93947585D01*
X137688308Y-93928603D01*
X137701963Y-93911963D01*
X137718603Y-93898308D01*
X137737585Y-93888162D01*
X137758179Y-93881914D01*
X137785740Y-93879200D01*
X138244260Y-93879200D01*
X138271821Y-93881914D01*
X138271821Y-93881914D01*
G37*
G36*
X140241821Y-92881914D02*
X140262415Y-92888162D01*
X140281397Y-92898308D01*
X140298037Y-92911963D01*
X140311692Y-92928603D01*
X140321838Y-92947585D01*
X140328086Y-92968179D01*
X140330800Y-92995740D01*
X140330800Y-93504260D01*
X140328086Y-93531821D01*
X140321838Y-93552415D01*
X140311692Y-93571397D01*
X140298037Y-93588037D01*
X140281397Y-93601692D01*
X140262415Y-93611838D01*
X140241821Y-93618086D01*
X140214260Y-93620800D01*
X139755740Y-93620800D01*
X139728179Y-93618086D01*
X139707585Y-93611838D01*
X139688603Y-93601692D01*
X139671963Y-93588037D01*
X139658308Y-93571397D01*
X139648162Y-93552415D01*
X139641914Y-93531821D01*
X139639200Y-93504260D01*
X139639200Y-92995740D01*
X139641914Y-92968179D01*
X139648162Y-92947585D01*
X139658308Y-92928603D01*
X139671963Y-92911963D01*
X139688603Y-92898308D01*
X139707585Y-92888162D01*
X139728179Y-92881914D01*
X139755740Y-92879200D01*
X140214260Y-92879200D01*
X140241821Y-92881914D01*
X140241821Y-92881914D01*
G37*
G36*
X139271821Y-92881914D02*
X139292415Y-92888162D01*
X139311397Y-92898308D01*
X139328037Y-92911963D01*
X139341692Y-92928603D01*
X139351838Y-92947585D01*
X139358086Y-92968179D01*
X139360800Y-92995740D01*
X139360800Y-93504260D01*
X139358086Y-93531821D01*
X139351838Y-93552415D01*
X139341692Y-93571397D01*
X139328037Y-93588037D01*
X139311397Y-93601692D01*
X139292415Y-93611838D01*
X139271821Y-93618086D01*
X139244260Y-93620800D01*
X138785740Y-93620800D01*
X138758179Y-93618086D01*
X138737585Y-93611838D01*
X138718603Y-93601692D01*
X138701963Y-93588037D01*
X138688308Y-93571397D01*
X138678162Y-93552415D01*
X138671914Y-93531821D01*
X138669200Y-93504260D01*
X138669200Y-92995740D01*
X138671914Y-92968179D01*
X138678162Y-92947585D01*
X138688308Y-92928603D01*
X138701963Y-92911963D01*
X138718603Y-92898308D01*
X138737585Y-92888162D01*
X138758179Y-92881914D01*
X138785740Y-92879200D01*
X139244260Y-92879200D01*
X139271821Y-92881914D01*
X139271821Y-92881914D01*
G37*
G36*
X139241821Y-91881914D02*
X139262415Y-91888162D01*
X139281397Y-91898308D01*
X139298037Y-91911963D01*
X139311692Y-91928603D01*
X139321838Y-91947585D01*
X139328086Y-91968179D01*
X139330800Y-91995740D01*
X139330800Y-92504260D01*
X139328086Y-92531821D01*
X139321838Y-92552415D01*
X139311692Y-92571397D01*
X139298037Y-92588037D01*
X139281397Y-92601692D01*
X139262415Y-92611838D01*
X139241821Y-92618086D01*
X139214260Y-92620800D01*
X138755740Y-92620800D01*
X138728179Y-92618086D01*
X138707585Y-92611838D01*
X138688603Y-92601692D01*
X138671963Y-92588037D01*
X138658308Y-92571397D01*
X138648162Y-92552415D01*
X138641914Y-92531821D01*
X138639200Y-92504260D01*
X138639200Y-91995740D01*
X138641914Y-91968179D01*
X138648162Y-91947585D01*
X138658308Y-91928603D01*
X138671963Y-91911963D01*
X138688603Y-91898308D01*
X138707585Y-91888162D01*
X138728179Y-91881914D01*
X138755740Y-91879200D01*
X139214260Y-91879200D01*
X139241821Y-91881914D01*
X139241821Y-91881914D01*
G37*
G36*
X138271821Y-91881914D02*
X138292415Y-91888162D01*
X138311397Y-91898308D01*
X138328037Y-91911963D01*
X138341692Y-91928603D01*
X138351838Y-91947585D01*
X138358086Y-91968179D01*
X138360800Y-91995740D01*
X138360800Y-92504260D01*
X138358086Y-92531821D01*
X138351838Y-92552415D01*
X138341692Y-92571397D01*
X138328037Y-92588037D01*
X138311397Y-92601692D01*
X138292415Y-92611838D01*
X138271821Y-92618086D01*
X138244260Y-92620800D01*
X137785740Y-92620800D01*
X137758179Y-92618086D01*
X137737585Y-92611838D01*
X137718603Y-92601692D01*
X137701963Y-92588037D01*
X137688308Y-92571397D01*
X137678162Y-92552415D01*
X137671914Y-92531821D01*
X137669200Y-92504260D01*
X137669200Y-91995740D01*
X137671914Y-91968179D01*
X137678162Y-91947585D01*
X137688308Y-91928603D01*
X137701963Y-91911963D01*
X137718603Y-91898308D01*
X137737585Y-91888162D01*
X137758179Y-91881914D01*
X137785740Y-91879200D01*
X138244260Y-91879200D01*
X138271821Y-91881914D01*
X138271821Y-91881914D01*
G37*
G36*
X147823421Y-91731914D02*
X147844015Y-91738162D01*
X147862997Y-91748308D01*
X147879637Y-91761963D01*
X147893292Y-91778603D01*
X147903438Y-91797585D01*
X147909686Y-91818179D01*
X147912400Y-91845740D01*
X147912400Y-92354260D01*
X147909686Y-92381821D01*
X147903438Y-92402415D01*
X147893292Y-92421397D01*
X147879637Y-92438037D01*
X147862997Y-92451692D01*
X147844015Y-92461838D01*
X147823421Y-92468086D01*
X147795860Y-92470800D01*
X147337340Y-92470800D01*
X147309779Y-92468086D01*
X147289185Y-92461838D01*
X147270203Y-92451692D01*
X147253563Y-92438037D01*
X147239908Y-92421397D01*
X147229762Y-92402415D01*
X147223514Y-92381821D01*
X147220800Y-92354260D01*
X147220800Y-91845740D01*
X147223514Y-91818179D01*
X147229762Y-91797585D01*
X147239908Y-91778603D01*
X147253563Y-91761963D01*
X147270203Y-91748308D01*
X147289185Y-91738162D01*
X147309779Y-91731914D01*
X147337340Y-91729200D01*
X147795860Y-91729200D01*
X147823421Y-91731914D01*
X147823421Y-91731914D01*
G37*
G36*
X146853421Y-91731914D02*
X146874015Y-91738162D01*
X146892997Y-91748308D01*
X146909637Y-91761963D01*
X146923292Y-91778603D01*
X146933438Y-91797585D01*
X146939686Y-91818179D01*
X146942400Y-91845740D01*
X146942400Y-92354260D01*
X146939686Y-92381821D01*
X146933438Y-92402415D01*
X146923292Y-92421397D01*
X146909637Y-92438037D01*
X146892997Y-92451692D01*
X146874015Y-92461838D01*
X146853421Y-92468086D01*
X146825860Y-92470800D01*
X146367340Y-92470800D01*
X146339779Y-92468086D01*
X146319185Y-92461838D01*
X146300203Y-92451692D01*
X146283563Y-92438037D01*
X146269908Y-92421397D01*
X146259762Y-92402415D01*
X146253514Y-92381821D01*
X146250800Y-92354260D01*
X146250800Y-91845740D01*
X146253514Y-91818179D01*
X146259762Y-91797585D01*
X146269908Y-91778603D01*
X146283563Y-91761963D01*
X146300203Y-91748308D01*
X146319185Y-91738162D01*
X146339779Y-91731914D01*
X146367340Y-91729200D01*
X146825860Y-91729200D01*
X146853421Y-91731914D01*
X146853421Y-91731914D01*
G37*
G36*
X145561821Y-91741914D02*
X145582415Y-91748162D01*
X145601397Y-91758308D01*
X145618037Y-91771963D01*
X145631692Y-91788603D01*
X145641838Y-91807585D01*
X145648086Y-91828179D01*
X145650800Y-91855740D01*
X145650800Y-92314260D01*
X145648086Y-92341821D01*
X145641838Y-92362415D01*
X145631692Y-92381397D01*
X145618037Y-92398037D01*
X145601397Y-92411692D01*
X145582415Y-92421838D01*
X145561821Y-92428086D01*
X145534260Y-92430800D01*
X145025740Y-92430800D01*
X144998179Y-92428086D01*
X144977585Y-92421838D01*
X144958603Y-92411692D01*
X144941963Y-92398037D01*
X144928308Y-92381397D01*
X144918162Y-92362415D01*
X144911914Y-92341821D01*
X144909200Y-92314260D01*
X144909200Y-91855740D01*
X144911914Y-91828179D01*
X144918162Y-91807585D01*
X144928308Y-91788603D01*
X144941963Y-91771963D01*
X144958603Y-91758308D01*
X144977585Y-91748162D01*
X144998179Y-91741914D01*
X145025740Y-91739200D01*
X145534260Y-91739200D01*
X145561821Y-91741914D01*
X145561821Y-91741914D01*
G37*
G36*
X131406362Y-90543545D02*
X131494588Y-90552234D01*
X131557759Y-90571397D01*
X131664390Y-90603743D01*
X131802980Y-90677822D01*
X131820879Y-90687389D01*
X131856609Y-90716712D01*
X131958044Y-90799956D01*
X132025304Y-90881914D01*
X132070611Y-90937121D01*
X132070612Y-90937123D01*
X132154257Y-91093610D01*
X132154257Y-91093611D01*
X132205766Y-91263412D01*
X132223158Y-91440000D01*
X132205766Y-91616588D01*
X132204488Y-91620800D01*
X132154257Y-91786390D01*
X132104648Y-91879200D01*
X132070611Y-91942879D01*
X132059808Y-91956042D01*
X131958044Y-92080044D01*
X131856609Y-92163288D01*
X131820879Y-92192611D01*
X131820877Y-92192612D01*
X131664390Y-92276257D01*
X131613708Y-92291631D01*
X131494588Y-92327766D01*
X131406362Y-92336455D01*
X131362250Y-92340800D01*
X131273750Y-92340800D01*
X131229638Y-92336455D01*
X131141412Y-92327766D01*
X131022292Y-92291631D01*
X130971610Y-92276257D01*
X130815123Y-92192612D01*
X130815121Y-92192611D01*
X130779391Y-92163288D01*
X130677956Y-92080044D01*
X130576192Y-91956042D01*
X130565389Y-91942879D01*
X130531352Y-91879200D01*
X130481743Y-91786390D01*
X130431512Y-91620800D01*
X130430234Y-91616588D01*
X130412842Y-91440000D01*
X130430234Y-91263412D01*
X130481743Y-91093611D01*
X130481743Y-91093610D01*
X130565388Y-90937123D01*
X130565389Y-90937121D01*
X130610696Y-90881914D01*
X130677956Y-90799956D01*
X130779391Y-90716712D01*
X130815121Y-90687389D01*
X130833020Y-90677822D01*
X130971610Y-90603743D01*
X131078241Y-90571397D01*
X131141412Y-90552234D01*
X131229638Y-90543545D01*
X131273750Y-90539200D01*
X131362250Y-90539200D01*
X131406362Y-90543545D01*
X131406362Y-90543545D01*
G37*
G36*
X133946362Y-90543545D02*
X134034588Y-90552234D01*
X134097759Y-90571397D01*
X134204390Y-90603743D01*
X134342980Y-90677822D01*
X134360879Y-90687389D01*
X134396609Y-90716712D01*
X134498044Y-90799956D01*
X134565304Y-90881914D01*
X134610611Y-90937121D01*
X134610612Y-90937123D01*
X134694257Y-91093610D01*
X134694257Y-91093611D01*
X134745766Y-91263412D01*
X134763158Y-91440000D01*
X134745766Y-91616588D01*
X134744488Y-91620800D01*
X134694257Y-91786390D01*
X134644648Y-91879200D01*
X134610611Y-91942879D01*
X134599808Y-91956042D01*
X134498044Y-92080044D01*
X134396609Y-92163288D01*
X134360879Y-92192611D01*
X134360877Y-92192612D01*
X134204390Y-92276257D01*
X134153708Y-92291631D01*
X134034588Y-92327766D01*
X133946362Y-92336455D01*
X133902250Y-92340800D01*
X133813750Y-92340800D01*
X133769638Y-92336455D01*
X133681412Y-92327766D01*
X133562292Y-92291631D01*
X133511610Y-92276257D01*
X133355123Y-92192612D01*
X133355121Y-92192611D01*
X133319391Y-92163288D01*
X133217956Y-92080044D01*
X133116192Y-91956042D01*
X133105389Y-91942879D01*
X133071352Y-91879200D01*
X133021743Y-91786390D01*
X132971512Y-91620800D01*
X132970234Y-91616588D01*
X132952842Y-91440000D01*
X132970234Y-91263412D01*
X133021743Y-91093611D01*
X133021743Y-91093610D01*
X133105388Y-90937123D01*
X133105389Y-90937121D01*
X133150696Y-90881914D01*
X133217956Y-90799956D01*
X133319391Y-90716712D01*
X133355121Y-90687389D01*
X133373020Y-90677822D01*
X133511610Y-90603743D01*
X133618241Y-90571397D01*
X133681412Y-90552234D01*
X133769638Y-90543545D01*
X133813750Y-90539200D01*
X133902250Y-90539200D01*
X133946362Y-90543545D01*
X133946362Y-90543545D01*
G37*
G36*
X154350800Y-92035800D02*
X153489200Y-92035800D01*
X153489200Y-90534200D01*
X154350800Y-90534200D01*
X154350800Y-92035800D01*
X154350800Y-92035800D01*
G37*
G36*
X151810800Y-92035800D02*
X150949200Y-92035800D01*
X150949200Y-90534200D01*
X151810800Y-90534200D01*
X151810800Y-92035800D01*
X151810800Y-92035800D01*
G37*
G36*
X139271821Y-90881914D02*
X139292415Y-90888162D01*
X139311397Y-90898308D01*
X139328037Y-90911963D01*
X139341692Y-90928603D01*
X139351838Y-90947585D01*
X139358086Y-90968179D01*
X139360800Y-90995740D01*
X139360800Y-91504260D01*
X139358086Y-91531821D01*
X139351838Y-91552415D01*
X139341692Y-91571397D01*
X139328037Y-91588037D01*
X139311397Y-91601692D01*
X139292415Y-91611838D01*
X139271821Y-91618086D01*
X139244260Y-91620800D01*
X138785740Y-91620800D01*
X138758179Y-91618086D01*
X138737585Y-91611838D01*
X138718603Y-91601692D01*
X138701963Y-91588037D01*
X138688308Y-91571397D01*
X138678162Y-91552415D01*
X138671914Y-91531821D01*
X138669200Y-91504260D01*
X138669200Y-90995740D01*
X138671914Y-90968179D01*
X138678162Y-90947585D01*
X138688308Y-90928603D01*
X138701963Y-90911963D01*
X138718603Y-90898308D01*
X138737585Y-90888162D01*
X138758179Y-90881914D01*
X138785740Y-90879200D01*
X139244260Y-90879200D01*
X139271821Y-90881914D01*
X139271821Y-90881914D01*
G37*
G36*
X140241821Y-90881914D02*
X140262415Y-90888162D01*
X140281397Y-90898308D01*
X140298037Y-90911963D01*
X140311692Y-90928603D01*
X140321838Y-90947585D01*
X140328086Y-90968179D01*
X140330800Y-90995740D01*
X140330800Y-91504260D01*
X140328086Y-91531821D01*
X140321838Y-91552415D01*
X140311692Y-91571397D01*
X140298037Y-91588037D01*
X140281397Y-91601692D01*
X140262415Y-91611838D01*
X140241821Y-91618086D01*
X140214260Y-91620800D01*
X139755740Y-91620800D01*
X139728179Y-91618086D01*
X139707585Y-91611838D01*
X139688603Y-91601692D01*
X139671963Y-91588037D01*
X139658308Y-91571397D01*
X139648162Y-91552415D01*
X139641914Y-91531821D01*
X139639200Y-91504260D01*
X139639200Y-90995740D01*
X139641914Y-90968179D01*
X139648162Y-90947585D01*
X139658308Y-90928603D01*
X139671963Y-90911963D01*
X139688603Y-90898308D01*
X139707585Y-90888162D01*
X139728179Y-90881914D01*
X139755740Y-90879200D01*
X140214260Y-90879200D01*
X140241821Y-90881914D01*
X140241821Y-90881914D01*
G37*
G36*
X147846421Y-90731914D02*
X147867015Y-90738162D01*
X147885997Y-90748308D01*
X147902637Y-90761963D01*
X147916292Y-90778603D01*
X147926438Y-90797585D01*
X147932686Y-90818179D01*
X147935400Y-90845740D01*
X147935400Y-91354260D01*
X147932686Y-91381821D01*
X147926438Y-91402415D01*
X147916292Y-91421397D01*
X147902637Y-91438037D01*
X147885997Y-91451692D01*
X147867015Y-91461838D01*
X147846421Y-91468086D01*
X147818860Y-91470800D01*
X147360340Y-91470800D01*
X147332779Y-91468086D01*
X147312185Y-91461838D01*
X147293203Y-91451692D01*
X147276563Y-91438037D01*
X147262908Y-91421397D01*
X147252762Y-91402415D01*
X147246514Y-91381821D01*
X147243800Y-91354260D01*
X147243800Y-90845740D01*
X147246514Y-90818179D01*
X147252762Y-90797585D01*
X147262908Y-90778603D01*
X147276563Y-90761963D01*
X147293203Y-90748308D01*
X147312185Y-90738162D01*
X147332779Y-90731914D01*
X147360340Y-90729200D01*
X147818860Y-90729200D01*
X147846421Y-90731914D01*
X147846421Y-90731914D01*
G37*
G36*
X146876421Y-90731914D02*
X146897015Y-90738162D01*
X146915997Y-90748308D01*
X146932637Y-90761963D01*
X146946292Y-90778603D01*
X146956438Y-90797585D01*
X146962686Y-90818179D01*
X146965400Y-90845740D01*
X146965400Y-91354260D01*
X146962686Y-91381821D01*
X146956438Y-91402415D01*
X146946292Y-91421397D01*
X146932637Y-91438037D01*
X146915997Y-91451692D01*
X146897015Y-91461838D01*
X146876421Y-91468086D01*
X146848860Y-91470800D01*
X146390340Y-91470800D01*
X146362779Y-91468086D01*
X146342185Y-91461838D01*
X146323203Y-91451692D01*
X146306563Y-91438037D01*
X146292908Y-91421397D01*
X146282762Y-91402415D01*
X146276514Y-91381821D01*
X146273800Y-91354260D01*
X146273800Y-90845740D01*
X146276514Y-90818179D01*
X146282762Y-90797585D01*
X146292908Y-90778603D01*
X146306563Y-90761963D01*
X146323203Y-90748308D01*
X146342185Y-90738162D01*
X146362779Y-90731914D01*
X146390340Y-90729200D01*
X146848860Y-90729200D01*
X146876421Y-90731914D01*
X146876421Y-90731914D01*
G37*
G36*
X145561821Y-90771914D02*
X145582415Y-90778162D01*
X145601397Y-90788308D01*
X145618037Y-90801963D01*
X145631692Y-90818603D01*
X145641838Y-90837585D01*
X145648086Y-90858179D01*
X145650800Y-90885740D01*
X145650800Y-91344260D01*
X145648086Y-91371821D01*
X145641838Y-91392415D01*
X145631692Y-91411397D01*
X145618037Y-91428037D01*
X145601397Y-91441692D01*
X145582415Y-91451838D01*
X145561821Y-91458086D01*
X145534260Y-91460800D01*
X145025740Y-91460800D01*
X144998179Y-91458086D01*
X144977585Y-91451838D01*
X144958603Y-91441692D01*
X144941963Y-91428037D01*
X144928308Y-91411397D01*
X144918162Y-91392415D01*
X144911914Y-91371821D01*
X144909200Y-91344260D01*
X144909200Y-90885740D01*
X144911914Y-90858179D01*
X144918162Y-90837585D01*
X144928308Y-90818603D01*
X144941963Y-90801963D01*
X144958603Y-90788308D01*
X144977585Y-90778162D01*
X144998179Y-90771914D01*
X145025740Y-90769200D01*
X145534260Y-90769200D01*
X145561821Y-90771914D01*
X145561821Y-90771914D01*
G37*
G36*
X161860800Y-90855800D02*
X156679200Y-90855800D01*
X156679200Y-88464200D01*
X161860800Y-88464200D01*
X161860800Y-90855800D01*
X161860800Y-90855800D01*
G37*
G36*
X139241821Y-89881914D02*
X139262415Y-89888162D01*
X139281397Y-89898308D01*
X139298037Y-89911963D01*
X139311692Y-89928603D01*
X139321838Y-89947585D01*
X139328086Y-89968179D01*
X139330800Y-89995740D01*
X139330800Y-90504260D01*
X139328086Y-90531821D01*
X139321838Y-90552415D01*
X139311692Y-90571397D01*
X139298037Y-90588037D01*
X139281397Y-90601692D01*
X139262415Y-90611838D01*
X139241821Y-90618086D01*
X139214260Y-90620800D01*
X138755740Y-90620800D01*
X138728179Y-90618086D01*
X138707585Y-90611838D01*
X138688603Y-90601692D01*
X138671963Y-90588037D01*
X138658308Y-90571397D01*
X138648162Y-90552415D01*
X138641914Y-90531821D01*
X138639200Y-90504260D01*
X138639200Y-89995740D01*
X138641914Y-89968179D01*
X138648162Y-89947585D01*
X138658308Y-89928603D01*
X138671963Y-89911963D01*
X138688603Y-89898308D01*
X138707585Y-89888162D01*
X138728179Y-89881914D01*
X138755740Y-89879200D01*
X139214260Y-89879200D01*
X139241821Y-89881914D01*
X139241821Y-89881914D01*
G37*
G36*
X138271821Y-89881914D02*
X138292415Y-89888162D01*
X138311397Y-89898308D01*
X138328037Y-89911963D01*
X138341692Y-89928603D01*
X138351838Y-89947585D01*
X138358086Y-89968179D01*
X138360800Y-89995740D01*
X138360800Y-90504260D01*
X138358086Y-90531821D01*
X138351838Y-90552415D01*
X138341692Y-90571397D01*
X138328037Y-90588037D01*
X138311397Y-90601692D01*
X138292415Y-90611838D01*
X138271821Y-90618086D01*
X138244260Y-90620800D01*
X137785740Y-90620800D01*
X137758179Y-90618086D01*
X137737585Y-90611838D01*
X137718603Y-90601692D01*
X137701963Y-90588037D01*
X137688308Y-90571397D01*
X137678162Y-90552415D01*
X137671914Y-90531821D01*
X137669200Y-90504260D01*
X137669200Y-89995740D01*
X137671914Y-89968179D01*
X137678162Y-89947585D01*
X137688308Y-89928603D01*
X137701963Y-89911963D01*
X137718603Y-89898308D01*
X137737585Y-89888162D01*
X137758179Y-89881914D01*
X137785740Y-89879200D01*
X138244260Y-89879200D01*
X138271821Y-89881914D01*
X138271821Y-89881914D01*
G37*
G36*
X131406362Y-88003545D02*
X131494588Y-88012234D01*
X131607789Y-88046573D01*
X131664390Y-88063743D01*
X131802980Y-88137822D01*
X131820879Y-88147389D01*
X131856609Y-88176712D01*
X131958044Y-88259956D01*
X132041288Y-88361391D01*
X132070611Y-88397121D01*
X132070612Y-88397123D01*
X132154257Y-88553610D01*
X132168842Y-88601692D01*
X132205766Y-88723412D01*
X132223158Y-88900000D01*
X132205766Y-89076588D01*
X132171427Y-89189789D01*
X132154257Y-89246390D01*
X132080178Y-89384980D01*
X132070611Y-89402879D01*
X132041288Y-89438609D01*
X131958044Y-89540044D01*
X131870561Y-89611838D01*
X131820879Y-89652611D01*
X131820877Y-89652612D01*
X131664390Y-89736257D01*
X131607789Y-89753427D01*
X131494588Y-89787766D01*
X131406362Y-89796455D01*
X131362250Y-89800800D01*
X131273750Y-89800800D01*
X131229638Y-89796455D01*
X131141412Y-89787766D01*
X131028211Y-89753427D01*
X130971610Y-89736257D01*
X130815123Y-89652612D01*
X130815121Y-89652611D01*
X130765439Y-89611838D01*
X130677956Y-89540044D01*
X130594712Y-89438609D01*
X130565389Y-89402879D01*
X130555822Y-89384980D01*
X130481743Y-89246390D01*
X130464573Y-89189789D01*
X130430234Y-89076588D01*
X130412842Y-88900000D01*
X130430234Y-88723412D01*
X130467158Y-88601692D01*
X130481743Y-88553610D01*
X130565388Y-88397123D01*
X130565389Y-88397121D01*
X130594712Y-88361391D01*
X130677956Y-88259956D01*
X130779391Y-88176712D01*
X130815121Y-88147389D01*
X130833020Y-88137822D01*
X130971610Y-88063743D01*
X131028211Y-88046573D01*
X131141412Y-88012234D01*
X131229638Y-88003545D01*
X131273750Y-87999200D01*
X131362250Y-87999200D01*
X131406362Y-88003545D01*
X131406362Y-88003545D01*
G37*
G36*
X133946362Y-88003545D02*
X134034588Y-88012234D01*
X134147789Y-88046573D01*
X134204390Y-88063743D01*
X134342980Y-88137822D01*
X134360879Y-88147389D01*
X134396609Y-88176712D01*
X134498044Y-88259956D01*
X134581288Y-88361391D01*
X134610611Y-88397121D01*
X134610612Y-88397123D01*
X134694257Y-88553610D01*
X134708842Y-88601692D01*
X134745766Y-88723412D01*
X134763158Y-88900000D01*
X134745766Y-89076588D01*
X134711427Y-89189789D01*
X134694257Y-89246390D01*
X134620178Y-89384980D01*
X134610611Y-89402879D01*
X134581288Y-89438609D01*
X134498044Y-89540044D01*
X134410561Y-89611838D01*
X134360879Y-89652611D01*
X134360877Y-89652612D01*
X134204390Y-89736257D01*
X134147789Y-89753427D01*
X134034588Y-89787766D01*
X133946362Y-89796455D01*
X133902250Y-89800800D01*
X133813750Y-89800800D01*
X133769638Y-89796455D01*
X133681412Y-89787766D01*
X133568211Y-89753427D01*
X133511610Y-89736257D01*
X133355123Y-89652612D01*
X133355121Y-89652611D01*
X133305439Y-89611838D01*
X133217956Y-89540044D01*
X133134712Y-89438609D01*
X133105389Y-89402879D01*
X133095822Y-89384980D01*
X133021743Y-89246390D01*
X133004573Y-89189789D01*
X132970234Y-89076588D01*
X132952842Y-88900000D01*
X132970234Y-88723412D01*
X133007158Y-88601692D01*
X133021743Y-88553610D01*
X133105388Y-88397123D01*
X133105389Y-88397121D01*
X133134712Y-88361391D01*
X133217956Y-88259956D01*
X133319391Y-88176712D01*
X133355121Y-88147389D01*
X133373020Y-88137822D01*
X133511610Y-88063743D01*
X133568211Y-88046573D01*
X133681412Y-88012234D01*
X133769638Y-88003545D01*
X133813750Y-87999200D01*
X133902250Y-87999200D01*
X133946362Y-88003545D01*
X133946362Y-88003545D01*
G37*
G36*
X140241821Y-88881914D02*
X140262415Y-88888162D01*
X140281397Y-88898308D01*
X140298037Y-88911963D01*
X140311692Y-88928603D01*
X140321838Y-88947585D01*
X140328086Y-88968179D01*
X140330800Y-88995740D01*
X140330800Y-89504260D01*
X140328086Y-89531821D01*
X140321838Y-89552415D01*
X140311692Y-89571397D01*
X140298037Y-89588037D01*
X140281397Y-89601692D01*
X140262415Y-89611838D01*
X140241821Y-89618086D01*
X140214260Y-89620800D01*
X139755740Y-89620800D01*
X139728179Y-89618086D01*
X139707585Y-89611838D01*
X139688603Y-89601692D01*
X139671963Y-89588037D01*
X139658308Y-89571397D01*
X139648162Y-89552415D01*
X139641914Y-89531821D01*
X139639200Y-89504260D01*
X139639200Y-88995740D01*
X139641914Y-88968179D01*
X139648162Y-88947585D01*
X139658308Y-88928603D01*
X139671963Y-88911963D01*
X139688603Y-88898308D01*
X139707585Y-88888162D01*
X139728179Y-88881914D01*
X139755740Y-88879200D01*
X140214260Y-88879200D01*
X140241821Y-88881914D01*
X140241821Y-88881914D01*
G37*
G36*
X139271821Y-88881914D02*
X139292415Y-88888162D01*
X139311397Y-88898308D01*
X139328037Y-88911963D01*
X139341692Y-88928603D01*
X139351838Y-88947585D01*
X139358086Y-88968179D01*
X139360800Y-88995740D01*
X139360800Y-89504260D01*
X139358086Y-89531821D01*
X139351838Y-89552415D01*
X139341692Y-89571397D01*
X139328037Y-89588037D01*
X139311397Y-89601692D01*
X139292415Y-89611838D01*
X139271821Y-89618086D01*
X139244260Y-89620800D01*
X138785740Y-89620800D01*
X138758179Y-89618086D01*
X138737585Y-89611838D01*
X138718603Y-89601692D01*
X138701963Y-89588037D01*
X138688308Y-89571397D01*
X138678162Y-89552415D01*
X138671914Y-89531821D01*
X138669200Y-89504260D01*
X138669200Y-88995740D01*
X138671914Y-88968179D01*
X138678162Y-88947585D01*
X138688308Y-88928603D01*
X138701963Y-88911963D01*
X138718603Y-88898308D01*
X138737585Y-88888162D01*
X138758179Y-88881914D01*
X138785740Y-88879200D01*
X139244260Y-88879200D01*
X139271821Y-88881914D01*
X139271821Y-88881914D01*
G37*
G36*
X147920800Y-88900800D02*
X146119200Y-88900800D01*
X146119200Y-87299200D01*
X147920800Y-87299200D01*
X147920800Y-88900800D01*
X147920800Y-88900800D01*
G37*
G36*
X145380800Y-88900800D02*
X143579200Y-88900800D01*
X143579200Y-87299200D01*
X145380800Y-87299200D01*
X145380800Y-88900800D01*
X145380800Y-88900800D01*
G37*
G36*
X139241821Y-87881914D02*
X139262415Y-87888162D01*
X139281397Y-87898308D01*
X139298037Y-87911963D01*
X139311692Y-87928603D01*
X139321838Y-87947585D01*
X139328086Y-87968179D01*
X139330800Y-87995740D01*
X139330800Y-88504260D01*
X139328086Y-88531821D01*
X139321838Y-88552415D01*
X139311692Y-88571397D01*
X139298037Y-88588037D01*
X139281397Y-88601692D01*
X139262415Y-88611838D01*
X139241821Y-88618086D01*
X139214260Y-88620800D01*
X138755740Y-88620800D01*
X138728179Y-88618086D01*
X138707585Y-88611838D01*
X138688603Y-88601692D01*
X138671963Y-88588037D01*
X138658308Y-88571397D01*
X138648162Y-88552415D01*
X138641914Y-88531821D01*
X138639200Y-88504260D01*
X138639200Y-87995740D01*
X138641914Y-87968179D01*
X138648162Y-87947585D01*
X138658308Y-87928603D01*
X138671963Y-87911963D01*
X138688603Y-87898308D01*
X138707585Y-87888162D01*
X138728179Y-87881914D01*
X138755740Y-87879200D01*
X139214260Y-87879200D01*
X139241821Y-87881914D01*
X139241821Y-87881914D01*
G37*
G36*
X138271821Y-87881914D02*
X138292415Y-87888162D01*
X138311397Y-87898308D01*
X138328037Y-87911963D01*
X138341692Y-87928603D01*
X138351838Y-87947585D01*
X138358086Y-87968179D01*
X138360800Y-87995740D01*
X138360800Y-88504260D01*
X138358086Y-88531821D01*
X138351838Y-88552415D01*
X138341692Y-88571397D01*
X138328037Y-88588037D01*
X138311397Y-88601692D01*
X138292415Y-88611838D01*
X138271821Y-88618086D01*
X138244260Y-88620800D01*
X137785740Y-88620800D01*
X137758179Y-88618086D01*
X137737585Y-88611838D01*
X137718603Y-88601692D01*
X137701963Y-88588037D01*
X137688308Y-88571397D01*
X137678162Y-88552415D01*
X137671914Y-88531821D01*
X137669200Y-88504260D01*
X137669200Y-87995740D01*
X137671914Y-87968179D01*
X137678162Y-87947585D01*
X137688308Y-87928603D01*
X137701963Y-87911963D01*
X137718603Y-87898308D01*
X137737585Y-87888162D01*
X137758179Y-87881914D01*
X137785740Y-87879200D01*
X138244260Y-87879200D01*
X138271821Y-87881914D01*
X138271821Y-87881914D01*
G37*
G36*
X140241821Y-86881914D02*
X140262415Y-86888162D01*
X140281397Y-86898308D01*
X140298037Y-86911963D01*
X140311692Y-86928603D01*
X140321838Y-86947585D01*
X140328086Y-86968179D01*
X140330800Y-86995740D01*
X140330800Y-87504260D01*
X140328086Y-87531821D01*
X140321838Y-87552415D01*
X140311692Y-87571397D01*
X140298037Y-87588037D01*
X140281397Y-87601692D01*
X140262415Y-87611838D01*
X140241821Y-87618086D01*
X140214260Y-87620800D01*
X139755740Y-87620800D01*
X139728179Y-87618086D01*
X139707585Y-87611838D01*
X139688603Y-87601692D01*
X139671963Y-87588037D01*
X139658308Y-87571397D01*
X139648162Y-87552415D01*
X139641914Y-87531821D01*
X139639200Y-87504260D01*
X139639200Y-86995740D01*
X139641914Y-86968179D01*
X139648162Y-86947585D01*
X139658308Y-86928603D01*
X139671963Y-86911963D01*
X139688603Y-86898308D01*
X139707585Y-86888162D01*
X139728179Y-86881914D01*
X139755740Y-86879200D01*
X140214260Y-86879200D01*
X140241821Y-86881914D01*
X140241821Y-86881914D01*
G37*
G36*
X139271821Y-86881914D02*
X139292415Y-86888162D01*
X139311397Y-86898308D01*
X139328037Y-86911963D01*
X139341692Y-86928603D01*
X139351838Y-86947585D01*
X139358086Y-86968179D01*
X139360800Y-86995740D01*
X139360800Y-87504260D01*
X139358086Y-87531821D01*
X139351838Y-87552415D01*
X139341692Y-87571397D01*
X139328037Y-87588037D01*
X139311397Y-87601692D01*
X139292415Y-87611838D01*
X139271821Y-87618086D01*
X139244260Y-87620800D01*
X138785740Y-87620800D01*
X138758179Y-87618086D01*
X138737585Y-87611838D01*
X138718603Y-87601692D01*
X138701963Y-87588037D01*
X138688308Y-87571397D01*
X138678162Y-87552415D01*
X138671914Y-87531821D01*
X138669200Y-87504260D01*
X138669200Y-86995740D01*
X138671914Y-86968179D01*
X138678162Y-86947585D01*
X138688308Y-86928603D01*
X138701963Y-86911963D01*
X138718603Y-86898308D01*
X138737585Y-86888162D01*
X138758179Y-86881914D01*
X138785740Y-86879200D01*
X139244260Y-86879200D01*
X139271821Y-86881914D01*
X139271821Y-86881914D01*
G37*
G36*
X131406362Y-85463545D02*
X131494588Y-85472234D01*
X131600163Y-85504260D01*
X131664390Y-85523743D01*
X131751227Y-85570159D01*
X131820879Y-85607389D01*
X131833172Y-85617478D01*
X131958044Y-85719956D01*
X132041288Y-85821391D01*
X132070611Y-85857121D01*
X132070612Y-85857123D01*
X132154257Y-86013610D01*
X132165933Y-86052100D01*
X132205766Y-86183412D01*
X132223158Y-86360000D01*
X132205766Y-86536588D01*
X132180220Y-86620800D01*
X132154257Y-86706390D01*
X132080178Y-86844980D01*
X132070611Y-86862879D01*
X132054989Y-86881914D01*
X131958044Y-87000044D01*
X131894612Y-87052100D01*
X131820879Y-87112611D01*
X131820877Y-87112612D01*
X131664390Y-87196257D01*
X131607789Y-87213427D01*
X131494588Y-87247766D01*
X131406362Y-87256455D01*
X131362250Y-87260800D01*
X131273750Y-87260800D01*
X131229638Y-87256455D01*
X131141412Y-87247766D01*
X131028211Y-87213427D01*
X130971610Y-87196257D01*
X130815123Y-87112612D01*
X130815121Y-87112611D01*
X130741388Y-87052100D01*
X130677956Y-87000044D01*
X130581011Y-86881914D01*
X130565389Y-86862879D01*
X130555822Y-86844980D01*
X130481743Y-86706390D01*
X130455780Y-86620800D01*
X130430234Y-86536588D01*
X130412842Y-86360000D01*
X130430234Y-86183412D01*
X130470067Y-86052100D01*
X130481743Y-86013610D01*
X130565388Y-85857123D01*
X130565389Y-85857121D01*
X130594712Y-85821391D01*
X130677956Y-85719956D01*
X130802828Y-85617478D01*
X130815121Y-85607389D01*
X130884773Y-85570159D01*
X130971610Y-85523743D01*
X131035837Y-85504260D01*
X131141412Y-85472234D01*
X131229638Y-85463545D01*
X131273750Y-85459200D01*
X131362250Y-85459200D01*
X131406362Y-85463545D01*
X131406362Y-85463545D01*
G37*
G36*
X133946362Y-85463545D02*
X134034588Y-85472234D01*
X134140163Y-85504260D01*
X134204390Y-85523743D01*
X134291227Y-85570159D01*
X134360879Y-85607389D01*
X134373172Y-85617478D01*
X134498044Y-85719956D01*
X134581288Y-85821391D01*
X134610611Y-85857121D01*
X134610612Y-85857123D01*
X134694257Y-86013610D01*
X134705933Y-86052100D01*
X134745766Y-86183412D01*
X134763158Y-86360000D01*
X134745766Y-86536588D01*
X134720220Y-86620800D01*
X134694257Y-86706390D01*
X134620178Y-86844980D01*
X134610611Y-86862879D01*
X134594989Y-86881914D01*
X134498044Y-87000044D01*
X134434612Y-87052100D01*
X134360879Y-87112611D01*
X134360877Y-87112612D01*
X134204390Y-87196257D01*
X134147789Y-87213427D01*
X134034588Y-87247766D01*
X133946362Y-87256455D01*
X133902250Y-87260800D01*
X133813750Y-87260800D01*
X133769638Y-87256455D01*
X133681412Y-87247766D01*
X133568211Y-87213427D01*
X133511610Y-87196257D01*
X133355123Y-87112612D01*
X133355121Y-87112611D01*
X133281388Y-87052100D01*
X133217956Y-87000044D01*
X133121011Y-86881914D01*
X133105389Y-86862879D01*
X133095822Y-86844980D01*
X133021743Y-86706390D01*
X132995780Y-86620800D01*
X132970234Y-86536588D01*
X132952842Y-86360000D01*
X132970234Y-86183412D01*
X133010067Y-86052100D01*
X133021743Y-86013610D01*
X133105388Y-85857123D01*
X133105389Y-85857121D01*
X133134712Y-85821391D01*
X133217956Y-85719956D01*
X133342828Y-85617478D01*
X133355121Y-85607389D01*
X133424773Y-85570159D01*
X133511610Y-85523743D01*
X133575837Y-85504260D01*
X133681412Y-85472234D01*
X133769638Y-85463545D01*
X133813750Y-85459200D01*
X133902250Y-85459200D01*
X133946362Y-85463545D01*
X133946362Y-85463545D01*
G37*
G36*
X147920800Y-86700800D02*
X146119200Y-86700800D01*
X146119200Y-85099200D01*
X147920800Y-85099200D01*
X147920800Y-86700800D01*
X147920800Y-86700800D01*
G37*
G36*
X145380800Y-86700800D02*
X143579200Y-86700800D01*
X143579200Y-85099200D01*
X145380800Y-85099200D01*
X145380800Y-86700800D01*
X145380800Y-86700800D01*
G37*
G36*
X139241821Y-85881914D02*
X139262415Y-85888162D01*
X139281397Y-85898308D01*
X139298037Y-85911963D01*
X139311692Y-85928603D01*
X139321838Y-85947585D01*
X139328086Y-85968179D01*
X139330800Y-85995740D01*
X139330800Y-86504260D01*
X139328086Y-86531821D01*
X139321838Y-86552415D01*
X139311692Y-86571397D01*
X139298037Y-86588037D01*
X139281397Y-86601692D01*
X139262415Y-86611838D01*
X139241821Y-86618086D01*
X139214260Y-86620800D01*
X138755740Y-86620800D01*
X138728179Y-86618086D01*
X138707585Y-86611838D01*
X138688603Y-86601692D01*
X138671963Y-86588037D01*
X138658308Y-86571397D01*
X138648162Y-86552415D01*
X138641914Y-86531821D01*
X138639200Y-86504260D01*
X138639200Y-85995740D01*
X138641914Y-85968179D01*
X138648162Y-85947585D01*
X138658308Y-85928603D01*
X138671963Y-85911963D01*
X138688603Y-85898308D01*
X138707585Y-85888162D01*
X138728179Y-85881914D01*
X138755740Y-85879200D01*
X139214260Y-85879200D01*
X139241821Y-85881914D01*
X139241821Y-85881914D01*
G37*
G36*
X138271821Y-85881914D02*
X138292415Y-85888162D01*
X138311397Y-85898308D01*
X138328037Y-85911963D01*
X138341692Y-85928603D01*
X138351838Y-85947585D01*
X138358086Y-85968179D01*
X138360800Y-85995740D01*
X138360800Y-86504260D01*
X138358086Y-86531821D01*
X138351838Y-86552415D01*
X138341692Y-86571397D01*
X138328037Y-86588037D01*
X138311397Y-86601692D01*
X138292415Y-86611838D01*
X138271821Y-86618086D01*
X138244260Y-86620800D01*
X137785740Y-86620800D01*
X137758179Y-86618086D01*
X137737585Y-86611838D01*
X137718603Y-86601692D01*
X137701963Y-86588037D01*
X137688308Y-86571397D01*
X137678162Y-86552415D01*
X137671914Y-86531821D01*
X137669200Y-86504260D01*
X137669200Y-85995740D01*
X137671914Y-85968179D01*
X137678162Y-85947585D01*
X137688308Y-85928603D01*
X137701963Y-85911963D01*
X137718603Y-85898308D01*
X137737585Y-85888162D01*
X137758179Y-85881914D01*
X137785740Y-85879200D01*
X138244260Y-85879200D01*
X138271821Y-85881914D01*
X138271821Y-85881914D01*
G37*
G36*
X161860800Y-86540800D02*
X156679200Y-86540800D01*
X156679200Y-84019200D01*
X161860800Y-84019200D01*
X161860800Y-86540800D01*
X161860800Y-86540800D01*
G37*
G36*
X139271821Y-84881914D02*
X139292415Y-84888162D01*
X139311397Y-84898308D01*
X139328037Y-84911963D01*
X139341692Y-84928603D01*
X139351838Y-84947585D01*
X139358086Y-84968179D01*
X139360800Y-84995740D01*
X139360800Y-85504260D01*
X139358086Y-85531821D01*
X139351838Y-85552415D01*
X139341692Y-85571397D01*
X139328037Y-85588037D01*
X139311397Y-85601692D01*
X139292415Y-85611838D01*
X139271821Y-85618086D01*
X139244260Y-85620800D01*
X138785740Y-85620800D01*
X138758179Y-85618086D01*
X138737585Y-85611838D01*
X138718603Y-85601692D01*
X138701963Y-85588037D01*
X138688308Y-85571397D01*
X138678162Y-85552415D01*
X138671914Y-85531821D01*
X138669200Y-85504260D01*
X138669200Y-84995740D01*
X138671914Y-84968179D01*
X138678162Y-84947585D01*
X138688308Y-84928603D01*
X138701963Y-84911963D01*
X138718603Y-84898308D01*
X138737585Y-84888162D01*
X138758179Y-84881914D01*
X138785740Y-84879200D01*
X139244260Y-84879200D01*
X139271821Y-84881914D01*
X139271821Y-84881914D01*
G37*
G36*
X140241821Y-84881914D02*
X140262415Y-84888162D01*
X140281397Y-84898308D01*
X140298037Y-84911963D01*
X140311692Y-84928603D01*
X140321838Y-84947585D01*
X140328086Y-84968179D01*
X140330800Y-84995740D01*
X140330800Y-85504260D01*
X140328086Y-85531821D01*
X140321838Y-85552415D01*
X140311692Y-85571397D01*
X140298037Y-85588037D01*
X140281397Y-85601692D01*
X140262415Y-85611838D01*
X140241821Y-85618086D01*
X140214260Y-85620800D01*
X139755740Y-85620800D01*
X139728179Y-85618086D01*
X139707585Y-85611838D01*
X139688603Y-85601692D01*
X139671963Y-85588037D01*
X139658308Y-85571397D01*
X139648162Y-85552415D01*
X139641914Y-85531821D01*
X139639200Y-85504260D01*
X139639200Y-84995740D01*
X139641914Y-84968179D01*
X139648162Y-84947585D01*
X139658308Y-84928603D01*
X139671963Y-84911963D01*
X139688603Y-84898308D01*
X139707585Y-84888162D01*
X139728179Y-84881914D01*
X139755740Y-84879200D01*
X140214260Y-84879200D01*
X140241821Y-84881914D01*
X140241821Y-84881914D01*
G37*
G36*
X132218800Y-84720800D02*
X130417200Y-84720800D01*
X130417200Y-82919200D01*
X132218800Y-82919200D01*
X132218800Y-84720800D01*
X132218800Y-84720800D01*
G37*
G36*
X133946362Y-82923545D02*
X134034588Y-82932234D01*
X134147789Y-82966573D01*
X134204390Y-82983743D01*
X134342980Y-83057822D01*
X134360879Y-83067389D01*
X134369178Y-83074200D01*
X134498044Y-83179956D01*
X134580752Y-83280738D01*
X134610611Y-83317121D01*
X134610612Y-83317123D01*
X134694257Y-83473610D01*
X134694257Y-83473611D01*
X134745766Y-83643412D01*
X134763158Y-83820000D01*
X134745766Y-83996588D01*
X134720010Y-84081493D01*
X134694257Y-84166390D01*
X134620178Y-84304980D01*
X134610611Y-84322879D01*
X134581288Y-84358609D01*
X134498044Y-84460044D01*
X134396609Y-84543288D01*
X134360879Y-84572611D01*
X134360877Y-84572612D01*
X134204390Y-84656257D01*
X134147789Y-84673427D01*
X134034588Y-84707766D01*
X133946362Y-84716455D01*
X133902250Y-84720800D01*
X133813750Y-84720800D01*
X133769638Y-84716455D01*
X133681412Y-84707766D01*
X133568211Y-84673427D01*
X133511610Y-84656257D01*
X133355123Y-84572612D01*
X133355121Y-84572611D01*
X133319391Y-84543288D01*
X133217956Y-84460044D01*
X133134712Y-84358609D01*
X133105389Y-84322879D01*
X133095822Y-84304980D01*
X133021743Y-84166390D01*
X132995990Y-84081493D01*
X132970234Y-83996588D01*
X132952842Y-83820000D01*
X132970234Y-83643412D01*
X133021743Y-83473611D01*
X133021743Y-83473610D01*
X133105388Y-83317123D01*
X133105389Y-83317121D01*
X133135248Y-83280738D01*
X133217956Y-83179956D01*
X133346822Y-83074200D01*
X133355121Y-83067389D01*
X133373020Y-83057822D01*
X133511610Y-82983743D01*
X133568211Y-82966573D01*
X133681412Y-82932234D01*
X133769638Y-82923545D01*
X133813750Y-82919200D01*
X133902250Y-82919200D01*
X133946362Y-82923545D01*
X133946362Y-82923545D01*
G37*
G36*
X147039377Y-83078643D02*
X147076855Y-83090013D01*
X147111404Y-83108479D01*
X147141677Y-83133323D01*
X147166521Y-83163596D01*
X147184987Y-83198145D01*
X147196357Y-83235623D01*
X147200800Y-83280738D01*
X147200800Y-83919262D01*
X147196357Y-83964377D01*
X147184987Y-84001855D01*
X147166521Y-84036404D01*
X147141677Y-84066677D01*
X147111404Y-84091521D01*
X147076855Y-84109987D01*
X147039377Y-84121357D01*
X146994262Y-84125800D01*
X146255738Y-84125800D01*
X146210623Y-84121357D01*
X146173145Y-84109987D01*
X146138596Y-84091521D01*
X146108323Y-84066677D01*
X146083479Y-84036404D01*
X146065013Y-84001855D01*
X146053643Y-83964377D01*
X146049200Y-83919262D01*
X146049200Y-83280738D01*
X146053643Y-83235623D01*
X146065013Y-83198145D01*
X146083479Y-83163596D01*
X146108323Y-83133323D01*
X146138596Y-83108479D01*
X146173145Y-83090013D01*
X146210623Y-83078643D01*
X146255738Y-83074200D01*
X146994262Y-83074200D01*
X147039377Y-83078643D01*
X147039377Y-83078643D01*
G37*
G36*
X145289377Y-83078643D02*
X145326855Y-83090013D01*
X145361404Y-83108479D01*
X145391677Y-83133323D01*
X145416521Y-83163596D01*
X145434987Y-83198145D01*
X145446357Y-83235623D01*
X145450800Y-83280738D01*
X145450800Y-83919262D01*
X145446357Y-83964377D01*
X145434987Y-84001855D01*
X145416521Y-84036404D01*
X145391677Y-84066677D01*
X145361404Y-84091521D01*
X145326855Y-84109987D01*
X145289377Y-84121357D01*
X145244262Y-84125800D01*
X144505738Y-84125800D01*
X144460623Y-84121357D01*
X144423145Y-84109987D01*
X144388596Y-84091521D01*
X144358323Y-84066677D01*
X144333479Y-84036404D01*
X144315013Y-84001855D01*
X144303643Y-83964377D01*
X144299200Y-83919262D01*
X144299200Y-83280738D01*
X144303643Y-83235623D01*
X144315013Y-83198145D01*
X144333479Y-83163596D01*
X144358323Y-83133323D01*
X144388596Y-83108479D01*
X144423145Y-83090013D01*
X144460623Y-83078643D01*
X144505738Y-83074200D01*
X145244262Y-83074200D01*
X145289377Y-83078643D01*
X145289377Y-83078643D01*
G37*
M02*
