G04 #@! TF.GenerationSoftware,KiCad,Pcbnew,(5.0.1-3-g963ef8bb5)*
G04 #@! TF.CreationDate,2018-11-21T19:49:20+01:00*
G04 #@! TF.ProjectId,DAC_ISL5857,4441435F49534C353835372E6B696361,A*
G04 #@! TF.SameCoordinates,Original*
G04 #@! TF.FileFunction,Soldermask,Bot*
G04 #@! TF.FilePolarity,Negative*
%FSLAX46Y46*%
G04 Gerber Fmt 4.6, Leading zero omitted, Abs format (unit mm)*
G04 Created by KiCad (PCBNEW (5.0.1-3-g963ef8bb5)) date Wednesday, 21 November 2018 at 19:49:20*
%MOMM*%
%LPD*%
G01*
G04 APERTURE LIST*
%ADD10C,0.100000*%
G04 APERTURE END LIST*
D10*
G36*
X142455362Y-118483545D02*
X142543588Y-118492234D01*
X142656789Y-118526573D01*
X142713390Y-118543743D01*
X142851980Y-118617822D01*
X142869879Y-118627389D01*
X142905609Y-118656712D01*
X143007044Y-118739956D01*
X143090288Y-118841391D01*
X143119611Y-118877121D01*
X143119612Y-118877123D01*
X143203257Y-119033610D01*
X143203257Y-119033611D01*
X143254766Y-119203412D01*
X143272158Y-119380000D01*
X143254766Y-119556588D01*
X143220427Y-119669789D01*
X143203257Y-119726390D01*
X143129178Y-119864980D01*
X143119611Y-119882879D01*
X143090288Y-119918609D01*
X143007044Y-120020044D01*
X142905609Y-120103288D01*
X142869879Y-120132611D01*
X142869877Y-120132612D01*
X142713390Y-120216257D01*
X142656789Y-120233427D01*
X142543588Y-120267766D01*
X142455362Y-120276455D01*
X142411250Y-120280800D01*
X142322750Y-120280800D01*
X142278638Y-120276455D01*
X142190412Y-120267766D01*
X142077211Y-120233427D01*
X142020610Y-120216257D01*
X141864123Y-120132612D01*
X141864121Y-120132611D01*
X141828391Y-120103288D01*
X141726956Y-120020044D01*
X141643712Y-119918609D01*
X141614389Y-119882879D01*
X141604822Y-119864980D01*
X141530743Y-119726390D01*
X141513573Y-119669789D01*
X141479234Y-119556588D01*
X141461842Y-119380000D01*
X141479234Y-119203412D01*
X141530743Y-119033611D01*
X141530743Y-119033610D01*
X141614388Y-118877123D01*
X141614389Y-118877121D01*
X141643712Y-118841391D01*
X141726956Y-118739956D01*
X141828391Y-118656712D01*
X141864121Y-118627389D01*
X141882020Y-118617822D01*
X142020610Y-118543743D01*
X142077211Y-118526573D01*
X142190412Y-118492234D01*
X142278638Y-118483545D01*
X142322750Y-118479200D01*
X142411250Y-118479200D01*
X142455362Y-118483545D01*
X142455362Y-118483545D01*
G37*
G36*
X139915362Y-118483545D02*
X140003588Y-118492234D01*
X140116789Y-118526573D01*
X140173390Y-118543743D01*
X140311980Y-118617822D01*
X140329879Y-118627389D01*
X140365609Y-118656712D01*
X140467044Y-118739956D01*
X140550288Y-118841391D01*
X140579611Y-118877121D01*
X140579612Y-118877123D01*
X140663257Y-119033610D01*
X140663257Y-119033611D01*
X140714766Y-119203412D01*
X140732158Y-119380000D01*
X140714766Y-119556588D01*
X140680427Y-119669789D01*
X140663257Y-119726390D01*
X140589178Y-119864980D01*
X140579611Y-119882879D01*
X140550288Y-119918609D01*
X140467044Y-120020044D01*
X140365609Y-120103288D01*
X140329879Y-120132611D01*
X140329877Y-120132612D01*
X140173390Y-120216257D01*
X140116789Y-120233427D01*
X140003588Y-120267766D01*
X139915362Y-120276455D01*
X139871250Y-120280800D01*
X139782750Y-120280800D01*
X139738638Y-120276455D01*
X139650412Y-120267766D01*
X139537211Y-120233427D01*
X139480610Y-120216257D01*
X139324123Y-120132612D01*
X139324121Y-120132611D01*
X139288391Y-120103288D01*
X139186956Y-120020044D01*
X139103712Y-119918609D01*
X139074389Y-119882879D01*
X139064822Y-119864980D01*
X138990743Y-119726390D01*
X138973573Y-119669789D01*
X138939234Y-119556588D01*
X138921842Y-119380000D01*
X138939234Y-119203412D01*
X138990743Y-119033611D01*
X138990743Y-119033610D01*
X139074388Y-118877123D01*
X139074389Y-118877121D01*
X139103712Y-118841391D01*
X139186956Y-118739956D01*
X139288391Y-118656712D01*
X139324121Y-118627389D01*
X139342020Y-118617822D01*
X139480610Y-118543743D01*
X139537211Y-118526573D01*
X139650412Y-118492234D01*
X139738638Y-118483545D01*
X139782750Y-118479200D01*
X139871250Y-118479200D01*
X139915362Y-118483545D01*
X139915362Y-118483545D01*
G37*
G36*
X138187800Y-120280800D02*
X136386200Y-120280800D01*
X136386200Y-118479200D01*
X138187800Y-118479200D01*
X138187800Y-120280800D01*
X138187800Y-120280800D01*
G37*
G36*
X133946362Y-118483545D02*
X134034588Y-118492234D01*
X134147789Y-118526573D01*
X134204390Y-118543743D01*
X134342980Y-118617822D01*
X134360879Y-118627389D01*
X134396609Y-118656712D01*
X134498044Y-118739956D01*
X134581288Y-118841391D01*
X134610611Y-118877121D01*
X134610612Y-118877123D01*
X134694257Y-119033610D01*
X134694257Y-119033611D01*
X134745766Y-119203412D01*
X134763158Y-119380000D01*
X134745766Y-119556588D01*
X134711427Y-119669789D01*
X134694257Y-119726390D01*
X134620178Y-119864980D01*
X134610611Y-119882879D01*
X134581288Y-119918609D01*
X134498044Y-120020044D01*
X134396609Y-120103288D01*
X134360879Y-120132611D01*
X134360877Y-120132612D01*
X134204390Y-120216257D01*
X134147789Y-120233427D01*
X134034588Y-120267766D01*
X133946362Y-120276455D01*
X133902250Y-120280800D01*
X133813750Y-120280800D01*
X133769638Y-120276455D01*
X133681412Y-120267766D01*
X133568211Y-120233427D01*
X133511610Y-120216257D01*
X133355123Y-120132612D01*
X133355121Y-120132611D01*
X133319391Y-120103288D01*
X133217956Y-120020044D01*
X133134712Y-119918609D01*
X133105389Y-119882879D01*
X133095822Y-119864980D01*
X133021743Y-119726390D01*
X133004573Y-119669789D01*
X132970234Y-119556588D01*
X132952842Y-119380000D01*
X132970234Y-119203412D01*
X133021743Y-119033611D01*
X133021743Y-119033610D01*
X133105388Y-118877123D01*
X133105389Y-118877121D01*
X133134712Y-118841391D01*
X133217956Y-118739956D01*
X133319391Y-118656712D01*
X133355121Y-118627389D01*
X133373020Y-118617822D01*
X133511610Y-118543743D01*
X133568211Y-118526573D01*
X133681412Y-118492234D01*
X133769638Y-118483545D01*
X133813750Y-118479200D01*
X133902250Y-118479200D01*
X133946362Y-118483545D01*
X133946362Y-118483545D01*
G37*
G36*
X131406362Y-118483545D02*
X131494588Y-118492234D01*
X131607789Y-118526573D01*
X131664390Y-118543743D01*
X131802980Y-118617822D01*
X131820879Y-118627389D01*
X131856609Y-118656712D01*
X131958044Y-118739956D01*
X132041288Y-118841391D01*
X132070611Y-118877121D01*
X132070612Y-118877123D01*
X132154257Y-119033610D01*
X132154257Y-119033611D01*
X132205766Y-119203412D01*
X132223158Y-119380000D01*
X132205766Y-119556588D01*
X132171427Y-119669789D01*
X132154257Y-119726390D01*
X132080178Y-119864980D01*
X132070611Y-119882879D01*
X132041288Y-119918609D01*
X131958044Y-120020044D01*
X131856609Y-120103288D01*
X131820879Y-120132611D01*
X131820877Y-120132612D01*
X131664390Y-120216257D01*
X131607789Y-120233427D01*
X131494588Y-120267766D01*
X131406362Y-120276455D01*
X131362250Y-120280800D01*
X131273750Y-120280800D01*
X131229638Y-120276455D01*
X131141412Y-120267766D01*
X131028211Y-120233427D01*
X130971610Y-120216257D01*
X130815123Y-120132612D01*
X130815121Y-120132611D01*
X130779391Y-120103288D01*
X130677956Y-120020044D01*
X130594712Y-119918609D01*
X130565389Y-119882879D01*
X130555822Y-119864980D01*
X130481743Y-119726390D01*
X130464573Y-119669789D01*
X130430234Y-119556588D01*
X130412842Y-119380000D01*
X130430234Y-119203412D01*
X130481743Y-119033611D01*
X130481743Y-119033610D01*
X130565388Y-118877123D01*
X130565389Y-118877121D01*
X130594712Y-118841391D01*
X130677956Y-118739956D01*
X130779391Y-118656712D01*
X130815121Y-118627389D01*
X130833020Y-118617822D01*
X130971610Y-118543743D01*
X131028211Y-118526573D01*
X131141412Y-118492234D01*
X131229638Y-118483545D01*
X131273750Y-118479200D01*
X131362250Y-118479200D01*
X131406362Y-118483545D01*
X131406362Y-118483545D01*
G37*
G36*
X133946362Y-115943545D02*
X134034588Y-115952234D01*
X134147789Y-115986573D01*
X134204390Y-116003743D01*
X134342980Y-116077822D01*
X134360879Y-116087389D01*
X134396609Y-116116712D01*
X134498044Y-116199956D01*
X134581288Y-116301391D01*
X134610611Y-116337121D01*
X134610612Y-116337123D01*
X134694257Y-116493610D01*
X134694257Y-116493611D01*
X134745766Y-116663412D01*
X134763158Y-116840000D01*
X134745766Y-117016588D01*
X134711427Y-117129789D01*
X134694257Y-117186390D01*
X134620178Y-117324980D01*
X134610611Y-117342879D01*
X134581288Y-117378609D01*
X134498044Y-117480044D01*
X134396609Y-117563288D01*
X134360879Y-117592611D01*
X134360877Y-117592612D01*
X134204390Y-117676257D01*
X134147789Y-117693427D01*
X134034588Y-117727766D01*
X133946362Y-117736455D01*
X133902250Y-117740800D01*
X133813750Y-117740800D01*
X133769638Y-117736455D01*
X133681412Y-117727766D01*
X133568211Y-117693427D01*
X133511610Y-117676257D01*
X133355123Y-117592612D01*
X133355121Y-117592611D01*
X133319391Y-117563288D01*
X133217956Y-117480044D01*
X133134712Y-117378609D01*
X133105389Y-117342879D01*
X133095822Y-117324980D01*
X133021743Y-117186390D01*
X133004573Y-117129789D01*
X132970234Y-117016588D01*
X132952842Y-116840000D01*
X132970234Y-116663412D01*
X133021743Y-116493611D01*
X133021743Y-116493610D01*
X133105388Y-116337123D01*
X133105389Y-116337121D01*
X133134712Y-116301391D01*
X133217956Y-116199956D01*
X133319391Y-116116712D01*
X133355121Y-116087389D01*
X133373020Y-116077822D01*
X133511610Y-116003743D01*
X133568211Y-115986573D01*
X133681412Y-115952234D01*
X133769638Y-115943545D01*
X133813750Y-115939200D01*
X133902250Y-115939200D01*
X133946362Y-115943545D01*
X133946362Y-115943545D01*
G37*
G36*
X131406362Y-115943545D02*
X131494588Y-115952234D01*
X131607789Y-115986573D01*
X131664390Y-116003743D01*
X131802980Y-116077822D01*
X131820879Y-116087389D01*
X131856609Y-116116712D01*
X131958044Y-116199956D01*
X132041288Y-116301391D01*
X132070611Y-116337121D01*
X132070612Y-116337123D01*
X132154257Y-116493610D01*
X132154257Y-116493611D01*
X132205766Y-116663412D01*
X132223158Y-116840000D01*
X132205766Y-117016588D01*
X132171427Y-117129789D01*
X132154257Y-117186390D01*
X132080178Y-117324980D01*
X132070611Y-117342879D01*
X132041288Y-117378609D01*
X131958044Y-117480044D01*
X131856609Y-117563288D01*
X131820879Y-117592611D01*
X131820877Y-117592612D01*
X131664390Y-117676257D01*
X131607789Y-117693427D01*
X131494588Y-117727766D01*
X131406362Y-117736455D01*
X131362250Y-117740800D01*
X131273750Y-117740800D01*
X131229638Y-117736455D01*
X131141412Y-117727766D01*
X131028211Y-117693427D01*
X130971610Y-117676257D01*
X130815123Y-117592612D01*
X130815121Y-117592611D01*
X130779391Y-117563288D01*
X130677956Y-117480044D01*
X130594712Y-117378609D01*
X130565389Y-117342879D01*
X130555822Y-117324980D01*
X130481743Y-117186390D01*
X130464573Y-117129789D01*
X130430234Y-117016588D01*
X130412842Y-116840000D01*
X130430234Y-116663412D01*
X130481743Y-116493611D01*
X130481743Y-116493610D01*
X130565388Y-116337123D01*
X130565389Y-116337121D01*
X130594712Y-116301391D01*
X130677956Y-116199956D01*
X130779391Y-116116712D01*
X130815121Y-116087389D01*
X130833020Y-116077822D01*
X130971610Y-116003743D01*
X131028211Y-115986573D01*
X131141412Y-115952234D01*
X131229638Y-115943545D01*
X131273750Y-115939200D01*
X131362250Y-115939200D01*
X131406362Y-115943545D01*
X131406362Y-115943545D01*
G37*
G36*
X133946362Y-113403545D02*
X134034588Y-113412234D01*
X134147789Y-113446573D01*
X134204390Y-113463743D01*
X134342980Y-113537822D01*
X134360879Y-113547389D01*
X134396609Y-113576712D01*
X134498044Y-113659956D01*
X134581288Y-113761391D01*
X134610611Y-113797121D01*
X134610612Y-113797123D01*
X134694257Y-113953610D01*
X134694257Y-113953611D01*
X134745766Y-114123412D01*
X134763158Y-114300000D01*
X134745766Y-114476588D01*
X134711427Y-114589789D01*
X134694257Y-114646390D01*
X134620178Y-114784980D01*
X134610611Y-114802879D01*
X134581288Y-114838609D01*
X134498044Y-114940044D01*
X134396609Y-115023288D01*
X134360879Y-115052611D01*
X134360877Y-115052612D01*
X134204390Y-115136257D01*
X134147789Y-115153427D01*
X134034588Y-115187766D01*
X133946362Y-115196455D01*
X133902250Y-115200800D01*
X133813750Y-115200800D01*
X133769638Y-115196455D01*
X133681412Y-115187766D01*
X133568211Y-115153427D01*
X133511610Y-115136257D01*
X133355123Y-115052612D01*
X133355121Y-115052611D01*
X133319391Y-115023288D01*
X133217956Y-114940044D01*
X133134712Y-114838609D01*
X133105389Y-114802879D01*
X133095822Y-114784980D01*
X133021743Y-114646390D01*
X133004573Y-114589789D01*
X132970234Y-114476588D01*
X132952842Y-114300000D01*
X132970234Y-114123412D01*
X133021743Y-113953611D01*
X133021743Y-113953610D01*
X133105388Y-113797123D01*
X133105389Y-113797121D01*
X133134712Y-113761391D01*
X133217956Y-113659956D01*
X133319391Y-113576712D01*
X133355121Y-113547389D01*
X133373020Y-113537822D01*
X133511610Y-113463743D01*
X133568211Y-113446573D01*
X133681412Y-113412234D01*
X133769638Y-113403545D01*
X133813750Y-113399200D01*
X133902250Y-113399200D01*
X133946362Y-113403545D01*
X133946362Y-113403545D01*
G37*
G36*
X131406362Y-113403545D02*
X131494588Y-113412234D01*
X131607789Y-113446573D01*
X131664390Y-113463743D01*
X131802980Y-113537822D01*
X131820879Y-113547389D01*
X131856609Y-113576712D01*
X131958044Y-113659956D01*
X132041288Y-113761391D01*
X132070611Y-113797121D01*
X132070612Y-113797123D01*
X132154257Y-113953610D01*
X132154257Y-113953611D01*
X132205766Y-114123412D01*
X132223158Y-114300000D01*
X132205766Y-114476588D01*
X132171427Y-114589789D01*
X132154257Y-114646390D01*
X132080178Y-114784980D01*
X132070611Y-114802879D01*
X132041288Y-114838609D01*
X131958044Y-114940044D01*
X131856609Y-115023288D01*
X131820879Y-115052611D01*
X131820877Y-115052612D01*
X131664390Y-115136257D01*
X131607789Y-115153427D01*
X131494588Y-115187766D01*
X131406362Y-115196455D01*
X131362250Y-115200800D01*
X131273750Y-115200800D01*
X131229638Y-115196455D01*
X131141412Y-115187766D01*
X131028211Y-115153427D01*
X130971610Y-115136257D01*
X130815123Y-115052612D01*
X130815121Y-115052611D01*
X130779391Y-115023288D01*
X130677956Y-114940044D01*
X130594712Y-114838609D01*
X130565389Y-114802879D01*
X130555822Y-114784980D01*
X130481743Y-114646390D01*
X130464573Y-114589789D01*
X130430234Y-114476588D01*
X130412842Y-114300000D01*
X130430234Y-114123412D01*
X130481743Y-113953611D01*
X130481743Y-113953610D01*
X130565388Y-113797123D01*
X130565389Y-113797121D01*
X130594712Y-113761391D01*
X130677956Y-113659956D01*
X130779391Y-113576712D01*
X130815121Y-113547389D01*
X130833020Y-113537822D01*
X130971610Y-113463743D01*
X131028211Y-113446573D01*
X131141412Y-113412234D01*
X131229638Y-113403545D01*
X131273750Y-113399200D01*
X131362250Y-113399200D01*
X131406362Y-113403545D01*
X131406362Y-113403545D01*
G37*
G36*
X131406362Y-110863545D02*
X131494588Y-110872234D01*
X131607789Y-110906573D01*
X131664390Y-110923743D01*
X131802980Y-110997822D01*
X131820879Y-111007389D01*
X131856609Y-111036712D01*
X131958044Y-111119956D01*
X132041288Y-111221391D01*
X132070611Y-111257121D01*
X132070612Y-111257123D01*
X132154257Y-111413610D01*
X132154257Y-111413611D01*
X132205766Y-111583412D01*
X132223158Y-111760000D01*
X132205766Y-111936588D01*
X132171427Y-112049789D01*
X132154257Y-112106390D01*
X132080178Y-112244980D01*
X132070611Y-112262879D01*
X132041288Y-112298609D01*
X131958044Y-112400044D01*
X131856609Y-112483288D01*
X131820879Y-112512611D01*
X131820877Y-112512612D01*
X131664390Y-112596257D01*
X131607789Y-112613427D01*
X131494588Y-112647766D01*
X131406362Y-112656455D01*
X131362250Y-112660800D01*
X131273750Y-112660800D01*
X131229638Y-112656455D01*
X131141412Y-112647766D01*
X131028211Y-112613427D01*
X130971610Y-112596257D01*
X130815123Y-112512612D01*
X130815121Y-112512611D01*
X130779391Y-112483288D01*
X130677956Y-112400044D01*
X130594712Y-112298609D01*
X130565389Y-112262879D01*
X130555822Y-112244980D01*
X130481743Y-112106390D01*
X130464573Y-112049789D01*
X130430234Y-111936588D01*
X130412842Y-111760000D01*
X130430234Y-111583412D01*
X130481743Y-111413611D01*
X130481743Y-111413610D01*
X130565388Y-111257123D01*
X130565389Y-111257121D01*
X130594712Y-111221391D01*
X130677956Y-111119956D01*
X130779391Y-111036712D01*
X130815121Y-111007389D01*
X130833020Y-110997822D01*
X130971610Y-110923743D01*
X131028211Y-110906573D01*
X131141412Y-110872234D01*
X131229638Y-110863545D01*
X131273750Y-110859200D01*
X131362250Y-110859200D01*
X131406362Y-110863545D01*
X131406362Y-110863545D01*
G37*
G36*
X133946362Y-110863545D02*
X134034588Y-110872234D01*
X134147789Y-110906573D01*
X134204390Y-110923743D01*
X134342980Y-110997822D01*
X134360879Y-111007389D01*
X134396609Y-111036712D01*
X134498044Y-111119956D01*
X134581288Y-111221391D01*
X134610611Y-111257121D01*
X134610612Y-111257123D01*
X134694257Y-111413610D01*
X134694257Y-111413611D01*
X134745766Y-111583412D01*
X134763158Y-111760000D01*
X134745766Y-111936588D01*
X134711427Y-112049789D01*
X134694257Y-112106390D01*
X134620178Y-112244980D01*
X134610611Y-112262879D01*
X134581288Y-112298609D01*
X134498044Y-112400044D01*
X134396609Y-112483288D01*
X134360879Y-112512611D01*
X134360877Y-112512612D01*
X134204390Y-112596257D01*
X134147789Y-112613427D01*
X134034588Y-112647766D01*
X133946362Y-112656455D01*
X133902250Y-112660800D01*
X133813750Y-112660800D01*
X133769638Y-112656455D01*
X133681412Y-112647766D01*
X133568211Y-112613427D01*
X133511610Y-112596257D01*
X133355123Y-112512612D01*
X133355121Y-112512611D01*
X133319391Y-112483288D01*
X133217956Y-112400044D01*
X133134712Y-112298609D01*
X133105389Y-112262879D01*
X133095822Y-112244980D01*
X133021743Y-112106390D01*
X133004573Y-112049789D01*
X132970234Y-111936588D01*
X132952842Y-111760000D01*
X132970234Y-111583412D01*
X133021743Y-111413611D01*
X133021743Y-111413610D01*
X133105388Y-111257123D01*
X133105389Y-111257121D01*
X133134712Y-111221391D01*
X133217956Y-111119956D01*
X133319391Y-111036712D01*
X133355121Y-111007389D01*
X133373020Y-110997822D01*
X133511610Y-110923743D01*
X133568211Y-110906573D01*
X133681412Y-110872234D01*
X133769638Y-110863545D01*
X133813750Y-110859200D01*
X133902250Y-110859200D01*
X133946362Y-110863545D01*
X133946362Y-110863545D01*
G37*
G36*
X133946362Y-108323545D02*
X134034588Y-108332234D01*
X134147789Y-108366573D01*
X134204390Y-108383743D01*
X134342980Y-108457822D01*
X134360879Y-108467389D01*
X134396609Y-108496712D01*
X134498044Y-108579956D01*
X134581288Y-108681391D01*
X134610611Y-108717121D01*
X134610612Y-108717123D01*
X134694257Y-108873610D01*
X134694257Y-108873611D01*
X134745766Y-109043412D01*
X134763158Y-109220000D01*
X134745766Y-109396588D01*
X134711427Y-109509789D01*
X134694257Y-109566390D01*
X134620178Y-109704980D01*
X134610611Y-109722879D01*
X134581288Y-109758609D01*
X134498044Y-109860044D01*
X134396609Y-109943288D01*
X134360879Y-109972611D01*
X134360877Y-109972612D01*
X134204390Y-110056257D01*
X134147789Y-110073427D01*
X134034588Y-110107766D01*
X133946362Y-110116455D01*
X133902250Y-110120800D01*
X133813750Y-110120800D01*
X133769638Y-110116455D01*
X133681412Y-110107766D01*
X133568211Y-110073427D01*
X133511610Y-110056257D01*
X133355123Y-109972612D01*
X133355121Y-109972611D01*
X133319391Y-109943288D01*
X133217956Y-109860044D01*
X133134712Y-109758609D01*
X133105389Y-109722879D01*
X133095822Y-109704980D01*
X133021743Y-109566390D01*
X133004573Y-109509789D01*
X132970234Y-109396588D01*
X132952842Y-109220000D01*
X132970234Y-109043412D01*
X133021743Y-108873611D01*
X133021743Y-108873610D01*
X133105388Y-108717123D01*
X133105389Y-108717121D01*
X133134712Y-108681391D01*
X133217956Y-108579956D01*
X133319391Y-108496712D01*
X133355121Y-108467389D01*
X133373020Y-108457822D01*
X133511610Y-108383743D01*
X133568211Y-108366573D01*
X133681412Y-108332234D01*
X133769638Y-108323545D01*
X133813750Y-108319200D01*
X133902250Y-108319200D01*
X133946362Y-108323545D01*
X133946362Y-108323545D01*
G37*
G36*
X131406362Y-108323545D02*
X131494588Y-108332234D01*
X131607789Y-108366573D01*
X131664390Y-108383743D01*
X131802980Y-108457822D01*
X131820879Y-108467389D01*
X131856609Y-108496712D01*
X131958044Y-108579956D01*
X132041288Y-108681391D01*
X132070611Y-108717121D01*
X132070612Y-108717123D01*
X132154257Y-108873610D01*
X132154257Y-108873611D01*
X132205766Y-109043412D01*
X132223158Y-109220000D01*
X132205766Y-109396588D01*
X132171427Y-109509789D01*
X132154257Y-109566390D01*
X132080178Y-109704980D01*
X132070611Y-109722879D01*
X132041288Y-109758609D01*
X131958044Y-109860044D01*
X131856609Y-109943288D01*
X131820879Y-109972611D01*
X131820877Y-109972612D01*
X131664390Y-110056257D01*
X131607789Y-110073427D01*
X131494588Y-110107766D01*
X131406362Y-110116455D01*
X131362250Y-110120800D01*
X131273750Y-110120800D01*
X131229638Y-110116455D01*
X131141412Y-110107766D01*
X131028211Y-110073427D01*
X130971610Y-110056257D01*
X130815123Y-109972612D01*
X130815121Y-109972611D01*
X130779391Y-109943288D01*
X130677956Y-109860044D01*
X130594712Y-109758609D01*
X130565389Y-109722879D01*
X130555822Y-109704980D01*
X130481743Y-109566390D01*
X130464573Y-109509789D01*
X130430234Y-109396588D01*
X130412842Y-109220000D01*
X130430234Y-109043412D01*
X130481743Y-108873611D01*
X130481743Y-108873610D01*
X130565388Y-108717123D01*
X130565389Y-108717121D01*
X130594712Y-108681391D01*
X130677956Y-108579956D01*
X130779391Y-108496712D01*
X130815121Y-108467389D01*
X130833020Y-108457822D01*
X130971610Y-108383743D01*
X131028211Y-108366573D01*
X131141412Y-108332234D01*
X131229638Y-108323545D01*
X131273750Y-108319200D01*
X131362250Y-108319200D01*
X131406362Y-108323545D01*
X131406362Y-108323545D01*
G37*
G36*
X133946362Y-105783545D02*
X134034588Y-105792234D01*
X134147789Y-105826573D01*
X134204390Y-105843743D01*
X134342980Y-105917822D01*
X134360879Y-105927389D01*
X134396609Y-105956712D01*
X134498044Y-106039956D01*
X134581288Y-106141391D01*
X134610611Y-106177121D01*
X134610612Y-106177123D01*
X134694257Y-106333610D01*
X134694257Y-106333611D01*
X134745766Y-106503412D01*
X134763158Y-106680000D01*
X134745766Y-106856588D01*
X134711427Y-106969789D01*
X134694257Y-107026390D01*
X134620178Y-107164980D01*
X134610611Y-107182879D01*
X134581288Y-107218609D01*
X134498044Y-107320044D01*
X134396609Y-107403288D01*
X134360879Y-107432611D01*
X134360877Y-107432612D01*
X134204390Y-107516257D01*
X134147789Y-107533427D01*
X134034588Y-107567766D01*
X133946362Y-107576455D01*
X133902250Y-107580800D01*
X133813750Y-107580800D01*
X133769638Y-107576455D01*
X133681412Y-107567766D01*
X133568211Y-107533427D01*
X133511610Y-107516257D01*
X133355123Y-107432612D01*
X133355121Y-107432611D01*
X133319391Y-107403288D01*
X133217956Y-107320044D01*
X133134712Y-107218609D01*
X133105389Y-107182879D01*
X133095822Y-107164980D01*
X133021743Y-107026390D01*
X133004573Y-106969789D01*
X132970234Y-106856588D01*
X132952842Y-106680000D01*
X132970234Y-106503412D01*
X133021743Y-106333611D01*
X133021743Y-106333610D01*
X133105388Y-106177123D01*
X133105389Y-106177121D01*
X133134712Y-106141391D01*
X133217956Y-106039956D01*
X133319391Y-105956712D01*
X133355121Y-105927389D01*
X133373020Y-105917822D01*
X133511610Y-105843743D01*
X133568211Y-105826573D01*
X133681412Y-105792234D01*
X133769638Y-105783545D01*
X133813750Y-105779200D01*
X133902250Y-105779200D01*
X133946362Y-105783545D01*
X133946362Y-105783545D01*
G37*
G36*
X132218800Y-107580800D02*
X130417200Y-107580800D01*
X130417200Y-105779200D01*
X132218800Y-105779200D01*
X132218800Y-107580800D01*
X132218800Y-107580800D01*
G37*
G36*
X133946362Y-95623545D02*
X134034588Y-95632234D01*
X134147789Y-95666573D01*
X134204390Y-95683743D01*
X134342980Y-95757822D01*
X134360879Y-95767389D01*
X134396609Y-95796712D01*
X134498044Y-95879956D01*
X134581288Y-95981391D01*
X134610611Y-96017121D01*
X134610612Y-96017123D01*
X134694257Y-96173610D01*
X134694257Y-96173611D01*
X134745766Y-96343412D01*
X134763158Y-96520000D01*
X134745766Y-96696588D01*
X134711427Y-96809789D01*
X134694257Y-96866390D01*
X134620178Y-97004980D01*
X134610611Y-97022879D01*
X134581288Y-97058609D01*
X134498044Y-97160044D01*
X134396609Y-97243288D01*
X134360879Y-97272611D01*
X134360877Y-97272612D01*
X134204390Y-97356257D01*
X134147789Y-97373427D01*
X134034588Y-97407766D01*
X133946362Y-97416455D01*
X133902250Y-97420800D01*
X133813750Y-97420800D01*
X133769638Y-97416455D01*
X133681412Y-97407766D01*
X133568211Y-97373427D01*
X133511610Y-97356257D01*
X133355123Y-97272612D01*
X133355121Y-97272611D01*
X133319391Y-97243288D01*
X133217956Y-97160044D01*
X133134712Y-97058609D01*
X133105389Y-97022879D01*
X133095822Y-97004980D01*
X133021743Y-96866390D01*
X133004573Y-96809789D01*
X132970234Y-96696588D01*
X132952842Y-96520000D01*
X132970234Y-96343412D01*
X133021743Y-96173611D01*
X133021743Y-96173610D01*
X133105388Y-96017123D01*
X133105389Y-96017121D01*
X133134712Y-95981391D01*
X133217956Y-95879956D01*
X133319391Y-95796712D01*
X133355121Y-95767389D01*
X133373020Y-95757822D01*
X133511610Y-95683743D01*
X133568211Y-95666573D01*
X133681412Y-95632234D01*
X133769638Y-95623545D01*
X133813750Y-95619200D01*
X133902250Y-95619200D01*
X133946362Y-95623545D01*
X133946362Y-95623545D01*
G37*
G36*
X131406362Y-95623545D02*
X131494588Y-95632234D01*
X131607789Y-95666573D01*
X131664390Y-95683743D01*
X131802980Y-95757822D01*
X131820879Y-95767389D01*
X131856609Y-95796712D01*
X131958044Y-95879956D01*
X132041288Y-95981391D01*
X132070611Y-96017121D01*
X132070612Y-96017123D01*
X132154257Y-96173610D01*
X132154257Y-96173611D01*
X132205766Y-96343412D01*
X132223158Y-96520000D01*
X132205766Y-96696588D01*
X132171427Y-96809789D01*
X132154257Y-96866390D01*
X132080178Y-97004980D01*
X132070611Y-97022879D01*
X132041288Y-97058609D01*
X131958044Y-97160044D01*
X131856609Y-97243288D01*
X131820879Y-97272611D01*
X131820877Y-97272612D01*
X131664390Y-97356257D01*
X131607789Y-97373427D01*
X131494588Y-97407766D01*
X131406362Y-97416455D01*
X131362250Y-97420800D01*
X131273750Y-97420800D01*
X131229638Y-97416455D01*
X131141412Y-97407766D01*
X131028211Y-97373427D01*
X130971610Y-97356257D01*
X130815123Y-97272612D01*
X130815121Y-97272611D01*
X130779391Y-97243288D01*
X130677956Y-97160044D01*
X130594712Y-97058609D01*
X130565389Y-97022879D01*
X130555822Y-97004980D01*
X130481743Y-96866390D01*
X130464573Y-96809789D01*
X130430234Y-96696588D01*
X130412842Y-96520000D01*
X130430234Y-96343412D01*
X130481743Y-96173611D01*
X130481743Y-96173610D01*
X130565388Y-96017123D01*
X130565389Y-96017121D01*
X130594712Y-95981391D01*
X130677956Y-95879956D01*
X130779391Y-95796712D01*
X130815121Y-95767389D01*
X130833020Y-95757822D01*
X130971610Y-95683743D01*
X131028211Y-95666573D01*
X131141412Y-95632234D01*
X131229638Y-95623545D01*
X131273750Y-95619200D01*
X131362250Y-95619200D01*
X131406362Y-95623545D01*
X131406362Y-95623545D01*
G37*
G36*
X161860800Y-95300800D02*
X156679200Y-95300800D01*
X156679200Y-92779200D01*
X161860800Y-92779200D01*
X161860800Y-95300800D01*
X161860800Y-95300800D01*
G37*
G36*
X133946362Y-93083545D02*
X134034588Y-93092234D01*
X134147789Y-93126573D01*
X134204390Y-93143743D01*
X134342980Y-93217822D01*
X134360879Y-93227389D01*
X134396609Y-93256712D01*
X134498044Y-93339956D01*
X134581288Y-93441391D01*
X134610611Y-93477121D01*
X134610612Y-93477123D01*
X134694257Y-93633610D01*
X134694257Y-93633611D01*
X134745766Y-93803412D01*
X134763158Y-93980000D01*
X134745766Y-94156588D01*
X134711427Y-94269789D01*
X134694257Y-94326390D01*
X134620178Y-94464980D01*
X134610611Y-94482879D01*
X134581288Y-94518609D01*
X134498044Y-94620044D01*
X134396609Y-94703288D01*
X134360879Y-94732611D01*
X134360877Y-94732612D01*
X134204390Y-94816257D01*
X134147789Y-94833427D01*
X134034588Y-94867766D01*
X133946362Y-94876455D01*
X133902250Y-94880800D01*
X133813750Y-94880800D01*
X133769638Y-94876455D01*
X133681412Y-94867766D01*
X133568211Y-94833427D01*
X133511610Y-94816257D01*
X133355123Y-94732612D01*
X133355121Y-94732611D01*
X133319391Y-94703288D01*
X133217956Y-94620044D01*
X133134712Y-94518609D01*
X133105389Y-94482879D01*
X133095822Y-94464980D01*
X133021743Y-94326390D01*
X133004573Y-94269789D01*
X132970234Y-94156588D01*
X132952842Y-93980000D01*
X132970234Y-93803412D01*
X133021743Y-93633611D01*
X133021743Y-93633610D01*
X133105388Y-93477123D01*
X133105389Y-93477121D01*
X133134712Y-93441391D01*
X133217956Y-93339956D01*
X133319391Y-93256712D01*
X133355121Y-93227389D01*
X133373020Y-93217822D01*
X133511610Y-93143743D01*
X133568211Y-93126573D01*
X133681412Y-93092234D01*
X133769638Y-93083545D01*
X133813750Y-93079200D01*
X133902250Y-93079200D01*
X133946362Y-93083545D01*
X133946362Y-93083545D01*
G37*
G36*
X131406362Y-93083545D02*
X131494588Y-93092234D01*
X131607789Y-93126573D01*
X131664390Y-93143743D01*
X131802980Y-93217822D01*
X131820879Y-93227389D01*
X131856609Y-93256712D01*
X131958044Y-93339956D01*
X132041288Y-93441391D01*
X132070611Y-93477121D01*
X132070612Y-93477123D01*
X132154257Y-93633610D01*
X132154257Y-93633611D01*
X132205766Y-93803412D01*
X132223158Y-93980000D01*
X132205766Y-94156588D01*
X132171427Y-94269789D01*
X132154257Y-94326390D01*
X132080178Y-94464980D01*
X132070611Y-94482879D01*
X132041288Y-94518609D01*
X131958044Y-94620044D01*
X131856609Y-94703288D01*
X131820879Y-94732611D01*
X131820877Y-94732612D01*
X131664390Y-94816257D01*
X131607789Y-94833427D01*
X131494588Y-94867766D01*
X131406362Y-94876455D01*
X131362250Y-94880800D01*
X131273750Y-94880800D01*
X131229638Y-94876455D01*
X131141412Y-94867766D01*
X131028211Y-94833427D01*
X130971610Y-94816257D01*
X130815123Y-94732612D01*
X130815121Y-94732611D01*
X130779391Y-94703288D01*
X130677956Y-94620044D01*
X130594712Y-94518609D01*
X130565389Y-94482879D01*
X130555822Y-94464980D01*
X130481743Y-94326390D01*
X130464573Y-94269789D01*
X130430234Y-94156588D01*
X130412842Y-93980000D01*
X130430234Y-93803412D01*
X130481743Y-93633611D01*
X130481743Y-93633610D01*
X130565388Y-93477123D01*
X130565389Y-93477121D01*
X130594712Y-93441391D01*
X130677956Y-93339956D01*
X130779391Y-93256712D01*
X130815121Y-93227389D01*
X130833020Y-93217822D01*
X130971610Y-93143743D01*
X131028211Y-93126573D01*
X131141412Y-93092234D01*
X131229638Y-93083545D01*
X131273750Y-93079200D01*
X131362250Y-93079200D01*
X131406362Y-93083545D01*
X131406362Y-93083545D01*
G37*
G36*
X131406362Y-90543545D02*
X131494588Y-90552234D01*
X131607789Y-90586573D01*
X131664390Y-90603743D01*
X131802980Y-90677822D01*
X131820879Y-90687389D01*
X131856609Y-90716712D01*
X131958044Y-90799956D01*
X132041288Y-90901391D01*
X132070611Y-90937121D01*
X132070612Y-90937123D01*
X132154257Y-91093610D01*
X132154257Y-91093611D01*
X132205766Y-91263412D01*
X132223158Y-91440000D01*
X132205766Y-91616588D01*
X132171427Y-91729789D01*
X132154257Y-91786390D01*
X132080178Y-91924980D01*
X132070611Y-91942879D01*
X132041288Y-91978609D01*
X131958044Y-92080044D01*
X131856609Y-92163288D01*
X131820879Y-92192611D01*
X131820877Y-92192612D01*
X131664390Y-92276257D01*
X131607789Y-92293427D01*
X131494588Y-92327766D01*
X131406362Y-92336455D01*
X131362250Y-92340800D01*
X131273750Y-92340800D01*
X131229638Y-92336455D01*
X131141412Y-92327766D01*
X131028211Y-92293427D01*
X130971610Y-92276257D01*
X130815123Y-92192612D01*
X130815121Y-92192611D01*
X130779391Y-92163288D01*
X130677956Y-92080044D01*
X130594712Y-91978609D01*
X130565389Y-91942879D01*
X130555822Y-91924980D01*
X130481743Y-91786390D01*
X130464573Y-91729789D01*
X130430234Y-91616588D01*
X130412842Y-91440000D01*
X130430234Y-91263412D01*
X130481743Y-91093611D01*
X130481743Y-91093610D01*
X130565388Y-90937123D01*
X130565389Y-90937121D01*
X130594712Y-90901391D01*
X130677956Y-90799956D01*
X130779391Y-90716712D01*
X130815121Y-90687389D01*
X130833020Y-90677822D01*
X130971610Y-90603743D01*
X131028211Y-90586573D01*
X131141412Y-90552234D01*
X131229638Y-90543545D01*
X131273750Y-90539200D01*
X131362250Y-90539200D01*
X131406362Y-90543545D01*
X131406362Y-90543545D01*
G37*
G36*
X133946362Y-90543545D02*
X134034588Y-90552234D01*
X134147789Y-90586573D01*
X134204390Y-90603743D01*
X134342980Y-90677822D01*
X134360879Y-90687389D01*
X134396609Y-90716712D01*
X134498044Y-90799956D01*
X134581288Y-90901391D01*
X134610611Y-90937121D01*
X134610612Y-90937123D01*
X134694257Y-91093610D01*
X134694257Y-91093611D01*
X134745766Y-91263412D01*
X134763158Y-91440000D01*
X134745766Y-91616588D01*
X134711427Y-91729789D01*
X134694257Y-91786390D01*
X134620178Y-91924980D01*
X134610611Y-91942879D01*
X134581288Y-91978609D01*
X134498044Y-92080044D01*
X134396609Y-92163288D01*
X134360879Y-92192611D01*
X134360877Y-92192612D01*
X134204390Y-92276257D01*
X134147789Y-92293427D01*
X134034588Y-92327766D01*
X133946362Y-92336455D01*
X133902250Y-92340800D01*
X133813750Y-92340800D01*
X133769638Y-92336455D01*
X133681412Y-92327766D01*
X133568211Y-92293427D01*
X133511610Y-92276257D01*
X133355123Y-92192612D01*
X133355121Y-92192611D01*
X133319391Y-92163288D01*
X133217956Y-92080044D01*
X133134712Y-91978609D01*
X133105389Y-91942879D01*
X133095822Y-91924980D01*
X133021743Y-91786390D01*
X133004573Y-91729789D01*
X132970234Y-91616588D01*
X132952842Y-91440000D01*
X132970234Y-91263412D01*
X133021743Y-91093611D01*
X133021743Y-91093610D01*
X133105388Y-90937123D01*
X133105389Y-90937121D01*
X133134712Y-90901391D01*
X133217956Y-90799956D01*
X133319391Y-90716712D01*
X133355121Y-90687389D01*
X133373020Y-90677822D01*
X133511610Y-90603743D01*
X133568211Y-90586573D01*
X133681412Y-90552234D01*
X133769638Y-90543545D01*
X133813750Y-90539200D01*
X133902250Y-90539200D01*
X133946362Y-90543545D01*
X133946362Y-90543545D01*
G37*
G36*
X133946362Y-88003545D02*
X134034588Y-88012234D01*
X134147789Y-88046573D01*
X134204390Y-88063743D01*
X134342980Y-88137822D01*
X134360879Y-88147389D01*
X134396609Y-88176712D01*
X134498044Y-88259956D01*
X134581288Y-88361391D01*
X134610611Y-88397121D01*
X134610612Y-88397123D01*
X134694257Y-88553610D01*
X134694257Y-88553611D01*
X134745766Y-88723412D01*
X134763158Y-88900000D01*
X134745766Y-89076588D01*
X134711427Y-89189789D01*
X134694257Y-89246390D01*
X134620178Y-89384980D01*
X134610611Y-89402879D01*
X134581288Y-89438609D01*
X134498044Y-89540044D01*
X134396609Y-89623288D01*
X134360879Y-89652611D01*
X134360877Y-89652612D01*
X134204390Y-89736257D01*
X134147789Y-89753427D01*
X134034588Y-89787766D01*
X133946362Y-89796455D01*
X133902250Y-89800800D01*
X133813750Y-89800800D01*
X133769638Y-89796455D01*
X133681412Y-89787766D01*
X133568211Y-89753427D01*
X133511610Y-89736257D01*
X133355123Y-89652612D01*
X133355121Y-89652611D01*
X133319391Y-89623288D01*
X133217956Y-89540044D01*
X133134712Y-89438609D01*
X133105389Y-89402879D01*
X133095822Y-89384980D01*
X133021743Y-89246390D01*
X133004573Y-89189789D01*
X132970234Y-89076588D01*
X132952842Y-88900000D01*
X132970234Y-88723412D01*
X133021743Y-88553611D01*
X133021743Y-88553610D01*
X133105388Y-88397123D01*
X133105389Y-88397121D01*
X133134712Y-88361391D01*
X133217956Y-88259956D01*
X133319391Y-88176712D01*
X133355121Y-88147389D01*
X133373020Y-88137822D01*
X133511610Y-88063743D01*
X133568211Y-88046573D01*
X133681412Y-88012234D01*
X133769638Y-88003545D01*
X133813750Y-87999200D01*
X133902250Y-87999200D01*
X133946362Y-88003545D01*
X133946362Y-88003545D01*
G37*
G36*
X131406362Y-88003545D02*
X131494588Y-88012234D01*
X131607789Y-88046573D01*
X131664390Y-88063743D01*
X131802980Y-88137822D01*
X131820879Y-88147389D01*
X131856609Y-88176712D01*
X131958044Y-88259956D01*
X132041288Y-88361391D01*
X132070611Y-88397121D01*
X132070612Y-88397123D01*
X132154257Y-88553610D01*
X132154257Y-88553611D01*
X132205766Y-88723412D01*
X132223158Y-88900000D01*
X132205766Y-89076588D01*
X132171427Y-89189789D01*
X132154257Y-89246390D01*
X132080178Y-89384980D01*
X132070611Y-89402879D01*
X132041288Y-89438609D01*
X131958044Y-89540044D01*
X131856609Y-89623288D01*
X131820879Y-89652611D01*
X131820877Y-89652612D01*
X131664390Y-89736257D01*
X131607789Y-89753427D01*
X131494588Y-89787766D01*
X131406362Y-89796455D01*
X131362250Y-89800800D01*
X131273750Y-89800800D01*
X131229638Y-89796455D01*
X131141412Y-89787766D01*
X131028211Y-89753427D01*
X130971610Y-89736257D01*
X130815123Y-89652612D01*
X130815121Y-89652611D01*
X130779391Y-89623288D01*
X130677956Y-89540044D01*
X130594712Y-89438609D01*
X130565389Y-89402879D01*
X130555822Y-89384980D01*
X130481743Y-89246390D01*
X130464573Y-89189789D01*
X130430234Y-89076588D01*
X130412842Y-88900000D01*
X130430234Y-88723412D01*
X130481743Y-88553611D01*
X130481743Y-88553610D01*
X130565388Y-88397123D01*
X130565389Y-88397121D01*
X130594712Y-88361391D01*
X130677956Y-88259956D01*
X130779391Y-88176712D01*
X130815121Y-88147389D01*
X130833020Y-88137822D01*
X130971610Y-88063743D01*
X131028211Y-88046573D01*
X131141412Y-88012234D01*
X131229638Y-88003545D01*
X131273750Y-87999200D01*
X131362250Y-87999200D01*
X131406362Y-88003545D01*
X131406362Y-88003545D01*
G37*
G36*
X133946362Y-85463545D02*
X134034588Y-85472234D01*
X134147789Y-85506573D01*
X134204390Y-85523743D01*
X134342980Y-85597822D01*
X134360879Y-85607389D01*
X134396609Y-85636712D01*
X134498044Y-85719956D01*
X134581288Y-85821391D01*
X134610611Y-85857121D01*
X134610612Y-85857123D01*
X134694257Y-86013610D01*
X134694257Y-86013611D01*
X134745766Y-86183412D01*
X134763158Y-86360000D01*
X134745766Y-86536588D01*
X134744488Y-86540800D01*
X134694257Y-86706390D01*
X134620178Y-86844980D01*
X134610611Y-86862879D01*
X134581288Y-86898609D01*
X134498044Y-87000044D01*
X134396609Y-87083288D01*
X134360879Y-87112611D01*
X134360877Y-87112612D01*
X134204390Y-87196257D01*
X134147789Y-87213427D01*
X134034588Y-87247766D01*
X133946362Y-87256455D01*
X133902250Y-87260800D01*
X133813750Y-87260800D01*
X133769638Y-87256455D01*
X133681412Y-87247766D01*
X133568211Y-87213427D01*
X133511610Y-87196257D01*
X133355123Y-87112612D01*
X133355121Y-87112611D01*
X133319391Y-87083288D01*
X133217956Y-87000044D01*
X133134712Y-86898609D01*
X133105389Y-86862879D01*
X133095822Y-86844980D01*
X133021743Y-86706390D01*
X132971512Y-86540800D01*
X132970234Y-86536588D01*
X132952842Y-86360000D01*
X132970234Y-86183412D01*
X133021743Y-86013611D01*
X133021743Y-86013610D01*
X133105388Y-85857123D01*
X133105389Y-85857121D01*
X133134712Y-85821391D01*
X133217956Y-85719956D01*
X133319391Y-85636712D01*
X133355121Y-85607389D01*
X133373020Y-85597822D01*
X133511610Y-85523743D01*
X133568211Y-85506573D01*
X133681412Y-85472234D01*
X133769638Y-85463545D01*
X133813750Y-85459200D01*
X133902250Y-85459200D01*
X133946362Y-85463545D01*
X133946362Y-85463545D01*
G37*
G36*
X131406362Y-85463545D02*
X131494588Y-85472234D01*
X131607789Y-85506573D01*
X131664390Y-85523743D01*
X131802980Y-85597822D01*
X131820879Y-85607389D01*
X131856609Y-85636712D01*
X131958044Y-85719956D01*
X132041288Y-85821391D01*
X132070611Y-85857121D01*
X132070612Y-85857123D01*
X132154257Y-86013610D01*
X132154257Y-86013611D01*
X132205766Y-86183412D01*
X132223158Y-86360000D01*
X132205766Y-86536588D01*
X132204488Y-86540800D01*
X132154257Y-86706390D01*
X132080178Y-86844980D01*
X132070611Y-86862879D01*
X132041288Y-86898609D01*
X131958044Y-87000044D01*
X131856609Y-87083288D01*
X131820879Y-87112611D01*
X131820877Y-87112612D01*
X131664390Y-87196257D01*
X131607789Y-87213427D01*
X131494588Y-87247766D01*
X131406362Y-87256455D01*
X131362250Y-87260800D01*
X131273750Y-87260800D01*
X131229638Y-87256455D01*
X131141412Y-87247766D01*
X131028211Y-87213427D01*
X130971610Y-87196257D01*
X130815123Y-87112612D01*
X130815121Y-87112611D01*
X130779391Y-87083288D01*
X130677956Y-87000044D01*
X130594712Y-86898609D01*
X130565389Y-86862879D01*
X130555822Y-86844980D01*
X130481743Y-86706390D01*
X130431512Y-86540800D01*
X130430234Y-86536588D01*
X130412842Y-86360000D01*
X130430234Y-86183412D01*
X130481743Y-86013611D01*
X130481743Y-86013610D01*
X130565388Y-85857123D01*
X130565389Y-85857121D01*
X130594712Y-85821391D01*
X130677956Y-85719956D01*
X130779391Y-85636712D01*
X130815121Y-85607389D01*
X130833020Y-85597822D01*
X130971610Y-85523743D01*
X131028211Y-85506573D01*
X131141412Y-85472234D01*
X131229638Y-85463545D01*
X131273750Y-85459200D01*
X131362250Y-85459200D01*
X131406362Y-85463545D01*
X131406362Y-85463545D01*
G37*
G36*
X161860800Y-86540800D02*
X156679200Y-86540800D01*
X156679200Y-84019200D01*
X161860800Y-84019200D01*
X161860800Y-86540800D01*
X161860800Y-86540800D01*
G37*
G36*
X133946362Y-82923545D02*
X134034588Y-82932234D01*
X134147789Y-82966573D01*
X134204390Y-82983743D01*
X134342980Y-83057822D01*
X134360879Y-83067389D01*
X134396609Y-83096712D01*
X134498044Y-83179956D01*
X134581288Y-83281391D01*
X134610611Y-83317121D01*
X134610612Y-83317123D01*
X134694257Y-83473610D01*
X134694257Y-83473611D01*
X134745766Y-83643412D01*
X134763158Y-83820000D01*
X134745766Y-83996588D01*
X134711427Y-84109789D01*
X134694257Y-84166390D01*
X134620178Y-84304980D01*
X134610611Y-84322879D01*
X134581288Y-84358609D01*
X134498044Y-84460044D01*
X134396609Y-84543288D01*
X134360879Y-84572611D01*
X134360877Y-84572612D01*
X134204390Y-84656257D01*
X134147789Y-84673427D01*
X134034588Y-84707766D01*
X133946362Y-84716455D01*
X133902250Y-84720800D01*
X133813750Y-84720800D01*
X133769638Y-84716455D01*
X133681412Y-84707766D01*
X133568211Y-84673427D01*
X133511610Y-84656257D01*
X133355123Y-84572612D01*
X133355121Y-84572611D01*
X133319391Y-84543288D01*
X133217956Y-84460044D01*
X133134712Y-84358609D01*
X133105389Y-84322879D01*
X133095822Y-84304980D01*
X133021743Y-84166390D01*
X133004573Y-84109789D01*
X132970234Y-83996588D01*
X132952842Y-83820000D01*
X132970234Y-83643412D01*
X133021743Y-83473611D01*
X133021743Y-83473610D01*
X133105388Y-83317123D01*
X133105389Y-83317121D01*
X133134712Y-83281391D01*
X133217956Y-83179956D01*
X133319391Y-83096712D01*
X133355121Y-83067389D01*
X133373020Y-83057822D01*
X133511610Y-82983743D01*
X133568211Y-82966573D01*
X133681412Y-82932234D01*
X133769638Y-82923545D01*
X133813750Y-82919200D01*
X133902250Y-82919200D01*
X133946362Y-82923545D01*
X133946362Y-82923545D01*
G37*
G36*
X132218800Y-84720800D02*
X130417200Y-84720800D01*
X130417200Y-82919200D01*
X132218800Y-82919200D01*
X132218800Y-84720800D01*
X132218800Y-84720800D01*
G37*
M02*
