G04 #@! TF.GenerationSoftware,KiCad,Pcbnew,(5.0.1-3-g963ef8bb5)*
G04 #@! TF.CreationDate,2018-11-23T10:32:15+01:00*
G04 #@! TF.ProjectId,DAC_ISL5857,4441435F49534C353835372E6B696361,A*
G04 #@! TF.SameCoordinates,Original*
G04 #@! TF.FileFunction,Legend,Bot*
G04 #@! TF.FilePolarity,Positive*
%FSLAX46Y46*%
G04 Gerber Fmt 4.6, Leading zero omitted, Abs format (unit mm)*
G04 Created by KiCad (PCBNEW (5.0.1-3-g963ef8bb5)) date Friday, 23 November 2018 at 10:32:15*
%MOMM*%
%LPD*%
G01*
G04 APERTURE LIST*
%ADD10C,0.010000*%
G04 APERTURE END LIST*
D10*
G04 #@! TO.C,REF\002A\002A*
G36*
X143860122Y-96487776D02*
X143754388Y-96488355D01*
X143677868Y-96489922D01*
X143625628Y-96492972D01*
X143592737Y-96497996D01*
X143574263Y-96505489D01*
X143565273Y-96515944D01*
X143560837Y-96529853D01*
X143560406Y-96531654D01*
X143553667Y-96564145D01*
X143541192Y-96628252D01*
X143524281Y-96717151D01*
X143504229Y-96824019D01*
X143482336Y-96942033D01*
X143481571Y-96946178D01*
X143459641Y-97061831D01*
X143439123Y-97164014D01*
X143421341Y-97246598D01*
X143407619Y-97303456D01*
X143399282Y-97328458D01*
X143398884Y-97328901D01*
X143374323Y-97341110D01*
X143323685Y-97361456D01*
X143257905Y-97385545D01*
X143257539Y-97385674D01*
X143174683Y-97416818D01*
X143077000Y-97456491D01*
X142984923Y-97496381D01*
X142980566Y-97498353D01*
X142830593Y-97566420D01*
X142498502Y-97339639D01*
X142396626Y-97270504D01*
X142304343Y-97208697D01*
X142226997Y-97157733D01*
X142169936Y-97121127D01*
X142138505Y-97102394D01*
X142135521Y-97101004D01*
X142112679Y-97107190D01*
X142070018Y-97137035D01*
X142005872Y-97191947D01*
X141918579Y-97273334D01*
X141829465Y-97359922D01*
X141743559Y-97445247D01*
X141666673Y-97523108D01*
X141603436Y-97588697D01*
X141558477Y-97637205D01*
X141536424Y-97663825D01*
X141535604Y-97665195D01*
X141533166Y-97683463D01*
X141542350Y-97713295D01*
X141565426Y-97758721D01*
X141604663Y-97823770D01*
X141662330Y-97912470D01*
X141739205Y-98026657D01*
X141807430Y-98127162D01*
X141868418Y-98217303D01*
X141918644Y-98291849D01*
X141954584Y-98345565D01*
X141972713Y-98373218D01*
X141973854Y-98375095D01*
X141971641Y-98401590D01*
X141954862Y-98453086D01*
X141926858Y-98519851D01*
X141916878Y-98541172D01*
X141873328Y-98636159D01*
X141826866Y-98743937D01*
X141789123Y-98837192D01*
X141761927Y-98906406D01*
X141740325Y-98959006D01*
X141727842Y-98986497D01*
X141726291Y-98988616D01*
X141703332Y-98992124D01*
X141649214Y-99001738D01*
X141571132Y-99016089D01*
X141476281Y-99033807D01*
X141371857Y-99053525D01*
X141265056Y-99073874D01*
X141163074Y-99093486D01*
X141073106Y-99110991D01*
X141002347Y-99125022D01*
X140957994Y-99134209D01*
X140947115Y-99136807D01*
X140935878Y-99143218D01*
X140927395Y-99157697D01*
X140921286Y-99185133D01*
X140917168Y-99230411D01*
X140914659Y-99298420D01*
X140913379Y-99394047D01*
X140912946Y-99522180D01*
X140912923Y-99574701D01*
X140912923Y-100001845D01*
X141015500Y-100022091D01*
X141072569Y-100033070D01*
X141157731Y-100049095D01*
X141260628Y-100068233D01*
X141370904Y-100088551D01*
X141401385Y-100094132D01*
X141503145Y-100113917D01*
X141591795Y-100133373D01*
X141659892Y-100150697D01*
X141699996Y-100164088D01*
X141706677Y-100168079D01*
X141723081Y-100196342D01*
X141746601Y-100251109D01*
X141772684Y-100321588D01*
X141777858Y-100336769D01*
X141812044Y-100430896D01*
X141854477Y-100537101D01*
X141896003Y-100632473D01*
X141896208Y-100632916D01*
X141965360Y-100782525D01*
X141510488Y-101451617D01*
X141802500Y-101744116D01*
X141890820Y-101831170D01*
X141971375Y-101907909D01*
X142039640Y-101970237D01*
X142091092Y-102014056D01*
X142121206Y-102035270D01*
X142125526Y-102036616D01*
X142150889Y-102026016D01*
X142202642Y-101996547D01*
X142275132Y-101951705D01*
X142362706Y-101894984D01*
X142457388Y-101831462D01*
X142553484Y-101766668D01*
X142639163Y-101710287D01*
X142708984Y-101665788D01*
X142757506Y-101636639D01*
X142779218Y-101626308D01*
X142805707Y-101635050D01*
X142855938Y-101658087D01*
X142919549Y-101690631D01*
X142926292Y-101694249D01*
X143011954Y-101737210D01*
X143070694Y-101758279D01*
X143107228Y-101758503D01*
X143126269Y-101738928D01*
X143126380Y-101738654D01*
X143135898Y-101715472D01*
X143158597Y-101660441D01*
X143192718Y-101577822D01*
X143236500Y-101471872D01*
X143288184Y-101346852D01*
X143346008Y-101207020D01*
X143402009Y-101071637D01*
X143463553Y-100922234D01*
X143520061Y-100783832D01*
X143569839Y-100660673D01*
X143611194Y-100557002D01*
X143642432Y-100477059D01*
X143661859Y-100425088D01*
X143667846Y-100405692D01*
X143652832Y-100383443D01*
X143613561Y-100347982D01*
X143561193Y-100308887D01*
X143412059Y-100185245D01*
X143295489Y-100043522D01*
X143212882Y-99886704D01*
X143165634Y-99717775D01*
X143155143Y-99539722D01*
X143162769Y-99457539D01*
X143204318Y-99287031D01*
X143275877Y-99136459D01*
X143373005Y-99007309D01*
X143491266Y-98901064D01*
X143626220Y-98819210D01*
X143773429Y-98763232D01*
X143928456Y-98734615D01*
X144086861Y-98734844D01*
X144244206Y-98765405D01*
X144396054Y-98827782D01*
X144537965Y-98923460D01*
X144597197Y-98977572D01*
X144710797Y-99116520D01*
X144789894Y-99268361D01*
X144835014Y-99428667D01*
X144846684Y-99593012D01*
X144825431Y-99756971D01*
X144771780Y-99916118D01*
X144686260Y-100066025D01*
X144569395Y-100202267D01*
X144438807Y-100308887D01*
X144384412Y-100349642D01*
X144345986Y-100384718D01*
X144332154Y-100405726D01*
X144339397Y-100428635D01*
X144359995Y-100483365D01*
X144392254Y-100565672D01*
X144434479Y-100671315D01*
X144484977Y-100796050D01*
X144542052Y-100935636D01*
X144598146Y-101071670D01*
X144660033Y-101221201D01*
X144717356Y-101359767D01*
X144768356Y-101483107D01*
X144811273Y-101586964D01*
X144844347Y-101667080D01*
X144865819Y-101719195D01*
X144873775Y-101738654D01*
X144892571Y-101758423D01*
X144928926Y-101758365D01*
X144987521Y-101737441D01*
X145073032Y-101694613D01*
X145073708Y-101694249D01*
X145138093Y-101661012D01*
X145190139Y-101636802D01*
X145219488Y-101626404D01*
X145220783Y-101626308D01*
X145242876Y-101636855D01*
X145291652Y-101666184D01*
X145361669Y-101710827D01*
X145447486Y-101767314D01*
X145542612Y-101831462D01*
X145639460Y-101896411D01*
X145726747Y-101952896D01*
X145798819Y-101997421D01*
X145850023Y-102026490D01*
X145874474Y-102036616D01*
X145896990Y-102023307D01*
X145942258Y-101986112D01*
X146005756Y-101929128D01*
X146082961Y-101856449D01*
X146169349Y-101772171D01*
X146197601Y-101744016D01*
X146489713Y-101451416D01*
X146267369Y-101125104D01*
X146199798Y-101024897D01*
X146140493Y-100934963D01*
X146092783Y-100860510D01*
X146059993Y-100806751D01*
X146045452Y-100778894D01*
X146045026Y-100776912D01*
X146052692Y-100750655D01*
X146073311Y-100697837D01*
X146103315Y-100627310D01*
X146124375Y-100580093D01*
X146163752Y-100489694D01*
X146200835Y-100398366D01*
X146229585Y-100321200D01*
X146237395Y-100297692D01*
X146259583Y-100234916D01*
X146281273Y-100186411D01*
X146293187Y-100168079D01*
X146319477Y-100156859D01*
X146376858Y-100140954D01*
X146457882Y-100122167D01*
X146555105Y-100102299D01*
X146598615Y-100094132D01*
X146709104Y-100073829D01*
X146815084Y-100054170D01*
X146906199Y-100037088D01*
X146972092Y-100024518D01*
X146984500Y-100022091D01*
X147087077Y-100001845D01*
X147087077Y-99574701D01*
X147086847Y-99434246D01*
X147085901Y-99327979D01*
X147083859Y-99251013D01*
X147080338Y-99198460D01*
X147074957Y-99165433D01*
X147067334Y-99147045D01*
X147057088Y-99138408D01*
X147052885Y-99136807D01*
X147027530Y-99131127D01*
X146971516Y-99119795D01*
X146892036Y-99104179D01*
X146796288Y-99085647D01*
X146691467Y-99065569D01*
X146584768Y-99045312D01*
X146483387Y-99026246D01*
X146394521Y-99009739D01*
X146325363Y-98997159D01*
X146283111Y-98989875D01*
X146273710Y-98988616D01*
X146265193Y-98971763D01*
X146246340Y-98926870D01*
X146220676Y-98862430D01*
X146210877Y-98837192D01*
X146171352Y-98739686D01*
X146124808Y-98631959D01*
X146083123Y-98541172D01*
X146052450Y-98471753D01*
X146032044Y-98414710D01*
X146025232Y-98379777D01*
X146026318Y-98375095D01*
X146040715Y-98352991D01*
X146073588Y-98303831D01*
X146121410Y-98232848D01*
X146180652Y-98145278D01*
X146247785Y-98046357D01*
X146261059Y-98026830D01*
X146338954Y-97911140D01*
X146396213Y-97823044D01*
X146435119Y-97758486D01*
X146457956Y-97713411D01*
X146467006Y-97683763D01*
X146464552Y-97665485D01*
X146464489Y-97665369D01*
X146445173Y-97641361D01*
X146402449Y-97594947D01*
X146340949Y-97530937D01*
X146265302Y-97454145D01*
X146180139Y-97369382D01*
X146170535Y-97359922D01*
X146063210Y-97255989D01*
X145980385Y-97179675D01*
X145920395Y-97129571D01*
X145881577Y-97104270D01*
X145864480Y-97101004D01*
X145839527Y-97115250D01*
X145787745Y-97148156D01*
X145714480Y-97196208D01*
X145625080Y-97255890D01*
X145524889Y-97323688D01*
X145501499Y-97339639D01*
X145169407Y-97566420D01*
X145019435Y-97498353D01*
X144928230Y-97458685D01*
X144830331Y-97418791D01*
X144746169Y-97386983D01*
X144742462Y-97385674D01*
X144676631Y-97361576D01*
X144625884Y-97341200D01*
X144601158Y-97328936D01*
X144601116Y-97328901D01*
X144593271Y-97306734D01*
X144579934Y-97252217D01*
X144562430Y-97171480D01*
X144542083Y-97070650D01*
X144520218Y-96955856D01*
X144518429Y-96946178D01*
X144496496Y-96827904D01*
X144476360Y-96720542D01*
X144459320Y-96630917D01*
X144446672Y-96565851D01*
X144439716Y-96532168D01*
X144439594Y-96531654D01*
X144435361Y-96517325D01*
X144427129Y-96506507D01*
X144409967Y-96498706D01*
X144378942Y-96493429D01*
X144329122Y-96490182D01*
X144255576Y-96488472D01*
X144153371Y-96487807D01*
X144017575Y-96487693D01*
X144000000Y-96487692D01*
X143860122Y-96487776D01*
X143860122Y-96487776D01*
G37*
X143860122Y-96487776D02*
X143754388Y-96488355D01*
X143677868Y-96489922D01*
X143625628Y-96492972D01*
X143592737Y-96497996D01*
X143574263Y-96505489D01*
X143565273Y-96515944D01*
X143560837Y-96529853D01*
X143560406Y-96531654D01*
X143553667Y-96564145D01*
X143541192Y-96628252D01*
X143524281Y-96717151D01*
X143504229Y-96824019D01*
X143482336Y-96942033D01*
X143481571Y-96946178D01*
X143459641Y-97061831D01*
X143439123Y-97164014D01*
X143421341Y-97246598D01*
X143407619Y-97303456D01*
X143399282Y-97328458D01*
X143398884Y-97328901D01*
X143374323Y-97341110D01*
X143323685Y-97361456D01*
X143257905Y-97385545D01*
X143257539Y-97385674D01*
X143174683Y-97416818D01*
X143077000Y-97456491D01*
X142984923Y-97496381D01*
X142980566Y-97498353D01*
X142830593Y-97566420D01*
X142498502Y-97339639D01*
X142396626Y-97270504D01*
X142304343Y-97208697D01*
X142226997Y-97157733D01*
X142169936Y-97121127D01*
X142138505Y-97102394D01*
X142135521Y-97101004D01*
X142112679Y-97107190D01*
X142070018Y-97137035D01*
X142005872Y-97191947D01*
X141918579Y-97273334D01*
X141829465Y-97359922D01*
X141743559Y-97445247D01*
X141666673Y-97523108D01*
X141603436Y-97588697D01*
X141558477Y-97637205D01*
X141536424Y-97663825D01*
X141535604Y-97665195D01*
X141533166Y-97683463D01*
X141542350Y-97713295D01*
X141565426Y-97758721D01*
X141604663Y-97823770D01*
X141662330Y-97912470D01*
X141739205Y-98026657D01*
X141807430Y-98127162D01*
X141868418Y-98217303D01*
X141918644Y-98291849D01*
X141954584Y-98345565D01*
X141972713Y-98373218D01*
X141973854Y-98375095D01*
X141971641Y-98401590D01*
X141954862Y-98453086D01*
X141926858Y-98519851D01*
X141916878Y-98541172D01*
X141873328Y-98636159D01*
X141826866Y-98743937D01*
X141789123Y-98837192D01*
X141761927Y-98906406D01*
X141740325Y-98959006D01*
X141727842Y-98986497D01*
X141726291Y-98988616D01*
X141703332Y-98992124D01*
X141649214Y-99001738D01*
X141571132Y-99016089D01*
X141476281Y-99033807D01*
X141371857Y-99053525D01*
X141265056Y-99073874D01*
X141163074Y-99093486D01*
X141073106Y-99110991D01*
X141002347Y-99125022D01*
X140957994Y-99134209D01*
X140947115Y-99136807D01*
X140935878Y-99143218D01*
X140927395Y-99157697D01*
X140921286Y-99185133D01*
X140917168Y-99230411D01*
X140914659Y-99298420D01*
X140913379Y-99394047D01*
X140912946Y-99522180D01*
X140912923Y-99574701D01*
X140912923Y-100001845D01*
X141015500Y-100022091D01*
X141072569Y-100033070D01*
X141157731Y-100049095D01*
X141260628Y-100068233D01*
X141370904Y-100088551D01*
X141401385Y-100094132D01*
X141503145Y-100113917D01*
X141591795Y-100133373D01*
X141659892Y-100150697D01*
X141699996Y-100164088D01*
X141706677Y-100168079D01*
X141723081Y-100196342D01*
X141746601Y-100251109D01*
X141772684Y-100321588D01*
X141777858Y-100336769D01*
X141812044Y-100430896D01*
X141854477Y-100537101D01*
X141896003Y-100632473D01*
X141896208Y-100632916D01*
X141965360Y-100782525D01*
X141510488Y-101451617D01*
X141802500Y-101744116D01*
X141890820Y-101831170D01*
X141971375Y-101907909D01*
X142039640Y-101970237D01*
X142091092Y-102014056D01*
X142121206Y-102035270D01*
X142125526Y-102036616D01*
X142150889Y-102026016D01*
X142202642Y-101996547D01*
X142275132Y-101951705D01*
X142362706Y-101894984D01*
X142457388Y-101831462D01*
X142553484Y-101766668D01*
X142639163Y-101710287D01*
X142708984Y-101665788D01*
X142757506Y-101636639D01*
X142779218Y-101626308D01*
X142805707Y-101635050D01*
X142855938Y-101658087D01*
X142919549Y-101690631D01*
X142926292Y-101694249D01*
X143011954Y-101737210D01*
X143070694Y-101758279D01*
X143107228Y-101758503D01*
X143126269Y-101738928D01*
X143126380Y-101738654D01*
X143135898Y-101715472D01*
X143158597Y-101660441D01*
X143192718Y-101577822D01*
X143236500Y-101471872D01*
X143288184Y-101346852D01*
X143346008Y-101207020D01*
X143402009Y-101071637D01*
X143463553Y-100922234D01*
X143520061Y-100783832D01*
X143569839Y-100660673D01*
X143611194Y-100557002D01*
X143642432Y-100477059D01*
X143661859Y-100425088D01*
X143667846Y-100405692D01*
X143652832Y-100383443D01*
X143613561Y-100347982D01*
X143561193Y-100308887D01*
X143412059Y-100185245D01*
X143295489Y-100043522D01*
X143212882Y-99886704D01*
X143165634Y-99717775D01*
X143155143Y-99539722D01*
X143162769Y-99457539D01*
X143204318Y-99287031D01*
X143275877Y-99136459D01*
X143373005Y-99007309D01*
X143491266Y-98901064D01*
X143626220Y-98819210D01*
X143773429Y-98763232D01*
X143928456Y-98734615D01*
X144086861Y-98734844D01*
X144244206Y-98765405D01*
X144396054Y-98827782D01*
X144537965Y-98923460D01*
X144597197Y-98977572D01*
X144710797Y-99116520D01*
X144789894Y-99268361D01*
X144835014Y-99428667D01*
X144846684Y-99593012D01*
X144825431Y-99756971D01*
X144771780Y-99916118D01*
X144686260Y-100066025D01*
X144569395Y-100202267D01*
X144438807Y-100308887D01*
X144384412Y-100349642D01*
X144345986Y-100384718D01*
X144332154Y-100405726D01*
X144339397Y-100428635D01*
X144359995Y-100483365D01*
X144392254Y-100565672D01*
X144434479Y-100671315D01*
X144484977Y-100796050D01*
X144542052Y-100935636D01*
X144598146Y-101071670D01*
X144660033Y-101221201D01*
X144717356Y-101359767D01*
X144768356Y-101483107D01*
X144811273Y-101586964D01*
X144844347Y-101667080D01*
X144865819Y-101719195D01*
X144873775Y-101738654D01*
X144892571Y-101758423D01*
X144928926Y-101758365D01*
X144987521Y-101737441D01*
X145073032Y-101694613D01*
X145073708Y-101694249D01*
X145138093Y-101661012D01*
X145190139Y-101636802D01*
X145219488Y-101626404D01*
X145220783Y-101626308D01*
X145242876Y-101636855D01*
X145291652Y-101666184D01*
X145361669Y-101710827D01*
X145447486Y-101767314D01*
X145542612Y-101831462D01*
X145639460Y-101896411D01*
X145726747Y-101952896D01*
X145798819Y-101997421D01*
X145850023Y-102026490D01*
X145874474Y-102036616D01*
X145896990Y-102023307D01*
X145942258Y-101986112D01*
X146005756Y-101929128D01*
X146082961Y-101856449D01*
X146169349Y-101772171D01*
X146197601Y-101744016D01*
X146489713Y-101451416D01*
X146267369Y-101125104D01*
X146199798Y-101024897D01*
X146140493Y-100934963D01*
X146092783Y-100860510D01*
X146059993Y-100806751D01*
X146045452Y-100778894D01*
X146045026Y-100776912D01*
X146052692Y-100750655D01*
X146073311Y-100697837D01*
X146103315Y-100627310D01*
X146124375Y-100580093D01*
X146163752Y-100489694D01*
X146200835Y-100398366D01*
X146229585Y-100321200D01*
X146237395Y-100297692D01*
X146259583Y-100234916D01*
X146281273Y-100186411D01*
X146293187Y-100168079D01*
X146319477Y-100156859D01*
X146376858Y-100140954D01*
X146457882Y-100122167D01*
X146555105Y-100102299D01*
X146598615Y-100094132D01*
X146709104Y-100073829D01*
X146815084Y-100054170D01*
X146906199Y-100037088D01*
X146972092Y-100024518D01*
X146984500Y-100022091D01*
X147087077Y-100001845D01*
X147087077Y-99574701D01*
X147086847Y-99434246D01*
X147085901Y-99327979D01*
X147083859Y-99251013D01*
X147080338Y-99198460D01*
X147074957Y-99165433D01*
X147067334Y-99147045D01*
X147057088Y-99138408D01*
X147052885Y-99136807D01*
X147027530Y-99131127D01*
X146971516Y-99119795D01*
X146892036Y-99104179D01*
X146796288Y-99085647D01*
X146691467Y-99065569D01*
X146584768Y-99045312D01*
X146483387Y-99026246D01*
X146394521Y-99009739D01*
X146325363Y-98997159D01*
X146283111Y-98989875D01*
X146273710Y-98988616D01*
X146265193Y-98971763D01*
X146246340Y-98926870D01*
X146220676Y-98862430D01*
X146210877Y-98837192D01*
X146171352Y-98739686D01*
X146124808Y-98631959D01*
X146083123Y-98541172D01*
X146052450Y-98471753D01*
X146032044Y-98414710D01*
X146025232Y-98379777D01*
X146026318Y-98375095D01*
X146040715Y-98352991D01*
X146073588Y-98303831D01*
X146121410Y-98232848D01*
X146180652Y-98145278D01*
X146247785Y-98046357D01*
X146261059Y-98026830D01*
X146338954Y-97911140D01*
X146396213Y-97823044D01*
X146435119Y-97758486D01*
X146457956Y-97713411D01*
X146467006Y-97683763D01*
X146464552Y-97665485D01*
X146464489Y-97665369D01*
X146445173Y-97641361D01*
X146402449Y-97594947D01*
X146340949Y-97530937D01*
X146265302Y-97454145D01*
X146180139Y-97369382D01*
X146170535Y-97359922D01*
X146063210Y-97255989D01*
X145980385Y-97179675D01*
X145920395Y-97129571D01*
X145881577Y-97104270D01*
X145864480Y-97101004D01*
X145839527Y-97115250D01*
X145787745Y-97148156D01*
X145714480Y-97196208D01*
X145625080Y-97255890D01*
X145524889Y-97323688D01*
X145501499Y-97339639D01*
X145169407Y-97566420D01*
X145019435Y-97498353D01*
X144928230Y-97458685D01*
X144830331Y-97418791D01*
X144746169Y-97386983D01*
X144742462Y-97385674D01*
X144676631Y-97361576D01*
X144625884Y-97341200D01*
X144601158Y-97328936D01*
X144601116Y-97328901D01*
X144593271Y-97306734D01*
X144579934Y-97252217D01*
X144562430Y-97171480D01*
X144542083Y-97070650D01*
X144520218Y-96955856D01*
X144518429Y-96946178D01*
X144496496Y-96827904D01*
X144476360Y-96720542D01*
X144459320Y-96630917D01*
X144446672Y-96565851D01*
X144439716Y-96532168D01*
X144439594Y-96531654D01*
X144435361Y-96517325D01*
X144427129Y-96506507D01*
X144409967Y-96498706D01*
X144378942Y-96493429D01*
X144329122Y-96490182D01*
X144255576Y-96488472D01*
X144153371Y-96487807D01*
X144017575Y-96487693D01*
X144000000Y-96487692D01*
X143860122Y-96487776D01*
G36*
X139754776Y-102847838D02*
X139677472Y-102898361D01*
X139640186Y-102943590D01*
X139610647Y-103025663D01*
X139608301Y-103090607D01*
X139613615Y-103177445D01*
X139813885Y-103265103D01*
X139911261Y-103309887D01*
X139974887Y-103345913D01*
X140007971Y-103377117D01*
X140013720Y-103407436D01*
X139995342Y-103440805D01*
X139975077Y-103462923D01*
X139916111Y-103498393D01*
X139851976Y-103500879D01*
X139793074Y-103473235D01*
X139749803Y-103418320D01*
X139742064Y-103398928D01*
X139704994Y-103338364D01*
X139662346Y-103312552D01*
X139603846Y-103290471D01*
X139603846Y-103374184D01*
X139609018Y-103431150D01*
X139629277Y-103479189D01*
X139671738Y-103534346D01*
X139678049Y-103541514D01*
X139725280Y-103590585D01*
X139765879Y-103616920D01*
X139816672Y-103629035D01*
X139858780Y-103633003D01*
X139934098Y-103633991D01*
X139987714Y-103621466D01*
X140021162Y-103602869D01*
X140073732Y-103561975D01*
X140110121Y-103517748D01*
X140133150Y-103462126D01*
X140145641Y-103387047D01*
X140150413Y-103284449D01*
X140150794Y-103232376D01*
X140149499Y-103169948D01*
X140031529Y-103169948D01*
X140030161Y-103203438D01*
X140026751Y-103208923D01*
X140004247Y-103201472D01*
X139955818Y-103181753D01*
X139891092Y-103153718D01*
X139877557Y-103147692D01*
X139795756Y-103106096D01*
X139750688Y-103069538D01*
X139740783Y-103035296D01*
X139764474Y-103000648D01*
X139784040Y-102985339D01*
X139854640Y-102954721D01*
X139920720Y-102959780D01*
X139976041Y-102997151D01*
X140014364Y-103063473D01*
X140026651Y-103116116D01*
X140031529Y-103169948D01*
X140149499Y-103169948D01*
X140148270Y-103110720D01*
X140138968Y-103020710D01*
X140120540Y-102955167D01*
X140090640Y-102906912D01*
X140046920Y-102868767D01*
X140027859Y-102856440D01*
X139941274Y-102824336D01*
X139846478Y-102822316D01*
X139754776Y-102847838D01*
X139754776Y-102847838D01*
G37*
X139754776Y-102847838D02*
X139677472Y-102898361D01*
X139640186Y-102943590D01*
X139610647Y-103025663D01*
X139608301Y-103090607D01*
X139613615Y-103177445D01*
X139813885Y-103265103D01*
X139911261Y-103309887D01*
X139974887Y-103345913D01*
X140007971Y-103377117D01*
X140013720Y-103407436D01*
X139995342Y-103440805D01*
X139975077Y-103462923D01*
X139916111Y-103498393D01*
X139851976Y-103500879D01*
X139793074Y-103473235D01*
X139749803Y-103418320D01*
X139742064Y-103398928D01*
X139704994Y-103338364D01*
X139662346Y-103312552D01*
X139603846Y-103290471D01*
X139603846Y-103374184D01*
X139609018Y-103431150D01*
X139629277Y-103479189D01*
X139671738Y-103534346D01*
X139678049Y-103541514D01*
X139725280Y-103590585D01*
X139765879Y-103616920D01*
X139816672Y-103629035D01*
X139858780Y-103633003D01*
X139934098Y-103633991D01*
X139987714Y-103621466D01*
X140021162Y-103602869D01*
X140073732Y-103561975D01*
X140110121Y-103517748D01*
X140133150Y-103462126D01*
X140145641Y-103387047D01*
X140150413Y-103284449D01*
X140150794Y-103232376D01*
X140149499Y-103169948D01*
X140031529Y-103169948D01*
X140030161Y-103203438D01*
X140026751Y-103208923D01*
X140004247Y-103201472D01*
X139955818Y-103181753D01*
X139891092Y-103153718D01*
X139877557Y-103147692D01*
X139795756Y-103106096D01*
X139750688Y-103069538D01*
X139740783Y-103035296D01*
X139764474Y-103000648D01*
X139784040Y-102985339D01*
X139854640Y-102954721D01*
X139920720Y-102959780D01*
X139976041Y-102997151D01*
X140014364Y-103063473D01*
X140026651Y-103116116D01*
X140031529Y-103169948D01*
X140149499Y-103169948D01*
X140148270Y-103110720D01*
X140138968Y-103020710D01*
X140120540Y-102955167D01*
X140090640Y-102906912D01*
X140046920Y-102868767D01*
X140027859Y-102856440D01*
X139941274Y-102824336D01*
X139846478Y-102822316D01*
X139754776Y-102847838D01*
G36*
X140429193Y-102836782D02*
X140405839Y-102846988D01*
X140350098Y-102891134D01*
X140302431Y-102954967D01*
X140272952Y-103023087D01*
X140268154Y-103056670D01*
X140284240Y-103103556D01*
X140319525Y-103128365D01*
X140357356Y-103143387D01*
X140374679Y-103146155D01*
X140383114Y-103126066D01*
X140399770Y-103082351D01*
X140407077Y-103062598D01*
X140448052Y-102994271D01*
X140507378Y-102960191D01*
X140583448Y-102961239D01*
X140589082Y-102962581D01*
X140629695Y-102981836D01*
X140659552Y-103019375D01*
X140679945Y-103079809D01*
X140692164Y-103167751D01*
X140697500Y-103287813D01*
X140698000Y-103351698D01*
X140698248Y-103452403D01*
X140699874Y-103521054D01*
X140704199Y-103564673D01*
X140712546Y-103590282D01*
X140726235Y-103604903D01*
X140746589Y-103615558D01*
X140747766Y-103616095D01*
X140786962Y-103632667D01*
X140806381Y-103638769D01*
X140809365Y-103620319D01*
X140811919Y-103569323D01*
X140813860Y-103492308D01*
X140815003Y-103395805D01*
X140815231Y-103325184D01*
X140814068Y-103188525D01*
X140809521Y-103084851D01*
X140800001Y-103008108D01*
X140783919Y-102952246D01*
X140759687Y-102911212D01*
X140725714Y-102878954D01*
X140692167Y-102856440D01*
X140611501Y-102826476D01*
X140517619Y-102819718D01*
X140429193Y-102836782D01*
X140429193Y-102836782D01*
G37*
X140429193Y-102836782D02*
X140405839Y-102846988D01*
X140350098Y-102891134D01*
X140302431Y-102954967D01*
X140272952Y-103023087D01*
X140268154Y-103056670D01*
X140284240Y-103103556D01*
X140319525Y-103128365D01*
X140357356Y-103143387D01*
X140374679Y-103146155D01*
X140383114Y-103126066D01*
X140399770Y-103082351D01*
X140407077Y-103062598D01*
X140448052Y-102994271D01*
X140507378Y-102960191D01*
X140583448Y-102961239D01*
X140589082Y-102962581D01*
X140629695Y-102981836D01*
X140659552Y-103019375D01*
X140679945Y-103079809D01*
X140692164Y-103167751D01*
X140697500Y-103287813D01*
X140698000Y-103351698D01*
X140698248Y-103452403D01*
X140699874Y-103521054D01*
X140704199Y-103564673D01*
X140712546Y-103590282D01*
X140726235Y-103604903D01*
X140746589Y-103615558D01*
X140747766Y-103616095D01*
X140786962Y-103632667D01*
X140806381Y-103638769D01*
X140809365Y-103620319D01*
X140811919Y-103569323D01*
X140813860Y-103492308D01*
X140815003Y-103395805D01*
X140815231Y-103325184D01*
X140814068Y-103188525D01*
X140809521Y-103084851D01*
X140800001Y-103008108D01*
X140783919Y-102952246D01*
X140759687Y-102911212D01*
X140725714Y-102878954D01*
X140692167Y-102856440D01*
X140611501Y-102826476D01*
X140517619Y-102819718D01*
X140429193Y-102836782D01*
G36*
X141112667Y-102833528D02*
X141056410Y-102859117D01*
X141012253Y-102890124D01*
X140979899Y-102924795D01*
X140957562Y-102969520D01*
X140943454Y-103030692D01*
X140935789Y-103114701D01*
X140932780Y-103227940D01*
X140932462Y-103302509D01*
X140932462Y-103593420D01*
X140982227Y-103616095D01*
X141021424Y-103632667D01*
X141040843Y-103638769D01*
X141044558Y-103620610D01*
X141047505Y-103571648D01*
X141049309Y-103500153D01*
X141049692Y-103443385D01*
X141051339Y-103361371D01*
X141055778Y-103296309D01*
X141062260Y-103256467D01*
X141067410Y-103248000D01*
X141102023Y-103256646D01*
X141156360Y-103278823D01*
X141219278Y-103308886D01*
X141279632Y-103341192D01*
X141326279Y-103370098D01*
X141348074Y-103389961D01*
X141348161Y-103390175D01*
X141346286Y-103426935D01*
X141329475Y-103462026D01*
X141299961Y-103490528D01*
X141256884Y-103500061D01*
X141220068Y-103498950D01*
X141167926Y-103498133D01*
X141140556Y-103510349D01*
X141124118Y-103542624D01*
X141122045Y-103548710D01*
X141114919Y-103594739D01*
X141133976Y-103622687D01*
X141183647Y-103636007D01*
X141237303Y-103638470D01*
X141333858Y-103620210D01*
X141383841Y-103594131D01*
X141445571Y-103532868D01*
X141478310Y-103457670D01*
X141481247Y-103378211D01*
X141453576Y-103304167D01*
X141411953Y-103257769D01*
X141370396Y-103231793D01*
X141305078Y-103198907D01*
X141228962Y-103165557D01*
X141216274Y-103160461D01*
X141132667Y-103123565D01*
X141084470Y-103091046D01*
X141068970Y-103058718D01*
X141083450Y-103022394D01*
X141108308Y-102994000D01*
X141167061Y-102959039D01*
X141231707Y-102956417D01*
X141290992Y-102983358D01*
X141333661Y-103037088D01*
X141339261Y-103050950D01*
X141371867Y-103101936D01*
X141419470Y-103139787D01*
X141479539Y-103170850D01*
X141479539Y-103082768D01*
X141476003Y-103028951D01*
X141460844Y-102986534D01*
X141427232Y-102941279D01*
X141394965Y-102906420D01*
X141344791Y-102857062D01*
X141305807Y-102830547D01*
X141263936Y-102819911D01*
X141216540Y-102818154D01*
X141112667Y-102833528D01*
X141112667Y-102833528D01*
G37*
X141112667Y-102833528D02*
X141056410Y-102859117D01*
X141012253Y-102890124D01*
X140979899Y-102924795D01*
X140957562Y-102969520D01*
X140943454Y-103030692D01*
X140935789Y-103114701D01*
X140932780Y-103227940D01*
X140932462Y-103302509D01*
X140932462Y-103593420D01*
X140982227Y-103616095D01*
X141021424Y-103632667D01*
X141040843Y-103638769D01*
X141044558Y-103620610D01*
X141047505Y-103571648D01*
X141049309Y-103500153D01*
X141049692Y-103443385D01*
X141051339Y-103361371D01*
X141055778Y-103296309D01*
X141062260Y-103256467D01*
X141067410Y-103248000D01*
X141102023Y-103256646D01*
X141156360Y-103278823D01*
X141219278Y-103308886D01*
X141279632Y-103341192D01*
X141326279Y-103370098D01*
X141348074Y-103389961D01*
X141348161Y-103390175D01*
X141346286Y-103426935D01*
X141329475Y-103462026D01*
X141299961Y-103490528D01*
X141256884Y-103500061D01*
X141220068Y-103498950D01*
X141167926Y-103498133D01*
X141140556Y-103510349D01*
X141124118Y-103542624D01*
X141122045Y-103548710D01*
X141114919Y-103594739D01*
X141133976Y-103622687D01*
X141183647Y-103636007D01*
X141237303Y-103638470D01*
X141333858Y-103620210D01*
X141383841Y-103594131D01*
X141445571Y-103532868D01*
X141478310Y-103457670D01*
X141481247Y-103378211D01*
X141453576Y-103304167D01*
X141411953Y-103257769D01*
X141370396Y-103231793D01*
X141305078Y-103198907D01*
X141228962Y-103165557D01*
X141216274Y-103160461D01*
X141132667Y-103123565D01*
X141084470Y-103091046D01*
X141068970Y-103058718D01*
X141083450Y-103022394D01*
X141108308Y-102994000D01*
X141167061Y-102959039D01*
X141231707Y-102956417D01*
X141290992Y-102983358D01*
X141333661Y-103037088D01*
X141339261Y-103050950D01*
X141371867Y-103101936D01*
X141419470Y-103139787D01*
X141479539Y-103170850D01*
X141479539Y-103082768D01*
X141476003Y-103028951D01*
X141460844Y-102986534D01*
X141427232Y-102941279D01*
X141394965Y-102906420D01*
X141344791Y-102857062D01*
X141305807Y-102830547D01*
X141263936Y-102819911D01*
X141216540Y-102818154D01*
X141112667Y-102833528D01*
G36*
X141604071Y-102836662D02*
X141601089Y-102888068D01*
X141598753Y-102966192D01*
X141597251Y-103064857D01*
X141596769Y-103168343D01*
X141596769Y-103518533D01*
X141658599Y-103580363D01*
X141701207Y-103618462D01*
X141738610Y-103633895D01*
X141789730Y-103632918D01*
X141810022Y-103630433D01*
X141873446Y-103623200D01*
X141925905Y-103619055D01*
X141938692Y-103618672D01*
X141981801Y-103621176D01*
X142043456Y-103627462D01*
X142067362Y-103630433D01*
X142126078Y-103635028D01*
X142165536Y-103625046D01*
X142204662Y-103594228D01*
X142218785Y-103580363D01*
X142280615Y-103518533D01*
X142280615Y-102863503D01*
X142230850Y-102840829D01*
X142187998Y-102824034D01*
X142162927Y-102818154D01*
X142156499Y-102836736D01*
X142150491Y-102888655D01*
X142145303Y-102968172D01*
X142141336Y-103069546D01*
X142139423Y-103155192D01*
X142134077Y-103492231D01*
X142087440Y-103498825D01*
X142045024Y-103494214D01*
X142024240Y-103479287D01*
X142018430Y-103451377D01*
X142013470Y-103391925D01*
X142009754Y-103308466D01*
X142007676Y-103208532D01*
X142007376Y-103157104D01*
X142007077Y-102861054D01*
X141945546Y-102839604D01*
X141901996Y-102825020D01*
X141878306Y-102818219D01*
X141877623Y-102818154D01*
X141875246Y-102836642D01*
X141872634Y-102887906D01*
X141870005Y-102965649D01*
X141867579Y-103063574D01*
X141865885Y-103155192D01*
X141860539Y-103492231D01*
X141743308Y-103492231D01*
X141737928Y-103184746D01*
X141732549Y-102877261D01*
X141675399Y-102847707D01*
X141633203Y-102827413D01*
X141608230Y-102818204D01*
X141607509Y-102818154D01*
X141604071Y-102836662D01*
X141604071Y-102836662D01*
G37*
X141604071Y-102836662D02*
X141601089Y-102888068D01*
X141598753Y-102966192D01*
X141597251Y-103064857D01*
X141596769Y-103168343D01*
X141596769Y-103518533D01*
X141658599Y-103580363D01*
X141701207Y-103618462D01*
X141738610Y-103633895D01*
X141789730Y-103632918D01*
X141810022Y-103630433D01*
X141873446Y-103623200D01*
X141925905Y-103619055D01*
X141938692Y-103618672D01*
X141981801Y-103621176D01*
X142043456Y-103627462D01*
X142067362Y-103630433D01*
X142126078Y-103635028D01*
X142165536Y-103625046D01*
X142204662Y-103594228D01*
X142218785Y-103580363D01*
X142280615Y-103518533D01*
X142280615Y-102863503D01*
X142230850Y-102840829D01*
X142187998Y-102824034D01*
X142162927Y-102818154D01*
X142156499Y-102836736D01*
X142150491Y-102888655D01*
X142145303Y-102968172D01*
X142141336Y-103069546D01*
X142139423Y-103155192D01*
X142134077Y-103492231D01*
X142087440Y-103498825D01*
X142045024Y-103494214D01*
X142024240Y-103479287D01*
X142018430Y-103451377D01*
X142013470Y-103391925D01*
X142009754Y-103308466D01*
X142007676Y-103208532D01*
X142007376Y-103157104D01*
X142007077Y-102861054D01*
X141945546Y-102839604D01*
X141901996Y-102825020D01*
X141878306Y-102818219D01*
X141877623Y-102818154D01*
X141875246Y-102836642D01*
X141872634Y-102887906D01*
X141870005Y-102965649D01*
X141867579Y-103063574D01*
X141865885Y-103155192D01*
X141860539Y-103492231D01*
X141743308Y-103492231D01*
X141737928Y-103184746D01*
X141732549Y-102877261D01*
X141675399Y-102847707D01*
X141633203Y-102827413D01*
X141608230Y-102818204D01*
X141607509Y-102818154D01*
X141604071Y-102836662D01*
G36*
X142397919Y-102980289D02*
X142398167Y-103126320D01*
X142399128Y-103238655D01*
X142401206Y-103322678D01*
X142404807Y-103383769D01*
X142410335Y-103427309D01*
X142418196Y-103458679D01*
X142428793Y-103483262D01*
X142436818Y-103497294D01*
X142503272Y-103573388D01*
X142587530Y-103621084D01*
X142680751Y-103638199D01*
X142774100Y-103622546D01*
X142829688Y-103594418D01*
X142888043Y-103545760D01*
X142927814Y-103486333D01*
X142951810Y-103408507D01*
X142962839Y-103304652D01*
X142964401Y-103228462D01*
X142964191Y-103222986D01*
X142827692Y-103222986D01*
X142826859Y-103310355D01*
X142823039Y-103368192D01*
X142814254Y-103406029D01*
X142798526Y-103433398D01*
X142779734Y-103454042D01*
X142716625Y-103493890D01*
X142648863Y-103497295D01*
X142584821Y-103464025D01*
X142579836Y-103459517D01*
X142558561Y-103436067D01*
X142545221Y-103408166D01*
X142537999Y-103366641D01*
X142535077Y-103302316D01*
X142534615Y-103231200D01*
X142535617Y-103141858D01*
X142539762Y-103082258D01*
X142548764Y-103043089D01*
X142564333Y-103015040D01*
X142577098Y-103000144D01*
X142636400Y-102962575D01*
X142704699Y-102958057D01*
X142769890Y-102986753D01*
X142782472Y-102997406D01*
X142803889Y-103021063D01*
X142817256Y-103049251D01*
X142824434Y-103091245D01*
X142827281Y-103156319D01*
X142827692Y-103222986D01*
X142964191Y-103222986D01*
X142959678Y-103105765D01*
X142943638Y-103013577D01*
X142913472Y-102944269D01*
X142866371Y-102890211D01*
X142829688Y-102862505D01*
X142763010Y-102832572D01*
X142685728Y-102818678D01*
X142613890Y-102822397D01*
X142573692Y-102837400D01*
X142557918Y-102841670D01*
X142547450Y-102825750D01*
X142540144Y-102783089D01*
X142534615Y-102718106D01*
X142528563Y-102645732D01*
X142520156Y-102602187D01*
X142504859Y-102577287D01*
X142478136Y-102560845D01*
X142461346Y-102553564D01*
X142397846Y-102526963D01*
X142397919Y-102980289D01*
X142397919Y-102980289D01*
G37*
X142397919Y-102980289D02*
X142398167Y-103126320D01*
X142399128Y-103238655D01*
X142401206Y-103322678D01*
X142404807Y-103383769D01*
X142410335Y-103427309D01*
X142418196Y-103458679D01*
X142428793Y-103483262D01*
X142436818Y-103497294D01*
X142503272Y-103573388D01*
X142587530Y-103621084D01*
X142680751Y-103638199D01*
X142774100Y-103622546D01*
X142829688Y-103594418D01*
X142888043Y-103545760D01*
X142927814Y-103486333D01*
X142951810Y-103408507D01*
X142962839Y-103304652D01*
X142964401Y-103228462D01*
X142964191Y-103222986D01*
X142827692Y-103222986D01*
X142826859Y-103310355D01*
X142823039Y-103368192D01*
X142814254Y-103406029D01*
X142798526Y-103433398D01*
X142779734Y-103454042D01*
X142716625Y-103493890D01*
X142648863Y-103497295D01*
X142584821Y-103464025D01*
X142579836Y-103459517D01*
X142558561Y-103436067D01*
X142545221Y-103408166D01*
X142537999Y-103366641D01*
X142535077Y-103302316D01*
X142534615Y-103231200D01*
X142535617Y-103141858D01*
X142539762Y-103082258D01*
X142548764Y-103043089D01*
X142564333Y-103015040D01*
X142577098Y-103000144D01*
X142636400Y-102962575D01*
X142704699Y-102958057D01*
X142769890Y-102986753D01*
X142782472Y-102997406D01*
X142803889Y-103021063D01*
X142817256Y-103049251D01*
X142824434Y-103091245D01*
X142827281Y-103156319D01*
X142827692Y-103222986D01*
X142964191Y-103222986D01*
X142959678Y-103105765D01*
X142943638Y-103013577D01*
X142913472Y-102944269D01*
X142866371Y-102890211D01*
X142829688Y-102862505D01*
X142763010Y-102832572D01*
X142685728Y-102818678D01*
X142613890Y-102822397D01*
X142573692Y-102837400D01*
X142557918Y-102841670D01*
X142547450Y-102825750D01*
X142540144Y-102783089D01*
X142534615Y-102718106D01*
X142528563Y-102645732D01*
X142520156Y-102602187D01*
X142504859Y-102577287D01*
X142478136Y-102560845D01*
X142461346Y-102553564D01*
X142397846Y-102526963D01*
X142397919Y-102980289D01*
G36*
X143286638Y-102824670D02*
X143197883Y-102857421D01*
X143125978Y-102915350D01*
X143097856Y-102956128D01*
X143067198Y-103030954D01*
X143067835Y-103085058D01*
X143100013Y-103121446D01*
X143111919Y-103127633D01*
X143163325Y-103146925D01*
X143189578Y-103141982D01*
X143198470Y-103109587D01*
X143198923Y-103091692D01*
X143215203Y-103025859D01*
X143257635Y-102979807D01*
X143316612Y-102957564D01*
X143382525Y-102963161D01*
X143436105Y-102992229D01*
X143454202Y-103008810D01*
X143467029Y-103028925D01*
X143475694Y-103059332D01*
X143481304Y-103106788D01*
X143484965Y-103178050D01*
X143487785Y-103279875D01*
X143488516Y-103312115D01*
X143491180Y-103422410D01*
X143494208Y-103500036D01*
X143498750Y-103551396D01*
X143505954Y-103582890D01*
X143516967Y-103600920D01*
X143532940Y-103611888D01*
X143543166Y-103616733D01*
X143586594Y-103633301D01*
X143612158Y-103638769D01*
X143620605Y-103620507D01*
X143625761Y-103565296D01*
X143627654Y-103472499D01*
X143626311Y-103341478D01*
X143625893Y-103321269D01*
X143622942Y-103201733D01*
X143619452Y-103114449D01*
X143614486Y-103052591D01*
X143607107Y-103009336D01*
X143596376Y-102977860D01*
X143581355Y-102951339D01*
X143573498Y-102939975D01*
X143528447Y-102889692D01*
X143478060Y-102850581D01*
X143471892Y-102847167D01*
X143381542Y-102820212D01*
X143286638Y-102824670D01*
X143286638Y-102824670D01*
G37*
X143286638Y-102824670D02*
X143197883Y-102857421D01*
X143125978Y-102915350D01*
X143097856Y-102956128D01*
X143067198Y-103030954D01*
X143067835Y-103085058D01*
X143100013Y-103121446D01*
X143111919Y-103127633D01*
X143163325Y-103146925D01*
X143189578Y-103141982D01*
X143198470Y-103109587D01*
X143198923Y-103091692D01*
X143215203Y-103025859D01*
X143257635Y-102979807D01*
X143316612Y-102957564D01*
X143382525Y-102963161D01*
X143436105Y-102992229D01*
X143454202Y-103008810D01*
X143467029Y-103028925D01*
X143475694Y-103059332D01*
X143481304Y-103106788D01*
X143484965Y-103178050D01*
X143487785Y-103279875D01*
X143488516Y-103312115D01*
X143491180Y-103422410D01*
X143494208Y-103500036D01*
X143498750Y-103551396D01*
X143505954Y-103582890D01*
X143516967Y-103600920D01*
X143532940Y-103611888D01*
X143543166Y-103616733D01*
X143586594Y-103633301D01*
X143612158Y-103638769D01*
X143620605Y-103620507D01*
X143625761Y-103565296D01*
X143627654Y-103472499D01*
X143626311Y-103341478D01*
X143625893Y-103321269D01*
X143622942Y-103201733D01*
X143619452Y-103114449D01*
X143614486Y-103052591D01*
X143607107Y-103009336D01*
X143596376Y-102977860D01*
X143581355Y-102951339D01*
X143573498Y-102939975D01*
X143528447Y-102889692D01*
X143478060Y-102850581D01*
X143471892Y-102847167D01*
X143381542Y-102820212D01*
X143286638Y-102824670D01*
G36*
X143946499Y-102826303D02*
X143869940Y-102854733D01*
X143869064Y-102855279D01*
X143821715Y-102890127D01*
X143786759Y-102930852D01*
X143762175Y-102983925D01*
X143745938Y-103055814D01*
X143736025Y-103152992D01*
X143730414Y-103281928D01*
X143729923Y-103300298D01*
X143722859Y-103577287D01*
X143782305Y-103608028D01*
X143825319Y-103628802D01*
X143851290Y-103638646D01*
X143852491Y-103638769D01*
X143856986Y-103620606D01*
X143860556Y-103571612D01*
X143862752Y-103500031D01*
X143863231Y-103442068D01*
X143863242Y-103348170D01*
X143867534Y-103289203D01*
X143882497Y-103261079D01*
X143914518Y-103259706D01*
X143969986Y-103280998D01*
X144053731Y-103320136D01*
X144115311Y-103352643D01*
X144146983Y-103380845D01*
X144156294Y-103411582D01*
X144156308Y-103413104D01*
X144140943Y-103466054D01*
X144095453Y-103494660D01*
X144025834Y-103498803D01*
X143975687Y-103498084D01*
X143949246Y-103512527D01*
X143932757Y-103547218D01*
X143923267Y-103591416D01*
X143936943Y-103616493D01*
X143942093Y-103620082D01*
X143990575Y-103634496D01*
X144058469Y-103636537D01*
X144128388Y-103626983D01*
X144177932Y-103609522D01*
X144246430Y-103551364D01*
X144285366Y-103470408D01*
X144293077Y-103407160D01*
X144287193Y-103350111D01*
X144265899Y-103303542D01*
X144223735Y-103262181D01*
X144155241Y-103220755D01*
X144054956Y-103173993D01*
X144048846Y-103171350D01*
X143958510Y-103129617D01*
X143902765Y-103095391D01*
X143878871Y-103064635D01*
X143884087Y-103033311D01*
X143915672Y-102997383D01*
X143925117Y-102989116D01*
X143988383Y-102957058D01*
X144053936Y-102958407D01*
X144111028Y-102989838D01*
X144148907Y-103048024D01*
X144152426Y-103059446D01*
X144186700Y-103114837D01*
X144230191Y-103141518D01*
X144293077Y-103167960D01*
X144293077Y-103099548D01*
X144273948Y-103000110D01*
X144217169Y-102908902D01*
X144187622Y-102878389D01*
X144120458Y-102839228D01*
X144035044Y-102821500D01*
X143946499Y-102826303D01*
X143946499Y-102826303D01*
G37*
X143946499Y-102826303D02*
X143869940Y-102854733D01*
X143869064Y-102855279D01*
X143821715Y-102890127D01*
X143786759Y-102930852D01*
X143762175Y-102983925D01*
X143745938Y-103055814D01*
X143736025Y-103152992D01*
X143730414Y-103281928D01*
X143729923Y-103300298D01*
X143722859Y-103577287D01*
X143782305Y-103608028D01*
X143825319Y-103628802D01*
X143851290Y-103638646D01*
X143852491Y-103638769D01*
X143856986Y-103620606D01*
X143860556Y-103571612D01*
X143862752Y-103500031D01*
X143863231Y-103442068D01*
X143863242Y-103348170D01*
X143867534Y-103289203D01*
X143882497Y-103261079D01*
X143914518Y-103259706D01*
X143969986Y-103280998D01*
X144053731Y-103320136D01*
X144115311Y-103352643D01*
X144146983Y-103380845D01*
X144156294Y-103411582D01*
X144156308Y-103413104D01*
X144140943Y-103466054D01*
X144095453Y-103494660D01*
X144025834Y-103498803D01*
X143975687Y-103498084D01*
X143949246Y-103512527D01*
X143932757Y-103547218D01*
X143923267Y-103591416D01*
X143936943Y-103616493D01*
X143942093Y-103620082D01*
X143990575Y-103634496D01*
X144058469Y-103636537D01*
X144128388Y-103626983D01*
X144177932Y-103609522D01*
X144246430Y-103551364D01*
X144285366Y-103470408D01*
X144293077Y-103407160D01*
X144287193Y-103350111D01*
X144265899Y-103303542D01*
X144223735Y-103262181D01*
X144155241Y-103220755D01*
X144054956Y-103173993D01*
X144048846Y-103171350D01*
X143958510Y-103129617D01*
X143902765Y-103095391D01*
X143878871Y-103064635D01*
X143884087Y-103033311D01*
X143915672Y-102997383D01*
X143925117Y-102989116D01*
X143988383Y-102957058D01*
X144053936Y-102958407D01*
X144111028Y-102989838D01*
X144148907Y-103048024D01*
X144152426Y-103059446D01*
X144186700Y-103114837D01*
X144230191Y-103141518D01*
X144293077Y-103167960D01*
X144293077Y-103099548D01*
X144273948Y-103000110D01*
X144217169Y-102908902D01*
X144187622Y-102878389D01*
X144120458Y-102839228D01*
X144035044Y-102821500D01*
X143946499Y-102826303D01*
G36*
X144840154Y-102692120D02*
X144834428Y-102771980D01*
X144827851Y-102819039D01*
X144818738Y-102839566D01*
X144805402Y-102839829D01*
X144801077Y-102837378D01*
X144743556Y-102819636D01*
X144668732Y-102820672D01*
X144592661Y-102838910D01*
X144545082Y-102862505D01*
X144496298Y-102900198D01*
X144460636Y-102942855D01*
X144436155Y-102997057D01*
X144420913Y-103069384D01*
X144412970Y-103166419D01*
X144410384Y-103294742D01*
X144410338Y-103319358D01*
X144410308Y-103595870D01*
X144471839Y-103617320D01*
X144515541Y-103631912D01*
X144539518Y-103638706D01*
X144540223Y-103638769D01*
X144542585Y-103620345D01*
X144544594Y-103569526D01*
X144546099Y-103492993D01*
X144546947Y-103397430D01*
X144547077Y-103339329D01*
X144547349Y-103224771D01*
X144548748Y-103142667D01*
X144552151Y-103086393D01*
X144558433Y-103049326D01*
X144568471Y-103024844D01*
X144583139Y-103006325D01*
X144592298Y-102997406D01*
X144655211Y-102961466D01*
X144723864Y-102958775D01*
X144786152Y-102989170D01*
X144797671Y-103000144D01*
X144814567Y-103020779D01*
X144826286Y-103045256D01*
X144833767Y-103080647D01*
X144837946Y-103134026D01*
X144839763Y-103212466D01*
X144840154Y-103320617D01*
X144840154Y-103595870D01*
X144901685Y-103617320D01*
X144945387Y-103631912D01*
X144969364Y-103638706D01*
X144970070Y-103638769D01*
X144971874Y-103620069D01*
X144973500Y-103567322D01*
X144974883Y-103485557D01*
X144975958Y-103379805D01*
X144976660Y-103255094D01*
X144976923Y-103116455D01*
X144976923Y-102581806D01*
X144849923Y-102528236D01*
X144840154Y-102692120D01*
X144840154Y-102692120D01*
G37*
X144840154Y-102692120D02*
X144834428Y-102771980D01*
X144827851Y-102819039D01*
X144818738Y-102839566D01*
X144805402Y-102839829D01*
X144801077Y-102837378D01*
X144743556Y-102819636D01*
X144668732Y-102820672D01*
X144592661Y-102838910D01*
X144545082Y-102862505D01*
X144496298Y-102900198D01*
X144460636Y-102942855D01*
X144436155Y-102997057D01*
X144420913Y-103069384D01*
X144412970Y-103166419D01*
X144410384Y-103294742D01*
X144410338Y-103319358D01*
X144410308Y-103595870D01*
X144471839Y-103617320D01*
X144515541Y-103631912D01*
X144539518Y-103638706D01*
X144540223Y-103638769D01*
X144542585Y-103620345D01*
X144544594Y-103569526D01*
X144546099Y-103492993D01*
X144546947Y-103397430D01*
X144547077Y-103339329D01*
X144547349Y-103224771D01*
X144548748Y-103142667D01*
X144552151Y-103086393D01*
X144558433Y-103049326D01*
X144568471Y-103024844D01*
X144583139Y-103006325D01*
X144592298Y-102997406D01*
X144655211Y-102961466D01*
X144723864Y-102958775D01*
X144786152Y-102989170D01*
X144797671Y-103000144D01*
X144814567Y-103020779D01*
X144826286Y-103045256D01*
X144833767Y-103080647D01*
X144837946Y-103134026D01*
X144839763Y-103212466D01*
X144840154Y-103320617D01*
X144840154Y-103595870D01*
X144901685Y-103617320D01*
X144945387Y-103631912D01*
X144969364Y-103638706D01*
X144970070Y-103638769D01*
X144971874Y-103620069D01*
X144973500Y-103567322D01*
X144974883Y-103485557D01*
X144975958Y-103379805D01*
X144976660Y-103255094D01*
X144976923Y-103116455D01*
X144976923Y-102581806D01*
X144849923Y-102528236D01*
X144840154Y-102692120D01*
G36*
X146465746Y-102799745D02*
X146388714Y-102851567D01*
X146329184Y-102926412D01*
X146293622Y-103021654D01*
X146286429Y-103091756D01*
X146287246Y-103121009D01*
X146294086Y-103143407D01*
X146312888Y-103163474D01*
X146349592Y-103185733D01*
X146410138Y-103214709D01*
X146500466Y-103254927D01*
X146500923Y-103255129D01*
X146584067Y-103293210D01*
X146652247Y-103327025D01*
X146698495Y-103352933D01*
X146715842Y-103367295D01*
X146715846Y-103367411D01*
X146700557Y-103398685D01*
X146664804Y-103433157D01*
X146623758Y-103457990D01*
X146602963Y-103462923D01*
X146546230Y-103445862D01*
X146497373Y-103403133D01*
X146473535Y-103356155D01*
X146450603Y-103321522D01*
X146405682Y-103282081D01*
X146352877Y-103248009D01*
X146306290Y-103229480D01*
X146296548Y-103228462D01*
X146285582Y-103245215D01*
X146284921Y-103288039D01*
X146292980Y-103345781D01*
X146308173Y-103407289D01*
X146328914Y-103461409D01*
X146329962Y-103463510D01*
X146392379Y-103550660D01*
X146473274Y-103609939D01*
X146565144Y-103639034D01*
X146660487Y-103635634D01*
X146751802Y-103597428D01*
X146755862Y-103594741D01*
X146827694Y-103529642D01*
X146874927Y-103444705D01*
X146901066Y-103333021D01*
X146904574Y-103301643D01*
X146910787Y-103153536D01*
X146903339Y-103084468D01*
X146715846Y-103084468D01*
X146713410Y-103127552D01*
X146700086Y-103140126D01*
X146666868Y-103130719D01*
X146614506Y-103108483D01*
X146555976Y-103080610D01*
X146554521Y-103079872D01*
X146504911Y-103053777D01*
X146485000Y-103036363D01*
X146489910Y-103018107D01*
X146510584Y-102994120D01*
X146563181Y-102959406D01*
X146619823Y-102956856D01*
X146670631Y-102982119D01*
X146705724Y-103030847D01*
X146715846Y-103084468D01*
X146903339Y-103084468D01*
X146898008Y-103035036D01*
X146865222Y-102941055D01*
X146819579Y-102875215D01*
X146737198Y-102808681D01*
X146646454Y-102775676D01*
X146553815Y-102773573D01*
X146465746Y-102799745D01*
X146465746Y-102799745D01*
G37*
X146465746Y-102799745D02*
X146388714Y-102851567D01*
X146329184Y-102926412D01*
X146293622Y-103021654D01*
X146286429Y-103091756D01*
X146287246Y-103121009D01*
X146294086Y-103143407D01*
X146312888Y-103163474D01*
X146349592Y-103185733D01*
X146410138Y-103214709D01*
X146500466Y-103254927D01*
X146500923Y-103255129D01*
X146584067Y-103293210D01*
X146652247Y-103327025D01*
X146698495Y-103352933D01*
X146715842Y-103367295D01*
X146715846Y-103367411D01*
X146700557Y-103398685D01*
X146664804Y-103433157D01*
X146623758Y-103457990D01*
X146602963Y-103462923D01*
X146546230Y-103445862D01*
X146497373Y-103403133D01*
X146473535Y-103356155D01*
X146450603Y-103321522D01*
X146405682Y-103282081D01*
X146352877Y-103248009D01*
X146306290Y-103229480D01*
X146296548Y-103228462D01*
X146285582Y-103245215D01*
X146284921Y-103288039D01*
X146292980Y-103345781D01*
X146308173Y-103407289D01*
X146328914Y-103461409D01*
X146329962Y-103463510D01*
X146392379Y-103550660D01*
X146473274Y-103609939D01*
X146565144Y-103639034D01*
X146660487Y-103635634D01*
X146751802Y-103597428D01*
X146755862Y-103594741D01*
X146827694Y-103529642D01*
X146874927Y-103444705D01*
X146901066Y-103333021D01*
X146904574Y-103301643D01*
X146910787Y-103153536D01*
X146903339Y-103084468D01*
X146715846Y-103084468D01*
X146713410Y-103127552D01*
X146700086Y-103140126D01*
X146666868Y-103130719D01*
X146614506Y-103108483D01*
X146555976Y-103080610D01*
X146554521Y-103079872D01*
X146504911Y-103053777D01*
X146485000Y-103036363D01*
X146489910Y-103018107D01*
X146510584Y-102994120D01*
X146563181Y-102959406D01*
X146619823Y-102956856D01*
X146670631Y-102982119D01*
X146705724Y-103030847D01*
X146715846Y-103084468D01*
X146903339Y-103084468D01*
X146898008Y-103035036D01*
X146865222Y-102941055D01*
X146819579Y-102875215D01*
X146737198Y-102808681D01*
X146646454Y-102775676D01*
X146553815Y-102773573D01*
X146465746Y-102799745D01*
G36*
X147983114Y-102787256D02*
X147891536Y-102835409D01*
X147823951Y-102912905D01*
X147799943Y-102962727D01*
X147781262Y-103037533D01*
X147771699Y-103132052D01*
X147770792Y-103235210D01*
X147778079Y-103335935D01*
X147793097Y-103423153D01*
X147815385Y-103485791D01*
X147822235Y-103496579D01*
X147903368Y-103577105D01*
X147999734Y-103625336D01*
X148104299Y-103639450D01*
X148210032Y-103617629D01*
X148239457Y-103604547D01*
X148296759Y-103564231D01*
X148347050Y-103510775D01*
X148351803Y-103503995D01*
X148371122Y-103471321D01*
X148383892Y-103436394D01*
X148391436Y-103390414D01*
X148395076Y-103324584D01*
X148396135Y-103230105D01*
X148396154Y-103208923D01*
X148396106Y-103202182D01*
X148200769Y-103202182D01*
X148199632Y-103291349D01*
X148195159Y-103350520D01*
X148185754Y-103388741D01*
X148169824Y-103415053D01*
X148161692Y-103423846D01*
X148114942Y-103457261D01*
X148069553Y-103455737D01*
X148023660Y-103426752D01*
X147996288Y-103395809D01*
X147980077Y-103350643D01*
X147970974Y-103279420D01*
X147970349Y-103271114D01*
X147968796Y-103142037D01*
X147985035Y-103046172D01*
X148018848Y-102984107D01*
X148070016Y-102956432D01*
X148088280Y-102954923D01*
X148136240Y-102962513D01*
X148169047Y-102988808D01*
X148189105Y-103039095D01*
X148198822Y-103118664D01*
X148200769Y-103202182D01*
X148396106Y-103202182D01*
X148395426Y-103108249D01*
X148392371Y-103037906D01*
X148385678Y-102989163D01*
X148374040Y-102953288D01*
X148356147Y-102921548D01*
X148352192Y-102915648D01*
X148285733Y-102836104D01*
X148213315Y-102789929D01*
X148125151Y-102771599D01*
X148095213Y-102770703D01*
X147983114Y-102787256D01*
X147983114Y-102787256D01*
G37*
X147983114Y-102787256D02*
X147891536Y-102835409D01*
X147823951Y-102912905D01*
X147799943Y-102962727D01*
X147781262Y-103037533D01*
X147771699Y-103132052D01*
X147770792Y-103235210D01*
X147778079Y-103335935D01*
X147793097Y-103423153D01*
X147815385Y-103485791D01*
X147822235Y-103496579D01*
X147903368Y-103577105D01*
X147999734Y-103625336D01*
X148104299Y-103639450D01*
X148210032Y-103617629D01*
X148239457Y-103604547D01*
X148296759Y-103564231D01*
X148347050Y-103510775D01*
X148351803Y-103503995D01*
X148371122Y-103471321D01*
X148383892Y-103436394D01*
X148391436Y-103390414D01*
X148395076Y-103324584D01*
X148396135Y-103230105D01*
X148396154Y-103208923D01*
X148396106Y-103202182D01*
X148200769Y-103202182D01*
X148199632Y-103291349D01*
X148195159Y-103350520D01*
X148185754Y-103388741D01*
X148169824Y-103415053D01*
X148161692Y-103423846D01*
X148114942Y-103457261D01*
X148069553Y-103455737D01*
X148023660Y-103426752D01*
X147996288Y-103395809D01*
X147980077Y-103350643D01*
X147970974Y-103279420D01*
X147970349Y-103271114D01*
X147968796Y-103142037D01*
X147985035Y-103046172D01*
X148018848Y-102984107D01*
X148070016Y-102956432D01*
X148088280Y-102954923D01*
X148136240Y-102962513D01*
X148169047Y-102988808D01*
X148189105Y-103039095D01*
X148198822Y-103118664D01*
X148200769Y-103202182D01*
X148396106Y-103202182D01*
X148395426Y-103108249D01*
X148392371Y-103037906D01*
X148385678Y-102989163D01*
X148374040Y-102953288D01*
X148356147Y-102921548D01*
X148352192Y-102915648D01*
X148285733Y-102836104D01*
X148213315Y-102789929D01*
X148125151Y-102771599D01*
X148095213Y-102770703D01*
X147983114Y-102787256D01*
G36*
X145728336Y-102795089D02*
X145665633Y-102831358D01*
X145622039Y-102867358D01*
X145590155Y-102905075D01*
X145568190Y-102951199D01*
X145554351Y-103012421D01*
X145546847Y-103095431D01*
X145543883Y-103206919D01*
X145543539Y-103287062D01*
X145543539Y-103582065D01*
X145709615Y-103656515D01*
X145719385Y-103333402D01*
X145723421Y-103212729D01*
X145727656Y-103125141D01*
X145732903Y-103064650D01*
X145739975Y-103025268D01*
X145749689Y-103001007D01*
X145762856Y-102985880D01*
X145767081Y-102982606D01*
X145831091Y-102957034D01*
X145895792Y-102967153D01*
X145934308Y-102994000D01*
X145949975Y-103013024D01*
X145960820Y-103037988D01*
X145967712Y-103075834D01*
X145971521Y-103133502D01*
X145973117Y-103217935D01*
X145973385Y-103305928D01*
X145973437Y-103416323D01*
X145975328Y-103494463D01*
X145981655Y-103547165D01*
X145995017Y-103581242D01*
X146018015Y-103603511D01*
X146053246Y-103620787D01*
X146100303Y-103638738D01*
X146151697Y-103658278D01*
X146145579Y-103311485D01*
X146143116Y-103186468D01*
X146140233Y-103094082D01*
X146136102Y-103027881D01*
X146129893Y-102981420D01*
X146120774Y-102948256D01*
X146107917Y-102921944D01*
X146092416Y-102898729D01*
X146017629Y-102824569D01*
X145926372Y-102781684D01*
X145827117Y-102771412D01*
X145728336Y-102795089D01*
X145728336Y-102795089D01*
G37*
X145728336Y-102795089D02*
X145665633Y-102831358D01*
X145622039Y-102867358D01*
X145590155Y-102905075D01*
X145568190Y-102951199D01*
X145554351Y-103012421D01*
X145546847Y-103095431D01*
X145543883Y-103206919D01*
X145543539Y-103287062D01*
X145543539Y-103582065D01*
X145709615Y-103656515D01*
X145719385Y-103333402D01*
X145723421Y-103212729D01*
X145727656Y-103125141D01*
X145732903Y-103064650D01*
X145739975Y-103025268D01*
X145749689Y-103001007D01*
X145762856Y-102985880D01*
X145767081Y-102982606D01*
X145831091Y-102957034D01*
X145895792Y-102967153D01*
X145934308Y-102994000D01*
X145949975Y-103013024D01*
X145960820Y-103037988D01*
X145967712Y-103075834D01*
X145971521Y-103133502D01*
X145973117Y-103217935D01*
X145973385Y-103305928D01*
X145973437Y-103416323D01*
X145975328Y-103494463D01*
X145981655Y-103547165D01*
X145995017Y-103581242D01*
X146018015Y-103603511D01*
X146053246Y-103620787D01*
X146100303Y-103638738D01*
X146151697Y-103658278D01*
X146145579Y-103311485D01*
X146143116Y-103186468D01*
X146140233Y-103094082D01*
X146136102Y-103027881D01*
X146129893Y-102981420D01*
X146120774Y-102948256D01*
X146107917Y-102921944D01*
X146092416Y-102898729D01*
X146017629Y-102824569D01*
X145926372Y-102781684D01*
X145827117Y-102771412D01*
X145728336Y-102795089D01*
G36*
X147231114Y-102784505D02*
X147156461Y-102821727D01*
X147090569Y-102890261D01*
X147072423Y-102915648D01*
X147052655Y-102948866D01*
X147039828Y-102984945D01*
X147032490Y-103033098D01*
X147029187Y-103102536D01*
X147028462Y-103194206D01*
X147031737Y-103319830D01*
X147043123Y-103414154D01*
X147064959Y-103484523D01*
X147099581Y-103538286D01*
X147149330Y-103582788D01*
X147152986Y-103585423D01*
X147202015Y-103612377D01*
X147261055Y-103625712D01*
X147336141Y-103629000D01*
X147458205Y-103629000D01*
X147458256Y-103747497D01*
X147459392Y-103813492D01*
X147466314Y-103852202D01*
X147484402Y-103875419D01*
X147519038Y-103894933D01*
X147527355Y-103898920D01*
X147566280Y-103917603D01*
X147596417Y-103929403D01*
X147618826Y-103930422D01*
X147634567Y-103916761D01*
X147644698Y-103884522D01*
X147650277Y-103829804D01*
X147652365Y-103748711D01*
X147652019Y-103637344D01*
X147650300Y-103491802D01*
X147649763Y-103448269D01*
X147647828Y-103298205D01*
X147646096Y-103200042D01*
X147458308Y-103200042D01*
X147457252Y-103283364D01*
X147452562Y-103337880D01*
X147441949Y-103373837D01*
X147423128Y-103401482D01*
X147410350Y-103414965D01*
X147358110Y-103454417D01*
X147311858Y-103457628D01*
X147264133Y-103425049D01*
X147262923Y-103423846D01*
X147243506Y-103398668D01*
X147231693Y-103364447D01*
X147225735Y-103311748D01*
X147223880Y-103231131D01*
X147223846Y-103213271D01*
X147228330Y-103102175D01*
X147242926Y-103025161D01*
X147269350Y-102978147D01*
X147309317Y-102957050D01*
X147332416Y-102954923D01*
X147387238Y-102964900D01*
X147424842Y-102997752D01*
X147447477Y-103057857D01*
X147457394Y-103149598D01*
X147458308Y-103200042D01*
X147646096Y-103200042D01*
X147645778Y-103182060D01*
X147643127Y-103094679D01*
X147639394Y-103030905D01*
X147634093Y-102985582D01*
X147626742Y-102953555D01*
X147616857Y-102929668D01*
X147603954Y-102908764D01*
X147598421Y-102900898D01*
X147525031Y-102826595D01*
X147432240Y-102784467D01*
X147324904Y-102772722D01*
X147231114Y-102784505D01*
X147231114Y-102784505D01*
G37*
X147231114Y-102784505D02*
X147156461Y-102821727D01*
X147090569Y-102890261D01*
X147072423Y-102915648D01*
X147052655Y-102948866D01*
X147039828Y-102984945D01*
X147032490Y-103033098D01*
X147029187Y-103102536D01*
X147028462Y-103194206D01*
X147031737Y-103319830D01*
X147043123Y-103414154D01*
X147064959Y-103484523D01*
X147099581Y-103538286D01*
X147149330Y-103582788D01*
X147152986Y-103585423D01*
X147202015Y-103612377D01*
X147261055Y-103625712D01*
X147336141Y-103629000D01*
X147458205Y-103629000D01*
X147458256Y-103747497D01*
X147459392Y-103813492D01*
X147466314Y-103852202D01*
X147484402Y-103875419D01*
X147519038Y-103894933D01*
X147527355Y-103898920D01*
X147566280Y-103917603D01*
X147596417Y-103929403D01*
X147618826Y-103930422D01*
X147634567Y-103916761D01*
X147644698Y-103884522D01*
X147650277Y-103829804D01*
X147652365Y-103748711D01*
X147652019Y-103637344D01*
X147650300Y-103491802D01*
X147649763Y-103448269D01*
X147647828Y-103298205D01*
X147646096Y-103200042D01*
X147458308Y-103200042D01*
X147457252Y-103283364D01*
X147452562Y-103337880D01*
X147441949Y-103373837D01*
X147423128Y-103401482D01*
X147410350Y-103414965D01*
X147358110Y-103454417D01*
X147311858Y-103457628D01*
X147264133Y-103425049D01*
X147262923Y-103423846D01*
X147243506Y-103398668D01*
X147231693Y-103364447D01*
X147225735Y-103311748D01*
X147223880Y-103231131D01*
X147223846Y-103213271D01*
X147228330Y-103102175D01*
X147242926Y-103025161D01*
X147269350Y-102978147D01*
X147309317Y-102957050D01*
X147332416Y-102954923D01*
X147387238Y-102964900D01*
X147424842Y-102997752D01*
X147447477Y-103057857D01*
X147457394Y-103149598D01*
X147458308Y-103200042D01*
X147646096Y-103200042D01*
X147645778Y-103182060D01*
X147643127Y-103094679D01*
X147639394Y-103030905D01*
X147634093Y-102985582D01*
X147626742Y-102953555D01*
X147616857Y-102929668D01*
X147603954Y-102908764D01*
X147598421Y-102900898D01*
X147525031Y-102826595D01*
X147432240Y-102784467D01*
X147324904Y-102772722D01*
X147231114Y-102784505D01*
G04 #@! TD*
M02*
