G04 #@! TF.GenerationSoftware,KiCad,Pcbnew,(5.0.1-3-g963ef8bb5)*
G04 #@! TF.CreationDate,2018-11-21T19:49:20+01:00*
G04 #@! TF.ProjectId,DAC_ISL5857,4441435F49534C353835372E6B696361,A*
G04 #@! TF.SameCoordinates,Original*
G04 #@! TF.FileFunction,Copper,L2,Inr,Signal*
G04 #@! TF.FilePolarity,Positive*
%FSLAX46Y46*%
G04 Gerber Fmt 4.6, Leading zero omitted, Abs format (unit mm)*
G04 Created by KiCad (PCBNEW (5.0.1-3-g963ef8bb5)) date Wednesday, 21 November 2018 at 19:49:20*
%MOMM*%
%LPD*%
G01*
G04 APERTURE LIST*
G04 #@! TA.AperFunction,ViaPad*
%ADD10R,1.700000X1.700000*%
G04 #@! TD*
G04 #@! TA.AperFunction,ViaPad*
%ADD11O,1.700000X1.700000*%
G04 #@! TD*
G04 #@! TA.AperFunction,ViaPad*
%ADD12C,0.970000*%
G04 #@! TD*
G04 #@! TA.AperFunction,ViaPad*
%ADD13C,0.508000*%
G04 #@! TD*
G04 #@! TA.AperFunction,Conductor*
%ADD14C,0.254000*%
G04 #@! TD*
G04 APERTURE END LIST*
D10*
G04 #@! TO.N,VDD*
G04 #@! TO.C,J3*
X137287000Y-119380000D03*
D11*
G04 #@! TO.N,+5V*
X139827000Y-119380000D03*
G04 #@! TO.N,GND*
X142367000Y-119380000D03*
G04 #@! TD*
D12*
G04 #@! TO.N,GND*
G04 #@! TO.C,X2*
X155830000Y-94040000D03*
X155830000Y-85280000D03*
G04 #@! TD*
D11*
G04 #@! TO.N,Net-(J2-Pad12)*
G04 #@! TO.C,J2*
X133858000Y-96520000D03*
G04 #@! TO.N,Net-(J2-Pad11)*
X131318000Y-96520000D03*
G04 #@! TO.N,GND*
X133858000Y-93980000D03*
X131318000Y-93980000D03*
G04 #@! TO.N,/D5*
X133858000Y-91440000D03*
G04 #@! TO.N,/D4*
X131318000Y-91440000D03*
G04 #@! TO.N,/D7*
X133858000Y-88900000D03*
G04 #@! TO.N,/D6*
X131318000Y-88900000D03*
G04 #@! TO.N,/D9*
X133858000Y-86360000D03*
G04 #@! TO.N,/D8*
X131318000Y-86360000D03*
G04 #@! TO.N,/D11*
X133858000Y-83820000D03*
D10*
G04 #@! TO.N,/D10*
X131318000Y-83820000D03*
G04 #@! TD*
G04 #@! TO.N,/D3*
G04 #@! TO.C,J1*
X131318000Y-106680000D03*
D11*
G04 #@! TO.N,/D2*
X133858000Y-106680000D03*
G04 #@! TO.N,/D1*
X131318000Y-109220000D03*
G04 #@! TO.N,/D0*
X133858000Y-109220000D03*
G04 #@! TO.N,/CLK*
X131318000Y-111760000D03*
G04 #@! TO.N,/PD*
X133858000Y-111760000D03*
G04 #@! TO.N,Net-(J1-Pad7)*
X131318000Y-114300000D03*
G04 #@! TO.N,SYS_MCLK*
X133858000Y-114300000D03*
G04 #@! TO.N,GND*
X131318000Y-116840000D03*
X133858000Y-116840000D03*
G04 #@! TO.N,VDD*
X131318000Y-119380000D03*
X133858000Y-119380000D03*
G04 #@! TD*
D13*
G04 #@! TO.N,GND*
X136906000Y-116332000D03*
X141605000Y-110998000D03*
X142875000Y-112268000D03*
X137250000Y-111250000D03*
X137250000Y-88250000D03*
X137250000Y-86250000D03*
X137250000Y-90250000D03*
X137250000Y-92250000D03*
X137250000Y-96250000D03*
X137250000Y-98250000D03*
X137250000Y-100250000D03*
X137250000Y-102250000D03*
X137250000Y-104250000D03*
X137250000Y-106250000D03*
X137250000Y-108250000D03*
X137250000Y-94250000D03*
X136906000Y-113919000D03*
G04 #@! TO.N,+3V3*
X153111800Y-114187000D03*
G04 #@! TO.N,Net-(C7-Pad2)*
X156845000Y-99105000D03*
X150936958Y-99105000D03*
G04 #@! TO.N,/AVDD*
X150300000Y-107525000D03*
X150300000Y-109295000D03*
X149986598Y-98452513D03*
X149086103Y-106405435D03*
G04 #@! TO.N,/DVDD*
X142922462Y-106300000D03*
X141600000Y-107526123D03*
X141600000Y-109296123D03*
X149987000Y-96505000D03*
G04 #@! TO.N,Net-(R28-Pad1)*
X140900000Y-110250000D03*
G04 #@! TO.N,/PD*
X136271000Y-111760000D03*
X148844000Y-105283000D03*
G04 #@! TO.N,SYS_MCLK*
X147193000Y-118427500D03*
X136906000Y-115062000D03*
G04 #@! TD*
D14*
G04 #@! TO.N,GND*
G36*
X161596001Y-120448000D02*
X143357382Y-120448000D01*
X143562183Y-120261358D01*
X143808486Y-119736892D01*
X143687819Y-119507000D01*
X142494000Y-119507000D01*
X142494000Y-119527000D01*
X142240000Y-119527000D01*
X142240000Y-119507000D01*
X142220000Y-119507000D01*
X142220000Y-119253000D01*
X142240000Y-119253000D01*
X142240000Y-118059845D01*
X142494000Y-118059845D01*
X142494000Y-119253000D01*
X143687819Y-119253000D01*
X143808486Y-119023108D01*
X143562183Y-118498642D01*
X143290082Y-118250667D01*
X146304000Y-118250667D01*
X146304000Y-118604333D01*
X146439342Y-118931078D01*
X146689422Y-119181158D01*
X147016167Y-119316500D01*
X147369833Y-119316500D01*
X147696578Y-119181158D01*
X147946658Y-118931078D01*
X148082000Y-118604333D01*
X148082000Y-118250667D01*
X147946658Y-117923922D01*
X147696578Y-117673842D01*
X147369833Y-117538500D01*
X147016167Y-117538500D01*
X146689422Y-117673842D01*
X146439342Y-117923922D01*
X146304000Y-118250667D01*
X143290082Y-118250667D01*
X143133924Y-118108355D01*
X142723890Y-117938524D01*
X142494000Y-118059845D01*
X142240000Y-118059845D01*
X142010110Y-117938524D01*
X141600076Y-118108355D01*
X141171817Y-118498642D01*
X141110843Y-118628478D01*
X140897625Y-118309375D01*
X140406418Y-117981161D01*
X139973256Y-117895000D01*
X139680744Y-117895000D01*
X139247582Y-117981161D01*
X138756375Y-118309375D01*
X138744184Y-118327619D01*
X138735157Y-118282235D01*
X138594809Y-118072191D01*
X138384765Y-117931843D01*
X138137000Y-117882560D01*
X136437000Y-117882560D01*
X136189235Y-117931843D01*
X135979191Y-118072191D01*
X135838843Y-118282235D01*
X135789560Y-118530000D01*
X135789560Y-120230000D01*
X135832922Y-120448000D01*
X134930379Y-120448000D01*
X135256839Y-119959418D01*
X135372092Y-119380000D01*
X135256839Y-118800582D01*
X134928625Y-118309375D01*
X134609522Y-118096157D01*
X134739358Y-118035183D01*
X135129645Y-117606924D01*
X135299476Y-117196890D01*
X135178155Y-116967000D01*
X133985000Y-116967000D01*
X133985000Y-116987000D01*
X133731000Y-116987000D01*
X133731000Y-116967000D01*
X131445000Y-116967000D01*
X131445000Y-116987000D01*
X131191000Y-116987000D01*
X131191000Y-116967000D01*
X131171000Y-116967000D01*
X131171000Y-116713000D01*
X131191000Y-116713000D01*
X131191000Y-116693000D01*
X131445000Y-116693000D01*
X131445000Y-116713000D01*
X133731000Y-116713000D01*
X133731000Y-116693000D01*
X133985000Y-116693000D01*
X133985000Y-116713000D01*
X135178155Y-116713000D01*
X135299476Y-116483110D01*
X135129645Y-116073076D01*
X134739358Y-115644817D01*
X134609522Y-115583843D01*
X134928625Y-115370625D01*
X135252997Y-114885167D01*
X136017000Y-114885167D01*
X136017000Y-115238833D01*
X136152342Y-115565578D01*
X136402422Y-115815658D01*
X136729167Y-115951000D01*
X137082833Y-115951000D01*
X137409578Y-115815658D01*
X137659658Y-115565578D01*
X137795000Y-115238833D01*
X137795000Y-114885167D01*
X137659658Y-114558422D01*
X137409578Y-114308342D01*
X137082833Y-114173000D01*
X136729167Y-114173000D01*
X136402422Y-114308342D01*
X136152342Y-114558422D01*
X136017000Y-114885167D01*
X135252997Y-114885167D01*
X135256839Y-114879418D01*
X135372092Y-114300000D01*
X135314441Y-114010167D01*
X152222800Y-114010167D01*
X152222800Y-114363833D01*
X152358142Y-114690578D01*
X152608222Y-114940658D01*
X152934967Y-115076000D01*
X153288633Y-115076000D01*
X153615378Y-114940658D01*
X153865458Y-114690578D01*
X154000800Y-114363833D01*
X154000800Y-114010167D01*
X153865458Y-113683422D01*
X153615378Y-113433342D01*
X153288633Y-113298000D01*
X152934967Y-113298000D01*
X152608222Y-113433342D01*
X152358142Y-113683422D01*
X152222800Y-114010167D01*
X135314441Y-114010167D01*
X135256839Y-113720582D01*
X134928625Y-113229375D01*
X134630239Y-113030000D01*
X134928625Y-112830625D01*
X135256839Y-112339418D01*
X135372092Y-111760000D01*
X135336918Y-111583167D01*
X135382000Y-111583167D01*
X135382000Y-111936833D01*
X135517342Y-112263578D01*
X135767422Y-112513658D01*
X136094167Y-112649000D01*
X136447833Y-112649000D01*
X136774578Y-112513658D01*
X137024658Y-112263578D01*
X137160000Y-111936833D01*
X137160000Y-111583167D01*
X137024658Y-111256422D01*
X136774578Y-111006342D01*
X136447833Y-110871000D01*
X136094167Y-110871000D01*
X135767422Y-111006342D01*
X135517342Y-111256422D01*
X135382000Y-111583167D01*
X135336918Y-111583167D01*
X135256839Y-111180582D01*
X134928625Y-110689375D01*
X134630239Y-110490000D01*
X134928625Y-110290625D01*
X135073925Y-110073167D01*
X140011000Y-110073167D01*
X140011000Y-110426833D01*
X140146342Y-110753578D01*
X140396422Y-111003658D01*
X140723167Y-111139000D01*
X141076833Y-111139000D01*
X141403578Y-111003658D01*
X141653658Y-110753578D01*
X141789000Y-110426833D01*
X141789000Y-110180083D01*
X142103578Y-110049781D01*
X142353658Y-109799701D01*
X142489000Y-109472956D01*
X142489000Y-109119290D01*
X142353658Y-108792545D01*
X142103578Y-108542465D01*
X141786490Y-108411123D01*
X142103578Y-108279781D01*
X142353658Y-108029701D01*
X142489000Y-107702956D01*
X142489000Y-107349290D01*
X142353658Y-107022545D01*
X142103578Y-106772465D01*
X141776833Y-106637123D01*
X141423167Y-106637123D01*
X141096422Y-106772465D01*
X140846342Y-107022545D01*
X140711000Y-107349290D01*
X140711000Y-107702956D01*
X140846342Y-108029701D01*
X141096422Y-108279781D01*
X141413510Y-108411123D01*
X141096422Y-108542465D01*
X140846342Y-108792545D01*
X140711000Y-109119290D01*
X140711000Y-109366040D01*
X140396422Y-109496342D01*
X140146342Y-109746422D01*
X140011000Y-110073167D01*
X135073925Y-110073167D01*
X135256839Y-109799418D01*
X135372092Y-109220000D01*
X135256839Y-108640582D01*
X134928625Y-108149375D01*
X134630239Y-107950000D01*
X134928625Y-107750625D01*
X135256839Y-107259418D01*
X135372092Y-106680000D01*
X135261332Y-106123167D01*
X142033462Y-106123167D01*
X142033462Y-106476833D01*
X142168804Y-106803578D01*
X142418884Y-107053658D01*
X142745629Y-107189000D01*
X143099295Y-107189000D01*
X143426040Y-107053658D01*
X143676120Y-106803578D01*
X143811462Y-106476833D01*
X143811462Y-106123167D01*
X143676120Y-105796422D01*
X143426040Y-105546342D01*
X143099295Y-105411000D01*
X142745629Y-105411000D01*
X142418884Y-105546342D01*
X142168804Y-105796422D01*
X142033462Y-106123167D01*
X135261332Y-106123167D01*
X135256839Y-106100582D01*
X134928625Y-105609375D01*
X134437418Y-105281161D01*
X134004256Y-105195000D01*
X133711744Y-105195000D01*
X133278582Y-105281161D01*
X132787375Y-105609375D01*
X132775184Y-105627619D01*
X132766157Y-105582235D01*
X132625809Y-105372191D01*
X132415765Y-105231843D01*
X132168000Y-105182560D01*
X130468000Y-105182560D01*
X130250000Y-105225922D01*
X130250000Y-105106167D01*
X147955000Y-105106167D01*
X147955000Y-105459833D01*
X148090342Y-105786578D01*
X148295299Y-105991535D01*
X148197103Y-106228602D01*
X148197103Y-106582268D01*
X148332445Y-106909013D01*
X148582525Y-107159093D01*
X148909270Y-107294435D01*
X149262936Y-107294435D01*
X149468531Y-107209275D01*
X149411000Y-107348167D01*
X149411000Y-107701833D01*
X149546342Y-108028578D01*
X149796422Y-108278658D01*
X150113510Y-108410000D01*
X149796422Y-108541342D01*
X149546342Y-108791422D01*
X149411000Y-109118167D01*
X149411000Y-109471833D01*
X149546342Y-109798578D01*
X149796422Y-110048658D01*
X150123167Y-110184000D01*
X150476833Y-110184000D01*
X150803578Y-110048658D01*
X151053658Y-109798578D01*
X151189000Y-109471833D01*
X151189000Y-109118167D01*
X151053658Y-108791422D01*
X150803578Y-108541342D01*
X150486490Y-108410000D01*
X150803578Y-108278658D01*
X151053658Y-108028578D01*
X151189000Y-107701833D01*
X151189000Y-107348167D01*
X151053658Y-107021422D01*
X150803578Y-106771342D01*
X150476833Y-106636000D01*
X150123167Y-106636000D01*
X149917572Y-106721160D01*
X149975103Y-106582268D01*
X149975103Y-106228602D01*
X149839761Y-105901857D01*
X149634804Y-105696900D01*
X149733000Y-105459833D01*
X149733000Y-105106167D01*
X149597658Y-104779422D01*
X149347578Y-104529342D01*
X149020833Y-104394000D01*
X148667167Y-104394000D01*
X148340422Y-104529342D01*
X148090342Y-104779422D01*
X147955000Y-105106167D01*
X130250000Y-105106167D01*
X130250000Y-98275680D01*
X149097598Y-98275680D01*
X149097598Y-98629346D01*
X149232940Y-98956091D01*
X149483020Y-99206171D01*
X149809765Y-99341513D01*
X150072678Y-99341513D01*
X150183300Y-99608578D01*
X150433380Y-99858658D01*
X150760125Y-99994000D01*
X151113791Y-99994000D01*
X151440536Y-99858658D01*
X151690616Y-99608578D01*
X151825958Y-99281833D01*
X151825958Y-98928167D01*
X155956000Y-98928167D01*
X155956000Y-99281833D01*
X156091342Y-99608578D01*
X156341422Y-99858658D01*
X156668167Y-99994000D01*
X157021833Y-99994000D01*
X157348578Y-99858658D01*
X157598658Y-99608578D01*
X157734000Y-99281833D01*
X157734000Y-98928167D01*
X157598658Y-98601422D01*
X157348578Y-98351342D01*
X157021833Y-98216000D01*
X156668167Y-98216000D01*
X156341422Y-98351342D01*
X156091342Y-98601422D01*
X155956000Y-98928167D01*
X151825958Y-98928167D01*
X151690616Y-98601422D01*
X151440536Y-98351342D01*
X151113791Y-98216000D01*
X150850878Y-98216000D01*
X150740256Y-97948935D01*
X150490176Y-97698855D01*
X150163431Y-97563513D01*
X149809765Y-97563513D01*
X149483020Y-97698855D01*
X149232940Y-97948935D01*
X149097598Y-98275680D01*
X130250000Y-98275680D01*
X130250000Y-97592379D01*
X130738582Y-97918839D01*
X131171744Y-98005000D01*
X131464256Y-98005000D01*
X131897418Y-97918839D01*
X132388625Y-97590625D01*
X132588000Y-97292239D01*
X132787375Y-97590625D01*
X133278582Y-97918839D01*
X133711744Y-98005000D01*
X134004256Y-98005000D01*
X134437418Y-97918839D01*
X134928625Y-97590625D01*
X135256839Y-97099418D01*
X135372092Y-96520000D01*
X135333935Y-96328167D01*
X149098000Y-96328167D01*
X149098000Y-96681833D01*
X149233342Y-97008578D01*
X149483422Y-97258658D01*
X149810167Y-97394000D01*
X150163833Y-97394000D01*
X150490578Y-97258658D01*
X150740658Y-97008578D01*
X150876000Y-96681833D01*
X150876000Y-96328167D01*
X150740658Y-96001422D01*
X150490578Y-95751342D01*
X150163833Y-95616000D01*
X149810167Y-95616000D01*
X149483422Y-95751342D01*
X149233342Y-96001422D01*
X149098000Y-96328167D01*
X135333935Y-96328167D01*
X135256839Y-95940582D01*
X134928625Y-95449375D01*
X134609522Y-95236157D01*
X134739358Y-95175183D01*
X135063777Y-94819200D01*
X155230405Y-94819200D01*
X155265692Y-95032768D01*
X155688564Y-95173149D01*
X156132968Y-95141018D01*
X156394308Y-95032768D01*
X156429595Y-94819200D01*
X155830000Y-94219605D01*
X155230405Y-94819200D01*
X135063777Y-94819200D01*
X135129645Y-94746924D01*
X135299476Y-94336890D01*
X135178155Y-94107000D01*
X133985000Y-94107000D01*
X133985000Y-94127000D01*
X133731000Y-94127000D01*
X133731000Y-94107000D01*
X131445000Y-94107000D01*
X131445000Y-94127000D01*
X131191000Y-94127000D01*
X131191000Y-94107000D01*
X131171000Y-94107000D01*
X131171000Y-93898564D01*
X154696851Y-93898564D01*
X154728982Y-94342968D01*
X154837232Y-94604308D01*
X155050800Y-94639595D01*
X155650395Y-94040000D01*
X156009605Y-94040000D01*
X156609200Y-94639595D01*
X156822768Y-94604308D01*
X156963149Y-94181436D01*
X156931018Y-93737032D01*
X156822768Y-93475692D01*
X156609200Y-93440405D01*
X156009605Y-94040000D01*
X155650395Y-94040000D01*
X155050800Y-93440405D01*
X154837232Y-93475692D01*
X154696851Y-93898564D01*
X131171000Y-93898564D01*
X131171000Y-93853000D01*
X131191000Y-93853000D01*
X131191000Y-93833000D01*
X131445000Y-93833000D01*
X131445000Y-93853000D01*
X133731000Y-93853000D01*
X133731000Y-93833000D01*
X133985000Y-93833000D01*
X133985000Y-93853000D01*
X135178155Y-93853000D01*
X135299476Y-93623110D01*
X135149412Y-93260800D01*
X155230405Y-93260800D01*
X155830000Y-93860395D01*
X156429595Y-93260800D01*
X156394308Y-93047232D01*
X155971436Y-92906851D01*
X155527032Y-92938982D01*
X155265692Y-93047232D01*
X155230405Y-93260800D01*
X135149412Y-93260800D01*
X135129645Y-93213076D01*
X134739358Y-92784817D01*
X134609522Y-92723843D01*
X134928625Y-92510625D01*
X135256839Y-92019418D01*
X135372092Y-91440000D01*
X135256839Y-90860582D01*
X134928625Y-90369375D01*
X134630239Y-90170000D01*
X134928625Y-89970625D01*
X135256839Y-89479418D01*
X135372092Y-88900000D01*
X135256839Y-88320582D01*
X134928625Y-87829375D01*
X134630239Y-87630000D01*
X134928625Y-87430625D01*
X135256839Y-86939418D01*
X135372092Y-86360000D01*
X135312260Y-86059200D01*
X155230405Y-86059200D01*
X155265692Y-86272768D01*
X155688564Y-86413149D01*
X156132968Y-86381018D01*
X156394308Y-86272768D01*
X156429595Y-86059200D01*
X155830000Y-85459605D01*
X155230405Y-86059200D01*
X135312260Y-86059200D01*
X135256839Y-85780582D01*
X134928625Y-85289375D01*
X134702921Y-85138564D01*
X154696851Y-85138564D01*
X154728982Y-85582968D01*
X154837232Y-85844308D01*
X155050800Y-85879595D01*
X155650395Y-85280000D01*
X156009605Y-85280000D01*
X156609200Y-85879595D01*
X156822768Y-85844308D01*
X156963149Y-85421436D01*
X156931018Y-84977032D01*
X156822768Y-84715692D01*
X156609200Y-84680405D01*
X156009605Y-85280000D01*
X155650395Y-85280000D01*
X155050800Y-84680405D01*
X154837232Y-84715692D01*
X154696851Y-85138564D01*
X134702921Y-85138564D01*
X134630239Y-85090000D01*
X134928625Y-84890625D01*
X135189097Y-84500800D01*
X155230405Y-84500800D01*
X155830000Y-85100395D01*
X156429595Y-84500800D01*
X156394308Y-84287232D01*
X155971436Y-84146851D01*
X155527032Y-84178982D01*
X155265692Y-84287232D01*
X155230405Y-84500800D01*
X135189097Y-84500800D01*
X135256839Y-84399418D01*
X135372092Y-83820000D01*
X135256839Y-83240582D01*
X134930379Y-82752000D01*
X161596000Y-82752000D01*
X161596001Y-120448000D01*
X161596001Y-120448000D01*
G37*
X161596001Y-120448000D02*
X143357382Y-120448000D01*
X143562183Y-120261358D01*
X143808486Y-119736892D01*
X143687819Y-119507000D01*
X142494000Y-119507000D01*
X142494000Y-119527000D01*
X142240000Y-119527000D01*
X142240000Y-119507000D01*
X142220000Y-119507000D01*
X142220000Y-119253000D01*
X142240000Y-119253000D01*
X142240000Y-118059845D01*
X142494000Y-118059845D01*
X142494000Y-119253000D01*
X143687819Y-119253000D01*
X143808486Y-119023108D01*
X143562183Y-118498642D01*
X143290082Y-118250667D01*
X146304000Y-118250667D01*
X146304000Y-118604333D01*
X146439342Y-118931078D01*
X146689422Y-119181158D01*
X147016167Y-119316500D01*
X147369833Y-119316500D01*
X147696578Y-119181158D01*
X147946658Y-118931078D01*
X148082000Y-118604333D01*
X148082000Y-118250667D01*
X147946658Y-117923922D01*
X147696578Y-117673842D01*
X147369833Y-117538500D01*
X147016167Y-117538500D01*
X146689422Y-117673842D01*
X146439342Y-117923922D01*
X146304000Y-118250667D01*
X143290082Y-118250667D01*
X143133924Y-118108355D01*
X142723890Y-117938524D01*
X142494000Y-118059845D01*
X142240000Y-118059845D01*
X142010110Y-117938524D01*
X141600076Y-118108355D01*
X141171817Y-118498642D01*
X141110843Y-118628478D01*
X140897625Y-118309375D01*
X140406418Y-117981161D01*
X139973256Y-117895000D01*
X139680744Y-117895000D01*
X139247582Y-117981161D01*
X138756375Y-118309375D01*
X138744184Y-118327619D01*
X138735157Y-118282235D01*
X138594809Y-118072191D01*
X138384765Y-117931843D01*
X138137000Y-117882560D01*
X136437000Y-117882560D01*
X136189235Y-117931843D01*
X135979191Y-118072191D01*
X135838843Y-118282235D01*
X135789560Y-118530000D01*
X135789560Y-120230000D01*
X135832922Y-120448000D01*
X134930379Y-120448000D01*
X135256839Y-119959418D01*
X135372092Y-119380000D01*
X135256839Y-118800582D01*
X134928625Y-118309375D01*
X134609522Y-118096157D01*
X134739358Y-118035183D01*
X135129645Y-117606924D01*
X135299476Y-117196890D01*
X135178155Y-116967000D01*
X133985000Y-116967000D01*
X133985000Y-116987000D01*
X133731000Y-116987000D01*
X133731000Y-116967000D01*
X131445000Y-116967000D01*
X131445000Y-116987000D01*
X131191000Y-116987000D01*
X131191000Y-116967000D01*
X131171000Y-116967000D01*
X131171000Y-116713000D01*
X131191000Y-116713000D01*
X131191000Y-116693000D01*
X131445000Y-116693000D01*
X131445000Y-116713000D01*
X133731000Y-116713000D01*
X133731000Y-116693000D01*
X133985000Y-116693000D01*
X133985000Y-116713000D01*
X135178155Y-116713000D01*
X135299476Y-116483110D01*
X135129645Y-116073076D01*
X134739358Y-115644817D01*
X134609522Y-115583843D01*
X134928625Y-115370625D01*
X135252997Y-114885167D01*
X136017000Y-114885167D01*
X136017000Y-115238833D01*
X136152342Y-115565578D01*
X136402422Y-115815658D01*
X136729167Y-115951000D01*
X137082833Y-115951000D01*
X137409578Y-115815658D01*
X137659658Y-115565578D01*
X137795000Y-115238833D01*
X137795000Y-114885167D01*
X137659658Y-114558422D01*
X137409578Y-114308342D01*
X137082833Y-114173000D01*
X136729167Y-114173000D01*
X136402422Y-114308342D01*
X136152342Y-114558422D01*
X136017000Y-114885167D01*
X135252997Y-114885167D01*
X135256839Y-114879418D01*
X135372092Y-114300000D01*
X135314441Y-114010167D01*
X152222800Y-114010167D01*
X152222800Y-114363833D01*
X152358142Y-114690578D01*
X152608222Y-114940658D01*
X152934967Y-115076000D01*
X153288633Y-115076000D01*
X153615378Y-114940658D01*
X153865458Y-114690578D01*
X154000800Y-114363833D01*
X154000800Y-114010167D01*
X153865458Y-113683422D01*
X153615378Y-113433342D01*
X153288633Y-113298000D01*
X152934967Y-113298000D01*
X152608222Y-113433342D01*
X152358142Y-113683422D01*
X152222800Y-114010167D01*
X135314441Y-114010167D01*
X135256839Y-113720582D01*
X134928625Y-113229375D01*
X134630239Y-113030000D01*
X134928625Y-112830625D01*
X135256839Y-112339418D01*
X135372092Y-111760000D01*
X135336918Y-111583167D01*
X135382000Y-111583167D01*
X135382000Y-111936833D01*
X135517342Y-112263578D01*
X135767422Y-112513658D01*
X136094167Y-112649000D01*
X136447833Y-112649000D01*
X136774578Y-112513658D01*
X137024658Y-112263578D01*
X137160000Y-111936833D01*
X137160000Y-111583167D01*
X137024658Y-111256422D01*
X136774578Y-111006342D01*
X136447833Y-110871000D01*
X136094167Y-110871000D01*
X135767422Y-111006342D01*
X135517342Y-111256422D01*
X135382000Y-111583167D01*
X135336918Y-111583167D01*
X135256839Y-111180582D01*
X134928625Y-110689375D01*
X134630239Y-110490000D01*
X134928625Y-110290625D01*
X135073925Y-110073167D01*
X140011000Y-110073167D01*
X140011000Y-110426833D01*
X140146342Y-110753578D01*
X140396422Y-111003658D01*
X140723167Y-111139000D01*
X141076833Y-111139000D01*
X141403578Y-111003658D01*
X141653658Y-110753578D01*
X141789000Y-110426833D01*
X141789000Y-110180083D01*
X142103578Y-110049781D01*
X142353658Y-109799701D01*
X142489000Y-109472956D01*
X142489000Y-109119290D01*
X142353658Y-108792545D01*
X142103578Y-108542465D01*
X141786490Y-108411123D01*
X142103578Y-108279781D01*
X142353658Y-108029701D01*
X142489000Y-107702956D01*
X142489000Y-107349290D01*
X142353658Y-107022545D01*
X142103578Y-106772465D01*
X141776833Y-106637123D01*
X141423167Y-106637123D01*
X141096422Y-106772465D01*
X140846342Y-107022545D01*
X140711000Y-107349290D01*
X140711000Y-107702956D01*
X140846342Y-108029701D01*
X141096422Y-108279781D01*
X141413510Y-108411123D01*
X141096422Y-108542465D01*
X140846342Y-108792545D01*
X140711000Y-109119290D01*
X140711000Y-109366040D01*
X140396422Y-109496342D01*
X140146342Y-109746422D01*
X140011000Y-110073167D01*
X135073925Y-110073167D01*
X135256839Y-109799418D01*
X135372092Y-109220000D01*
X135256839Y-108640582D01*
X134928625Y-108149375D01*
X134630239Y-107950000D01*
X134928625Y-107750625D01*
X135256839Y-107259418D01*
X135372092Y-106680000D01*
X135261332Y-106123167D01*
X142033462Y-106123167D01*
X142033462Y-106476833D01*
X142168804Y-106803578D01*
X142418884Y-107053658D01*
X142745629Y-107189000D01*
X143099295Y-107189000D01*
X143426040Y-107053658D01*
X143676120Y-106803578D01*
X143811462Y-106476833D01*
X143811462Y-106123167D01*
X143676120Y-105796422D01*
X143426040Y-105546342D01*
X143099295Y-105411000D01*
X142745629Y-105411000D01*
X142418884Y-105546342D01*
X142168804Y-105796422D01*
X142033462Y-106123167D01*
X135261332Y-106123167D01*
X135256839Y-106100582D01*
X134928625Y-105609375D01*
X134437418Y-105281161D01*
X134004256Y-105195000D01*
X133711744Y-105195000D01*
X133278582Y-105281161D01*
X132787375Y-105609375D01*
X132775184Y-105627619D01*
X132766157Y-105582235D01*
X132625809Y-105372191D01*
X132415765Y-105231843D01*
X132168000Y-105182560D01*
X130468000Y-105182560D01*
X130250000Y-105225922D01*
X130250000Y-105106167D01*
X147955000Y-105106167D01*
X147955000Y-105459833D01*
X148090342Y-105786578D01*
X148295299Y-105991535D01*
X148197103Y-106228602D01*
X148197103Y-106582268D01*
X148332445Y-106909013D01*
X148582525Y-107159093D01*
X148909270Y-107294435D01*
X149262936Y-107294435D01*
X149468531Y-107209275D01*
X149411000Y-107348167D01*
X149411000Y-107701833D01*
X149546342Y-108028578D01*
X149796422Y-108278658D01*
X150113510Y-108410000D01*
X149796422Y-108541342D01*
X149546342Y-108791422D01*
X149411000Y-109118167D01*
X149411000Y-109471833D01*
X149546342Y-109798578D01*
X149796422Y-110048658D01*
X150123167Y-110184000D01*
X150476833Y-110184000D01*
X150803578Y-110048658D01*
X151053658Y-109798578D01*
X151189000Y-109471833D01*
X151189000Y-109118167D01*
X151053658Y-108791422D01*
X150803578Y-108541342D01*
X150486490Y-108410000D01*
X150803578Y-108278658D01*
X151053658Y-108028578D01*
X151189000Y-107701833D01*
X151189000Y-107348167D01*
X151053658Y-107021422D01*
X150803578Y-106771342D01*
X150476833Y-106636000D01*
X150123167Y-106636000D01*
X149917572Y-106721160D01*
X149975103Y-106582268D01*
X149975103Y-106228602D01*
X149839761Y-105901857D01*
X149634804Y-105696900D01*
X149733000Y-105459833D01*
X149733000Y-105106167D01*
X149597658Y-104779422D01*
X149347578Y-104529342D01*
X149020833Y-104394000D01*
X148667167Y-104394000D01*
X148340422Y-104529342D01*
X148090342Y-104779422D01*
X147955000Y-105106167D01*
X130250000Y-105106167D01*
X130250000Y-98275680D01*
X149097598Y-98275680D01*
X149097598Y-98629346D01*
X149232940Y-98956091D01*
X149483020Y-99206171D01*
X149809765Y-99341513D01*
X150072678Y-99341513D01*
X150183300Y-99608578D01*
X150433380Y-99858658D01*
X150760125Y-99994000D01*
X151113791Y-99994000D01*
X151440536Y-99858658D01*
X151690616Y-99608578D01*
X151825958Y-99281833D01*
X151825958Y-98928167D01*
X155956000Y-98928167D01*
X155956000Y-99281833D01*
X156091342Y-99608578D01*
X156341422Y-99858658D01*
X156668167Y-99994000D01*
X157021833Y-99994000D01*
X157348578Y-99858658D01*
X157598658Y-99608578D01*
X157734000Y-99281833D01*
X157734000Y-98928167D01*
X157598658Y-98601422D01*
X157348578Y-98351342D01*
X157021833Y-98216000D01*
X156668167Y-98216000D01*
X156341422Y-98351342D01*
X156091342Y-98601422D01*
X155956000Y-98928167D01*
X151825958Y-98928167D01*
X151690616Y-98601422D01*
X151440536Y-98351342D01*
X151113791Y-98216000D01*
X150850878Y-98216000D01*
X150740256Y-97948935D01*
X150490176Y-97698855D01*
X150163431Y-97563513D01*
X149809765Y-97563513D01*
X149483020Y-97698855D01*
X149232940Y-97948935D01*
X149097598Y-98275680D01*
X130250000Y-98275680D01*
X130250000Y-97592379D01*
X130738582Y-97918839D01*
X131171744Y-98005000D01*
X131464256Y-98005000D01*
X131897418Y-97918839D01*
X132388625Y-97590625D01*
X132588000Y-97292239D01*
X132787375Y-97590625D01*
X133278582Y-97918839D01*
X133711744Y-98005000D01*
X134004256Y-98005000D01*
X134437418Y-97918839D01*
X134928625Y-97590625D01*
X135256839Y-97099418D01*
X135372092Y-96520000D01*
X135333935Y-96328167D01*
X149098000Y-96328167D01*
X149098000Y-96681833D01*
X149233342Y-97008578D01*
X149483422Y-97258658D01*
X149810167Y-97394000D01*
X150163833Y-97394000D01*
X150490578Y-97258658D01*
X150740658Y-97008578D01*
X150876000Y-96681833D01*
X150876000Y-96328167D01*
X150740658Y-96001422D01*
X150490578Y-95751342D01*
X150163833Y-95616000D01*
X149810167Y-95616000D01*
X149483422Y-95751342D01*
X149233342Y-96001422D01*
X149098000Y-96328167D01*
X135333935Y-96328167D01*
X135256839Y-95940582D01*
X134928625Y-95449375D01*
X134609522Y-95236157D01*
X134739358Y-95175183D01*
X135063777Y-94819200D01*
X155230405Y-94819200D01*
X155265692Y-95032768D01*
X155688564Y-95173149D01*
X156132968Y-95141018D01*
X156394308Y-95032768D01*
X156429595Y-94819200D01*
X155830000Y-94219605D01*
X155230405Y-94819200D01*
X135063777Y-94819200D01*
X135129645Y-94746924D01*
X135299476Y-94336890D01*
X135178155Y-94107000D01*
X133985000Y-94107000D01*
X133985000Y-94127000D01*
X133731000Y-94127000D01*
X133731000Y-94107000D01*
X131445000Y-94107000D01*
X131445000Y-94127000D01*
X131191000Y-94127000D01*
X131191000Y-94107000D01*
X131171000Y-94107000D01*
X131171000Y-93898564D01*
X154696851Y-93898564D01*
X154728982Y-94342968D01*
X154837232Y-94604308D01*
X155050800Y-94639595D01*
X155650395Y-94040000D01*
X156009605Y-94040000D01*
X156609200Y-94639595D01*
X156822768Y-94604308D01*
X156963149Y-94181436D01*
X156931018Y-93737032D01*
X156822768Y-93475692D01*
X156609200Y-93440405D01*
X156009605Y-94040000D01*
X155650395Y-94040000D01*
X155050800Y-93440405D01*
X154837232Y-93475692D01*
X154696851Y-93898564D01*
X131171000Y-93898564D01*
X131171000Y-93853000D01*
X131191000Y-93853000D01*
X131191000Y-93833000D01*
X131445000Y-93833000D01*
X131445000Y-93853000D01*
X133731000Y-93853000D01*
X133731000Y-93833000D01*
X133985000Y-93833000D01*
X133985000Y-93853000D01*
X135178155Y-93853000D01*
X135299476Y-93623110D01*
X135149412Y-93260800D01*
X155230405Y-93260800D01*
X155830000Y-93860395D01*
X156429595Y-93260800D01*
X156394308Y-93047232D01*
X155971436Y-92906851D01*
X155527032Y-92938982D01*
X155265692Y-93047232D01*
X155230405Y-93260800D01*
X135149412Y-93260800D01*
X135129645Y-93213076D01*
X134739358Y-92784817D01*
X134609522Y-92723843D01*
X134928625Y-92510625D01*
X135256839Y-92019418D01*
X135372092Y-91440000D01*
X135256839Y-90860582D01*
X134928625Y-90369375D01*
X134630239Y-90170000D01*
X134928625Y-89970625D01*
X135256839Y-89479418D01*
X135372092Y-88900000D01*
X135256839Y-88320582D01*
X134928625Y-87829375D01*
X134630239Y-87630000D01*
X134928625Y-87430625D01*
X135256839Y-86939418D01*
X135372092Y-86360000D01*
X135312260Y-86059200D01*
X155230405Y-86059200D01*
X155265692Y-86272768D01*
X155688564Y-86413149D01*
X156132968Y-86381018D01*
X156394308Y-86272768D01*
X156429595Y-86059200D01*
X155830000Y-85459605D01*
X155230405Y-86059200D01*
X135312260Y-86059200D01*
X135256839Y-85780582D01*
X134928625Y-85289375D01*
X134702921Y-85138564D01*
X154696851Y-85138564D01*
X154728982Y-85582968D01*
X154837232Y-85844308D01*
X155050800Y-85879595D01*
X155650395Y-85280000D01*
X156009605Y-85280000D01*
X156609200Y-85879595D01*
X156822768Y-85844308D01*
X156963149Y-85421436D01*
X156931018Y-84977032D01*
X156822768Y-84715692D01*
X156609200Y-84680405D01*
X156009605Y-85280000D01*
X155650395Y-85280000D01*
X155050800Y-84680405D01*
X154837232Y-84715692D01*
X154696851Y-85138564D01*
X134702921Y-85138564D01*
X134630239Y-85090000D01*
X134928625Y-84890625D01*
X135189097Y-84500800D01*
X155230405Y-84500800D01*
X155830000Y-85100395D01*
X156429595Y-84500800D01*
X156394308Y-84287232D01*
X155971436Y-84146851D01*
X155527032Y-84178982D01*
X155265692Y-84287232D01*
X155230405Y-84500800D01*
X135189097Y-84500800D01*
X135256839Y-84399418D01*
X135372092Y-83820000D01*
X135256839Y-83240582D01*
X134930379Y-82752000D01*
X161596000Y-82752000D01*
X161596001Y-120448000D01*
G04 #@! TD*
M02*
