G04 #@! TF.GenerationSoftware,KiCad,Pcbnew,(5.0.1-3-g963ef8bb5)*
G04 #@! TF.CreationDate,2018-11-23T10:32:15+01:00*
G04 #@! TF.ProjectId,DAC_ISL5857,4441435F49534C353835372E6B696361,A*
G04 #@! TF.SameCoordinates,Original*
G04 #@! TF.FileFunction,Legend,Top*
G04 #@! TF.FilePolarity,Positive*
%FSLAX46Y46*%
G04 Gerber Fmt 4.6, Leading zero omitted, Abs format (unit mm)*
G04 Created by KiCad (PCBNEW (5.0.1-3-g963ef8bb5)) date Friday, 23 November 2018 at 10:32:15*
%MOMM*%
%LPD*%
G01*
G04 APERTURE LIST*
%ADD10C,0.150000*%
%ADD11C,0.120000*%
G04 APERTURE END LIST*
D10*
X149373690Y-117486904D02*
X149830833Y-117486904D01*
X149602261Y-118286904D02*
X149602261Y-117486904D01*
X150021309Y-117486904D02*
X150554642Y-118286904D01*
X150554642Y-117486904D02*
X150021309Y-118286904D01*
X150859404Y-118286904D02*
X150859404Y-117486904D01*
X151049880Y-117486904D01*
X151164166Y-117525000D01*
X151240357Y-117601190D01*
X151278452Y-117677380D01*
X151316547Y-117829761D01*
X151316547Y-117944047D01*
X151278452Y-118096428D01*
X151240357Y-118172619D01*
X151164166Y-118248809D01*
X151049880Y-118286904D01*
X150859404Y-118286904D01*
X151621309Y-118058333D02*
X152002261Y-118058333D01*
X151545119Y-118286904D02*
X151811785Y-117486904D01*
X152078452Y-118286904D01*
X152802261Y-118210714D02*
X152764166Y-118248809D01*
X152649880Y-118286904D01*
X152573690Y-118286904D01*
X152459404Y-118248809D01*
X152383214Y-118172619D01*
X152345119Y-118096428D01*
X152307023Y-117944047D01*
X152307023Y-117829761D01*
X152345119Y-117677380D01*
X152383214Y-117601190D01*
X152459404Y-117525000D01*
X152573690Y-117486904D01*
X152649880Y-117486904D01*
X152764166Y-117525000D01*
X152802261Y-117563095D01*
X152954642Y-118363095D02*
X153564166Y-118363095D01*
X154173690Y-118286904D02*
X153716547Y-118286904D01*
X153945119Y-118286904D02*
X153945119Y-117486904D01*
X153868928Y-117601190D01*
X153792738Y-117677380D01*
X153716547Y-117715476D01*
X154478452Y-117563095D02*
X154516547Y-117525000D01*
X154592738Y-117486904D01*
X154783214Y-117486904D01*
X154859404Y-117525000D01*
X154897500Y-117563095D01*
X154935595Y-117639285D01*
X154935595Y-117715476D01*
X154897500Y-117829761D01*
X154440357Y-118286904D01*
X154935595Y-118286904D01*
X156345119Y-118286904D02*
X156078452Y-117905952D01*
X155887976Y-118286904D02*
X155887976Y-117486904D01*
X156192738Y-117486904D01*
X156268928Y-117525000D01*
X156307023Y-117563095D01*
X156345119Y-117639285D01*
X156345119Y-117753571D01*
X156307023Y-117829761D01*
X156268928Y-117867857D01*
X156192738Y-117905952D01*
X155887976Y-117905952D01*
X156992738Y-118248809D02*
X156916547Y-118286904D01*
X156764166Y-118286904D01*
X156687976Y-118248809D01*
X156649880Y-118172619D01*
X156649880Y-117867857D01*
X156687976Y-117791666D01*
X156764166Y-117753571D01*
X156916547Y-117753571D01*
X156992738Y-117791666D01*
X157030833Y-117867857D01*
X157030833Y-117944047D01*
X156649880Y-118020238D01*
X157297500Y-117753571D02*
X157487976Y-118286904D01*
X157678452Y-117753571D01*
X157983214Y-118210714D02*
X158021309Y-118248809D01*
X157983214Y-118286904D01*
X157945119Y-118248809D01*
X157983214Y-118210714D01*
X157983214Y-118286904D01*
X158935595Y-118058333D02*
X159316547Y-118058333D01*
X158859404Y-118286904D02*
X159126071Y-117486904D01*
X159392738Y-118286904D01*
X149487976Y-119636904D02*
X149487976Y-118836904D01*
X149487976Y-119217857D02*
X149945119Y-119217857D01*
X149945119Y-119636904D02*
X149945119Y-118836904D01*
X150592738Y-119217857D02*
X150707023Y-119255952D01*
X150745119Y-119294047D01*
X150783214Y-119370238D01*
X150783214Y-119484523D01*
X150745119Y-119560714D01*
X150707023Y-119598809D01*
X150630833Y-119636904D01*
X150326071Y-119636904D01*
X150326071Y-118836904D01*
X150592738Y-118836904D01*
X150668928Y-118875000D01*
X150707023Y-118913095D01*
X150745119Y-118989285D01*
X150745119Y-119065476D01*
X150707023Y-119141666D01*
X150668928Y-119179761D01*
X150592738Y-119217857D01*
X150326071Y-119217857D01*
X151164166Y-119636904D02*
X151316547Y-119636904D01*
X151392738Y-119598809D01*
X151430833Y-119560714D01*
X151507023Y-119446428D01*
X151545119Y-119294047D01*
X151545119Y-118989285D01*
X151507023Y-118913095D01*
X151468928Y-118875000D01*
X151392738Y-118836904D01*
X151240357Y-118836904D01*
X151164166Y-118875000D01*
X151126071Y-118913095D01*
X151087976Y-118989285D01*
X151087976Y-119179761D01*
X151126071Y-119255952D01*
X151164166Y-119294047D01*
X151240357Y-119332142D01*
X151392738Y-119332142D01*
X151468928Y-119294047D01*
X151507023Y-119255952D01*
X151545119Y-119179761D01*
X152307023Y-118875000D02*
X152230833Y-118836904D01*
X152116547Y-118836904D01*
X152002261Y-118875000D01*
X151926071Y-118951190D01*
X151887976Y-119027380D01*
X151849880Y-119179761D01*
X151849880Y-119294047D01*
X151887976Y-119446428D01*
X151926071Y-119522619D01*
X152002261Y-119598809D01*
X152116547Y-119636904D01*
X152192738Y-119636904D01*
X152307023Y-119598809D01*
X152345119Y-119560714D01*
X152345119Y-119294047D01*
X152192738Y-119294047D01*
X152687976Y-119636904D02*
X152687976Y-118836904D01*
X152992738Y-118836904D01*
X153068928Y-118875000D01*
X153107023Y-118913095D01*
X153145119Y-118989285D01*
X153145119Y-119103571D01*
X153107023Y-119179761D01*
X153068928Y-119217857D01*
X152992738Y-119255952D01*
X152687976Y-119255952D01*
X153945119Y-119560714D02*
X153907023Y-119598809D01*
X153792738Y-119636904D01*
X153716547Y-119636904D01*
X153602261Y-119598809D01*
X153526071Y-119522619D01*
X153487976Y-119446428D01*
X153449880Y-119294047D01*
X153449880Y-119179761D01*
X153487976Y-119027380D01*
X153526071Y-118951190D01*
X153602261Y-118875000D01*
X153716547Y-118836904D01*
X153792738Y-118836904D01*
X153907023Y-118875000D01*
X153945119Y-118913095D01*
X136160000Y-117064285D02*
X136410000Y-117814285D01*
X136660000Y-117064285D01*
X136910000Y-117814285D02*
X136910000Y-117064285D01*
X137088571Y-117064285D01*
X137195714Y-117100000D01*
X137267142Y-117171428D01*
X137302857Y-117242857D01*
X137338571Y-117385714D01*
X137338571Y-117492857D01*
X137302857Y-117635714D01*
X137267142Y-117707142D01*
X137195714Y-117778571D01*
X137088571Y-117814285D01*
X136910000Y-117814285D01*
X137660000Y-117814285D02*
X137660000Y-117064285D01*
X137838571Y-117064285D01*
X137945714Y-117100000D01*
X138017142Y-117171428D01*
X138052857Y-117242857D01*
X138088571Y-117385714D01*
X138088571Y-117492857D01*
X138052857Y-117635714D01*
X138017142Y-117707142D01*
X137945714Y-117778571D01*
X137838571Y-117814285D01*
X137660000Y-117814285D01*
X138735714Y-117528571D02*
X139307142Y-117528571D01*
X139021428Y-117814285D02*
X139021428Y-117242857D01*
X140021428Y-117064285D02*
X139664285Y-117064285D01*
X139628571Y-117421428D01*
X139664285Y-117385714D01*
X139735714Y-117350000D01*
X139914285Y-117350000D01*
X139985714Y-117385714D01*
X140021428Y-117421428D01*
X140057142Y-117492857D01*
X140057142Y-117671428D01*
X140021428Y-117742857D01*
X139985714Y-117778571D01*
X139914285Y-117814285D01*
X139735714Y-117814285D01*
X139664285Y-117778571D01*
X139628571Y-117742857D01*
X140271428Y-117064285D02*
X140521428Y-117814285D01*
X140771428Y-117064285D01*
X141795571Y-117100000D02*
X141724142Y-117064285D01*
X141617000Y-117064285D01*
X141509857Y-117100000D01*
X141438428Y-117171428D01*
X141402714Y-117242857D01*
X141367000Y-117385714D01*
X141367000Y-117492857D01*
X141402714Y-117635714D01*
X141438428Y-117707142D01*
X141509857Y-117778571D01*
X141617000Y-117814285D01*
X141688428Y-117814285D01*
X141795571Y-117778571D01*
X141831285Y-117742857D01*
X141831285Y-117492857D01*
X141688428Y-117492857D01*
X142152714Y-117814285D02*
X142152714Y-117064285D01*
X142581285Y-117814285D01*
X142581285Y-117064285D01*
X142938428Y-117814285D02*
X142938428Y-117064285D01*
X143117000Y-117064285D01*
X143224142Y-117100000D01*
X143295571Y-117171428D01*
X143331285Y-117242857D01*
X143367000Y-117385714D01*
X143367000Y-117492857D01*
X143331285Y-117635714D01*
X143295571Y-117707142D01*
X143224142Y-117778571D01*
X143117000Y-117814285D01*
X142938428Y-117814285D01*
D11*
G04 #@! TO.C,C1*
X137488748Y-116510000D02*
X138011252Y-116510000D01*
X137488748Y-115090000D02*
X138011252Y-115090000D01*
G04 #@! TO.C,C2*
X137488748Y-112790000D02*
X138011252Y-112790000D01*
X137488748Y-114210000D02*
X138011252Y-114210000D01*
G04 #@! TO.C,U1*
X146160000Y-116910000D02*
X146160000Y-115650000D01*
X146160000Y-110090000D02*
X146160000Y-111350000D01*
X142400000Y-116910000D02*
X146160000Y-116910000D01*
X140150000Y-110090000D02*
X146160000Y-110090000D01*
G04 #@! TO.C,J3*
X143697000Y-120710000D02*
X143697000Y-118050000D01*
X138557000Y-120710000D02*
X143697000Y-120710000D01*
X138557000Y-118050000D02*
X143697000Y-118050000D01*
X138557000Y-120710000D02*
X138557000Y-118050000D01*
X137287000Y-120710000D02*
X135957000Y-120710000D01*
X135957000Y-120710000D02*
X135957000Y-119380000D01*
G04 #@! TO.C,C3*
X145578733Y-83090000D02*
X145921267Y-83090000D01*
X145578733Y-84110000D02*
X145921267Y-84110000D01*
G04 #@! TO.C,R30*
X152821267Y-108714000D02*
X152478733Y-108714000D01*
X152821267Y-107694000D02*
X152478733Y-107694000D01*
G04 #@! TO.C,C7*
X157605000Y-100171267D02*
X157605000Y-99828733D01*
X158625000Y-100171267D02*
X158625000Y-99828733D01*
G04 #@! TO.C,C8*
X152010000Y-105421267D02*
X152010000Y-105078733D01*
X150990000Y-105421267D02*
X150990000Y-105078733D01*
G04 #@! TO.C,C6*
X157960000Y-114546267D02*
X157960000Y-114203733D01*
X156940000Y-114546267D02*
X156940000Y-114203733D01*
G04 #@! TO.C,C5*
X155540000Y-114546267D02*
X155540000Y-114203733D01*
X156560000Y-114546267D02*
X156560000Y-114203733D01*
G04 #@! TO.C,C4*
X151160000Y-114546267D02*
X151160000Y-114203733D01*
X150140000Y-114546267D02*
X150140000Y-114203733D01*
G04 #@! TO.C,X2*
X155050000Y-89410000D02*
X155550000Y-89660000D01*
X155050000Y-89910000D02*
X155050000Y-89410000D01*
X155550000Y-89660000D02*
X155050000Y-89910000D01*
G04 #@! TO.C,J2*
X129988000Y-82490000D02*
X131318000Y-82490000D01*
X129988000Y-83820000D02*
X129988000Y-82490000D01*
X132588000Y-82490000D02*
X135188000Y-82490000D01*
X132588000Y-85090000D02*
X132588000Y-82490000D01*
X129988000Y-85090000D02*
X132588000Y-85090000D01*
X135188000Y-82490000D02*
X135188000Y-97850000D01*
X129988000Y-85090000D02*
X129988000Y-97850000D01*
X129988000Y-97850000D02*
X135188000Y-97850000D01*
G04 #@! TO.C,J1*
X129988000Y-120710000D02*
X135188000Y-120710000D01*
X129988000Y-107950000D02*
X129988000Y-120710000D01*
X135188000Y-105350000D02*
X135188000Y-120710000D01*
X129988000Y-107950000D02*
X132588000Y-107950000D01*
X132588000Y-107950000D02*
X132588000Y-105350000D01*
X132588000Y-105350000D02*
X135188000Y-105350000D01*
X129988000Y-106680000D02*
X129988000Y-105350000D01*
X129988000Y-105350000D02*
X131318000Y-105350000D01*
G04 #@! TO.C,L1*
X153321267Y-112990000D02*
X152978733Y-112990000D01*
X153321267Y-114010000D02*
X152978733Y-114010000D01*
D10*
G04 #@! TO.C,U2*
X143675000Y-95105000D02*
X143675000Y-95330000D01*
X148325000Y-95105000D02*
X148325000Y-95430000D01*
X148325000Y-105055000D02*
X148325000Y-104730000D01*
X143675000Y-105055000D02*
X143675000Y-104730000D01*
X143675000Y-95105000D02*
X148325000Y-95105000D01*
X143675000Y-105055000D02*
X148325000Y-105055000D01*
X143675000Y-95330000D02*
X142600000Y-95330000D01*
D11*
G04 #@! TO.C,R33*
X153015000Y-105421267D02*
X153015000Y-105078733D01*
X154035000Y-105421267D02*
X154035000Y-105078733D01*
G04 #@! TO.C,R32*
X152478733Y-98510000D02*
X152821267Y-98510000D01*
X152478733Y-97490000D02*
X152821267Y-97490000D01*
G04 #@! TO.C,R31*
X152821267Y-102865000D02*
X152478733Y-102865000D01*
X152821267Y-101845000D02*
X152478733Y-101845000D01*
G04 #@! TO.C,X1*
X148650000Y-89000000D02*
X148650000Y-85000000D01*
X148650000Y-85000000D02*
X142850000Y-85000000D01*
G04 #@! TO.C,C2*
D10*
X137583333Y-112207142D02*
X137535714Y-112254761D01*
X137392857Y-112302380D01*
X137297619Y-112302380D01*
X137154761Y-112254761D01*
X137059523Y-112159523D01*
X137011904Y-112064285D01*
X136964285Y-111873809D01*
X136964285Y-111730952D01*
X137011904Y-111540476D01*
X137059523Y-111445238D01*
X137154761Y-111350000D01*
X137297619Y-111302380D01*
X137392857Y-111302380D01*
X137535714Y-111350000D01*
X137583333Y-111397619D01*
X137964285Y-111397619D02*
X138011904Y-111350000D01*
X138107142Y-111302380D01*
X138345238Y-111302380D01*
X138440476Y-111350000D01*
X138488095Y-111397619D01*
X138535714Y-111492857D01*
X138535714Y-111588095D01*
X138488095Y-111730952D01*
X137916666Y-112302380D01*
X138535714Y-112302380D01*
G04 #@! TO.C,U1*
X143488095Y-108452380D02*
X143488095Y-109261904D01*
X143535714Y-109357142D01*
X143583333Y-109404761D01*
X143678571Y-109452380D01*
X143869047Y-109452380D01*
X143964285Y-109404761D01*
X144011904Y-109357142D01*
X144059523Y-109261904D01*
X144059523Y-108452380D01*
X145059523Y-109452380D02*
X144488095Y-109452380D01*
X144773809Y-109452380D02*
X144773809Y-108452380D01*
X144678571Y-108595238D01*
X144583333Y-108690476D01*
X144488095Y-108738095D01*
G04 #@! TO.C,J3*
X144566666Y-118852380D02*
X144566666Y-119566666D01*
X144519047Y-119709523D01*
X144423809Y-119804761D01*
X144280952Y-119852380D01*
X144185714Y-119852380D01*
X144947619Y-118852380D02*
X145566666Y-118852380D01*
X145233333Y-119233333D01*
X145376190Y-119233333D01*
X145471428Y-119280952D01*
X145519047Y-119328571D01*
X145566666Y-119423809D01*
X145566666Y-119661904D01*
X145519047Y-119757142D01*
X145471428Y-119804761D01*
X145376190Y-119852380D01*
X145090476Y-119852380D01*
X144995238Y-119804761D01*
X144947619Y-119757142D01*
G04 #@! TO.C,C3*
X142833333Y-83957142D02*
X142785714Y-84004761D01*
X142642857Y-84052380D01*
X142547619Y-84052380D01*
X142404761Y-84004761D01*
X142309523Y-83909523D01*
X142261904Y-83814285D01*
X142214285Y-83623809D01*
X142214285Y-83480952D01*
X142261904Y-83290476D01*
X142309523Y-83195238D01*
X142404761Y-83100000D01*
X142547619Y-83052380D01*
X142642857Y-83052380D01*
X142785714Y-83100000D01*
X142833333Y-83147619D01*
X143166666Y-83052380D02*
X143785714Y-83052380D01*
X143452380Y-83433333D01*
X143595238Y-83433333D01*
X143690476Y-83480952D01*
X143738095Y-83528571D01*
X143785714Y-83623809D01*
X143785714Y-83861904D01*
X143738095Y-83957142D01*
X143690476Y-84004761D01*
X143595238Y-84052380D01*
X143309523Y-84052380D01*
X143214285Y-84004761D01*
X143166666Y-83957142D01*
G04 #@! TO.C,R30*
X155186142Y-108656380D02*
X154852809Y-108180190D01*
X154614714Y-108656380D02*
X154614714Y-107656380D01*
X154995666Y-107656380D01*
X155090904Y-107704000D01*
X155138523Y-107751619D01*
X155186142Y-107846857D01*
X155186142Y-107989714D01*
X155138523Y-108084952D01*
X155090904Y-108132571D01*
X154995666Y-108180190D01*
X154614714Y-108180190D01*
X155519476Y-107656380D02*
X156138523Y-107656380D01*
X155805190Y-108037333D01*
X155948047Y-108037333D01*
X156043285Y-108084952D01*
X156090904Y-108132571D01*
X156138523Y-108227809D01*
X156138523Y-108465904D01*
X156090904Y-108561142D01*
X156043285Y-108608761D01*
X155948047Y-108656380D01*
X155662333Y-108656380D01*
X155567095Y-108608761D01*
X155519476Y-108561142D01*
X156757571Y-107656380D02*
X156852809Y-107656380D01*
X156948047Y-107704000D01*
X156995666Y-107751619D01*
X157043285Y-107846857D01*
X157090904Y-108037333D01*
X157090904Y-108275428D01*
X157043285Y-108465904D01*
X156995666Y-108561142D01*
X156948047Y-108608761D01*
X156852809Y-108656380D01*
X156757571Y-108656380D01*
X156662333Y-108608761D01*
X156614714Y-108561142D01*
X156567095Y-108465904D01*
X156519476Y-108275428D01*
X156519476Y-108037333D01*
X156567095Y-107846857D01*
X156614714Y-107751619D01*
X156662333Y-107704000D01*
X156757571Y-107656380D01*
G04 #@! TO.C,C7*
X159599333Y-100306142D02*
X159551714Y-100353761D01*
X159408857Y-100401380D01*
X159313619Y-100401380D01*
X159170761Y-100353761D01*
X159075523Y-100258523D01*
X159027904Y-100163285D01*
X158980285Y-99972809D01*
X158980285Y-99829952D01*
X159027904Y-99639476D01*
X159075523Y-99544238D01*
X159170761Y-99449000D01*
X159313619Y-99401380D01*
X159408857Y-99401380D01*
X159551714Y-99449000D01*
X159599333Y-99496619D01*
X159932666Y-99401380D02*
X160599333Y-99401380D01*
X160170761Y-100401380D01*
G04 #@! TO.C,C8*
X150471142Y-105576666D02*
X150518761Y-105624285D01*
X150566380Y-105767142D01*
X150566380Y-105862380D01*
X150518761Y-106005238D01*
X150423523Y-106100476D01*
X150328285Y-106148095D01*
X150137809Y-106195714D01*
X149994952Y-106195714D01*
X149804476Y-106148095D01*
X149709238Y-106100476D01*
X149614000Y-106005238D01*
X149566380Y-105862380D01*
X149566380Y-105767142D01*
X149614000Y-105624285D01*
X149661619Y-105576666D01*
X149994952Y-105005238D02*
X149947333Y-105100476D01*
X149899714Y-105148095D01*
X149804476Y-105195714D01*
X149756857Y-105195714D01*
X149661619Y-105148095D01*
X149614000Y-105100476D01*
X149566380Y-105005238D01*
X149566380Y-104814761D01*
X149614000Y-104719523D01*
X149661619Y-104671904D01*
X149756857Y-104624285D01*
X149804476Y-104624285D01*
X149899714Y-104671904D01*
X149947333Y-104719523D01*
X149994952Y-104814761D01*
X149994952Y-105005238D01*
X150042571Y-105100476D01*
X150090190Y-105148095D01*
X150185428Y-105195714D01*
X150375904Y-105195714D01*
X150471142Y-105148095D01*
X150518761Y-105100476D01*
X150566380Y-105005238D01*
X150566380Y-104814761D01*
X150518761Y-104719523D01*
X150471142Y-104671904D01*
X150375904Y-104624285D01*
X150185428Y-104624285D01*
X150090190Y-104671904D01*
X150042571Y-104719523D01*
X149994952Y-104814761D01*
G04 #@! TO.C,C6*
X157857142Y-111866666D02*
X157904761Y-111914285D01*
X157952380Y-112057142D01*
X157952380Y-112152380D01*
X157904761Y-112295238D01*
X157809523Y-112390476D01*
X157714285Y-112438095D01*
X157523809Y-112485714D01*
X157380952Y-112485714D01*
X157190476Y-112438095D01*
X157095238Y-112390476D01*
X157000000Y-112295238D01*
X156952380Y-112152380D01*
X156952380Y-112057142D01*
X157000000Y-111914285D01*
X157047619Y-111866666D01*
X156952380Y-111009523D02*
X156952380Y-111200000D01*
X157000000Y-111295238D01*
X157047619Y-111342857D01*
X157190476Y-111438095D01*
X157380952Y-111485714D01*
X157761904Y-111485714D01*
X157857142Y-111438095D01*
X157904761Y-111390476D01*
X157952380Y-111295238D01*
X157952380Y-111104761D01*
X157904761Y-111009523D01*
X157857142Y-110961904D01*
X157761904Y-110914285D01*
X157523809Y-110914285D01*
X157428571Y-110961904D01*
X157380952Y-111009523D01*
X157333333Y-111104761D01*
X157333333Y-111295238D01*
X157380952Y-111390476D01*
X157428571Y-111438095D01*
X157523809Y-111485714D01*
G04 #@! TO.C,C5*
X156457142Y-111891666D02*
X156504761Y-111939285D01*
X156552380Y-112082142D01*
X156552380Y-112177380D01*
X156504761Y-112320238D01*
X156409523Y-112415476D01*
X156314285Y-112463095D01*
X156123809Y-112510714D01*
X155980952Y-112510714D01*
X155790476Y-112463095D01*
X155695238Y-112415476D01*
X155600000Y-112320238D01*
X155552380Y-112177380D01*
X155552380Y-112082142D01*
X155600000Y-111939285D01*
X155647619Y-111891666D01*
X155552380Y-110986904D02*
X155552380Y-111463095D01*
X156028571Y-111510714D01*
X155980952Y-111463095D01*
X155933333Y-111367857D01*
X155933333Y-111129761D01*
X155980952Y-111034523D01*
X156028571Y-110986904D01*
X156123809Y-110939285D01*
X156361904Y-110939285D01*
X156457142Y-110986904D01*
X156504761Y-111034523D01*
X156552380Y-111129761D01*
X156552380Y-111367857D01*
X156504761Y-111463095D01*
X156457142Y-111510714D01*
G04 #@! TO.C,C4*
X151057142Y-111891666D02*
X151104761Y-111939285D01*
X151152380Y-112082142D01*
X151152380Y-112177380D01*
X151104761Y-112320238D01*
X151009523Y-112415476D01*
X150914285Y-112463095D01*
X150723809Y-112510714D01*
X150580952Y-112510714D01*
X150390476Y-112463095D01*
X150295238Y-112415476D01*
X150200000Y-112320238D01*
X150152380Y-112177380D01*
X150152380Y-112082142D01*
X150200000Y-111939285D01*
X150247619Y-111891666D01*
X150485714Y-111034523D02*
X151152380Y-111034523D01*
X150104761Y-111272619D02*
X150819047Y-111510714D01*
X150819047Y-110891666D01*
G04 #@! TO.C,X2*
X154257476Y-86955380D02*
X154924142Y-87955380D01*
X154924142Y-86955380D02*
X154257476Y-87955380D01*
X155257476Y-87050619D02*
X155305095Y-87003000D01*
X155400333Y-86955380D01*
X155638428Y-86955380D01*
X155733666Y-87003000D01*
X155781285Y-87050619D01*
X155828904Y-87145857D01*
X155828904Y-87241095D01*
X155781285Y-87383952D01*
X155209857Y-87955380D01*
X155828904Y-87955380D01*
G04 #@! TO.C,J2*
X132254666Y-98258380D02*
X132254666Y-98972666D01*
X132207047Y-99115523D01*
X132111809Y-99210761D01*
X131968952Y-99258380D01*
X131873714Y-99258380D01*
X132683238Y-98353619D02*
X132730857Y-98306000D01*
X132826095Y-98258380D01*
X133064190Y-98258380D01*
X133159428Y-98306000D01*
X133207047Y-98353619D01*
X133254666Y-98448857D01*
X133254666Y-98544095D01*
X133207047Y-98686952D01*
X132635619Y-99258380D01*
X133254666Y-99258380D01*
G04 #@! TO.C,J1*
X132254666Y-103802380D02*
X132254666Y-104516666D01*
X132207047Y-104659523D01*
X132111809Y-104754761D01*
X131968952Y-104802380D01*
X131873714Y-104802380D01*
X133254666Y-104802380D02*
X132683238Y-104802380D01*
X132968952Y-104802380D02*
X132968952Y-103802380D01*
X132873714Y-103945238D01*
X132778476Y-104040476D01*
X132683238Y-104088095D01*
G04 #@! TO.C,L1*
X153035333Y-115513180D02*
X152559142Y-115513180D01*
X152559142Y-114513180D01*
X153892476Y-115513180D02*
X153321047Y-115513180D01*
X153606761Y-115513180D02*
X153606761Y-114513180D01*
X153511523Y-114656038D01*
X153416285Y-114751276D01*
X153321047Y-114798895D01*
G04 #@! TO.C,U2*
X145238095Y-93632380D02*
X145238095Y-94441904D01*
X145285714Y-94537142D01*
X145333333Y-94584761D01*
X145428571Y-94632380D01*
X145619047Y-94632380D01*
X145714285Y-94584761D01*
X145761904Y-94537142D01*
X145809523Y-94441904D01*
X145809523Y-93632380D01*
X146238095Y-93727619D02*
X146285714Y-93680000D01*
X146380952Y-93632380D01*
X146619047Y-93632380D01*
X146714285Y-93680000D01*
X146761904Y-93727619D01*
X146809523Y-93822857D01*
X146809523Y-93918095D01*
X146761904Y-94060952D01*
X146190476Y-94632380D01*
X146809523Y-94632380D01*
G04 #@! TO.C,R33*
X155519380Y-105798857D02*
X155043190Y-106132190D01*
X155519380Y-106370285D02*
X154519380Y-106370285D01*
X154519380Y-105989333D01*
X154567000Y-105894095D01*
X154614619Y-105846476D01*
X154709857Y-105798857D01*
X154852714Y-105798857D01*
X154947952Y-105846476D01*
X154995571Y-105894095D01*
X155043190Y-105989333D01*
X155043190Y-106370285D01*
X154519380Y-105465523D02*
X154519380Y-104846476D01*
X154900333Y-105179809D01*
X154900333Y-105036952D01*
X154947952Y-104941714D01*
X154995571Y-104894095D01*
X155090809Y-104846476D01*
X155328904Y-104846476D01*
X155424142Y-104894095D01*
X155471761Y-104941714D01*
X155519380Y-105036952D01*
X155519380Y-105322666D01*
X155471761Y-105417904D01*
X155424142Y-105465523D01*
X154519380Y-104513142D02*
X154519380Y-103894095D01*
X154900333Y-104227428D01*
X154900333Y-104084571D01*
X154947952Y-103989333D01*
X154995571Y-103941714D01*
X155090809Y-103894095D01*
X155328904Y-103894095D01*
X155424142Y-103941714D01*
X155471761Y-103989333D01*
X155519380Y-104084571D01*
X155519380Y-104370285D01*
X155471761Y-104465523D01*
X155424142Y-104513142D01*
G04 #@! TO.C,R32*
X154861142Y-98452380D02*
X154527809Y-97976190D01*
X154289714Y-98452380D02*
X154289714Y-97452380D01*
X154670666Y-97452380D01*
X154765904Y-97500000D01*
X154813523Y-97547619D01*
X154861142Y-97642857D01*
X154861142Y-97785714D01*
X154813523Y-97880952D01*
X154765904Y-97928571D01*
X154670666Y-97976190D01*
X154289714Y-97976190D01*
X155194476Y-97452380D02*
X155813523Y-97452380D01*
X155480190Y-97833333D01*
X155623047Y-97833333D01*
X155718285Y-97880952D01*
X155765904Y-97928571D01*
X155813523Y-98023809D01*
X155813523Y-98261904D01*
X155765904Y-98357142D01*
X155718285Y-98404761D01*
X155623047Y-98452380D01*
X155337333Y-98452380D01*
X155242095Y-98404761D01*
X155194476Y-98357142D01*
X156194476Y-97547619D02*
X156242095Y-97500000D01*
X156337333Y-97452380D01*
X156575428Y-97452380D01*
X156670666Y-97500000D01*
X156718285Y-97547619D01*
X156765904Y-97642857D01*
X156765904Y-97738095D01*
X156718285Y-97880952D01*
X156146857Y-98452380D01*
X156765904Y-98452380D01*
G04 #@! TO.C,R31*
X155186142Y-102814380D02*
X154852809Y-102338190D01*
X154614714Y-102814380D02*
X154614714Y-101814380D01*
X154995666Y-101814380D01*
X155090904Y-101862000D01*
X155138523Y-101909619D01*
X155186142Y-102004857D01*
X155186142Y-102147714D01*
X155138523Y-102242952D01*
X155090904Y-102290571D01*
X154995666Y-102338190D01*
X154614714Y-102338190D01*
X155519476Y-101814380D02*
X156138523Y-101814380D01*
X155805190Y-102195333D01*
X155948047Y-102195333D01*
X156043285Y-102242952D01*
X156090904Y-102290571D01*
X156138523Y-102385809D01*
X156138523Y-102623904D01*
X156090904Y-102719142D01*
X156043285Y-102766761D01*
X155948047Y-102814380D01*
X155662333Y-102814380D01*
X155567095Y-102766761D01*
X155519476Y-102719142D01*
X157090904Y-102814380D02*
X156519476Y-102814380D01*
X156805190Y-102814380D02*
X156805190Y-101814380D01*
X156709952Y-101957238D01*
X156614714Y-102052476D01*
X156519476Y-102100095D01*
G04 #@! TO.C,T1*
X148844095Y-92416380D02*
X149415523Y-92416380D01*
X149129809Y-93416380D02*
X149129809Y-92416380D01*
X150272666Y-93416380D02*
X149701238Y-93416380D01*
X149986952Y-93416380D02*
X149986952Y-92416380D01*
X149891714Y-92559238D01*
X149796476Y-92654476D01*
X149701238Y-92702095D01*
G04 #@! TO.C,X1*
X149190476Y-85052380D02*
X149857142Y-86052380D01*
X149857142Y-85052380D02*
X149190476Y-86052380D01*
X150761904Y-86052380D02*
X150190476Y-86052380D01*
X150476190Y-86052380D02*
X150476190Y-85052380D01*
X150380952Y-85195238D01*
X150285714Y-85290476D01*
X150190476Y-85338095D01*
G04 #@! TD*
M02*
