M48
;DRILL file {KiCad (5.0.1-3-g963ef8bb5)} date Wednesday, 21 November 2018 at 19:49:03
;FORMAT={-:-/ absolute / metric / decimal}
FMAT,2
METRIC,TZ
T1C0.254
T2C0.460
T3C1.000
%
G90
G05
M71
T1
X136.271Y-111.76
X136.906Y-113.919
X136.906Y-115.062
X136.906Y-116.332
X137.25Y-86.25
X137.25Y-88.25
X137.25Y-90.25
X137.25Y-92.25
X137.25Y-94.25
X137.25Y-96.25
X137.25Y-98.25
X137.25Y-100.25
X137.25Y-102.25
X137.25Y-104.25
X137.25Y-106.25
X137.25Y-108.25
X137.25Y-111.25
X140.9Y-110.25
X141.6Y-107.526
X141.6Y-109.296
X141.605Y-110.998
X142.875Y-112.268
X142.922Y-106.3
X147.193Y-118.427
X148.844Y-105.283
X149.086Y-106.405
X149.987Y-98.453
X149.987Y-96.505
X150.3Y-107.525
X150.3Y-109.295
X150.937Y-99.105
X153.112Y-114.187
X156.845Y-99.105
T2
X155.83Y-85.28
X155.83Y-94.04
T3
X137.287Y-119.38
X139.827Y-119.38
X142.367Y-119.38
X131.318Y-106.68
X131.318Y-109.22
X131.318Y-111.76
X131.318Y-114.3
X131.318Y-116.84
X131.318Y-119.38
X133.858Y-106.68
X133.858Y-109.22
X133.858Y-111.76
X133.858Y-114.3
X133.858Y-116.84
X133.858Y-119.38
X131.318Y-83.82
X131.318Y-86.36
X131.318Y-88.9
X131.318Y-91.44
X131.318Y-93.98
X131.318Y-96.52
X133.858Y-83.82
X133.858Y-86.36
X133.858Y-88.9
X133.858Y-91.44
X133.858Y-93.98
X133.858Y-96.52
T0
M30
